<?xml version="1.0" encoding="UTF-8" standalone="no"?>
<!-- Created with Inkscape (http://www.inkscape.org/) -->

<svg
   width="1145.2242"
   height="854.26752"
   viewBox="0 0 1073.6478 800.87581"
   id="svg2"
   version="1.1"
   inkscape:version="1.1 (c68e22c387, 2021-05-23)"
   sodipodi:docname="aluminumBlock.svg"
   inkscape:export-filename="C:\Users\annarose\school\drawings\aluminumBlock.png"
   inkscape:export-xdpi="90"
   inkscape:export-ydpi="90"
   xmlns:inkscape="http://www.inkscape.org/namespaces/inkscape"
   xmlns:sodipodi="http://sodipodi.sourceforge.net/DTD/sodipodi-0.dtd"
   xmlns="http://www.w3.org/2000/svg"
   xmlns:svg="http://www.w3.org/2000/svg"
   xmlns:rdf="http://www.w3.org/1999/02/22-rdf-syntax-ns#"
   xmlns:cc="http://creativecommons.org/ns#"
   xmlns:dc="http://purl.org/dc/elements/1.1/">
  <defs
     id="defs4" />
  <sodipodi:namedview
     id="base"
     pagecolor="#ffffff"
     bordercolor="#666666"
     borderopacity="1.0"
     inkscape:pageopacity="0.0"
     inkscape:pageshadow="2"
     inkscape:zoom="0.82691229"
     inkscape:cx="572.61212"
     inkscape:cy="426.88929"
     inkscape:document-units="px"
     inkscape:current-layer="layer1"
     showgrid="true"
     inkscape:snap-page="true"
     showborder="true"
     inkscape:snap-grids="true"
     inkscape:snap-global="true"
     inkscape:window-width="1160"
     inkscape:window-height="942"
     inkscape:window-x="955"
     inkscape:window-y="370"
     inkscape:window-maximized="0"
     fit-margin-top="50"
     fit-margin-left="50"
     fit-margin-right="50"
     fit-margin-bottom="50"
     inkscape:pagecheckerboard="0"
     units="px" />
  <metadata
     id="metadata7">
    <rdf:RDF>
      <cc:Work
         rdf:about="">
        <dc:format>image/svg+xml</dc:format>
        <dc:type
           rdf:resource="http://purl.org/dc/dcmitype/StillImage" />
      </cc:Work>
    </rdf:RDF>
  </metadata>
  <g
     inkscape:label="Layer 1"
     inkscape:groupmode="layer"
     id="layer1"
     transform="translate(21.795627,-150.48722)">
    <path
       style="color:#000000;fill:#b3b3b3;fill-rule:evenodd;-inkscape-stroke:none"
       d="m 279.14648,550.92578 v 2.61914 91.00977 h 476.65625 v -93.62891 z m 5.23829,5.23828 h 466.17968 v 83.15235 H 284.38477 Z"
       id="path19886" />
    <path
       style="color:#000000;fill:#b3b3b3;fill-rule:evenodd;-inkscape-stroke:none"
       d="m 279.14648,666.16016 v 2.61914 179.40039 H 755.80273 V 666.16016 Z m 5.23829,5.23828 H 750.56445 V 842.94141 H 284.38477 Z"
       id="path19888" />
    <path
       style="color:#000000;fill:#b3b3b3;fill-rule:evenodd;-inkscape-stroke:none"
       d="m 279.14648,253.66992 v 182.01953 h 2.61914 474.03711 V 253.66992 Z m 5.23829,5.23828 H 750.56445 V 430.45312 H 284.38477 Z"
       id="path19890" />
    <path
       style="color:#000000;fill:#b3b3b3;-inkscape-stroke:none"
       d="m 399.62109,312.59766 c -17.68853,-6.4e-4 -32.08461,14.39545 -32.08398,32.08398 0.001,17.68699 14.39675,32.08071 32.08398,32.08008 17.68661,-2.7e-4 32.08069,-14.39372 32.08203,-32.08008 6.4e-4,-17.6879 -14.39413,-32.08372 -32.08203,-32.08398 z m 0,5.23828 c 14.85706,2.2e-4 26.84428,11.98669 26.84375,26.84375 -2.2e-4,14.85651 -11.98723,26.84548 -26.84375,26.8457 -14.85705,5.3e-4 -26.84547,-11.98865 -26.8457,-26.8457 -5.3e-4,-14.8576 11.98811,-26.84428 26.8457,-26.84375 z"
       id="path19892" />
    <path
       style="color:#000000;fill:#b3b3b3;-inkscape-stroke:none"
       d="m 635.32812,312.59766 c -17.68789,2.6e-4 -32.08266,14.39608 -32.08203,32.08398 0.001,17.68636 14.39543,32.07981 32.08203,32.08008 17.68724,6.2e-4 32.08264,-14.39309 32.08399,-32.08008 6.3e-4,-17.68853 -14.39546,-32.08461 -32.08399,-32.08398 z m 0,5.23828 c 14.85759,-5.3e-4 26.84624,11.98616 26.84571,26.84375 -2.3e-4,14.85705 -11.98865,26.84623 -26.84571,26.8457 -14.85651,-2.2e-4 -26.84352,-11.98919 -26.84375,-26.8457 -5.3e-4,-14.85706 11.9867,-26.84353 26.84375,-26.84375 z"
       id="path19894" />
    <path
       style="color:#000000;fill:#b3b3b3;fill-rule:evenodd;-inkscape-stroke:none"
       d="m 193.375,343.37109 v 2.61914 h 29.46484 v -2.61914 z"
       id="path19896" />
    <path
       style="color:#000000;fill:#b3b3b3;fill-rule:evenodd;-inkscape-stroke:none"
       d="m 252.30273,343.37109 v 2.61914 h 58.92774 v -2.61914 z"
       id="path19898" />
    <path
       style="color:#000000;fill:#b3b3b3;fill-rule:evenodd;-inkscape-stroke:none"
       d="m 340.69336,343.37109 v 2.61914 h 29.46289 v -2.61914 z"
       id="path19900" />
    <path
       style="color:#000000;fill:#b3b3b3;fill-rule:evenodd;-inkscape-stroke:none"
       d="m 429.08398,343.37109 v 2.61914 h 29.46289 v -2.61914 z"
       id="path19902" />
    <path
       style="color:#000000;fill:#b3b3b3;fill-rule:evenodd;-inkscape-stroke:none"
       d="m 488.01172,343.37109 v 2.61914 h 58.92578 v -2.61914 z"
       id="path19904" />
    <path
       style="color:#000000;fill:#b3b3b3;fill-rule:evenodd;-inkscape-stroke:none"
       d="m 576.40234,343.37109 v 2.61914 h 29.46289 v -2.61914 z"
       id="path19906" />
    <path
       style="color:#000000;fill:#b3b3b3;fill-rule:evenodd;-inkscape-stroke:none"
       d="m 664.79297,343.37109 v 2.61914 h 29.46289 v -2.61914 z"
       id="path19908" />
    <path
       style="color:#000000;fill:#b3b3b3;fill-rule:evenodd;-inkscape-stroke:none"
       d="m 723.71875,343.37109 v 2.61914 h 28.70898 v -2.61914 z"
       id="path19910" />
    <path
       style="color:#000000;fill:#b3b3b3;fill-rule:evenodd;-inkscape-stroke:none"
       d="m 368.8457,365.63281 v 174.81641 h 2.61914 V 365.63281 Z"
       id="path19912" />
    <path
       style="color:#000000;fill:#b3b3b3;fill-rule:evenodd;-inkscape-stroke:none"
       d="m 427.77344,365.63281 v 174.81641 h 2.61914 V 365.63281 Z"
       id="path19914" />
    <path
       style="color:#000000;fill:#b3b3b3;fill-rule:evenodd;-inkscape-stroke:none"
       d="m 604.55469,365.63281 v 174.81641 h 2.61914 V 365.63281 Z"
       id="path19916" />
    <path
       style="color:#000000;fill:#b3b3b3;fill-rule:evenodd;-inkscape-stroke:none"
       d="m 663.48242,365.63281 v 174.81641 h 2.61914 V 365.63281 Z"
       id="path19918" />
    <path
       style="color:#000000;fill:#b3b3b3;fill-rule:evenodd;-inkscape-stroke:none"
       d="m 280.45508,443.54687 v 96.90235 h 2.61914 v -96.90235 z"
       id="path19920" />
    <path
       style="color:#000000;fill:#b3b3b3;fill-rule:evenodd;-inkscape-stroke:none"
       d="m 280.45508,649.79102 v 8.51171 h 2.61914 v -8.51171 z"
       id="path19922" />
    <path
       style="color:#000000;fill:#b3b3b3;fill-rule:evenodd;-inkscape-stroke:none"
       d="m 280.45508,856.03711 v 48.45117 h 2.61914 v -48.45117 z"
       id="path19924" />
    <path
       style="color:#000000;fill:#b3b3b3;fill-rule:evenodd;-inkscape-stroke:none"
       d="m 751.87305,856.03711 v 48.45117 h 2.61914 v -48.45117 z"
       id="path19926" />
    <path
       style="color:#000000;fill:#b3b3b3;fill-rule:evenodd;-inkscape-stroke:none"
       d="m 751.87305,649.79102 v 8.51171 h 2.61914 v -8.51171 z"
       id="path19928" />
    <path
       style="color:#000000;fill:#b3b3b3;fill-rule:evenodd;-inkscape-stroke:none"
       d="m 751.87305,443.54687 v 96.90235 h 2.61914 v -96.90235 z"
       id="path19930" />
    <path
       style="color:#000000;fill:#b3b3b3;fill-rule:evenodd;-inkscape-stroke:none"
       d="m 280.45508,197.36133 v 48.45312 h 2.61914 v -48.45312 z"
       id="path19932" />
    <path
       style="color:#000000;fill:#b3b3b3;fill-rule:evenodd;-inkscape-stroke:none"
       d="m 398.31055,197.36133 v 48.45312 h 2.61914 v -48.45312 z"
       id="path19934" />
    <path
       style="color:#000000;fill:#b3b3b3;fill-rule:evenodd;-inkscape-stroke:none"
       d="m 634.01953,197.36133 v 48.45312 h 2.61914 v -48.45312 z"
       id="path19936" />
    <path
       style="color:#000000;fill:#b3b3b3;fill-rule:evenodd;-inkscape-stroke:none"
       d="m 751.87305,197.36133 v 48.45312 h 2.61914 v -48.45312 z"
       id="path19938" />
    <path
       style="color:#000000;fill:#b3b3b3;fill-rule:evenodd;-inkscape-stroke:none"
       d="m 763.66016,550.84961 v 2.18164 h 50.89257 v -2.18164 z"
       id="path19940" />
    <path
       style="color:#000000;fill:#b3b3b3;fill-rule:evenodd;-inkscape-stroke:none"
       d="m 763.66016,640.92969 v 2.18164 h 50.89257 v -2.18164 z"
       id="path19942" />
    <path
       style="color:#000000;fill:#b3b3b3;fill-rule:evenodd;-inkscape-stroke:none"
       d="m 763.66016,667.6875 v 2.18164 h 50.89257 v -2.18164 z"
       id="path19944" />
    <path
       style="color:#000000;fill:#b3b3b3;fill-rule:evenodd;-inkscape-stroke:none"
       d="m 763.66016,844.46875 v 2.18359 h 50.89257 v -2.18359 z"
       id="path19946" />
    <path
       style="color:#000000;fill:#b3b3b3;fill-rule:evenodd;-inkscape-stroke:none"
       d="m 763.66016,431.98047 v 2.18164 h 50.89257 v -2.18164 z"
       id="path19948" />
    <path
       style="color:#000000;fill:#b3b3b3;fill-rule:evenodd;-inkscape-stroke:none"
       d="m 763.66016,254.98047 v 2.61914 h 48.44921 v -2.61914 z"
       id="path19950" />
    <path
       style="color:#000000;fill:#b3b3b3;fill-rule:evenodd;-inkscape-stroke:none"
       d="m 385.87109,343.37109 v 2.61914 h 27.5 v -2.61914 z"
       id="path19952" />
    <path
       style="color:#000000;fill:#b3b3b3;fill-rule:evenodd;-inkscape-stroke:none"
       d="m 398.31055,330.93164 v 27.49805 h 2.61914 v -27.49805 z"
       id="path19954" />
    <path
       style="color:#000000;fill:#b3b3b3;fill-rule:evenodd;-inkscape-stroke:none"
       d="m 621.57812,343.37109 v 2.61914 h 27.5 v -2.61914 z"
       id="path19956" />
    <path
       style="color:#000000;fill:#b3b3b3;fill-rule:evenodd;-inkscape-stroke:none"
       d="m 634.01953,330.93164 v 27.49805 h 2.61914 v -27.49805 z"
       id="path19958" />
    <path
       style="color:#000000;fill:#b3b3b3;fill-rule:evenodd;-inkscape-stroke:none"
       d="m 368.8457,561.53711 v 13.74805 h 2.61914 v -13.74805 z"
       id="path19960" />
    <path
       style="color:#000000;fill:#b3b3b3;fill-rule:evenodd;-inkscape-stroke:none"
       d="m 368.8457,590.4043 v 13.75 h 2.61914 v -13.75 z"
       id="path19962" />
    <path
       style="color:#000000;fill:#b3b3b3;fill-rule:evenodd;-inkscape-stroke:none"
       d="m 368.8457,619.86719 v 13.75 h 2.61914 v -13.75 z"
       id="path19964" />
    <path
       style="color:#000000;fill:#b3b3b3;fill-rule:evenodd;-inkscape-stroke:none"
       d="m 368.96289,649.33008 v 13.75 h 2.61914 v -13.75 z"
       id="path19966" />
    <path
       style="color:#000000;fill:#b3b3b3;fill-rule:evenodd;-inkscape-stroke:none"
       d="m 368.96289,678.79492 v 13.75 h 2.61914 v -13.75 z"
       id="path19968" />
    <path
       style="color:#000000;fill:#b3b3b3;fill-rule:evenodd;-inkscape-stroke:none"
       d="m 368.96289,708.25781 v 13.75 h 2.61914 v -13.75 z"
       id="path19970" />
    <path
       style="color:#000000;fill:#b3b3b3;fill-rule:evenodd;-inkscape-stroke:none"
       d="m 368.96289,737.7207 v 13.75 h 2.61914 v -13.75 z"
       id="path19972" />
    <path
       style="color:#000000;fill:#b3b3b3;fill-rule:evenodd;-inkscape-stroke:none"
       d="m 368.96289,767.18555 v 13.75 h 2.61914 v -13.75 z"
       id="path19974" />
    <path
       style="color:#000000;fill:#b3b3b3;fill-rule:evenodd;-inkscape-stroke:none"
       d="m 368.96289,796.64844 v 13.75 h 2.61914 v -13.75 z"
       id="path19976" />
    <path
       style="color:#000000;fill:#b3b3b3;fill-rule:evenodd;-inkscape-stroke:none"
       d="m 368.96289,826.11133 v 13.75 h 2.61914 v -13.75 z"
       id="path19978" />
    <path
       style="color:#000000;fill:#b3b3b3;fill-rule:evenodd;-inkscape-stroke:none"
       d="m 428.15234,561.53711 v 13.74805 h 2.61914 v -13.74805 z"
       id="path19980" />
    <path
       style="color:#000000;fill:#b3b3b3;fill-rule:evenodd;-inkscape-stroke:none"
       d="m 428.15234,590.4043 v 13.75 h 2.61914 v -13.75 z"
       id="path19982" />
    <path
       style="color:#000000;fill:#b3b3b3;fill-rule:evenodd;-inkscape-stroke:none"
       d="m 428.15234,619.86719 v 13.75 h 2.61914 v -13.75 z"
       id="path19984" />
    <path
       style="color:#000000;fill:#b3b3b3;fill-rule:evenodd;-inkscape-stroke:none"
       d="m 428.26953,649.33008 v 13.75 h 2.61914 v -13.75 z"
       id="path19986" />
    <path
       style="color:#000000;fill:#b3b3b3;fill-rule:evenodd;-inkscape-stroke:none"
       d="m 428.26953,678.79492 v 13.75 h 2.61914 v -13.75 z"
       id="path19988" />
    <path
       style="color:#000000;fill:#b3b3b3;fill-rule:evenodd;-inkscape-stroke:none"
       d="m 428.26953,708.25781 v 13.75 h 2.61914 v -13.75 z"
       id="path19990" />
    <path
       style="color:#000000;fill:#b3b3b3;fill-rule:evenodd;-inkscape-stroke:none"
       d="m 428.26953,737.7207 v 13.75 h 2.61914 v -13.75 z"
       id="path19992" />
    <path
       style="color:#000000;fill:#b3b3b3;fill-rule:evenodd;-inkscape-stroke:none"
       d="m 428.26953,767.18555 v 13.75 h 2.61914 v -13.75 z"
       id="path19994" />
    <path
       style="color:#000000;fill:#b3b3b3;fill-rule:evenodd;-inkscape-stroke:none"
       d="m 428.26953,796.64844 v 13.75 h 2.61914 v -13.75 z"
       id="path19996" />
    <path
       style="color:#000000;fill:#b3b3b3;fill-rule:evenodd;-inkscape-stroke:none"
       d="m 428.26953,826.11133 v 13.75 h 2.61914 v -13.75 z"
       id="path19998" />
    <path
       style="color:#000000;fill:#b3b3b3;fill-rule:evenodd;-inkscape-stroke:none"
       d="m 604.55469,561.53711 v 13.74805 h 2.61914 v -13.74805 z"
       id="path20000" />
    <path
       style="color:#000000;fill:#b3b3b3;fill-rule:evenodd;-inkscape-stroke:none"
       d="m 604.55469,590.4043 v 13.75 h 2.61914 v -13.75 z"
       id="path20002" />
    <path
       style="color:#000000;fill:#b3b3b3;fill-rule:evenodd;-inkscape-stroke:none"
       d="m 604.55469,619.86719 v 13.75 h 2.61914 v -13.75 z"
       id="path20004" />
    <path
       style="color:#000000;fill:#b3b3b3;fill-rule:evenodd;-inkscape-stroke:none"
       d="m 604.67187,649.33008 v 13.75 h 2.61915 v -13.75 z"
       id="path20006" />
    <path
       style="color:#000000;fill:#b3b3b3;fill-rule:evenodd;-inkscape-stroke:none"
       d="m 604.67187,678.79492 v 13.75 h 2.61915 v -13.75 z"
       id="path20008" />
    <path
       style="color:#000000;fill:#b3b3b3;fill-rule:evenodd;-inkscape-stroke:none"
       d="m 604.67187,708.25781 v 13.75 h 2.61915 v -13.75 z"
       id="path20010" />
    <path
       style="color:#000000;fill:#b3b3b3;fill-rule:evenodd;-inkscape-stroke:none"
       d="m 604.67187,737.7207 v 13.75 h 2.61915 v -13.75 z"
       id="path20012" />
    <path
       style="color:#000000;fill:#b3b3b3;fill-rule:evenodd;-inkscape-stroke:none"
       d="m 604.67187,767.18555 v 13.75 h 2.61915 v -13.75 z"
       id="path20014" />
    <path
       style="color:#000000;fill:#b3b3b3;fill-rule:evenodd;-inkscape-stroke:none"
       d="m 604.67187,796.64844 v 13.75 h 2.61915 v -13.75 z"
       id="path20016" />
    <path
       style="color:#000000;fill:#b3b3b3;fill-rule:evenodd;-inkscape-stroke:none"
       d="m 604.67187,826.11133 v 13.75 h 2.61915 v -13.75 z"
       id="path20018" />
    <path
       style="color:#000000;fill:#b3b3b3;fill-rule:evenodd;-inkscape-stroke:none"
       d="m 663.86133,561.53711 v 13.74805 h 2.61914 v -13.74805 z"
       id="path20020" />
    <path
       style="color:#000000;fill:#b3b3b3;fill-rule:evenodd;-inkscape-stroke:none"
       d="m 663.86133,590.4043 v 13.75 h 2.61914 v -13.75 z"
       id="path20022" />
    <path
       style="color:#000000;fill:#b3b3b3;fill-rule:evenodd;-inkscape-stroke:none"
       d="m 663.86133,619.86719 v 13.75 h 2.61914 v -13.75 z"
       id="path20024" />
    <path
       style="color:#000000;fill:#b3b3b3;fill-rule:evenodd;-inkscape-stroke:none"
       d="m 663.97852,649.33008 v 13.75 h 2.61914 v -13.75 z"
       id="path20026" />
    <path
       style="color:#000000;fill:#b3b3b3;fill-rule:evenodd;-inkscape-stroke:none"
       d="m 663.97852,678.79492 v 13.75 h 2.61914 v -13.75 z"
       id="path20028" />
    <path
       style="color:#000000;fill:#b3b3b3;fill-rule:evenodd;-inkscape-stroke:none"
       d="m 663.97852,708.25781 v 13.75 h 2.61914 v -13.75 z"
       id="path20030" />
    <path
       style="color:#000000;fill:#b3b3b3;fill-rule:evenodd;-inkscape-stroke:none"
       d="m 663.97852,737.7207 v 13.75 h 2.61914 v -13.75 z"
       id="path20032" />
    <path
       style="color:#000000;fill:#b3b3b3;fill-rule:evenodd;-inkscape-stroke:none"
       d="m 663.97852,767.18555 v 13.75 h 2.61914 v -13.75 z"
       id="path20034" />
    <path
       style="color:#000000;fill:#b3b3b3;fill-rule:evenodd;-inkscape-stroke:none"
       d="m 663.97852,796.64844 v 13.75 h 2.61914 v -13.75 z"
       id="path20036" />
    <path
       style="color:#000000;fill:#b3b3b3;fill-rule:evenodd;-inkscape-stroke:none"
       d="m 663.97852,826.11133 v 13.75 h 2.61914 v -13.75 z"
       id="path20038" />
    <path
       style="color:#000000;fill:#b3b3b3;fill-rule:evenodd;-inkscape-stroke:none"
       d="m 398.31055,266.76562 v 37.97461 h 2.61914 v -37.97461 z"
       id="path20040" />
    <path
       style="color:#000000;fill:#b3b3b3;fill-rule:evenodd;-inkscape-stroke:none"
       d="m 634.01953,266.76562 v 37.97461 h 2.61914 v -37.97461 z"
       id="path20042" />
    <path
       style="color:#000000;fill:#b3b3b3;fill-rule:evenodd;-inkscape-stroke:none"
       d="m 693.71289,284.44336 -29.8457,29.84766 1.85156,1.85156 29.08008,-29.08008 h 169.6914 v -2.61914 z"
       id="path20044" />
    <path
       style="color:#000000;fill:#b3b3b3;fill-rule:evenodd;-inkscape-stroke:none"
       d="m 170.45898,284.44336 v 2.61914 h 169.69141 l 29.08008,29.08008 1.85156,-1.85156 -29.84766,-29.84766 z"
       id="path20046" />
    <path
       style="color:#000000;fill:#b3b3b3;fill-rule:evenodd;-inkscape-stroke:none"
       d="m 281.76562,220.2793 v 2.61914 h 29.46485 v -2.61914 z"
       id="path20048" />
    <path
       style="color:#000000;fill:#b3b3b3;fill-rule:evenodd;-inkscape-stroke:none"
       d="m 370.15625,220.2793 v 2.61914 h 29.46484 v -2.61914 z"
       id="path20050" />
    <path
       style="color:#000000;fill:#b3b3b3;fill-rule:evenodd;-inkscape-stroke:none"
       d="m 635.32812,220.2793 v 2.61914 h 29.46485 v -2.61914 z"
       id="path20052" />
    <path
       style="color:#000000;fill:#b3b3b3;fill-rule:evenodd;-inkscape-stroke:none"
       d="m 723.71875,220.2793 v 2.61914 h 29.46484 v -2.61914 z"
       id="path20054" />
    <path
       style="color:#000000;fill:#b3b3b3;fill-rule:evenodd;-inkscape-stroke:none"
       d="m 786.57422,256.28906 v 58.92774 h 2.61914 v -58.92774 z"
       id="path20056" />
    <path
       style="color:#000000;fill:#b3b3b3;fill-rule:evenodd;-inkscape-stroke:none"
       d="m 786.57422,374.14453 v 58.92774 h 2.61914 v -58.92774 z"
       id="path20058" />
    <path
       style="color:#000000;fill:#b3b3b3;fill-rule:evenodd;-inkscape-stroke:none"
       d="m 786.57422,551.94141 v 29.46289 h 2.61914 v -29.46289 z"
       id="path20060" />
    <path
       style="color:#000000;fill:#b3b3b3;fill-rule:evenodd;-inkscape-stroke:none"
       d="m 786.57422,612.55664 v 29.46484 h 2.61914 v -29.46484 z"
       id="path20062" />
    <path
       style="color:#000000;fill:#b3b3b3;fill-rule:evenodd;-inkscape-stroke:none"
       d="m 786.57422,668.7793 v 58.92773 h 2.61914 V 668.7793 Z"
       id="path20064" />
    <path
       style="color:#000000;fill:#b3b3b3;fill-rule:evenodd;-inkscape-stroke:none"
       d="m 786.57422,786.63477 v 58.92578 h 2.61914 v -58.92578 z"
       id="path20066" />
    <path
       style="color:#000000;fill:#b3b3b3;fill-rule:evenodd;-inkscape-stroke:none"
       d="m 546.9375,878.95312 v 2.61915 h 206.24609 v -2.61915 z"
       id="path20068" />
    <path
       style="color:#000000;fill:#b3b3b3;fill-rule:evenodd;-inkscape-stroke:none"
       d="m 281.76562,878.95312 v 2.61915 h 206.2461 v -2.61915 z"
       id="path20070" />
    <path
       style="color:#000000;fill:#b3b3b3;fill-rule:evenodd;-inkscape-stroke:none"
       d="m 293.06641,211.67383 -11.58985,9.89062 11.58985,9.89063 1.69921,-1.99219 -9.2539,-7.89844 9.2539,-7.90039 z"
       id="path20072" />
    <path
       style="color:#000000;fill:#b3b3b3;fill-rule:evenodd;-inkscape-stroke:none"
       d="m 388.25391,211.67383 -1.70118,1.99023 9.25391,7.90039 -9.25391,7.89844 1.70118,1.99219 11.58789,-9.89063 z"
       id="path20074" />
    <path
       style="color:#000000;fill:#b3b3b3;fill-rule:evenodd;-inkscape-stroke:none"
       d="m 646.71484,211.67383 -11.58789,9.89062 11.58789,9.89063 1.69922,-1.99219 -9.2539,-7.89844 9.2539,-7.90039 z"
       id="path20076" />
    <path
       style="color:#000000;fill:#b3b3b3;fill-rule:evenodd;-inkscape-stroke:none"
       d="m 741.90234,211.67383 -1.69922,1.99023 9.25391,7.90039 -9.25391,7.89844 1.69922,1.99219 11.58789,-9.89063 z"
       id="path20078" />
    <path
       style="color:#000000;fill:#b3b3b3;fill-rule:evenodd;-inkscape-stroke:none"
       d="m 787.85547,256.02734 -9.88867,11.58985 1.99218,1.69922 7.89649,-9.25391 7.89844,9.25391 1.99218,-1.69922 z"
       id="path20080" />
    <path
       style="color:#000000;fill:#b3b3b3;fill-rule:evenodd;-inkscape-stroke:none"
       d="m 779.91406,420.26953 -1.99219,1.69922 9.89063,11.58984 9.89062,-11.58984 -1.99218,-1.69922 -7.89844,9.25391 z"
       id="path20082" />
    <path
       style="color:#000000;fill:#b3b3b3;fill-rule:evenodd;-inkscape-stroke:none"
       d="m 293.06641,870.39062 -11.58985,9.89063 11.58985,9.89062 1.69921,-1.99218 -9.2539,-7.89844 9.2539,-7.89844 z"
       id="path20084" />
    <path
       style="color:#000000;fill:#b3b3b3;fill-rule:evenodd;-inkscape-stroke:none"
       d="m 741.90234,870.39062 -1.69922,1.99219 9.25391,7.89844 -9.25391,7.89844 1.69922,1.99218 11.58789,-9.89062 z"
       id="path20086" />
    <path
       style="color:#000000;fill:#b3b3b3;fill-rule:evenodd;-inkscape-stroke:none"
       d="m 787.85547,668.33398 -9.88867,11.58985 1.99218,1.70117 7.89649,-9.25391 7.89844,9.25391 1.99218,-1.70117 z"
       id="path20088" />
    <path
       style="color:#000000;fill:#b3b3b3;fill-rule:evenodd;-inkscape-stroke:none"
       d="m 779.91406,832.57617 -1.99219,1.69922 9.89063,11.58984 9.89062,-11.58984 -1.99218,-1.69922 -7.89844,9.25391 z"
       id="path20090" />
    <path
       style="color:#000000;fill:#b3b3b3;fill-rule:evenodd;-inkscape-stroke:none"
       d="m 787.85547,551.58398 -9.88867,11.58789 1.99218,1.69922 7.89649,-9.25195 7.89844,9.25195 1.99218,-1.69922 z"
       id="path20092" />
    <path
       style="color:#000000;fill:#b3b3b3;fill-rule:evenodd;-inkscape-stroke:none"
       d="m 779.91406,629.20703 -1.99219,1.69922 9.89063,11.58984 9.89062,-11.58984 -1.99218,-1.69922 -7.89844,9.25391 z"
       id="path20094" />
    <path
       style="color:#000000;fill:#b3b3b3;fill-rule:evenodd;-inkscape-stroke:none"
       d="m 371.58398,302.4043 -2.61718,0.10937 0.51562,12.15625 -12.08398,-1.40039 -0.30274,2.60156 15.13282,1.75391 z"
       id="path20096" />
    <path
       style="color:#000000;fill:#b3b3b3;fill-rule:evenodd;-inkscape-stroke:none"
       d="m 663.18555,302.52539 -0.64453,15.22266 15.13476,-1.75391 -0.30273,-2.60156 -12.08594,1.40039 0.51562,-12.15625 z"
       id="path20098" />
    <g
       aria-label="1/4-20"
       id="text3646"
       style="font-size:37.5px;letter-spacing:0px;word-spacing:0px;stroke-width:1.51095px;fill:#b3b3b3">
      <path
         style="color:#000000;fill:#b3b3b3;-inkscape-stroke:none"
         d="M 53.410225,298.68549 H 38.651924 v -2.78321 h 5.67627 v -18.27392 h -5.67627 v -2.49024 q 1.153565,0 2.471924,-0.1831 1.318359,-0.20142 1.99585,-0.56763 0.842285,-0.45776 1.318359,-1.15356 0.494385,-0.71412 0.567627,-1.9043 h 2.838135 v 24.57275 h 5.566406 z"
         id="path19024" />
      <path
         style="color:#000000;fill:#b3b3b3;-inkscape-stroke:none"
         d="m 73.148994,270.19427 -13.128662,34.05762 h -3.167724 l 13.07373,-34.05762 z"
         id="path19026" />
      <path
         style="color:#000000;fill:#b3b3b3;-inkscape-stroke:none"
         d="M 96.458321,291.01337 H 92.41169 v 7.67212 h -3.515625 v -7.67212 h -13.05542 v -4.21143 l 13.201904,-15.38086 h 3.369141 v 16.6626 h 4.046631 z m -7.562256,-2.92969 v -12.30469 l -10.565186,12.30469 z"
         id="path19028" />
      <path
         style="color:#000000;fill:#b3b3b3;-inkscape-stroke:none"
         d="m 112.49836,288.41327 h -11.42578 v -3.31421 h 11.42578 z"
         id="path19030" />
      <path
         style="color:#000000;fill:#b3b3b3;-inkscape-stroke:none"
         d="m 136.7049,298.68549 h -18.45703 v -3.82691 q 1.92261,-1.64795 3.84522,-3.2959 1.94091,-1.64795 3.60717,-3.27758 3.51563,-3.40577 4.81568,-5.40162 1.30005,-2.01416 1.30005,-4.3396 0,-2.12402 -1.40992,-3.3142 -1.3916,-1.2085 -3.90014,-1.2085 -1.66626,0 -3.60718,0.58594 -1.94092,0.58593 -3.79028,1.79443 h -0.18311 v -3.84521 q 1.30005,-0.64087 3.46069,-1.17188 2.17896,-0.53101 4.21143,-0.53101 4.19312,0 6.57349,2.03248 2.38037,2.01416 2.38037,5.47485 0,1.5564 -0.40283,2.91138 -0.38453,1.33667 -1.15357,2.54516 -0.71411,1.13526 -1.68457,2.23389 -0.95215,1.09863 -2.32544,2.4353 -1.95923,1.92261 -4.04663,3.73535 -2.0874,1.79444 -3.90015,3.33252 h 14.66675 z"
         id="path19032" />
      <path
         style="color:#000000;fill:#b3b3b3;-inkscape-stroke:none"
         d="m 160.50861,285.04413 q 0,7.34253 -2.30713,10.78491 -2.28881,3.42407 -7.1228,3.42407 -4.90722,0 -7.17773,-3.479 -2.2522,-3.47901 -2.2522,-10.69336 0,-7.26929 2.28882,-10.72998 2.28882,-3.479 7.14111,-3.479 4.90723,0 7.15943,3.53393 2.2705,3.51563 2.2705,10.63843 z m -4.81567,8.31299 q 0.64087,-1.48316 0.8606,-3.47901 0.23803,-2.01416 0.23803,-4.83398 0,-2.7832 -0.23803,-4.83399 -0.21973,-2.05078 -0.87891,-3.479 -0.64087,-1.40991 -1.75781,-2.12402 -1.09864,-0.71411 -2.83814,-0.71411 -1.72119,0 -2.85644,0.71411 -1.11695,0.71411 -1.77613,2.16064 -0.62256,1.35498 -0.86059,3.53394 -0.21973,2.17895 -0.21973,4.77905 0,2.85644 0.20142,4.77905 0.20141,1.92261 0.86059,3.44239 0.60425,1.42822 1.70288,2.17895 1.11695,0.75073 2.948,0.75073 1.72119,0 2.85645,-0.71411 1.13525,-0.71411 1.75781,-2.16064 z"
         id="path19034" />
    </g>
    <g
       aria-label="CL"
       id="text3650"
       style="font-size:37.5px;letter-spacing:0px;word-spacing:0px;stroke-width:1.51095px;fill:#b3b3b3">
      <path
         style="color:#000000;fill:#b3b3b3;-inkscape-stroke:none"
         d="m 161.28587,354.57874 q -1.00708,0.43945 -1.83105,0.82397 -0.80567,0.38452 -2.12402,0.80566 -1.11695,0.3479 -2.43531,0.58594 -1.30005,0.25635 -2.87475,0.25635 -2.96631,0 -5.40161,-0.82398 -2.417,-0.84228 -4.21143,-2.6184 -1.75781,-1.73951 -2.74658,-4.41285 -0.98877,-2.69165 -0.98877,-6.24389 0,-3.36914 0.95215,-6.02417 0.95214,-2.65503 2.74658,-4.48609 1.7395,-1.77612 4.19311,-2.70996 2.47193,-0.93383 5.47486,-0.93383 2.19726,0 4.37622,0.531 2.19726,0.53101 4.8706,1.86768 v 4.30298 h -0.27465 q -2.2522,-1.88599 -4.46778,-2.74659 -2.21557,-0.86059 -4.74243,-0.86059 -2.06909,0 -3.73535,0.67749 -1.64795,0.65918 -2.948,2.06909 -1.26343,1.37329 -1.97754,3.479 -0.6958,2.08741 -0.6958,4.83399 0,2.87475 0.76904,4.94385 0.78736,2.06909 2.01416,3.36914 1.28174,1.35498 2.98462,2.01416 1.72119,0.64087 3.62549,0.64087 2.61841,0 4.90723,-0.89722 2.28882,-0.89722 4.28467,-2.69165 h 0.25634 z"
         id="path19019" />
      <path
         style="color:#000000;fill:#b3b3b3;-inkscape-stroke:none"
         d="m 183.66136,356.55627 h -17.24853 v -27.2644 h 3.62548 v 24.04175 h 13.62305 z"
         id="path19021" />
    </g>
    <g
       aria-label="1/4-20
Helicoil"
       id="text3654"
       style="font-size:37.5px;letter-spacing:0px;word-spacing:0px;stroke-width:1.51095px;fill:#b3b3b3">
      <path
         style="color:#000000;fill:#b3b3b3;-inkscape-stroke:none"
         d="m 894.27161,296.10461 h -14.7583 v -2.7832 h 5.67627 v -18.27392 h -5.67627 v -2.49024 q 1.15356,0 2.47192,-0.1831 1.31836,-0.20142 1.99585,-0.56763 0.84228,-0.45777 1.31836,-1.15357 0.49438,-0.71411 0.56763,-1.90429 h 2.83813 v 24.57275 h 5.56641 z"
         id="path18990" />
      <path
         style="color:#000000;fill:#b3b3b3;-inkscape-stroke:none"
         d="m 914.01038,267.6134 -13.12867,34.05762 h -3.16772 l 13.07373,-34.05762 z"
         id="path18992" />
      <path
         style="color:#000000;fill:#b3b3b3;-inkscape-stroke:none"
         d="m 937.3197,288.4325 h -4.04663 v 7.67211 h -3.51562 v -7.67211 h -13.05542 v -4.21143 l 13.2019,-15.38086 h 3.36914 v 16.6626 h 4.04663 z m -7.56225,-2.92969 v -12.30469 l -10.56519,12.30469 z"
         id="path18994" />
      <path
         style="color:#000000;fill:#b3b3b3;-inkscape-stroke:none"
         d="m 953.35974,285.8324 h -11.42578 v -3.31421 h 11.42578 z"
         id="path18996" />
      <path
         style="color:#000000;fill:#b3b3b3;-inkscape-stroke:none"
         d="m 977.56628,296.10461 h -18.45703 v -3.8269 q 1.92261,-1.64795 3.84522,-3.2959 1.94092,-1.64795 3.60718,-3.27759 3.51562,-3.40576 4.81567,-5.40161 1.30005,-2.01416 1.30005,-4.3396 0,-2.12402 -1.40991,-3.31421 -1.39161,-1.20849 -3.90015,-1.20849 -1.66626,0 -3.60718,0.58594 -1.94092,0.58593 -3.79028,1.79443 h -0.18311 v -3.84522 q 1.30005,-0.64087 3.4607,-1.17187 2.17895,-0.53101 4.21142,-0.53101 4.19312,0 6.57349,2.03247 2.38037,2.01416 2.38037,5.47486 0,1.55639 -0.40283,2.91137 -0.38452,1.33667 -1.15357,2.54517 -0.71411,1.13525 -1.68457,2.23389 -0.95215,1.09863 -2.32544,2.4353 -1.95923,1.92261 -4.04663,3.73535 -2.0874,1.79443 -3.90014,3.33252 h 14.66674 z"
         id="path18998" />
      <path
         style="color:#000000;fill:#b3b3b3;-inkscape-stroke:none"
         d="m 1001.37,282.46326 q 0,7.34253 -2.30713,10.78491 -2.28882,3.42407 -7.12281,3.42407 -4.90722,0 -7.17773,-3.479 -2.2522,-3.47901 -2.2522,-10.69336 0,-7.26929 2.28882,-10.72998 2.28882,-3.47901 7.14111,-3.47901 4.90723,0 7.15943,3.53394 2.27051,3.51562 2.27051,10.63843 z m -4.81568,8.31299 q 0.64087,-1.48316 0.8606,-3.47901 0.23803,-2.01416 0.23803,-4.83398 0,-2.78321 -0.23803,-4.83399 -0.21973,-2.05078 -0.87891,-3.479 -0.64087,-1.40991 -1.75781,-2.12402 -1.09863,-0.71412 -2.83814,-0.71412 -1.72119,0 -2.85644,0.71412 -1.11695,0.71411 -1.77612,2.16064 -0.62256,1.35498 -0.8606,3.53394 -0.21973,2.17895 -0.21973,4.77905 0,2.85644 0.20142,4.77905 0.20141,1.92261 0.86059,3.44238 0.60425,1.42823 1.70289,2.17896 1.11694,0.75073 2.94799,0.75073 1.72119,0 2.85645,-0.71411 1.13525,-0.71411 1.75781,-2.16064 z"
         id="path19000" />
      <path
         style="color:#000000;fill:#b3b3b3;-inkscape-stroke:none"
         d="m 898.9408,342.97961 h -3.62549 v -13.34838 h -13.60474 v 13.34838 h -3.62549 v -27.2644 h 3.62549 v 10.69336 h 13.60474 v -10.69336 h 3.62549 z"
         id="path19002" />
      <path
         style="color:#000000;fill:#b3b3b3;-inkscape-stroke:none"
         d="m 923.11072,333.11023 h -15.06958 q 0,1.88599 0.56762,3.2959 0.56763,1.3916 1.5564,2.28882 0.95215,0.8789 2.2522,1.31836 1.31836,0.43945 2.89306,0.43945 2.08741,0 4.19312,-0.82398 2.12402,-0.84228 3.02124,-1.64795 h 0.18311 v 3.75367 q -1.73951,0.73242 -3.55225,1.2268 -1.81274,0.49439 -3.80859,0.49439 -5.09034,0 -7.94678,-2.74658 -2.85645,-2.7649 -2.85645,-7.83692 0,-5.01709 2.72827,-7.96509 2.74659,-2.94799 7.21436,-2.94799 4.13818,0 6.37207,2.41699 2.2522,2.41699 2.2522,6.86645 z m -3.35083,-2.63672 q -0.0183,-2.70996 -1.37329,-4.19311 -1.33667,-1.48316 -4.08326,-1.48316 -2.76489,0 -4.41284,1.62964 -1.62964,1.62964 -1.84936,4.04663 z"
         id="path19004" />
      <path
         style="color:#000000;fill:#b3b3b3;-inkscape-stroke:none"
         d="m 931.80823,342.97961 h -3.44239 V 314.4884 h 3.44239 z"
         id="path19006" />
      <path
         style="color:#000000;fill:#b3b3b3;-inkscape-stroke:none"
         d="m 942.31848,319.10266 h -3.88183 v -3.57056 h 3.88183 z m -0.21973,23.87695 h -3.44238 v -20.45288 h 3.44238 z"
         id="path19008" />
      <path
         style="color:#000000;fill:#b3b3b3;-inkscape-stroke:none"
         d="m 964.03479,341.69788 q -1.72119,0.82397 -3.27759,1.28173 -1.53808,0.45777 -3.27759,0.45777 -2.21557,0 -4.06494,-0.64087 -1.84936,-0.65918 -3.16772,-1.97754 -1.33667,-1.31836 -2.06909,-3.33252 -0.73243,-2.01416 -0.73243,-4.70581 0,-5.01709 2.74659,-7.87354 2.76489,-2.85644 7.28759,-2.85644 1.75782,0 3.44239,0.49438 1.70288,0.49439 3.11279,1.2085 v 3.8269 h -0.18311 q -1.5747,-1.2268 -3.25927,-1.88598 -1.66626,-0.65918 -3.25928,-0.65918 -2.92969,0 -4.63257,1.97754 -1.68457,1.95923 -1.68457,5.76782 0,3.69873 1.64795,5.69458 1.66626,1.97754 4.66919,1.97754 1.0437,0 2.12402,-0.27466 1.08033,-0.27466 1.94092,-0.71411 0.75073,-0.38452 1.40991,-0.80566 0.65918,-0.43946 1.0437,-0.75074 h 0.18311 z"
         id="path19010" />
      <path
         style="color:#000000;fill:#b3b3b3;-inkscape-stroke:none"
         d="m 985.87927,332.76233 q 0,4.99878 -2.56347,7.89184 -2.56348,2.89307 -6.86646,2.89307 -4.3396,0 -6.90308,-2.89307 -2.54516,-2.89306 -2.54516,-7.89184 0,-4.99878 2.54516,-7.89185 2.56348,-2.91137 6.90308,-2.91137 4.30298,0 6.86646,2.91137 2.56347,2.89307 2.56347,7.89185 z m -3.55224,0 q 0,-3.97339 -1.5564,-5.896 -1.5564,-1.94091 -4.32129,-1.94091 -2.80151,0 -4.35791,1.94091 -1.53809,1.92261 -1.53809,5.896 0,3.84521 1.5564,5.84106 1.5564,1.97754 4.3396,1.97754 2.74658,0 4.30298,-1.95923 1.57471,-1.97753 1.57471,-5.85937 z"
         id="path19012" />
      <path
         style="color:#000000;fill:#b3b3b3;-inkscape-stroke:none"
         d="m 994.90637,319.10266 h -3.88183 v -3.57056 h 3.88183 z m -0.21972,23.87695 h -3.44239 v -20.45288 h 3.44239 z"
         id="path19014" />
      <path
         style="color:#000000;fill:#b3b3b3;-inkscape-stroke:none"
         d="m 1004.9772,342.97961 h -3.4424 V 314.4884 h 3.4424 z"
         id="path19016" />
    </g>
    <g
       aria-label="1/2&quot;"
       id="text3660"
       style="font-size:30px;letter-spacing:0px;word-spacing:0px;stroke-width:1.51095px;fill:#b3b3b3">
      <path
         style="color:#000000;fill:#b3b3b3;-inkscape-stroke:none"
         d="m 327.56995,229.24168 h -11.80664 v -2.22656 h 4.54101 v -14.61914 h -4.54101 v -1.99219 q 0.92285,0 1.97753,-0.14648 1.05469,-0.16113 1.59668,-0.4541 0.67383,-0.36621 1.05469,-0.92285 0.39551,-0.57129 0.4541,-1.52344 h 2.27051 v 19.6582 h 4.45313 z"
         id="path18981" />
      <path
         style="color:#000000;fill:#b3b3b3;-inkscape-stroke:none"
         d="m 343.36096,206.44872 -10.50293,27.24609 h -2.53418 l 10.45899,-27.24609 z"
         id="path18983" />
      <path
         style="color:#000000;fill:#b3b3b3;-inkscape-stroke:none"
         d="m 361.51038,229.24168 h -14.76563 v -3.06152 q 1.53809,-1.31836 3.07617,-2.63672 1.55274,-1.31836 2.88575,-2.62207 2.8125,-2.72461 3.85253,-4.32129 1.04004,-1.61133 1.04004,-3.47168 0,-1.69922 -1.12793,-2.65136 -1.11328,-0.9668 -3.12011,-0.9668 -1.33301,0 -2.88575,0.46875 -1.55273,0.46875 -3.03222,1.43555 h -0.14649 v -3.07618 q 1.04004,-0.51269 2.76856,-0.9375 1.74316,-0.4248 3.36914,-0.4248 3.35449,0 5.25879,1.62598 1.90429,1.61132 1.90429,4.37988 0,1.24512 -0.32226,2.3291 -0.30762,1.06934 -0.92285,2.03613 -0.57129,0.90821 -1.34766,1.78711 -0.76172,0.87891 -1.86035,1.94824 -1.56738,1.53809 -3.23731,2.98829 -1.66992,1.43554 -3.12011,2.66601 h 11.7334 z"
         id="path18985" />
      <path
         style="color:#000000;fill:#b3b3b3;-inkscape-stroke:none"
         d="m 374.76721,206.44872 -0.62988,8.48144 h -1.93359 l -0.62989,-8.48144 z m -5.65429,0 -0.62989,8.48144 h -1.93359 l -0.62988,-8.48144 z"
         id="path18987" />
    </g>
    <g
       aria-label="3/4&quot;"
       id="text3664"
       style="font-size:30px;letter-spacing:0px;word-spacing:0px;stroke-width:1.51095px;fill:#b3b3b3">
      <path
         style="color:#000000;fill:#b3b3b3;-inkscape-stroke:none"
         d="m 777.44116,756.35333 q 0.70313,0.62989 1.15723,1.58203 0.4541,0.95215 0.4541,2.46094 0,1.49414 -0.54199,2.73926 -0.54199,1.24512 -1.52344,2.16797 -1.09863,1.02539 -2.59277,1.52344 -1.4795,0.48339 -3.25196,0.48339 -1.8164,0 -3.57421,-0.43945 -1.75782,-0.4248 -2.88575,-0.9375 v -3.06152 h 0.21973 q 1.24512,0.82031 2.92969,1.3623 1.68457,0.54199 3.25195,0.54199 0.92285,0 1.96289,-0.30761 1.04004,-0.30762 1.68457,-0.90821 0.67383,-0.64453 0.99609,-1.42089 0.33692,-0.77637 0.33692,-1.9629 0,-1.17187 -0.38086,-1.93359 -0.36621,-0.77637 -1.02539,-1.21582 -0.65918,-0.4541 -1.59668,-0.61523 -0.9375,-0.17578 -2.02149,-0.17578 h -1.31835 v -2.43165 h 1.02539 q 2.22656,0 3.54492,-0.92285 1.33301,-0.9375 1.33301,-2.72461 0,-0.79101 -0.33692,-1.37695 -0.33691,-0.60059 -0.9375,-0.98144 -0.62988,-0.38086 -1.34765,-0.52735 -0.71778,-0.14648 -1.62598,-0.14648 -1.3916,0 -2.95899,0.49804 -1.56738,0.49805 -2.95898,1.40625 h -0.14648 v -3.06152 q 1.04003,-0.51269 2.76855,-0.9375 1.74316,-0.43945 3.36914,-0.43945 1.59668,0 2.8125,0.29297 1.21582,0.29296 2.19727,0.9375 1.05468,0.70312 1.59668,1.69921 0.54199,0.9961 0.54199,2.32911 0,1.8164 -1.28906,3.17871 -1.27442,1.34765 -3.01758,1.69922 v 0.20507 q 0.70312,0.11719 1.61133,0.49805 0.9082,0.36621 1.53808,0.92285 z"
         id="path18972" />
      <path
         style="color:#000000;fill:#b3b3b3;-inkscape-stroke:none"
         d="m 793.90601,744.06329 -10.50293,27.2461 h -2.53418 l 10.45898,-27.2461 z"
         id="path18974" />
      <path
         style="color:#000000;fill:#b3b3b3;-inkscape-stroke:none"
         d="m 812.55347,760.71857 h -3.23731 v 6.13769 h -2.8125 v -6.13769 h -10.44433 v -3.36914 l 10.56152,-12.30469 h 2.69531 v 13.33008 h 3.23731 z m -6.04981,-2.34375 v -9.84375 l -8.45215,9.84375 z"
         id="path18976" />
      <path
         style="color:#000000;fill:#b3b3b3;-inkscape-stroke:none"
         d="m 825.31226,744.06329 -0.62989,8.48145 h -1.93359 l -0.62988,-8.48145 z m -5.6543,0 -0.62988,8.48145 h -1.9336 l -0.62988,-8.48145 z"
         id="path18978" />
    </g>
    <g
       aria-label="3/8&quot;"
       id="text3668"
       style="font-size:30px;letter-spacing:0px;word-spacing:0px;stroke-width:1.51095px;fill:#b3b3b3">
      <path
         style="color:#000000;fill:#b3b3b3;-inkscape-stroke:none"
         d="m 777.44116,596.61652 q 0.70313,0.62988 1.15723,1.58203 0.4541,0.95215 0.4541,2.46093 0,1.49415 -0.54199,2.73926 -0.54199,1.24512 -1.52344,2.16797 -1.09863,1.02539 -2.59277,1.52344 -1.4795,0.4834 -3.25196,0.4834 -1.8164,0 -3.57421,-0.43946 -1.75782,-0.4248 -2.88575,-0.9375 v -3.06152 h 0.21973 q 1.24512,0.82031 2.92969,1.36231 1.68457,0.54199 3.25195,0.54199 0.92285,0 1.96289,-0.30762 1.04004,-0.30762 1.68457,-0.9082 0.67383,-0.64453 0.99609,-1.4209 0.33692,-0.77637 0.33692,-1.96289 0,-1.17188 -0.38086,-1.9336 -0.36621,-0.77636 -1.02539,-1.21582 -0.65918,-0.4541 -1.59668,-0.61523 -0.9375,-0.17578 -2.02149,-0.17578 h -1.31835 v -2.43164 h 1.02539 q 2.22656,0 3.54492,-0.92285 1.33301,-0.9375 1.33301,-2.72461 0,-0.79102 -0.33692,-1.37696 -0.33691,-0.60058 -0.9375,-0.98144 -0.62988,-0.38086 -1.34765,-0.52735 -0.71778,-0.14648 -1.62598,-0.14648 -1.3916,0 -2.95899,0.49805 -1.56738,0.49804 -2.95898,1.40625 h -0.14648 v -3.06153 q 1.04003,-0.51269 2.76855,-0.9375 1.74316,-0.43945 3.36914,-0.43945 1.59668,0 2.8125,0.29297 1.21582,0.29297 2.19727,0.9375 1.05468,0.70312 1.59668,1.69922 0.54199,0.99609 0.54199,2.3291 0,1.81641 -1.28906,3.17871 -1.27442,1.34766 -3.01758,1.69922 v 0.20508 q 0.70312,0.11719 1.61133,0.49804 0.9082,0.36622 1.53808,0.92286 z"
         id="path18963" />
      <path
         style="color:#000000;fill:#b3b3b3;-inkscape-stroke:none"
         d="m 793.90601,584.32648 -10.50293,27.24609 h -2.53418 l 10.45898,-27.24609 z"
         id="path18965" />
      <path
         style="color:#000000;fill:#b3b3b3;-inkscape-stroke:none"
         d="m 812.21655,601.04034 q 0,2.82715 -2.21191,4.70215 -2.19727,1.875 -5.53711,1.875 -3.54492,0 -5.6543,-1.83105 -2.09472,-1.83106 -2.09472,-4.6875 0,-1.81641 1.05468,-3.28125 1.05469,-1.47949 2.97364,-2.34375 v -0.0879 q -1.75782,-0.9375 -2.60743,-2.05078 -0.83496,-1.11329 -0.83496,-2.78321 0,-2.46093 2.02149,-4.10156 2.02148,-1.64062 5.1416,-1.64062 3.2666,0 5.21484,1.56738 1.94825,1.56738 1.94825,3.98437 0,1.4795 -0.92286,2.91504 -0.92285,1.4209 -2.70996,2.22656 v 0.0879 q 2.05078,0.8789 3.13477,2.16796 1.08398,1.28907 1.08398,3.28125 z m -3.47168,-10.64941 q 0,-1.56738 -1.21582,-2.49023 -1.20117,-0.9375 -3.07617,-0.9375 -1.8457,0 -3.03223,0.8789 -1.17187,0.87891 -1.17187,2.37305 0,1.05469 0.58594,1.83105 0.60058,0.76172 1.80175,1.36231 0.542,0.26367 1.55274,0.68847 1.02539,0.42481 1.99219,0.70313 1.45019,-0.9668 2.00683,-2.00684 0.55664,-1.04004 0.55664,-2.40234 z m 0.4541,10.92773 q 0,-1.34765 -0.60058,-2.15332 -0.58594,-0.82031 -2.31445,-1.64062 -0.68848,-0.32227 -1.50879,-0.60059 -0.82032,-0.27832 -2.18262,-0.77636 -1.31836,0.71777 -2.12402,1.94824 -0.79102,1.23047 -0.79102,2.7832 0,1.97754 1.3623,3.2666 1.36231,1.28907 3.45704,1.28907 2.13867,0 3.41308,-1.09864 1.28906,-1.09863 1.28906,-3.01758 z"
         id="path18967" />
      <path
         style="color:#000000;fill:#b3b3b3;-inkscape-stroke:none"
         d="m 825.31226,584.32648 -0.62989,8.48144 h -1.93359 l -0.62988,-8.48144 z m -5.6543,0 -0.62988,8.48144 h -1.9336 l -0.62988,-8.48144 z"
         id="path18969" />
    </g>
    <g
       aria-label="2&quot;"
       id="text3672"
       style="font-size:30px;letter-spacing:0px;word-spacing:0px;stroke-width:1.51095px;fill:#b3b3b3">
      <path
         style="color:#000000;fill:#b3b3b3;-inkscape-stroke:none"
         d="m 524.397,892.55029 h -14.76562 v -3.06152 q 1.53808,-1.31836 3.07617,-2.63672 1.55273,-1.31836 2.88574,-2.62207 2.8125,-2.72461 3.85254,-4.32129 1.04004,-1.61133 1.04004,-3.47168 0,-1.69922 -1.12793,-2.65137 -1.11328,-0.96679 -3.12012,-0.96679 -1.333,0 -2.88574,0.46875 -1.55273,0.46875 -3.03223,1.43554 h -0.14648 v -3.07617 q 1.04004,-0.51269 2.76856,-0.9375 1.74316,-0.4248 3.36914,-0.4248 3.35449,0 5.25878,1.62597 1.9043,1.61133 1.9043,4.37989 0,1.24511 -0.32226,2.3291 -0.30762,1.06933 -0.92286,2.03613 -0.57128,0.9082 -1.34765,1.78711 -0.76172,0.87891 -1.86035,1.94824 -1.56739,1.53809 -3.23731,2.98828 -1.66992,1.43555 -3.12012,2.66602 h 11.7334 z"
         id="path18958" />
      <path
         style="color:#000000;fill:#b3b3b3;-inkscape-stroke:none"
         d="m 537.65384,869.75732 -0.62988,8.48145 h -1.9336 l -0.62988,-8.48145 z m -5.6543,0 -0.62988,8.48145 h -1.93359 l -0.62989,-8.48145 z"
         id="path18960" />
    </g>
    <g
       aria-label="1/2&quot;"
       id="text3676"
       style="font-size:30px;letter-spacing:0px;word-spacing:0px;stroke-width:1.51095px;fill:#b3b3b3">
      <path
         style="color:#000000;fill:#b3b3b3;-inkscape-stroke:none"
         d="m 683.00616,228.95493 h -11.80664 v -2.22657 h 4.54102 v -14.61914 h -4.54102 v -1.99219 q 0.92286,0 1.97754,-0.14648 1.05469,-0.16113 1.59668,-0.4541 0.67383,-0.36621 1.05469,-0.92285 0.39551,-0.57129 0.4541,-1.52344 h 2.27051 v 19.6582 h 4.45312 z"
         id="path18949" />
      <path
         style="color:#000000;fill:#b3b3b3;-inkscape-stroke:none"
         d="m 698.79718,206.16196 -10.50293,27.24609 h -2.53418 l 10.45899,-27.24609 z"
         id="path18951" />
      <path
         style="color:#000000;fill:#b3b3b3;-inkscape-stroke:none"
         d="m 716.94659,228.95493 h -14.76562 v -3.06153 q 1.53809,-1.31836 3.07617,-2.63672 1.55274,-1.31836 2.88574,-2.62207 2.8125,-2.72461 3.85254,-4.32129 1.04004,-1.61132 1.04004,-3.47168 0,-1.69921 -1.12793,-2.65136 -1.11328,-0.9668 -3.12012,-0.9668 -1.333,0 -2.88574,0.46875 -1.55273,0.46875 -3.03222,1.43555 h -0.14649 v -3.07617 q 1.04004,-0.5127 2.76856,-0.9375 1.74316,-0.42481 3.36914,-0.42481 3.35449,0 5.25879,1.62598 1.90429,1.61133 1.90429,4.37988 0,1.24512 -0.32226,2.3291 -0.30762,1.06934 -0.92285,2.03613 -0.57129,0.90821 -1.34766,1.78711 -0.76172,0.87891 -1.86035,1.94825 -1.56739,1.53808 -3.23731,2.98828 -1.66992,1.43554 -3.12011,2.66601 h 11.73339 z"
         id="path18953" />
      <path
         style="color:#000000;fill:#b3b3b3;-inkscape-stroke:none"
         d="m 730.20343,206.16196 -0.62988,8.48144 h -1.9336 l -0.62988,-8.48144 z m -5.6543,0 -0.62988,8.48144 h -1.93359 l -0.62989,-8.48144 z"
         id="path18955" />
    </g>
    <g
       aria-label="3/4&quot;"
       id="text3680"
       style="font-size:30px;letter-spacing:0px;word-spacing:0px;stroke-width:1.51095px;fill:#b3b3b3">
      <path
         style="color:#000000;fill:#b3b3b3;-inkscape-stroke:none"
         d="m 779.95105,342.78006 q 0.70312,0.62988 1.15723,1.58203 0.4541,0.95215 0.4541,2.46094 0,1.49414 -0.54199,2.73926 -0.542,1.24511 -1.52344,2.16797 -1.09863,1.02539 -2.59278,1.52343 -1.47949,0.4834 -3.25195,0.4834 -1.8164,0 -3.57422,-0.43945 -1.75781,-0.42481 -2.88574,-0.9375 v -3.06153 h 0.21973 q 1.24511,0.82032 2.92968,1.36231 1.68458,0.54199 3.25196,0.54199 0.92285,0 1.96289,-0.30762 1.04004,-0.30761 1.68457,-0.9082 0.67383,-0.64453 0.99609,-1.4209 0.33692,-0.77636 0.33692,-1.96289 0,-1.17187 -0.38086,-1.93359 -0.36621,-0.77637 -1.02539,-1.21582 -0.65918,-0.4541 -1.59668,-0.61524 -0.9375,-0.17578 -2.02149,-0.17578 h -1.31836 v -2.43164 h 1.02539 q 2.22657,0 3.54493,-0.92285 1.333,-0.9375 1.333,-2.72461 0,-0.79101 -0.33691,-1.37695 -0.33691,-0.60059 -0.9375,-0.98145 -0.62988,-0.38086 -1.34766,-0.52734 -0.71777,-0.14649 -1.62597,-0.14649 -1.3916,0 -2.95899,0.49805 -1.56738,0.49805 -2.95898,1.40625 h -0.14649 v -3.06152 q 1.04004,-0.5127 2.76856,-0.9375 1.74316,-0.43946 3.36914,-0.43946 1.59668,0 2.8125,0.29297 1.21582,0.29297 2.19726,0.9375 1.05469,0.70313 1.59668,1.69922 0.542,0.9961 0.542,2.3291 0,1.81641 -1.28907,3.17871 -1.27441,1.34766 -3.01757,1.69922 v 0.20508 q 0.70312,0.11719 1.61132,0.49805 0.90821,0.36621 1.53809,0.92285 z"
         id="path18940" />
      <path
         style="color:#000000;fill:#b3b3b3;-inkscape-stroke:none"
         d="m 796.41589,330.49002 -10.50293,27.24609 h -2.53418 l 10.45899,-27.24609 z"
         id="path18942" />
      <path
         style="color:#000000;fill:#b3b3b3;-inkscape-stroke:none"
         d="m 815.06335,347.14529 h -3.2373 v 6.1377 h -2.8125 v -6.1377 h -10.44434 v -3.36914 l 10.56153,-12.30468 h 2.69531 v 13.33007 h 3.2373 z m -6.0498,-2.34375 v -9.84375 l -8.45215,9.84375 z"
         id="path18944" />
      <path
         style="color:#000000;fill:#b3b3b3;-inkscape-stroke:none"
         d="m 827.82214,330.49002 -0.62988,8.48145 h -1.93359 l -0.62989,-8.48145 z m -5.65429,0 -0.62989,8.48145 h -1.93359 l -0.62988,-8.48145 z"
         id="path18946" />
    </g>
    <g
       aria-label="Aluminum"
       id="text3692"
       style="font-size:37.5px;letter-spacing:0px;word-spacing:0px;stroke-width:1.51095px;fill:#b3b3b3">
      <path
         style="color:#000000;fill:#b3b3b3;-inkscape-stroke:none"
         d="m 49.761992,771.51379 h -3.863526 l -2.67334,-7.59887 H 31.433134 l -2.67334,7.59887 h -3.68042 l 9.924317,-27.2644 h 4.833984 z m -7.653809,-10.71167 -4.779053,-13.38501 -4.797363,13.38501 z"
         id="path18923" />
      <path
         style="color:#000000;fill:#b3b3b3;-inkscape-stroke:none"
         d="m 57.104521,771.51379 h -3.442383 v -28.49121 h 3.442383 z"
         id="path18925" />
      <path
         style="color:#000000;fill:#b3b3b3;-inkscape-stroke:none"
         d="m 80.871611,771.51379 h -3.442383 v -2.2705 q -1.739502,1.37329 -3.33252,2.10571 -1.593017,0.73242 -3.515625,0.73242 -3.222656,0 -5.01709,-1.95923 -1.794433,-1.97754 -1.794433,-5.78613 v -13.27515 h 3.442383 v 11.64551 q 0,1.5564 0.146484,2.67334 0.146484,1.09863 0.622559,1.88599 0.494384,0.80566 1.281738,1.17187 0.787353,0.36621 2.288818,0.36621 1.33667,0 2.911377,-0.6958 1.593018,-0.6958 2.966309,-1.77612 v -15.271 h 3.442383 z"
         id="path18927" />
      <path
         style="color:#000000;fill:#b3b3b3;-inkscape-stroke:none"
         d="m 117.4927,771.51379 h -3.44238 v -11.6455 q 0,-1.31836 -0.12817,-2.54517 -0.10987,-1.22681 -0.49439,-1.95923 -0.42114,-0.78735 -1.20849,-1.19018 -0.78736,-0.40284 -2.27051,-0.40284 -1.44653,0 -2.89307,0.73243 -1.44653,0.71411 -2.89306,1.83105 0.0549,0.42114 0.0916,0.98877 0.0366,0.54932 0.0366,1.09863 v 13.09204 h -3.44238 v -11.6455 q 0,-1.35498 -0.12818,-2.56348 -0.10986,-1.22681 -0.49438,-1.95923 -0.421144,-0.78735 -1.208497,-1.17187 -0.787354,-0.40284 -2.270508,-0.40284 -1.409912,0 -2.838135,0.6958 -1.409912,0.69581 -2.819824,1.77613 v 15.27099 h -3.442383 v -20.45288 h 3.442383 v 2.27051 q 1.611328,-1.33667 3.204346,-2.0874 1.611328,-0.75073 3.424072,-0.75073 2.087402,0 3.533936,0.8789 1.46484,0.87891 2.17895,2.43531 2.08741,-1.75782 3.8086,-2.52686 1.72119,-0.78735 3.68042,-0.78735 3.36914,0 4.96216,2.05078 1.61132,2.03247 1.61132,5.69458 z"
         id="path18929" />
      <path
         style="color:#000000;fill:#b3b3b3;-inkscape-stroke:none"
         d="m 127.81985,747.63684 h -3.88183 v -3.57056 h 3.88183 z m -0.21972,23.87695 h -3.44239 v -20.45288 h 3.44239 z"
         id="path18931" />
      <path
         style="color:#000000;fill:#b3b3b3;-inkscape-stroke:none"
         d="m 151.5137,771.51379 h -3.44238 v -11.6455 q 0,-1.40992 -0.1648,-2.63672 -0.16479,-1.24512 -0.60425,-1.94092 -0.45776,-0.76904 -1.31835,-1.13525 -0.8606,-0.38453 -2.23389,-0.38453 -1.40991,0 -2.948,0.6958 -1.53809,0.69581 -2.948,1.77613 v 15.27099 h -3.44238 v -20.45288 h 3.44238 v 2.27051 q 1.61133,-1.33667 3.33252,-2.0874 1.72119,-0.75073 3.53394,-0.75073 3.31421,0 5.05371,1.99585 1.7395,1.99585 1.7395,5.74951 z"
         id="path18933" />
      <path
         style="color:#000000;fill:#b3b3b3;-inkscape-stroke:none"
         d="m 175.09768,771.51379 h -3.44238 v -2.2705 q -1.7395,1.37329 -3.33252,2.10571 -1.59302,0.73242 -3.51562,0.73242 -3.22266,0 -5.01709,-1.95923 -1.79444,-1.97754 -1.79444,-5.78613 v -13.27515 h 3.44239 v 11.64551 q 0,1.5564 0.14648,2.67334 0.14649,1.09863 0.62256,1.88599 0.49438,0.80566 1.28174,1.17187 0.78735,0.36621 2.28882,0.36621 1.33667,0 2.91137,-0.6958 1.59302,-0.6958 2.96631,-1.77612 v -15.271 h 3.44238 z"
         id="path18935" />
      <path
         style="color:#000000;fill:#b3b3b3;-inkscape-stroke:none"
         d="m 211.71878,771.51379 h -3.44238 v -11.6455 q 0,-1.31836 -0.12818,-2.54517 -0.10986,-1.22681 -0.49438,-1.95923 -0.42115,-0.78735 -1.2085,-1.19018 -0.78735,-0.40284 -2.27051,-0.40284 -1.44653,0 -2.89306,0.73243 -1.44654,0.71411 -2.89307,1.83105 0.0549,0.42114 0.0916,0.98877 0.0366,0.54932 0.0366,1.09863 v 13.09204 h -3.44238 v -11.6455 q 0,-1.35498 -0.12817,-2.56348 -0.10987,-1.22681 -0.49439,-1.95923 -0.42114,-0.78735 -1.20849,-1.17187 -0.78736,-0.40284 -2.27051,-0.40284 -1.40991,0 -2.83814,0.6958 -1.40991,0.69581 -2.81982,1.77613 v 15.27099 h -3.44238 v -20.45288 h 3.44238 v 2.27051 q 1.61133,-1.33667 3.20435,-2.0874 1.61132,-0.75073 3.42407,-0.75073 2.0874,0 3.53393,0.8789 1.46485,0.87891 2.17896,2.43531 2.0874,-1.75782 3.80859,-2.52686 1.72119,-0.78735 3.68042,-0.78735 3.36914,0 4.96216,2.05078 1.61133,2.03247 1.61133,5.69458 z"
         id="path18937" />
    </g>
    <g
       aria-label="Soft Steel"
       id="text3696"
       style="font-size:37.5px;letter-spacing:0px;word-spacing:0px;stroke-width:1.51095px;fill:#b3b3b3">
      <path
         style="color:#000000;fill:#b3b3b3;-inkscape-stroke:none"
         d="m 50.259644,607.84283 q 0,1.59302 -0.750733,3.14942 -0.732422,1.5564 -2.069092,2.63672 -1.464843,1.17187 -3.424072,1.83105 -1.940918,0.65918 -4.6875,0.65918 -2.947998,0 -5.310059,-0.54931 -2.34375,-0.54932 -4.779052,-1.62964 v -4.54102 h 0.256347 q 2.069092,1.72119 4.779053,2.65503 2.709961,0.93384 5.090332,0.93384 3.369141,0 5.236817,-1.26343 1.885986,-1.26343 1.885986,-3.36914 0,-1.81274 -0.897217,-2.67334 -0.878906,-0.8606 -2.69165,-1.33667 -1.373291,-0.36621 -2.984619,-0.60425 -1.593018,-0.23804 -3.387452,-0.60425 -3.625488,-0.76904 -5.3833,-2.6184 -1.739502,-1.86768 -1.739502,-4.8523 0,-3.42407 2.893066,-5.60303 2.893066,-2.19726 7.342529,-2.19726 2.874756,0 5.273438,0.54931 2.398682,0.54932 4.248047,1.35498 v 4.28467 h -0.256348 q -1.556396,-1.31836 -4.101562,-2.17895 -2.526856,-0.87891 -5.181885,-0.87891 -2.911377,0 -4.6875,1.2085 -1.757813,1.20849 -1.757813,3.11279 0,1.70288 0.878907,2.67334 0.878906,0.97046 3.094482,1.48315 1.171875,0.25635 3.33252,0.62256 2.160644,0.36621 3.662109,0.75074 3.039551,0.80566 4.577637,2.4353 1.538086,1.62964 1.538086,4.55932 z"
         id="path18904" />
      <path
         style="color:#000000;fill:#b3b3b3;-inkscape-stroke:none"
         d="m 73.23938,605.40753 q 0,4.99878 -2.563477,7.89185 -2.563476,2.89306 -6.866455,2.89306 -4.339599,0 -6.903076,-2.89306 -2.545166,-2.89307 -2.545166,-7.89185 0,-4.99878 2.545166,-7.89184 2.563477,-2.91138 6.903076,-2.91138 4.302979,0 6.866455,2.91138 2.563477,2.89306 2.563477,7.89184 z m -3.552246,0 q 0,-3.97339 -1.556397,-5.89599 -1.556396,-1.94092 -4.321289,-1.94092 -2.801513,0 -4.35791,1.94092 -1.538086,1.9226 -1.538086,5.89599 0,3.84522 1.556397,5.84107 1.556396,1.97754 4.339599,1.97754 2.746582,0 4.302979,-1.95923 1.574707,-1.97754 1.574707,-5.85938 z"
         id="path18906" />
      <path
         style="color:#000000;fill:#b3b3b3;-inkscape-stroke:none"
         d="m 89.572388,590.46613 h -0.183106 q -0.567627,-0.1648 -1.483154,-0.32959 -0.915527,-0.18311 -1.611328,-0.18311 -2.215576,0 -3.222656,0.98877 -0.98877,0.97046 -0.98877,3.53394 v 0.6958 h 6.207275 v 2.89306 h -6.097412 v 17.55982 H 78.750854 V 598.065 h -2.325439 v -2.89306 h 2.325439 v -0.67749 q 0,-3.6438 1.812745,-5.58472 1.812744,-1.95923 5.236816,-1.95923 1.153564,0 2.069092,0.10986 0.933838,0.10987 1.702881,0.25635 z"
         id="path18908" />
      <path
         style="color:#000000;fill:#b3b3b3;-inkscape-stroke:none"
         d="m 102.37146,615.44171 q -0.97046,0.25635 -2.12402,0.42114 -1.135257,0.1648 -2.032474,0.1648 -3.131104,0 -4.760742,-1.68457 -1.629639,-1.68457 -1.629639,-5.40161 V 598.065 h -2.325439 v -2.89306 h 2.325439 v -5.87769 h 3.442383 v 5.87769 h 7.104492 v 2.89306 h -7.104492 v 9.32007 q 0,1.61133 0.07324,2.52686 0.07324,0.89721 0.512695,1.68457 0.402832,0.73242 1.098633,1.08032 0.714111,0.32959 2.160645,0.32959 0.842285,0 1.757819,-0.23804 0.91552,-0.25635 1.31835,-0.42114 h 0.18311 z"
         id="path18910" />
      <path
         style="color:#000000;fill:#b3b3b3;-inkscape-stroke:none"
         d="m 139.79822,607.84283 q 0,1.59302 -0.75073,3.14942 -0.73243,1.5564 -2.0691,2.63672 -1.46484,1.17187 -3.42407,1.83105 -1.94092,0.65918 -4.6875,0.65918 -2.948,0 -5.31006,-0.54931 -2.34375,-0.54932 -4.77905,-1.62964 v -4.54102 h 0.25635 q 2.06909,1.72119 4.77905,2.65503 2.70996,0.93384 5.09033,0.93384 3.36914,0 5.23682,-1.26343 1.88599,-1.26343 1.88599,-3.36914 0,-1.81274 -0.89722,-2.67334 -0.87891,-0.8606 -2.69165,-1.33667 -1.37329,-0.36621 -2.98462,-0.60425 -1.59302,-0.23804 -3.38745,-0.60425 -3.62549,-0.76904 -5.3833,-2.6184 -1.73951,-1.86768 -1.73951,-4.8523 0,-3.42407 2.89307,-5.60303 2.89307,-2.19726 7.34253,-2.19726 2.87476,0 5.27344,0.54931 2.39868,0.54932 4.24804,1.35498 v 4.28467 h -0.25634 q -1.5564,-1.31836 -4.10157,-2.17895 -2.52685,-0.87891 -5.18188,-0.87891 -2.91138,0 -4.6875,1.2085 -1.75781,1.20849 -1.75781,3.11279 0,1.70288 0.8789,2.67334 0.87891,0.97046 3.09449,1.48315 1.17187,0.25635 3.33252,0.62256 2.16064,0.36621 3.66211,0.75074 3.03955,0.80566 4.57763,2.4353 1.53809,1.62964 1.53809,4.55932 z"
         id="path18912" />
      <path
         style="color:#000000;fill:#b3b3b3;-inkscape-stroke:none"
         d="m 155.96643,615.44171 q -0.97046,0.25635 -2.12402,0.42114 -1.13526,0.1648 -2.03247,0.1648 -3.13111,0 -4.76075,-1.68457 -1.62963,-1.68457 -1.62963,-5.40161 V 598.065 h -2.32544 v -2.89306 h 2.32544 v -5.87769 h 3.44238 v 5.87769 h 7.10449 v 2.89306 h -7.10449 v 9.32007 q 0,1.61133 0.0732,2.52686 0.0732,0.89721 0.5127,1.68457 0.40283,0.73242 1.09863,1.08032 0.71411,0.32959 2.16064,0.32959 0.84229,0 1.75782,-0.23804 0.91552,-0.25635 1.31836,-0.42114 h 0.1831 z"
         id="path18914" />
      <path
         style="color:#000000;fill:#b3b3b3;-inkscape-stroke:none"
         d="m 177.24329,605.75543 h -15.06958 q 0,1.88599 0.56762,3.2959 0.56763,1.3916 1.5564,2.28882 0.95215,0.87891 2.2522,1.31836 1.31836,0.43945 2.89306,0.43945 2.08741,0 4.19312,-0.82397 2.12402,-0.84229 3.02124,-1.64795 h 0.1831 v 3.75366 q -1.7395,0.73242 -3.55224,1.22681 -1.81275,0.49438 -3.8086,0.49438 -5.09033,0 -7.94677,-2.74658 -2.85645,-2.76489 -2.85645,-7.83691 0,-5.01709 2.72827,-7.96509 2.74659,-2.948 7.21436,-2.948 4.13818,0 6.37207,2.41699 2.2522,2.41699 2.2522,6.86646 z m -3.35083,-2.63672 q -0.0183,-2.70996 -1.37329,-4.19311 -1.33667,-1.48316 -4.08326,-1.48316 -2.76489,0 -4.41284,1.62964 -1.62964,1.62964 -1.84936,4.04663 z"
         id="path18916" />
      <path
         style="color:#000000;fill:#b3b3b3;-inkscape-stroke:none"
         d="m 199.58215,605.75543 h -15.06958 q 0,1.88599 0.56763,3.2959 0.56763,1.3916 1.5564,2.28882 0.95215,0.87891 2.25219,1.31836 1.31836,0.43945 2.89307,0.43945 2.0874,0 4.19312,-0.82397 2.12402,-0.84229 3.02124,-1.64795 h 0.1831 v 3.75366 q -1.7395,0.73242 -3.55224,1.22681 -1.81275,0.49438 -3.8086,0.49438 -5.09033,0 -7.94678,-2.74658 -2.85644,-2.76489 -2.85644,-7.83691 0,-5.01709 2.72827,-7.96509 2.74658,-2.948 7.21436,-2.948 4.13818,0 6.37207,2.41699 2.25219,2.41699 2.25219,6.86646 z m -3.35083,-2.63672 q -0.0183,-2.70996 -1.37329,-4.19311 -1.33667,-1.48316 -4.08325,-1.48316 -2.76489,0 -4.41284,1.62964 -1.62964,1.62964 -1.84937,4.04663 z"
         id="path18918" />
      <path
         style="color:#000000;fill:#b3b3b3;-inkscape-stroke:none"
         d="m 208.27966,615.62482 h -3.44238 v -28.49121 h 3.44238 z"
         id="path18920" />
    </g>
    <path
       style="color:#000000;fill:#b3b3b3;fill-rule:evenodd;-inkscape-stroke:none"
       d="m 219.87305,602.20703 v 2.61914 h 29.46484 v -2.61914 z"
       id="path20172" />
    <path
       style="color:#000000;fill:#b3b3b3;fill-rule:evenodd;-inkscape-stroke:none"
       d="m 237.9707,593.60156 -1.69922,1.99219 9.25391,7.89844 -9.25391,7.89843 1.69922,1.99219 11.58985,-9.89062 z"
       id="path20174" />
    <path
       style="color:#000000;fill:#b3b3b3;fill-rule:evenodd;-inkscape-stroke:none"
       d="m 219.87305,759.3457 v 2.61914 h 29.46484 v -2.61914 z"
       id="path20176" />
    <path
       style="color:#000000;fill:#b3b3b3;fill-rule:evenodd;-inkscape-stroke:none"
       d="m 237.9707,750.74023 -1.69922,1.99219 9.25391,7.89844 -9.25391,7.89844 1.69922,1.99218 11.58985,-9.89062 z"
       id="path20178" />
  </g>
</svg>
