<?xml version="1.0" encoding="UTF-8" standalone="no"?>
<!-- Created with Inkscape (http://www.inkscape.org/) -->

<svg
   width="998.15137"
   height="746.29321"
   id="svg2"
   version="1.1"
   inkscape:version="1.1 (c68e22c387, 2021-05-23)"
   sodipodi:docname="BJTs.svg"
   inkscape:export-filename="C:\Users\annarose\Desktop\BJTs.png"
   inkscape:export-xdpi="90"
   inkscape:export-ydpi="90"
   xmlns:inkscape="http://www.inkscape.org/namespaces/inkscape"
   xmlns:sodipodi="http://sodipodi.sourceforge.net/DTD/sodipodi-0.dtd"
   xmlns="http://www.w3.org/2000/svg"
   xmlns:svg="http://www.w3.org/2000/svg"
   xmlns:rdf="http://www.w3.org/1999/02/22-rdf-syntax-ns#"
   xmlns:cc="http://creativecommons.org/ns#"
   xmlns:dc="http://purl.org/dc/elements/1.1/">
  <defs
     id="defs4" />
  <sodipodi:namedview
     id="base"
     pagecolor="#ffffff"
     bordercolor="#666666"
     borderopacity="1.0"
     inkscape:pageopacity="0.0"
     inkscape:pageshadow="2"
     inkscape:zoom="1.1175232"
     inkscape:cx="498.87106"
     inkscape:cy="373.14661"
     inkscape:document-units="px"
     inkscape:current-layer="layer1"
     showgrid="false"
     inkscape:window-width="1912"
     inkscape:window-height="1042"
     inkscape:window-x="640"
     inkscape:window-y="324"
     inkscape:window-maximized="0"
     fit-margin-top="10"
     fit-margin-left="10"
     fit-margin-bottom="10"
     fit-margin-right="10"
     inkscape:pagecheckerboard="0"
     width="1000px" />
  <metadata
     id="metadata7">
    <rdf:RDF>
      <cc:Work
         rdf:about="">
        <dc:format>image/svg+xml</dc:format>
        <dc:type
           rdf:resource="http://purl.org/dc/dcmitype/StillImage" />
      </cc:Work>
    </rdf:RDF>
  </metadata>
  <g
     inkscape:label="Layer 1"
     inkscape:groupmode="layer"
     id="layer1"
     transform="translate(-71.870029,-96.90955)">
    <path
       id="path14905"
       style="fill:#333333;stroke-width:3.07131"
       d="m 765.99836,528.2724 c 0,-17.00188 107.90315,-8.05352 109.2454,0 l 8.78803,11.09111 -107.83226,143.12282 -10.20117,-8.84569 z"
       sodipodi:nodetypes="cccccc" />
    <path
       id="rect13448"
       style="fill:#333333;stroke-width:3.07131"
       d="m 271.10352,528.2724 c 0,-17.00188 107.90315,-8.05352 109.2454,0 l 8.78803,11.09111 -107.83226,143.12282 -10.20117,-8.84569 z"
       sodipodi:nodetypes="cccccc" />
    <rect
       style="fill:#4d4d4d;stroke:#b3b3b3;stroke-width:3.04608"
       id="rect13122"
       width="109.24541"
       height="142.98946"
       x="775.53339"
       y="539.47852" />
    <rect
       style="fill:#4d4d4d;stroke:#b3b3b3;stroke-width:3.04608"
       id="rect12844"
       width="109.24541"
       height="142.98946"
       x="281.00668"
       y="539.47852" />
    <path
       style="color:#000000;-inkscape-font-specification:'Comic Sans MS';fill:#b3b3b3;stroke-width:1.7078;-inkscape-stroke:none"
       d="m 185.24605,468.40192 q -0.85938,0 -4.62891,-3.33985 l -4.66797,-4.27734 q -3.30078,1.32812 -6.54297,1.32812 -5.8789,0 -10.35156,-4.6875 -4.45312,-4.6875 -4.45312,-10.60546 0,-6.97266 5.19531,-11.83594 5.07812,-4.72656 12.01172,-4.72656 7.30469,0 11.07422,5.46875 3.20312,4.6875 3.20312,12.1289 0,6.46485 -6.32812,10.87891 l 4.25781,3.92578 2.51953,2.14844 q 0.74219,0.70312 0.74219,1.52343 0,0.80079 -0.60547,1.42579 -0.58594,0.64453 -1.42578,0.64453 z m -13.4375,-34.10157 q -5.35156,0 -9.21875,3.57422 -3.98438,3.67188 -3.98438,8.94532 0,4.27734 3.30078,7.73437 3.32032,3.51563 7.5,3.51563 1.34766,0 2.77344,-0.33204 -3.76953,-3.28125 -3.76953,-5.17578 0,-0.85937 0.625,-1.42578 0.64453,-0.5664 1.42578,-0.5664 0.9375,0 1.66016,0.9375 1.93359,2.51953 4.375,4.51171 5.5664,-3.24218 5.5664,-8.16406 0,-5.80078 -2.36328,-9.41406 -2.69531,-4.14063 -7.89062,-4.14063 z"
       id="path12236" />
    <path
       style="color:#000000;-inkscape-font-specification:'Comic Sans MS';fill:#b3b3b3;stroke-width:1.7078;-inkscape-stroke:none"
       d="m 201.9062,467.86676 h -3.88671 l -3.86719,-0.0195 q -1.36719,0 -1.91406,-0.17578 -0.9961,-0.35156 -0.9961,-1.48438 0,-1.97265 3.06641,-1.97265 l 0.9375,0.0195 0.80078,0.0391 q 0,-0.9375 -0.17578,-2.77344 -0.15625,-1.83593 -0.15625,-2.7539 0,-2.48047 0.44922,-7.53907 0.42968,-4.98046 0.41015,-7.55859 -2.61718,2.03125 -3.33984,2.03125 -0.78125,0 -1.36719,-0.58594 -0.5664,-0.58593 -0.5664,-1.34765 0,-0.91797 1.67968,-2.22657 1.05469,-0.74218 2.98828,-2.38281 1.71875,-1.73828 3.28125,-1.73828 1.3086,0 1.3086,1.50391 0,0.44922 -0.11719,1.34765 -0.11719,0.87891 -0.11719,1.32813 0,0.64453 0.0586,1.95312 0.0781,1.3086 0.0781,1.95313 0,2.22656 -0.46875,6.64062 -0.46875,4.41407 -0.46875,6.6211 0,1.13281 0.15625,2.7539 0.15625,1.6211 0.17578,2.65625 l 2.05078,-0.0391 q 0.82032,0 1.34766,0.54688 0.54688,0.52734 0.54688,1.32812 0,0.82031 -0.54688,1.34766 -0.52734,0.52734 -1.34766,0.52734 z"
       id="path12238" />
    <path
       style="color:#000000;-inkscape-font-specification:'Comic Sans MS';fill:#b3b3b3;stroke-width:1.7078;-inkscape-stroke:none"
       d="m 663.42871,468.40192 q -0.85937,0 -4.62891,-3.33985 l -4.66796,-4.27734 q -3.30079,1.32812 -6.54297,1.32812 -5.87891,0 -10.35157,-4.6875 -4.45312,-4.6875 -4.45312,-10.60546 0,-6.97266 5.19531,-11.83594 5.07813,-4.72656 12.01172,-4.72656 7.30469,0 11.07422,5.46875 3.20312,4.6875 3.20312,12.1289 0,6.46485 -6.32812,10.87891 l 4.25781,3.92578 2.51953,2.14844 q 0.74219,0.70312 0.74219,1.52343 0,0.80079 -0.60547,1.42579 -0.58594,0.64453 -1.42578,0.64453 z m -13.4375,-34.10157 q -5.35156,0 -9.21875,3.57422 -3.98437,3.67188 -3.98437,8.94532 0,4.27734 3.30078,7.73437 3.32031,3.51563 7.5,3.51563 1.34765,0 2.77343,-0.33204 -3.76953,-3.28125 -3.76953,-5.17578 0,-0.85937 0.625,-1.42578 0.64453,-0.5664 1.42578,-0.5664 0.9375,0 1.66016,0.9375 1.93359,2.51953 4.375,4.51171 5.56641,-3.24218 5.56641,-8.16406 0,-5.80078 -2.36328,-9.41406 -2.69532,-4.14063 -7.89063,-4.14063 z"
       id="path12231" />
    <path
       style="color:#000000;-inkscape-font-specification:'Comic Sans MS';fill:#b3b3b3;stroke-width:1.7078;-inkscape-stroke:none"
       d="m 686.02637,467.88629 q -0.48828,0 -1.38672,-0.29297 -0.87891,-0.3125 -1.34766,-0.3125 -0.99609,0 -2.98828,0.11719 -1.99219,0.11719 -3.00781,0.11719 -0.76172,0 -2.26563,0.19531 -1.48437,0.19531 -2.24609,0.19531 -0.21484,0 -0.625,-0.0781 -0.41016,-0.0781 -0.625,-0.0781 -1.34766,0 -1.75781,-1.30859 -0.23438,-0.68359 -0.23438,-2.34375 0,-4.55078 2.48047,-7.32422 1.13281,-1.26953 6.11328,-4.6875 2.79297,-1.91406 3.73047,-2.98828 1.67969,-1.875 1.67969,-4.39453 0,-1.25 -1.6211,-2.22656 -1.42578,-0.87891 -2.79296,-0.87891 -1.79688,0 -3.41797,1.03516 l -2.79297,2.1875 q -0.83985,0.66406 -1.34766,0.66406 -2.01172,0 -2.01172,-1.60156 0,-0.91797 0.74219,-1.58204 2.28516,-2.14843 3.96484,-3.10546 2.36329,-1.34766 4.86329,-1.34766 3.16406,0 5.64453,1.71875 2.77343,1.93359 2.77343,4.96094 0,1.99218 -0.5664,3.67187 -0.56641,1.67969 -1.71875,3.06641 -1.46485,1.75781 -4.96094,3.92578 -3.67187,2.30469 -4.82422,3.49609 -2.16797,2.2461 -2.1289,5.44922 l 4.02343,-0.37109 q 4.14063,-0.23438 5.91797,-0.23438 1.48438,0 2.8125,0.50782 1.75781,0.68359 1.75781,1.89453 0,0.76172 -0.52734,1.36718 -0.52734,0.58594 -1.30859,0.58594 z"
       id="path12233" />
    <path
       style="color:#000000;fill:#b3b3b3;stroke-linecap:round;stroke-linejoin:bevel;-inkscape-stroke:none"
       d="m 274.77539,268.36133 c -36.20629,0 -65.58984,29.38356 -65.58984,65.58984 0,36.20629 29.38355,65.58789 65.58984,65.58789 36.20628,0 65.58789,-29.3816 65.58789,-65.58789 0,-36.20628 -29.38161,-65.58984 -65.58789,-65.58984 z m 0,3 c 34.58497,0 62.58789,28.00488 62.58789,62.58984 0,34.58497 -28.00292,62.58789 -62.58789,62.58789 -34.58497,0 -62.58984,-28.00292 -62.58984,-62.58789 0,-34.58496 28.00487,-62.58984 62.58984,-62.58984 z"
       id="path2987" />
    <path
       style="color:#000000;fill:#b3b3b3;stroke-width:1.7078;-inkscape-stroke:none"
       d="m 244.50995,298.34505 h 9.79146 v 68.54021 h -9.79146 z"
       id="rect2990" />
    <path
       style="color:#000000;fill:#b3b3b3;-inkscape-stroke:none"
       d="m 245.38281,329.7793 -75.66211,0.89062 0.0352,3 75.66211,-0.89062 z"
       id="path2993" />
    <path
       style="color:#000000;fill:#b3b3b3;-inkscape-stroke:none"
       d="m 311.55078,228.76367 -1.75195,51.76758 -57.11524,31.63477 1.45508,2.62304 58.60156,-32.45703 1.8086,-53.4668 z"
       id="path2995" />
    <path
       style="color:#000000;fill:#b3b3b3;-inkscape-stroke:none"
       d="m 254.13867,352.57031 -1.45508,2.62305 57.11524,31.63476 1.75195,51.76758 2.99805,-0.10156 -1.8086,-53.4668 z"
       id="path2997" />
    <path
       style="color:#000000;fill:#b3b3b3;stroke-width:1.7078;-inkscape-stroke:none"
       d="m 311.26988,385.9269 -9.14891,-16.16305 -8.84394,15.55313 z"
       id="path3041" />
    <path
       style="color:#000000;-inkscape-font-specification:'Comic Sans MS';fill:#b3b3b3;stroke-width:1.7078;-inkscape-stroke:none"
       d="m 157.44817,345.29712 q -4.39454,1.71875 -11.23047,1.71875 -0.83985,0 -1.60157,-0.80078 -0.74218,-0.78125 -0.74218,-1.6211 v -5.68359 q 0,-2.79297 0.35156,-7.96875 0.39062,-5.58594 0.42969,-8.08594 -0.0195,-1.79687 0.21484,-5.35156 0.13672,-0.97656 0.64453,-1.28906 2.65625,-0.82031 6.03516,-0.82031 3.4375,0 6.60156,2.34375 3.65234,2.69531 3.65234,6.66015 0,5.01953 -3.90625,7.91016 2.92969,1.25 4.375,2.77344 1.46485,1.52343 1.46485,3.32031 0,2.36328 -2.5586,4.57031 -1.77734,1.5625 -3.73046,2.32422 z m -5.89844,-25.91797 q -2.12891,0 -2.98828,0.13672 l -0.0391,3.41797 -0.39062,7.55859 q 2.77344,0.23438 2.96875,0.21485 2.94922,-0.23438 4.82422,-1.83594 2.01172,-1.73828 2.01172,-4.47266 0,-1.85547 -2.05078,-3.4375 -2.05079,-1.58203 -4.33594,-1.58203 z m 2.1875,15.64453 -2.07031,-0.33203 q -0.25391,0 -0.78125,0.0391 -0.50782,0.0195 -0.78125,0.0195 -1.05469,0 -2.2461,-0.17578 -0.11719,2.46094 -0.11719,4.39453 v 4.04297 q 5.11719,-0.17578 8.33985,-1.44531 1.36719,-0.52734 2.61719,-1.64062 1.1914,-1.01563 1.1914,-1.52344 0,-0.91797 -2.5,-2.07031 -1.875,-0.87891 -3.65234,-1.3086 z"
       id="path12228" />
    <path
       style="color:#000000;-inkscape-font-specification:'Comic Sans MS';fill:#b3b3b3;stroke-width:1.7078;-inkscape-stroke:none"
       d="m 321.689,198.19504 q -1.25,0 -1.875,-1.46485 -0.54688,-1.25 -1.01563,-1.52343 -0.41016,-0.21485 -2.03125,-0.21485 -2.83203,0 -6.28906,4.33594 -4.6875,5.82031 -4.6875,11.03516 0,2.51953 1.62109,4.33593 1.66016,1.875 4.00391,1.875 2.01172,0 4.04297,-1.03515 1.13281,-0.58594 3.47656,-2.30469 1.11328,-0.82031 1.67969,-0.82031 0.83984,0 1.40625,0.64453 0.5664,0.625 0.5664,1.40625 0,0.87891 -0.74218,1.54297 -5.15625,4.57031 -10.42969,4.57031 -4.04297,0 -6.83594,-3.10547 -2.69531,-3.00781 -2.69531,-7.10937 0,-6.6211 5.54687,-13.57422 4.62891,-5.80078 9.33594,-5.80078 0.95703,0 1.71875,0.0976 0.76172,0.0781 1.34766,0.27344 0.68359,-0.99609 1.77734,-0.99609 1.34766,0 1.69922,1.77734 0.3125,1.58203 0.3125,3.88672 0,0.80078 -0.42969,1.40625 -0.52734,0.76172 -1.5039,0.76172 z"
       id="path12225" />
    <path
       style="color:#000000;-inkscape-font-specification:'Comic Sans MS';fill:#b3b3b3;stroke-width:1.7078;-inkscape-stroke:none"
       d="m 320.23047,451.88388 q -0.27344,0 -0.60547,-0.0977 -3.30078,-0.9375 -6.36719,-0.9375 -1.60156,0 -3.49609,0.29297 -1.89453,0.29297 -4.08203,0.89844 0.17578,1.26953 0.17578,2.03125 0,2.71484 -0.33203,7.46094 l 8.55468,-0.82031 q 3.76954,-0.39063 4.62891,-0.39063 0.85938,0 1.44531,0.54688 0.58594,0.54687 0.58594,1.46484 0,1.77734 -1.79687,1.99219 l -4.64844,0.41015 -9.02344,0.82032 q -0.0781,1.38671 -0.13672,2.63671 -0.0391,1.23047 -0.0391,2.30469 0,4.31641 0.625,5.07813 0.46875,0.54687 3.06641,0.54687 1.21093,0 3.63281,-0.0586 2.4414,-0.0781 3.67187,-0.0781 0.39063,0 1.15235,-0.11718 0.76172,-0.13672 1.13281,-0.13672 2.07031,0 2.07031,2.03125 0,1.64062 -1.66015,1.97265 -1.83594,0.3711 -7.94922,0.3711 -6.05469,0 -7.77344,-1.60157 -1.875,-1.73828 -1.875,-8.00781 0,-1.25 0.0586,-2.73437 0.0586,-1.48438 0.15625,-3.20313 -0.21484,-0.44922 -0.21484,-0.95703 0,-0.66406 0.37109,-1.19141 0.39063,-5.64453 0.39063,-8.33984 0,-0.72266 -0.19531,-2.10937 -0.19532,-1.40625 -0.19532,-2.12891 0,-2.32422 1.95313,-2.32422 0.82031,0 1.40625,0.56641 2.34375,-0.625 4.41406,-0.9375 2.08984,-0.3125 3.92578,-0.3125 4.7461,0 7.57813,1.13281 1.30859,0.52734 1.30859,1.875 0,0.78125 -0.50781,1.38672 -0.56641,0.66406 -1.40625,0.66406 z"
       id="path12222" />
    <path
       style="color:#000000;fill:#b3b3b3;stroke-linecap:round;stroke-linejoin:bevel;-inkscape-stroke:none"
       d="m 745.20508,268.25781 c -36.2063,0 -65.58985,29.38356 -65.58985,65.58985 0,36.20628 29.38355,65.58984 65.58985,65.58984 36.20628,0 65.58984,-29.38356 65.58984,-65.58984 0,-36.20629 -29.38356,-65.58985 -65.58984,-65.58985 z m 0,3 c 34.58496,0 62.58984,28.00488 62.58984,62.58985 0,34.58496 -28.00488,62.58984 -62.58984,62.58984 -34.58498,0 -62.58985,-28.00488 -62.58985,-62.58984 0,-34.58497 28.00487,-62.58985 62.58985,-62.58985 z"
       id="path2999" />
    <path
       style="color:#000000;fill:#b3b3b3;stroke-width:1.7078;-inkscape-stroke:none"
       d="m 714.94071,298.24289 h 9.79144 v 68.54021 h -9.79144 z"
       id="path3001" />
    <path
       style="color:#000000;fill:#b3b3b3;-inkscape-stroke:none"
       d="m 715.8125,329.67773 -75.66016,0.89063 0.0352,3 75.66016,-0.89063 z"
       id="path3003" />
    <path
       style="color:#000000;fill:#b3b3b3;-inkscape-stroke:none"
       d="m 781.98242,228.66211 -1.75195,51.76758 -57.11524,31.63281 1.45313,2.625 58.60351,-32.45703 1.8086,-53.4668 z"
       id="path3005" />
    <path
       style="color:#000000;fill:#b3b3b3;-inkscape-stroke:none"
       d="m 724.56836,352.4668 -1.45313,2.625 57.11524,31.63281 1.75195,51.76758 2.99805,-0.10157 -1.8086,-53.46679 z"
       id="path3007" />
    <path
       style="color:#000000;fill:#b3b3b3;stroke-width:1.7078;-inkscape-stroke:none"
       d="m 724.49529,312.43073 10.0638,-16.16307 8.84394,17.68787 z"
       id="path3043" />
    <path
       style="color:#000000;-inkscape-font-specification:'Comic Sans MS';fill:#b3b3b3;stroke-width:1.7078;-inkscape-stroke:none"
       d="m 628.79962,345.29712 q -4.39453,1.71875 -11.23047,1.71875 -0.83984,0 -1.60156,-0.80078 -0.74219,-0.78125 -0.74219,-1.6211 v -5.68359 q 0,-2.79297 0.35157,-7.96875 0.39062,-5.58594 0.42968,-8.08594 -0.0195,-1.79687 0.21485,-5.35156 0.13672,-0.97656 0.64453,-1.28906 2.65625,-0.82031 6.03515,-0.82031 3.4375,0 6.60157,2.34375 3.65234,2.69531 3.65234,6.66015 0,5.01953 -3.90625,7.91016 2.92969,1.25 4.375,2.77344 1.46484,1.52343 1.46484,3.32031 0,2.36328 -2.55859,4.57031 -1.77734,1.5625 -3.73047,2.32422 z m -5.89844,-25.91797 q -2.1289,0 -2.98828,0.13672 l -0.0391,3.41797 -0.39062,7.55859 q 2.77343,0.23438 2.96875,0.21485 2.94921,-0.23438 4.82421,-1.83594 2.01172,-1.73828 2.01172,-4.47266 0,-1.85547 -2.05078,-3.4375 -2.05078,-1.58203 -4.33594,-1.58203 z m 2.1875,15.64453 -2.07031,-0.33203 q -0.2539,0 -0.78125,0.0391 -0.50781,0.0195 -0.78125,0.0195 -1.05469,0 -2.24609,-0.17578 -0.11719,2.46094 -0.11719,4.39453 v 4.04297 q 5.11719,-0.17578 8.33984,-1.44531 1.36719,-0.52734 2.61719,-1.64062 1.19141,-1.01563 1.19141,-1.52344 0,-0.91797 -2.5,-2.07031 -1.875,-0.87891 -3.65235,-1.3086 z"
       id="path12219" />
    <path
       style="color:#000000;-inkscape-font-specification:'Comic Sans MS';fill:#b3b3b3;stroke-width:1.7078;-inkscape-stroke:none"
       d="m 793.04041,198.19504 q -1.25,0 -1.875,-1.46485 -0.54688,-1.25 -1.01563,-1.52343 -0.41016,-0.21485 -2.03125,-0.21485 -2.83203,0 -6.28906,4.33594 -4.6875,5.82031 -4.6875,11.03516 0,2.51953 1.62109,4.33593 1.66016,1.875 4.00391,1.875 2.01172,0 4.04297,-1.03515 1.13281,-0.58594 3.47656,-2.30469 1.11328,-0.82031 1.67969,-0.82031 0.83984,0 1.40625,0.64453 0.5664,0.625 0.5664,1.40625 0,0.87891 -0.74218,1.54297 -5.15625,4.57031 -10.42969,4.57031 -4.04297,0 -6.83594,-3.10547 -2.69531,-3.00781 -2.69531,-7.10937 0,-6.6211 5.54687,-13.57422 4.62891,-5.80078 9.33594,-5.80078 0.95703,0 1.71875,0.0976 0.76172,0.0781 1.34766,0.27344 0.68359,-0.99609 1.77734,-0.99609 1.34766,0 1.69922,1.77734 0.3125,1.58203 0.3125,3.88672 0,0.80078 -0.42969,1.40625 -0.52734,0.76172 -1.5039,0.76172 z"
       id="path12216" />
    <path
       style="color:#000000;-inkscape-font-specification:'Comic Sans MS';fill:#b3b3b3;stroke-width:1.7078;-inkscape-stroke:none"
       d="m 791.58191,451.88388 q -0.27344,0 -0.60547,-0.0977 -3.30078,-0.9375 -6.36719,-0.9375 -1.60156,0 -3.49609,0.29297 -1.89453,0.29297 -4.08203,0.89844 0.17578,1.26953 0.17578,2.03125 0,2.71484 -0.33203,7.46094 l 8.55469,-0.82031 q 3.76953,-0.39063 4.6289,-0.39063 0.85938,0 1.44531,0.54688 0.58594,0.54687 0.58594,1.46484 0,1.77734 -1.79687,1.99219 l -4.64844,0.41015 -9.02344,0.82032 q -0.0781,1.38671 -0.13672,2.63671 -0.0391,1.23047 -0.0391,2.30469 0,4.31641 0.625,5.07813 0.46875,0.54687 3.06641,0.54687 1.21093,0 3.63281,-0.0586 2.44141,-0.0781 3.67187,-0.0781 0.39063,0 1.15235,-0.11718 0.76172,-0.13672 1.13281,-0.13672 2.07031,0 2.07031,2.03125 0,1.64062 -1.66015,1.97265 -1.83594,0.3711 -7.94922,0.3711 -6.05469,0 -7.77344,-1.60157 -1.875,-1.73828 -1.875,-8.00781 0,-1.25 0.0586,-2.73437 0.0586,-1.48438 0.15625,-3.20313 -0.21484,-0.44922 -0.21484,-0.95703 0,-0.66406 0.37109,-1.19141 0.39063,-5.64453 0.39063,-8.33984 0,-0.72266 -0.19531,-2.10937 -0.19532,-1.40625 -0.19532,-2.12891 0,-2.32422 1.95313,-2.32422 0.82031,0 1.40625,0.56641 2.34375,-0.625 4.41406,-0.9375 2.08985,-0.3125 3.92578,-0.3125 4.7461,0 7.57813,1.13281 1.30859,0.52734 1.30859,1.875 0,0.78125 -0.50781,1.38672 -0.56641,0.66406 -1.40625,0.66406 z"
       id="path12213" />
    <path
       style="color:#000000;-inkscape-font-specification:'Comic Sans MS';fill:#b3b3b3;stroke-width:1.7078;-inkscape-stroke:none"
       d="m 396.53949,345.29712 q -4.39453,1.71875 -11.23047,1.71875 -0.83984,0 -1.60156,-0.80078 -0.74219,-0.78125 -0.74219,-1.6211 v -5.68359 q 0,-2.79297 0.35156,-7.96875 0.39063,-5.58594 0.42969,-8.08594 -0.0195,-1.79687 0.21484,-5.35156 0.13672,-0.97656 0.64454,-1.28906 2.65625,-0.82031 6.03515,-0.82031 3.4375,0 6.60156,2.34375 3.65235,2.69531 3.65235,6.66015 0,5.01953 -3.90625,7.91016 2.92969,1.25 4.375,2.77344 1.46484,1.52343 1.46484,3.32031 0,2.36328 -2.55859,4.57031 -1.77735,1.5625 -3.73047,2.32422 z m -5.89844,-25.91797 q -2.1289,0 -2.98828,0.13672 l -0.0391,3.41797 -0.39063,7.55859 q 2.77344,0.23438 2.96875,0.21485 2.94922,-0.23438 4.82422,-1.83594 2.01172,-1.73828 2.01172,-4.47266 0,-1.85547 -2.05078,-3.4375 -2.05078,-1.58203 -4.33594,-1.58203 z m 2.1875,15.64453 -2.07031,-0.33203 q -0.25391,0 -0.78125,0.0391 -0.50781,0.0195 -0.78125,0.0195 -1.05469,0 -2.24609,-0.17578 -0.11719,2.46094 -0.11719,4.39453 v 4.04297 q 5.11719,-0.17578 8.33984,-1.44531 1.36719,-0.52734 2.61719,-1.64062 1.19141,-1.01563 1.19141,-1.52344 0,-0.91797 -2.5,-2.07031 -1.875,-0.87891 -3.65235,-1.3086 z"
       id="path12210" />
    <path
       style="color:#000000;-inkscape-font-specification:'Comic Sans MS';fill:#b3b3b3;stroke-width:1.7078;-inkscape-stroke:none"
       d="m 502.71524,198.19504 q -1.25,0 -1.875,-1.46485 -0.54687,-1.25 -1.01562,-1.52343 -0.41016,-0.21485 -2.03125,-0.21485 -2.83204,0 -6.28907,4.33594 -4.6875,5.82031 -4.6875,11.03516 0,2.51953 1.6211,4.33593 1.66015,1.875 4.0039,1.875 2.01172,0 4.04297,-1.03515 1.13281,-0.58594 3.47656,-2.30469 1.11329,-0.82031 1.67969,-0.82031 0.83985,0 1.40625,0.64453 0.56641,0.625 0.56641,1.40625 0,0.87891 -0.74219,1.54297 -5.15625,4.57031 -10.42969,4.57031 -4.04297,0 -6.83593,-3.10547 -2.69532,-3.00781 -2.69532,-7.10937 0,-6.6211 5.54688,-13.57422 4.6289,-5.80078 9.33594,-5.80078 0.95703,0 1.71875,0.0976 0.76171,0.0781 1.34765,0.27344 0.6836,-0.99609 1.77735,-0.99609 1.34765,0 1.69921,1.77734 0.3125,1.58203 0.3125,3.88672 0,0.80078 -0.42968,1.40625 -0.52735,0.76172 -1.50391,0.76172 z"
       id="path12207" />
    <path
       style="color:#000000;-inkscape-font-specification:'Comic Sans MS';fill:#b3b3b3;stroke-width:1.7078;-inkscape-stroke:none"
       d="m 501.25674,451.88388 q -0.27343,0 -0.60546,-0.0977 -3.30079,-0.9375 -6.36719,-0.9375 -1.60156,0 -3.4961,0.29297 -1.89453,0.29297 -4.08203,0.89844 0.17578,1.26953 0.17578,2.03125 0,2.71484 -0.33203,7.46094 l 8.55469,-0.82031 q 3.76953,-0.39063 4.62891,-0.39063 0.85937,0 1.44531,0.54688 0.58594,0.54687 0.58594,1.46484 0,1.77734 -1.79688,1.99219 l -4.64844,0.41015 -9.02343,0.82032 q -0.0781,1.38671 -0.13672,2.63671 -0.0391,1.23047 -0.0391,2.30469 0,4.31641 0.625,5.07813 0.46875,0.54687 3.0664,0.54687 1.21094,0 3.63281,-0.0586 2.44141,-0.0781 3.67188,-0.0781 0.39062,0 1.15234,-0.11718 0.76172,-0.13672 1.13282,-0.13672 2.07031,0 2.07031,2.03125 0,1.64062 -1.66016,1.97265 -1.83594,0.3711 -7.94922,0.3711 -6.05468,0 -7.77343,-1.60157 -1.875,-1.73828 -1.875,-8.00781 0,-1.25 0.0586,-2.73437 0.0586,-1.48438 0.15625,-3.20313 -0.21484,-0.44922 -0.21484,-0.95703 0,-0.66406 0.37109,-1.19141 0.39062,-5.64453 0.39062,-8.33984 0,-0.72266 -0.19531,-2.10937 -0.19531,-1.40625 -0.19531,-2.12891 0,-2.32422 1.95312,-2.32422 0.82032,0 1.40625,0.56641 2.34375,-0.625 4.41407,-0.9375 2.08984,-0.3125 3.92578,-0.3125 4.74609,0 7.57812,1.13281 1.3086,0.52734 1.3086,1.875 0,0.78125 -0.50782,1.38672 -0.5664,0.66406 -1.40625,0.66406 z"
       id="path12204" />
    <path
       style="color:#000000;fill:#b3b3b3;-inkscape-stroke:none"
       d="m 492.34766,229.24023 v 208.84571 h 3 V 229.24023 Z"
       id="path3083" />
    <path
       style="color:#000000;fill:#b3b3b3;-inkscape-stroke:none"
       d="m 409.78711,328.91016 v 3 h 84.06055 v -3 z"
       id="path3085" />
    <path
       style="color:#000000;fill:#b3b3b3;-inkscape-stroke:none"
       d="m 482.60742,262.05469 v 3 h 22.48242 v -3 z"
       id="path12259" />
    <path
       style="color:#000000;fill:#b3b3b3;stroke-width:3;-inkscape-stroke:none"
       d="m 493.25639,263.55525 -10.05776,23.66529 h 21.29877 z"
       id="path12261" />
    <path
       style="color:#000000;fill:#b3b3b3;-inkscape-stroke:none"
       d="m 482.60742,397.58203 v 3 h 22.48242 v -3 z"
       id="path12271" />
    <path
       style="color:#000000;fill:#b3b3b3;stroke-width:3;-inkscape-stroke:none"
       d="M 493.25639,399.08112 483.19863,375.41583 H 504.4974 Z"
       id="path12273" />
    <path
       style="color:#000000;-inkscape-font-specification:'Comic Sans MS';fill:#b3b3b3;stroke-width:1.7078;-inkscape-stroke:none"
       d="m 874.72205,345.29712 q -4.39454,1.71875 -11.23047,1.71875 -0.83985,0 -1.60157,-0.80078 -0.74218,-0.78125 -0.74218,-1.6211 v -5.68359 q 0,-2.79297 0.35156,-7.96875 0.39062,-5.58594 0.42969,-8.08594 -0.0195,-1.79687 0.21484,-5.35156 0.13672,-0.97656 0.64453,-1.28906 2.65625,-0.82031 6.03516,-0.82031 3.4375,0 6.60156,2.34375 3.65234,2.69531 3.65234,6.66015 0,5.01953 -3.90625,7.91016 2.92969,1.25 4.375,2.77344 1.46485,1.52343 1.46485,3.32031 0,2.36328 -2.5586,4.57031 -1.77734,1.5625 -3.73046,2.32422 z m -5.89844,-25.91797 q -2.12891,0 -2.98828,0.13672 l -0.0391,3.41797 -0.39062,7.55859 q 2.77344,0.23438 2.96875,0.21485 2.94922,-0.23438 4.82422,-1.83594 2.01172,-1.73828 2.01172,-4.47266 0,-1.85547 -2.05078,-3.4375 -2.05079,-1.58203 -4.33594,-1.58203 z m 2.1875,15.64453 -2.07031,-0.33203 q -0.25391,0 -0.78125,0.0391 -0.50782,0.0195 -0.78125,0.0195 -1.05469,0 -2.2461,-0.17578 -0.11719,2.46094 -0.11719,4.39453 v 4.04297 q 5.11719,-0.17578 8.33985,-1.44531 1.36719,-0.52734 2.61719,-1.64062 1.1914,-1.01563 1.1914,-1.52344 0,-0.91797 -2.5,-2.07031 -1.875,-0.87891 -3.65234,-1.3086 z"
       id="path12201" />
    <path
       style="color:#000000;-inkscape-font-specification:'Comic Sans MS';fill:#b3b3b3;stroke-width:1.7078;-inkscape-stroke:none"
       d="m 980.89789,198.19504 q -1.25,0 -1.875,-1.46485 -0.54688,-1.25 -1.01563,-1.52343 -0.41015,-0.21485 -2.03125,-0.21485 -2.83203,0 -6.28906,4.33594 -4.6875,5.82031 -4.6875,11.03516 0,2.51953 1.62109,4.33593 1.66016,1.875 4.00391,1.875 2.01172,0 4.04297,-1.03515 1.13281,-0.58594 3.47656,-2.30469 1.11328,-0.82031 1.67969,-0.82031 0.83984,0 1.40625,0.64453 0.56641,0.625 0.56641,1.40625 0,0.87891 -0.74219,1.54297 -5.15625,4.57031 -10.42969,4.57031 -4.04297,0 -6.83594,-3.10547 -2.69531,-3.00781 -2.69531,-7.10937 0,-6.6211 5.54688,-13.57422 4.6289,-5.80078 9.33593,-5.80078 0.95703,0 1.71875,0.0976 0.76172,0.0781 1.34766,0.27344 0.68359,-0.99609 1.77734,-0.99609 1.34766,0 1.69922,1.77734 0.3125,1.58203 0.3125,3.88672 0,0.80078 -0.42969,1.40625 -0.52734,0.76172 -1.5039,0.76172 z"
       id="path12198" />
    <path
       style="color:#000000;-inkscape-font-specification:'Comic Sans MS';fill:#b3b3b3;stroke-width:1.7078;-inkscape-stroke:none"
       d="m 979.43933,451.88388 q -0.27344,0 -0.60547,-0.0977 -3.30078,-0.9375 -6.36719,-0.9375 -1.60156,0 -3.49609,0.29297 -1.89453,0.29297 -4.08203,0.89844 0.17578,1.26953 0.17578,2.03125 0,2.71484 -0.33203,7.46094 l 8.55469,-0.82031 q 3.76953,-0.39063 4.6289,-0.39063 0.85938,0 1.44532,0.54688 0.58593,0.54687 0.58593,1.46484 0,1.77734 -1.79687,1.99219 l -4.64844,0.41015 -9.02344,0.82032 q -0.0781,1.38671 -0.13672,2.63671 -0.0391,1.23047 -0.0391,2.30469 0,4.31641 0.625,5.07813 0.46875,0.54687 3.06641,0.54687 1.21094,0 3.63281,-0.0586 2.44141,-0.0781 3.67188,-0.0781 0.39062,0 1.15234,-0.11718 0.76172,-0.13672 1.13281,-0.13672 2.07031,0 2.07031,2.03125 0,1.64062 -1.66015,1.97265 -1.83594,0.3711 -7.94922,0.3711 -6.05469,0 -7.77344,-1.60157 -1.875,-1.73828 -1.875,-8.00781 0,-1.25 0.0586,-2.73437 0.0586,-1.48438 0.15625,-3.20313 -0.21485,-0.44922 -0.21485,-0.95703 0,-0.66406 0.3711,-1.19141 0.39062,-5.64453 0.39062,-8.33984 0,-0.72266 -0.19531,-2.10937 -0.19531,-1.40625 -0.19531,-2.12891 0,-2.32422 1.95312,-2.32422 0.82031,0 1.40625,0.56641 2.34375,-0.625 4.41406,-0.9375 2.08985,-0.3125 3.92578,-0.3125 4.7461,0 7.57813,1.13281 1.30859,0.52734 1.30859,1.875 0,0.78125 -0.50781,1.38672 -0.56641,0.66406 -1.40625,0.66406 z"
       id="path12195" />
    <path
       style="color:#000000;fill:#b3b3b3;-inkscape-stroke:none"
       d="m 970.53125,229.24023 v 208.84571 h 3 V 229.24023 Z"
       id="path3113" />
    <path
       style="color:#000000;fill:#b3b3b3;-inkscape-stroke:none"
       d="m 887.9707,328.91016 v 3 h 84.06055 v -3 z"
       id="path3115" />
    <path
       style="color:#000000;fill:#b3b3b3;-inkscape-stroke:none"
       d="m 960.78906,284.86719 v 3 h 22.48242 v -3 z"
       id="path12267" />
    <path
       style="color:#000000;fill:#b3b3b3;stroke-width:3;-inkscape-stroke:none"
       d="m 971.43901,286.36664 -10.05775,-23.66529 h 21.29877 z"
       id="path12269" />
    <path
       style="color:#000000;fill:#b3b3b3;-inkscape-stroke:none"
       d="m 960.78906,374.76953 v 3 h 22.48242 v -3 z"
       id="path12263" />
    <path
       style="color:#000000;fill:#b3b3b3;stroke-width:3;-inkscape-stroke:none"
       d="m 971.43901,376.26973 -10.05775,23.66529 h 21.29877 z"
       id="path12265" />
    <path
       style="color:#000000;-inkscape-font-specification:'Comic Sans MS';fill:#b3b3b3;stroke-width:1.7078;-inkscape-stroke:none"
       d="m 336.86319,790.98303 q -4.39453,1.71875 -11.23047,1.71875 -0.83984,0 -1.60156,-0.80078 -0.74219,-0.78125 -0.74219,-1.62109 v -5.6836 q 0,-2.79297 0.35156,-7.96875 0.39063,-5.58593 0.42969,-8.08593 -0.0195,-1.79688 0.21484,-5.35157 0.13672,-0.97656 0.64454,-1.28906 2.65625,-0.82031 6.03515,-0.82031 3.4375,0 6.60156,2.34375 3.65235,2.69531 3.65235,6.66015 0,5.01954 -3.90625,7.91016 2.92969,1.25 4.375,2.77344 1.46484,1.52344 1.46484,3.32031 0,2.36328 -2.55859,4.57031 -1.77735,1.5625 -3.73047,2.32422 z m -5.89844,-25.91797 q -2.1289,0 -2.98828,0.13672 l -0.0391,3.41797 -0.39063,7.55859 q 2.77344,0.23438 2.96875,0.21485 2.94922,-0.23438 4.82422,-1.83594 2.01172,-1.73828 2.01172,-4.47266 0,-1.85546 -2.05078,-3.4375 -2.05078,-1.58203 -4.33594,-1.58203 z m 2.1875,15.64453 -2.07031,-0.33203 q -0.25391,0 -0.78125,0.0391 -0.50781,0.0195 -0.78125,0.0195 -1.05469,0 -2.24609,-0.17578 -0.11719,2.46093 -0.11719,4.39453 v 4.04297 q 5.11719,-0.17579 8.33984,-1.44532 1.36719,-0.52734 2.61719,-1.64062 1.19141,-1.01563 1.19141,-1.52344 0,-0.91797 -2.5,-2.07031 -1.875,-0.87891 -3.65235,-1.3086 z"
       id="path12192" />
    <path
       style="color:#000000;-inkscape-font-specification:'Comic Sans MS';fill:#b3b3b3;stroke-width:1.7078;-inkscape-stroke:none"
       d="m 379.09219,769.01355 q -1.25,0 -1.875,-1.46484 -0.54687,-1.25 -1.01562,-1.52344 -0.41016,-0.21485 -2.03125,-0.21485 -2.83203,0 -6.28906,4.33594 -4.6875,5.82031 -4.6875,11.03516 0,2.51953 1.62109,4.33594 1.66016,1.875 4.00391,1.875 2.01171,0 4.04296,-1.03516 1.13282,-0.58594 3.47657,-2.30469 1.11328,-0.82031 1.67968,-0.82031 0.83985,0 1.40625,0.64453 0.56641,0.625 0.56641,1.40625 0,0.87891 -0.74219,1.54297 -5.15625,4.57031 -10.42968,4.57031 -4.04297,0 -6.83594,-3.10547 -2.69531,-3.00781 -2.69531,-7.10937 0,-6.6211 5.54687,-13.57422 4.62891,-5.80078 9.33594,-5.80078 0.95703,0 1.71875,0.0977 0.76172,0.0781 1.34765,0.27344 0.6836,-0.99609 1.77735,-0.99609 1.34765,0 1.69922,1.77734 0.3125,1.58203 0.3125,3.88672 0,0.80078 -0.42969,1.40625 -0.52734,0.76172 -1.50391,0.76172 z"
       id="path12189" />
    <path
       style="color:#000000;-inkscape-font-specification:'Comic Sans MS';fill:#b3b3b3;stroke-width:1.7078;-inkscape-stroke:none"
       d="m 304.37177,764.63855 q -0.27344,0 -0.60547,-0.0977 -3.30078,-0.9375 -6.36719,-0.9375 -1.60156,0 -3.49609,0.29297 -1.89454,0.29297 -4.08204,0.89844 0.17579,1.26953 0.17579,2.03125 0,2.71484 -0.33204,7.46094 l 8.55469,-0.82032 q 3.76953,-0.39062 4.62891,-0.39062 0.85937,0 1.44531,0.54687 0.58594,0.54688 0.58594,1.46485 0,1.77734 -1.79688,1.99219 l -4.64843,0.41015 -9.02344,0.82031 q -0.0781,1.38672 -0.13672,2.63672 -0.0391,1.23047 -0.0391,2.30469 0,4.31641 0.625,5.07813 0.46875,0.54687 3.0664,0.54687 1.21094,0 3.63282,-0.0586 2.4414,-0.0781 3.67187,-0.0781 0.39063,0 1.15234,-0.11719 0.76172,-0.13671 1.13282,-0.13671 2.07031,0 2.07031,2.03125 0,1.64062 -1.66016,1.97265 -1.83593,0.3711 -7.94922,0.3711 -6.05468,0 -7.77343,-1.60157 -1.875,-1.73828 -1.875,-8.00781 0,-1.25 0.0586,-2.73437 0.0586,-1.48438 0.15625,-3.20313 -0.21484,-0.44922 -0.21484,-0.95703 0,-0.66406 0.37109,-1.19141 0.39063,-5.64453 0.39063,-8.33984 0,-0.72266 -0.19532,-2.10938 -0.19531,-1.40625 -0.19531,-2.1289 0,-2.32422 1.95313,-2.32422 0.82031,0 1.40625,0.56641 2.34375,-0.625 4.41406,-0.9375 2.08984,-0.3125 3.92578,-0.3125 4.74609,0 7.57812,1.13281 1.3086,0.52734 1.3086,1.875 0,0.78125 -0.50781,1.38672 -0.56641,0.66406 -1.40625,0.66406 z"
       id="path12186" />
    <path
       style="color:#000000;fill:#b3b3b3;-inkscape-stroke:none"
       d="m 269.60352,527.74805 v 145.89257 h 1.5 V 529.24805 h 108.84765 v -1.5 z"
       id="path3830" />
    <path
       style="color:#000000;fill:#b3b3b3;-inkscape-stroke:none"
       d="m 317.24609,518.71289 c -13.77479,0.0525 -26.89594,0.75438 -36.05273,2.09375 -4.5784,0.66969 -8.13413,1.46071 -10.48828,2.5625 -1.17708,0.55089 -2.15703,1.15042 -2.67774,2.28906 -0.26035,0.56933 -0.31965,1.28934 -0.13867,1.90625 0.18099,0.61692 0.54127,1.11744 0.97656,1.55274 l 10.2461,10.24609 2.12109,-2.12109 -10.24609,-10.2461 c -0.11122,-0.11121 -0.0991,-0.11455 -0.12696,-0.16015 0.0464,-0.043 0.31251,-0.3734 1.11719,-0.75 1.75904,-0.82326 5.20165,-1.65983 9.65039,-2.31055 8.89748,-1.30144 21.94971,-2.01039 35.62891,-2.0625 13.6792,-0.0521 28.00717,0.54921 39.51172,1.83398 5.75227,0.64239 10.80283,1.45768 14.67578,2.42969 3.87295,0.97202 6.57541,2.23476 7.42578,3.11914 l 0.01,0.01 10.25781,10.25781 2.12109,-2.12109 -10.22656,-10.22657 c -1.7643,-1.83487 -4.77361,-2.92428 -8.85742,-3.94921 -4.08381,-1.02494 -9.23503,-1.85008 -15.07227,-2.50196 -11.67447,-1.30374 -26.08067,-1.90403 -39.85547,-1.85156 z"
       id="path3832" />
    <path
       style="color:#000000;fill:#b3b3b3;-inkscape-stroke:none"
       d="m 267.79492,526.58984 v 144.88868 l 11.24414,12.97265 2.26563,-1.96484 -10.50977,-12.12696 V 526.58984 Z"
       id="path3834" />
    <path
       style="color:#000000;fill:#b3b3b3;-inkscape-stroke:none"
       d="m 306.7832,683.69531 -9.27343,71.95703 2.97656,0.38282 9.27148,-71.95508 z"
       id="path3884" />
    <path
       style="color:#000000;fill:#b3b3b3;-inkscape-stroke:none"
       d="m 358.55078,683.69531 -2.97656,0.38477 9.27344,71.95508 2.97461,-0.38282 z"
       id="path3886" />
    <path
       style="color:#000000;fill:#b3b3b3;-inkscape-stroke:none"
       d="m 330.96484,683.86914 -0.83593,71.11914 3,0.0352 0.83593,-71.11914 z"
       id="path3888" />
    <path
       style="color:#000000;-inkscape-font-specification:'Comic Sans MS';fill:#b3b3b3;stroke-width:1.7078;-inkscape-stroke:none"
       d="m 328.65494,598.57599 q -0.39063,0 -1.10938,-0.23438 -0.70312,-0.25 -1.07812,-0.25 -0.79688,0 -2.39063,0.0937 -1.59375,0.0937 -2.40625,0.0937 -0.60937,0 -1.8125,0.15625 -1.1875,0.15625 -1.79687,0.15625 -0.17188,0 -0.5,-0.0625 -0.32813,-0.0625 -0.5,-0.0625 -1.07813,0 -1.40625,-1.04687 -0.1875,-0.54688 -0.1875,-1.875 0,-3.64063 1.98437,-5.85938 0.90625,-1.01562 4.89063,-3.75 2.23437,-1.53125 2.98437,-2.39062 1.34375,-1.5 1.34375,-3.51563 0,-1 -1.29687,-1.78125 -1.14063,-0.70312 -2.23438,-0.70312 -1.4375,0 -2.73437,0.82812 l -2.23438,1.75 q -0.67187,0.53125 -1.07812,0.53125 -1.60938,0 -1.60938,-1.28125 0,-0.73437 0.59375,-1.26562 1.82813,-1.71875 3.17188,-2.48438 1.89062,-1.07812 3.89062,-1.07812 2.53125,0 4.51563,1.375 2.21875,1.54687 2.21875,3.96875 0,1.59375 -0.45313,2.9375 -0.45312,1.34375 -1.375,2.45312 -1.17187,1.40625 -3.96875,3.14063 -2.9375,1.84375 -3.85937,2.79687 -1.73438,1.79688 -1.70313,4.35938 l 3.21875,-0.29688 q 3.3125,-0.1875 4.73438,-0.1875 1.1875,0 2.25,0.40625 1.40625,0.54688 1.40625,1.51563 0,0.60937 -0.42188,1.09375 -0.42187,0.46875 -1.04687,0.46875 z"
       id="path12171" />
    <path
       style="color:#000000;-inkscape-font-specification:'Comic Sans MS';fill:#b3b3b3;stroke-width:1.7078;-inkscape-stroke:none"
       d="m 356.51431,595.07599 q 0,0.75 -0.25,2.5 -0.25,1.57812 -1.67187,1.57812 -0.85938,0 -2.04688,-1.125 -6.35937,-6.01562 -14.59375,-17.35937 l -0.0781,3.54687 -0.0469,3.5625 q 0,1.29688 0.0469,3.89063 0.0625,2.59375 0.0625,3.90625 0,4.20312 -1.625,4.20312 -0.85938,0 -1.35938,-0.54687 -0.45312,-0.48438 -0.45312,-1.15625 0,-0.65625 0.0937,-1.98438 0.10937,-1.32812 0.10937,-1.98437 0,-0.96875 0.0625,-2.89063 0.0625,-1.9375 0.0625,-2.90625 0,-1.03125 -0.0469,-3.10937 -0.0469,-2.09375 -0.0469,-3.125 0,-0.98438 -0.1875,-2.92188 -0.1875,-1.95312 -0.1875,-2.9375 0,-0.71875 0.60938,-1.3125 0.625,-0.59375 1.40625,-0.59375 0.82812,0 2.04687,1.8125 3.89063,5.82813 7,9.6875 3.70313,4.57813 8.125,8.75 0.0469,-0.67187 0,-1.98437 l -0.0469,-1.96875 q 0,-6.85938 -0.53125,-10.92188 -0.0625,-0.40625 -0.42188,-1.64062 -0.3125,-1.0625 -0.3125,-1.65625 0,-1.8125 1.65625,-1.8125 2.71875,0 2.71875,10.14062 0,1.73438 -0.0469,5.1875 -0.0469,3.4375 -0.0469,5.17188 z"
       id="path12173" />
    <path
       style="color:#000000;-inkscape-font-specification:'Comic Sans MS';fill:#b3b3b3;stroke-width:1.7078;-inkscape-stroke:none"
       d="m 300.40494,638.57599 q -0.39063,0 -1.10938,-0.23438 -0.70312,-0.25 -1.07812,-0.25 -0.79688,0 -2.39063,0.0937 -1.59375,0.0937 -2.40625,0.0937 -0.60937,0 -1.8125,0.15625 -1.1875,0.15625 -1.79687,0.15625 -0.17188,0 -0.5,-0.0625 -0.32813,-0.0625 -0.5,-0.0625 -1.07813,0 -1.40625,-1.04687 -0.1875,-0.54688 -0.1875,-1.875 0,-3.64063 1.98437,-5.85938 0.90625,-1.01562 4.89063,-3.75 2.23437,-1.53125 2.98437,-2.39062 1.34375,-1.5 1.34375,-3.51563 0,-1 -1.29687,-1.78125 -1.14063,-0.70312 -2.23438,-0.70312 -1.4375,0 -2.73437,0.82812 l -2.23438,1.75 q -0.67187,0.53125 -1.07812,0.53125 -1.60938,0 -1.60938,-1.28125 0,-0.73437 0.59375,-1.26562 1.82813,-1.71875 3.17188,-2.48438 1.89062,-1.07812 3.89062,-1.07812 2.53125,0 4.51563,1.375 2.21875,1.54687 2.21875,3.96875 0,1.59375 -0.45313,2.9375 -0.45312,1.34375 -1.375,2.45312 -1.17187,1.40625 -3.96875,3.14063 -2.9375,1.84375 -3.85937,2.79687 -1.73438,1.79688 -1.70313,4.35938 l 3.21875,-0.29688 q 3.3125,-0.1875 4.73438,-0.1875 1.1875,0 2.25,0.40625 1.40625,0.54688 1.40625,1.51563 0,0.60937 -0.42188,1.09375 -0.42187,0.46875 -1.04687,0.46875 z"
       id="path12175" />
    <path
       style="color:#000000;-inkscape-font-specification:'Comic Sans MS';fill:#b3b3b3;stroke-width:1.7078;-inkscape-stroke:none"
       d="m 319.93619,638.57599 q -0.39063,0 -1.10938,-0.23438 -0.70312,-0.25 -1.07812,-0.25 -0.79688,0 -2.39063,0.0937 -1.59375,0.0937 -2.40625,0.0937 -0.60937,0 -1.8125,0.15625 -1.1875,0.15625 -1.79687,0.15625 -0.17188,0 -0.5,-0.0625 -0.32813,-0.0625 -0.5,-0.0625 -1.07813,0 -1.40625,-1.04687 -0.1875,-0.54688 -0.1875,-1.875 0,-3.64063 1.98437,-5.85938 0.90625,-1.01562 4.89063,-3.75 2.23437,-1.53125 2.98437,-2.39062 1.34375,-1.5 1.34375,-3.51563 0,-1 -1.29687,-1.78125 -1.14063,-0.70312 -2.23438,-0.70312 -1.4375,0 -2.73437,0.82812 l -2.23438,1.75 q -0.67187,0.53125 -1.07812,0.53125 -1.60938,0 -1.60938,-1.28125 0,-0.73437 0.59375,-1.26562 1.82813,-1.71875 3.17188,-2.48438 1.89062,-1.07812 3.89062,-1.07812 2.53125,0 4.51563,1.375 2.21875,1.54687 2.21875,3.96875 0,1.59375 -0.45313,2.9375 -0.45312,1.34375 -1.375,2.45312 -1.17187,1.40625 -3.96875,3.14063 -2.9375,1.84375 -3.85937,2.79687 -1.73438,1.79688 -1.70313,4.35938 l 3.21875,-0.29688 q 3.3125,-0.1875 4.73438,-0.1875 1.1875,0 2.25,0.40625 1.40625,0.54688 1.40625,1.51563 0,0.60937 -0.42188,1.09375 -0.42187,0.46875 -1.04687,0.46875 z"
       id="path12177" />
    <path
       style="color:#000000;-inkscape-font-specification:'Comic Sans MS';fill:#b3b3b3;stroke-width:1.7078;-inkscape-stroke:none"
       d="m 339.46744,638.57599 q -0.39063,0 -1.10938,-0.23438 -0.70312,-0.25 -1.07812,-0.25 -0.79688,0 -2.39063,0.0937 -1.59375,0.0937 -2.40625,0.0937 -0.60937,0 -1.8125,0.15625 -1.1875,0.15625 -1.79687,0.15625 -0.17188,0 -0.5,-0.0625 -0.32813,-0.0625 -0.5,-0.0625 -1.07813,0 -1.40625,-1.04687 -0.1875,-0.54688 -0.1875,-1.875 0,-3.64063 1.98437,-5.85938 0.90625,-1.01562 4.89063,-3.75 2.23437,-1.53125 2.98437,-2.39062 1.34375,-1.5 1.34375,-3.51563 0,-1 -1.29687,-1.78125 -1.14063,-0.70312 -2.23438,-0.70312 -1.4375,0 -2.73437,0.82812 l -2.23438,1.75 q -0.67187,0.53125 -1.07812,0.53125 -1.60938,0 -1.60938,-1.28125 0,-0.73437 0.59375,-1.26562 1.82813,-1.71875 3.17188,-2.48438 1.89062,-1.07812 3.89062,-1.07812 2.53125,0 4.51563,1.375 2.21875,1.54687 2.21875,3.96875 0,1.59375 -0.45313,2.9375 -0.45312,1.34375 -1.375,2.45312 -1.17187,1.40625 -3.96875,3.14063 -2.9375,1.84375 -3.85937,2.79687 -1.73438,1.79688 -1.70313,4.35938 l 3.21875,-0.29688 q 3.3125,-0.1875 4.73438,-0.1875 1.1875,0 2.25,0.40625 1.40625,0.54688 1.40625,1.51563 0,0.60937 -0.42188,1.09375 -0.42187,0.46875 -1.04687,0.46875 z"
       id="path12179" />
    <path
       style="color:#000000;-inkscape-font-specification:'Comic Sans MS';fill:#b3b3b3;stroke-width:1.7078;-inkscape-stroke:none"
       d="m 358.99869,638.57599 q -0.39063,0 -1.10938,-0.23438 -0.70312,-0.25 -1.07812,-0.25 -0.79688,0 -2.39063,0.0937 -1.59375,0.0937 -2.40625,0.0937 -0.60937,0 -1.8125,0.15625 -1.1875,0.15625 -1.79687,0.15625 -0.17188,0 -0.5,-0.0625 -0.32813,-0.0625 -0.5,-0.0625 -1.07813,0 -1.40625,-1.04687 -0.1875,-0.54688 -0.1875,-1.875 0,-3.64063 1.98437,-5.85938 0.90625,-1.01562 4.89063,-3.75 2.23437,-1.53125 2.98437,-2.39062 1.34375,-1.5 1.34375,-3.51563 0,-1 -1.29687,-1.78125 -1.14063,-0.70312 -2.23438,-0.70312 -1.4375,0 -2.73437,0.82812 l -2.23438,1.75 q -0.67187,0.53125 -1.07812,0.53125 -1.60938,0 -1.60938,-1.28125 0,-0.73437 0.59375,-1.26562 1.82813,-1.71875 3.17188,-2.48438 1.89062,-1.07812 3.89062,-1.07812 2.53125,0 4.51563,1.375 2.21875,1.54687 2.21875,3.96875 0,1.59375 -0.45313,2.9375 -0.45312,1.34375 -1.375,2.45312 -1.17187,1.40625 -3.96875,3.14063 -2.9375,1.84375 -3.85937,2.79687 -1.73438,1.79688 -1.70313,4.35938 l 3.21875,-0.29688 q 3.3125,-0.1875 4.73438,-0.1875 1.1875,0 2.25,0.40625 1.40625,0.54688 1.40625,1.51563 0,0.60937 -0.42188,1.09375 -0.42187,0.46875 -1.04687,0.46875 z"
       id="path12181" />
    <path
       style="color:#000000;-inkscape-font-specification:'Comic Sans MS';fill:#b3b3b3;stroke-width:1.7078;-inkscape-stroke:none"
       d="m 382.31119,639.01349 q -1.4375,0 -2.5,-3.6875 -0.40625,-1.40625 -1.01563,-4.92188 -1.59375,0.21875 -4.17187,0.78125 l -4.15625,0.85938 q -0.78125,2.04687 -2.67188,5.98437 -0.5,0.875 -1.35937,0.875 -0.625,0 -1.125,-0.45312 -0.48438,-0.45313 -0.48438,-1.125 0,-0.75 2.35938,-5.70313 -0.26563,-0.40625 -0.26563,-0.9375 0,-1.26562 1.53125,-1.625 1.78125,-3.34375 4.5,-7.6875 3.70313,-5.92187 4.60938,-5.92187 1.23437,0 1.6875,1.71875 l 0.98437,5.25 2.32813,10.85937 0.89062,2.46875 q 0.45313,1.26563 0.45313,1.6875 0,0.67188 -0.48438,1.125 -0.48437,0.45313 -1.10937,0.45313 z m -5.51563,-17.85938 -4.46875,7.20313 q 1.89063,-0.48438 5.73438,-1.17188 z"
       id="path12183" />
    <path
       style="color:#000000;-inkscape-font-specification:'Comic Sans MS';fill:#b3b3b3;stroke-width:1.7078;-inkscape-stroke:none"
       d="m 832.12378,790.98303 q -4.39453,1.71875 -11.23047,1.71875 -0.83984,0 -1.60156,-0.80078 -0.74219,-0.78125 -0.74219,-1.62109 v -5.6836 q 0,-2.79297 0.35156,-7.96875 0.39063,-5.58593 0.42969,-8.08593 -0.0195,-1.79688 0.21484,-5.35157 0.13672,-0.97656 0.64454,-1.28906 2.65625,-0.82031 6.03515,-0.82031 3.4375,0 6.60156,2.34375 3.65235,2.69531 3.65235,6.66015 0,5.01954 -3.90625,7.91016 2.92969,1.25 4.375,2.77344 1.46484,1.52344 1.46484,3.32031 0,2.36328 -2.55859,4.57031 -1.77735,1.5625 -3.73047,2.32422 z m -5.89844,-25.91797 q -2.1289,0 -2.98828,0.13672 l -0.0391,3.41797 -0.39063,7.55859 q 2.77344,0.23438 2.96875,0.21485 2.94922,-0.23438 4.82422,-1.83594 2.01172,-1.73828 2.01172,-4.47266 0,-1.85546 -2.05078,-3.4375 -2.05078,-1.58203 -4.33594,-1.58203 z m 2.1875,15.64453 -2.07031,-0.33203 q -0.25391,0 -0.78125,0.0391 -0.50781,0.0195 -0.78125,0.0195 -1.05469,0 -2.24609,-0.17578 -0.11719,2.46093 -0.11719,4.39453 v 4.04297 q 5.11719,-0.17579 8.33984,-1.44532 1.36719,-0.52734 2.61719,-1.64062 1.19141,-1.01563 1.19141,-1.52344 0,-0.91797 -2.5,-2.07031 -1.875,-0.87891 -3.65235,-1.3086 z"
       id="path12168" />
    <path
       style="color:#000000;-inkscape-font-specification:'Comic Sans MS';fill:#b3b3b3;stroke-width:1.7078;-inkscape-stroke:none"
       d="m 874.35278,769.01355 q -1.25,0 -1.875,-1.46484 -0.54687,-1.25 -1.01562,-1.52344 -0.41016,-0.21485 -2.03125,-0.21485 -2.83203,0 -6.28906,4.33594 -4.6875,5.82031 -4.6875,11.03516 0,2.51953 1.62109,4.33594 1.66016,1.875 4.00391,1.875 2.01171,0 4.04296,-1.03516 1.13282,-0.58594 3.47657,-2.30469 1.11328,-0.82031 1.67968,-0.82031 0.83985,0 1.40625,0.64453 0.56641,0.625 0.56641,1.40625 0,0.87891 -0.74219,1.54297 -5.15625,4.57031 -10.42968,4.57031 -4.04297,0 -6.83594,-3.10547 -2.69531,-3.00781 -2.69531,-7.10937 0,-6.6211 5.54687,-13.57422 4.62891,-5.80078 9.33594,-5.80078 0.95703,0 1.71875,0.0977 0.76172,0.0781 1.34765,0.27344 0.6836,-0.99609 1.77735,-0.99609 1.34765,0 1.69922,1.77734 0.3125,1.58203 0.3125,3.88672 0,0.80078 -0.42969,1.40625 -0.52734,0.76172 -1.50391,0.76172 z"
       id="path12165" />
    <path
       style="color:#000000;-inkscape-font-specification:'Comic Sans MS';fill:#b3b3b3;stroke-width:1.7078;-inkscape-stroke:none"
       d="m 799.63239,764.63855 q -0.27344,0 -0.60547,-0.0977 -3.30078,-0.9375 -6.36719,-0.9375 -1.60156,0 -3.49609,0.29297 -1.89454,0.29297 -4.08204,0.89844 0.17579,1.26953 0.17579,2.03125 0,2.71484 -0.33204,7.46094 l 8.55469,-0.82032 q 3.76953,-0.39062 4.62891,-0.39062 0.85937,0 1.44531,0.54687 0.58594,0.54688 0.58594,1.46485 0,1.77734 -1.79688,1.99219 l -4.64843,0.41015 -9.02344,0.82031 q -0.0781,1.38672 -0.13672,2.63672 -0.0391,1.23047 -0.0391,2.30469 0,4.31641 0.625,5.07813 0.46875,0.54687 3.0664,0.54687 1.21094,0 3.63282,-0.0586 2.4414,-0.0781 3.67187,-0.0781 0.39063,0 1.15234,-0.11719 0.76172,-0.13671 1.13282,-0.13671 2.07031,0 2.07031,2.03125 0,1.64062 -1.66016,1.97265 -1.83593,0.3711 -7.94922,0.3711 -6.05468,0 -7.77343,-1.60157 -1.875,-1.73828 -1.875,-8.00781 0,-1.25 0.0586,-2.73437 0.0586,-1.48438 0.15625,-3.20313 -0.21484,-0.44922 -0.21484,-0.95703 0,-0.66406 0.37109,-1.19141 0.39063,-5.64453 0.39063,-8.33984 0,-0.72266 -0.19532,-2.10938 -0.19531,-1.40625 -0.19531,-2.1289 0,-2.32422 1.95313,-2.32422 0.82031,0 1.40625,0.56641 2.34375,-0.625 4.41406,-0.9375 2.08984,-0.3125 3.92578,-0.3125 4.74609,0 7.57812,1.13281 1.3086,0.52734 1.3086,1.875 0,0.78125 -0.50781,1.38672 -0.56641,0.66406 -1.40625,0.66406 z"
       id="path12162" />
    <path
       style="color:#000000;fill:#b3b3b3;-inkscape-stroke:none"
       d="m 764.86328,527.74805 v 145.89257 h 1.5 V 529.24805 h 108.84766 v -1.5 z"
       id="path3910" />
    <path
       style="color:#000000;fill:#b3b3b3;-inkscape-stroke:none"
       d="m 812.50586,518.71289 c -13.7748,0.0525 -26.89594,0.75438 -36.05274,2.09375 -4.57839,0.66969 -8.13217,1.46071 -10.48632,2.5625 -1.17708,0.55089 -2.15898,1.15042 -2.67969,2.28906 -0.26035,0.56933 -0.31966,1.28934 -0.13867,1.90625 0.18098,0.61692 0.54127,1.11744 0.97656,1.55274 l 10.24609,10.24609 2.12305,-2.12109 -10.24805,-10.2461 c -0.11121,-0.11121 -0.0991,-0.11455 -0.12695,-0.16015 0.0463,-0.043 0.31437,-0.37336 1.11914,-0.75 1.75904,-0.82326 5.20165,-1.65983 9.65039,-2.31055 8.89748,-1.30144 21.94971,-2.01039 35.62891,-2.0625 13.6792,-0.0521 28.00717,0.54921 39.51172,1.83398 5.75227,0.64239 10.80087,1.45768 14.67382,2.42969 3.87296,0.97202 6.57737,2.23476 7.42774,3.11914 l 0.01,0.01 10.25586,10.25781 2.12305,-2.12109 -10.22656,-10.22657 -0.006,-0.004 c -1.76491,-1.8321 -4.77311,-2.92123 -8.85352,-3.94531 -4.0838,-1.02494 -9.23503,-1.85008 -15.07226,-2.50196 -11.67447,-1.30374 -26.08068,-1.90403 -39.85547,-1.85156 z"
       id="path3912" />
    <path
       style="color:#000000;fill:#b3b3b3;-inkscape-stroke:none"
       d="m 763.05664,526.58984 v 144.88868 l 11.24219,12.97265 2.26758,-1.96484 -10.50977,-12.12696 V 526.58984 Z"
       id="path3914" />
    <path
       style="color:#000000;fill:#b3b3b3;-inkscape-stroke:none"
       d="m 802.04297,683.69531 -9.27149,71.95703 2.97461,0.38282 9.27149,-71.95508 z"
       id="path3916" />
    <path
       style="color:#000000;fill:#b3b3b3;-inkscape-stroke:none"
       d="m 853.81055,683.69531 -2.97461,0.38477 9.27148,71.95508 2.97656,-0.38282 z"
       id="path3918" />
    <path
       style="color:#000000;fill:#b3b3b3;-inkscape-stroke:none"
       d="m 826.22656,683.86914 -0.83789,71.11914 3,0.0352 0.83789,-71.11914 z"
       id="path3920" />
    <path
       style="color:#000000;-inkscape-font-specification:'Comic Sans MS';fill:#b3b3b3;stroke-width:1.7078;-inkscape-stroke:none"
       d="m 823.02075,598.57599 q -0.39062,0 -1.10937,-0.23438 -0.70313,-0.25 -1.07813,-0.25 -0.79687,0 -2.39062,0.0937 -1.59375,0.0937 -2.40625,0.0937 -0.60938,0 -1.8125,0.15625 -1.1875,0.15625 -1.79688,0.15625 -0.17187,0 -0.5,-0.0625 -0.32812,-0.0625 -0.5,-0.0625 -1.07812,0 -1.40625,-1.04687 -0.1875,-0.54688 -0.1875,-1.875 0,-3.64063 1.98438,-5.85938 0.90625,-1.01562 4.89062,-3.75 2.23438,-1.53125 2.98438,-2.39062 1.34375,-1.5 1.34375,-3.51563 0,-1 -1.29688,-1.78125 -1.14062,-0.70312 -2.23437,-0.70312 -1.4375,0 -2.73438,0.82812 l -2.23437,1.75 q -0.67188,0.53125 -1.07813,0.53125 -1.60937,0 -1.60937,-1.28125 0,-0.73437 0.59375,-1.26562 1.82812,-1.71875 3.17187,-2.48438 1.89063,-1.07812 3.89063,-1.07812 2.53125,0 4.51562,1.375 2.21875,1.54687 2.21875,3.96875 0,1.59375 -0.45312,2.9375 -0.45313,1.34375 -1.375,2.45312 -1.17188,1.40625 -3.96875,3.14063 -2.9375,1.84375 -3.85938,2.79687 -1.73437,1.79688 -1.70312,4.35938 l 3.21875,-0.29688 q 3.3125,-0.1875 4.73437,-0.1875 1.1875,0 2.25,0.40625 1.40625,0.54688 1.40625,1.51563 0,0.60937 -0.42187,1.09375 -0.42188,0.46875 -1.04688,0.46875 z"
       id="path12149" />
    <path
       style="color:#000000;-inkscape-font-specification:'Comic Sans MS';fill:#b3b3b3;stroke-width:1.7078;-inkscape-stroke:none"
       d="m 850.88013,595.07599 q 0,0.75 -0.25,2.5 -0.25,1.57812 -1.67188,1.57812 -0.85937,0 -2.04687,-1.125 -6.35938,-6.01562 -14.59375,-17.35937 l -0.0781,3.54687 -0.0469,3.5625 q 0,1.29688 0.0469,3.89063 0.0625,2.59375 0.0625,3.90625 0,4.20312 -1.625,4.20312 -0.85937,0 -1.35937,-0.54687 -0.45313,-0.48438 -0.45313,-1.15625 0,-0.65625 0.0937,-1.98438 0.10938,-1.32812 0.10938,-1.98437 0,-0.96875 0.0625,-2.89063 0.0625,-1.9375 0.0625,-2.90625 0,-1.03125 -0.0469,-3.10937 -0.0469,-2.09375 -0.0469,-3.125 0,-0.98438 -0.1875,-2.92188 -0.1875,-1.95312 -0.1875,-2.9375 0,-0.71875 0.60937,-1.3125 0.625,-0.59375 1.40625,-0.59375 0.82813,0 2.04688,1.8125 3.89062,5.82813 7,9.6875 3.70312,4.57813 8.125,8.75 0.0469,-0.67187 0,-1.98437 l -0.0469,-1.96875 q 0,-6.85938 -0.53125,-10.92188 -0.0625,-0.40625 -0.42187,-1.64062 -0.3125,-1.0625 -0.3125,-1.65625 0,-1.8125 1.65625,-1.8125 2.71875,0 2.71875,10.14062 0,1.73438 -0.0469,5.1875 -0.0469,3.4375 -0.0469,5.17188 z"
       id="path12151" />
    <path
       style="color:#000000;-inkscape-font-specification:'Comic Sans MS';fill:#b3b3b3;stroke-width:1.7078;-inkscape-stroke:none"
       d="m 800.177,639.26349 q -2.35937,0 -4.23437,-0.98438 -2.10938,-1.14062 -2.84375,-3.20312 -0.0937,-0.28125 -0.0937,-0.54688 0,-0.625 0.46875,-1.03125 0.48437,-0.42187 1.10937,-0.42187 0.625,0 1.07813,0.57812 l 0.71875,1.07813 q 0.5625,0.76562 1.51562,1.15625 0.95313,0.375 2.28125,0.375 1.70313,0 2.98438,-1.0625 1.35937,-1.125 1.35937,-2.75 0,-2.35938 -1.73437,-3.76563 -1.53125,-1.21875 -4.0625,-1.48437 -1.73438,-0.17188 -1.73438,-1.40625 0,-0.92188 1.35938,-1.40625 l 3.73437,-0.92188 q 1.07813,-0.39062 1.625,-1.04687 0.54688,-0.67188 0.5625,-1.625 0.0312,-1.375 -1.0625,-2.21875 -1.14062,-0.875 -3.20312,-0.875 -1.0625,0 -2.0625,0.51562 l -1.76563,1.10938 q -0.51562,0.32812 -0.82812,0.32812 -0.625,0 -1.07813,-0.46875 -0.4375,-0.48437 -0.4375,-1.09375 0,-1.23437 2.39063,-2.375 2.07812,-1.01562 3.42187,-1.01562 3.35938,0 5.32813,1.48437 2.10937,1.59375 2.10937,4.54688 0,3.67187 -2.96875,4.84375 -0.26562,0.10937 -0.60937,0.21875 2.07812,0.76562 3.10937,2.29687 1.03125,1.51563 1.03125,3.79688 0,3.07812 -2.17187,5.23437 -2.17188,2.14063 -5.29688,2.14063 z"
       id="path12153" />
    <path
       style="color:#000000;-inkscape-font-specification:'Comic Sans MS';fill:#b3b3b3;stroke-width:1.7078;-inkscape-stroke:none"
       d="m 822.50513,636.65411 q -1.14063,0.84375 -3.65625,2.03125 -2.79688,1.34375 -3.89063,1.34375 -0.64062,0 -1.0625,-0.46875 -0.40625,-0.46875 -0.40625,-1.09375 0,-0.92187 1.0625,-1.39062 l 2.60938,-0.89063 q 2.42187,-0.98437 3.82812,-2.26562 1.40625,-1.28125 2.5625,-3.64063 l 0.67188,-1.34375 q -0.875,0.5 -2.25,0.92188 -1.375,0.42187 -2.23438,0.42187 -2.95312,0 -5.10937,-1.64062 -2.625,-2 -2.625,-5.6875 0,-4.35938 2.6875,-6.54688 2.29687,-1.85937 6.03125,-1.85937 2.875,0 5.15625,2.34375 2.40625,2.48437 2.42187,6 0.0156,3.96875 -1.46875,7.70312 -1.59375,4.03125 -4.32812,6.0625 z m -2.21875,-19.4375 q -2.625,0 -3.95313,1.35938 -1.3125,1.35937 -1.32812,4.09375 0,2.29687 1.60937,3.5625 1.42188,1.10937 3.57813,1.10937 1.25,0 2.60937,-0.75 0.625,-0.34375 2.25,-1.54687 0.20313,-1.35938 0.20313,-2.15625 -0.0156,-1.95313 -1.65625,-3.8125 -1.625,-1.85938 -3.3125,-1.85938 z"
       id="path12155" />
    <path
       style="color:#000000;-inkscape-font-specification:'Comic Sans MS';fill:#b3b3b3;stroke-width:1.7078;-inkscape-stroke:none"
       d="m 839.33325,639.15411 q -4.75,0 -6.9375,-4.34375 -1.65625,-3.34375 -1.65625,-8.70312 0,-4.53125 2.15625,-7.90625 2.54688,-3.95313 6.92188,-3.95313 4.10937,0 6.40625,3.5 1.98437,3.03125 1.98437,7.39063 0,7 -2.21875,10.51562 -2.21875,3.5 -6.65625,3.5 z m 0.46875,-21.89062 q -2.90625,0 -4.60937,2.95312 -1.42188,2.46875 -1.42188,5.64063 0,5.14062 1.39063,7.71875 1.39062,2.57812 4.17187,2.57812 3.3125,0 4.75,-3.78125 1,-2.625 1,-6.65625 0,-4.23437 -1.32812,-6.34375 -1.3125,-2.10937 -3.95313,-2.10937 z"
       id="path12157" />
    <path
       style="color:#000000;-inkscape-font-specification:'Comic Sans MS';fill:#b3b3b3;stroke-width:1.7078;-inkscape-stroke:none"
       d="m 858.64575,639.66974 q -4.07812,0 -6,-2.98438 -1.59375,-2.45312 -1.59375,-6.54687 0,-7.71875 6.26563,-13.39063 l 1.46875,-1.48437 q 1.07812,-1.03125 1.625,-1.03125 0.625,0 1.09375,0.45312 0.46875,0.4375 0.48437,1.04688 0.0312,0.5625 -1.59375,2.17187 l -3.1875,3.10938 q -1.26562,1.28125 -2.17187,3.875 1.35937,-0.625 2.375,-0.92188 1.01562,-0.3125 1.67187,-0.3125 3.65625,0 5.60938,1.95313 1.95312,1.95312 1.95312,5.51562 0,3.73438 -2.10937,6.09375 -2.20313,2.45313 -5.89063,2.45313 z m 0,-12.82813 q -1.34375,0 -2.40625,0.46875 -0.40625,0.1875 -2.04687,1.20313 -0.0937,0.82812 -0.0937,1.625 0,2.79687 0.9375,4.5625 1.1875,2.25 3.70312,2.25 2.35938,0 3.65625,-1.6875 1.20313,-1.5625 1.20313,-4.14063 0,-2.14062 -1.23438,-3.20312 -1.23437,-1.07813 -3.71875,-1.07813 z"
       id="path12159" />
    <path
       style="color:#000000;-inkscape-font-specification:'Comic Sans MS Bold';fill:#b3b3b3;stroke-width:1.7078;-inkscape-stroke:none"
       d="m 310.41034,141.1895 q 0,0.97656 -0.33203,3.08594 -0.39063,2.51953 -2.85156,2.51953 -1.36719,0 -3.08594,-1.54297 -7.51953,-6.77734 -16.97266,-19.00391 -0.11719,5.07813 -0.11719,6.23047 0,1.54297 0.0586,4.64844 0.0781,3.10547 0.0781,4.64844 0,5.76172 -2.8125,5.76172 -1.42578,0 -2.28515,-0.87891 -0.76172,-0.78125 -0.76172,-1.89453 0,-0.78125 0.11719,-2.36328 0.13671,-1.58203 0.13671,-2.36328 0,-1.15235 0.0781,-3.45704 0.0781,-2.30468 0.0781,-3.45703 0,-1.23047 -0.0586,-3.71093 -0.0586,-2.48047 -0.0586,-3.71094 0,-1.17188 -0.23438,-3.4961 -0.23437,-2.32421 -0.23437,-3.49609 0,-1.17187 0.99609,-2.08984 1.01563,-0.91797 2.30469,-0.91797 1.44531,0 3.20312,2.5 8.86719,12.65625 17.5,20.64453 0.0195,-0.625 0.0195,-2.96875 0,-9.62891 -0.19531,-12.98828 -0.0391,-0.56641 -0.2539,-2.10938 -0.19532,-1.36718 -0.19532,-2.14843 0,-2.69532 2.85157,-2.69532 3.18359,0 3.18359,9.82422 0,0.21485 -0.0391,3.08594 -0.11719,9.92187 -0.11719,12.34375 z"
       id="path12142" />
    <path
       style="color:#000000;-inkscape-font-specification:'Comic Sans MS Bold';fill:#b3b3b3;stroke-width:1.7078;-inkscape-stroke:none"
       d="m 320.11737,135.09575 q -0.33203,0 -1.64062,-0.13672 -0.11719,2.73438 -0.11719,8.98438 0,1.03515 -0.72266,1.77734 -0.72265,0.74219 -1.83594,0.74219 -1.11328,0 -1.85546,-0.74219 -0.72266,-0.74219 -0.72266,-1.77734 v -5.44922 q 0,-3.02735 0.39062,-8.96485 0.3711,-6.03515 0.39063,-9.0039 0.0195,-5.07813 2.85156,-4.86328 0.66406,-0.17579 1.83594,-0.25391 1.17187,-0.0977 2.85156,-0.0977 3.82813,0 7.1875,2.48047 3.73047,2.77344 3.73047,6.75781 0,5 -3.96484,7.94922 -3.51563,2.59766 -8.37891,2.59766 z m 0.97656,-14.74609 q -0.625,0 -1.11328,0.0195 -0.46875,0 -0.80078,0.0391 0,0.91797 -0.0195,2.75391 -0.0391,2.16796 -0.37109,6.75781 0.99609,0.15625 1.32812,0.15625 3.04688,0 5.05859,-1.44531 2.14844,-1.54297 2.14844,-4.08204 0,-1.66015 -2.01172,-2.94921 -1.93359,-1.25 -4.21875,-1.25 z"
       id="path12144" />
    <path
       style="color:#000000;-inkscape-font-specification:'Comic Sans MS Bold';fill:#b3b3b3;stroke-width:1.7078;-inkscape-stroke:none"
       d="m 364.23846,141.1895 q 0,0.97656 -0.33203,3.08594 -0.39062,2.51953 -2.85156,2.51953 -1.36719,0 -3.08594,-1.54297 -7.51953,-6.77734 -16.97265,-19.00391 -0.11719,5.07813 -0.11719,6.23047 0,1.54297 0.0586,4.64844 0.0781,3.10547 0.0781,4.64844 0,5.76172 -2.8125,5.76172 -1.42578,0 -2.28516,-0.87891 -0.76172,-0.78125 -0.76172,-1.89453 0,-0.78125 0.11719,-2.36328 0.13672,-1.58203 0.13672,-2.36328 0,-1.15235 0.0781,-3.45704 0.0781,-2.30468 0.0781,-3.45703 0,-1.23047 -0.0586,-3.71093 -0.0586,-2.48047 -0.0586,-3.71094 0,-1.17188 -0.23437,-3.4961 -0.23438,-2.32421 -0.23438,-3.49609 0,-1.17187 0.9961,-2.08984 1.01562,-0.91797 2.30468,-0.91797 1.44532,0 3.20313,2.5 8.86719,12.65625 17.5,20.64453 0.0195,-0.625 0.0195,-2.96875 0,-9.62891 -0.19531,-12.98828 -0.0391,-0.56641 -0.25391,-2.10938 -0.19531,-1.36718 -0.19531,-2.14843 0,-2.69532 2.85156,-2.69532 3.18359,0 3.18359,9.82422 0,0.21485 -0.0391,3.08594 -0.11719,9.92187 -0.11719,12.34375 z"
       id="path12146" />
    <path
       style="color:#000000;-inkscape-font-specification:'Comic Sans MS Bold';fill:#b3b3b3;stroke-width:1.7078;-inkscape-stroke:none"
       d="m 796.52075,135.09575 q -0.33203,0 -1.64062,-0.13672 -0.11719,2.73438 -0.11719,8.98438 0,1.03515 -0.72266,1.77734 -0.72265,0.74219 -1.83593,0.74219 -1.11329,0 -1.85547,-0.74219 -0.72266,-0.74219 -0.72266,-1.77734 v -5.44922 q 0,-3.02735 0.39063,-8.96485 0.37109,-6.03515 0.39062,-9.0039 0.0195,-5.07813 2.85156,-4.86328 0.66407,-0.17579 1.83594,-0.25391 1.17188,-0.0977 2.85156,-0.0977 3.82813,0 7.1875,2.48047 3.73047,2.77344 3.73047,6.75781 0,5 -3.96484,7.94922 -3.51563,2.59766 -8.37891,2.59766 z m 0.97656,-14.74609 q -0.625,0 -1.11328,0.0195 -0.46875,0 -0.80078,0.0391 0,0.91797 -0.0195,2.75391 -0.0391,2.16796 -0.37109,6.75781 0.99609,0.15625 1.32812,0.15625 3.04688,0 5.0586,-1.44531 2.14843,-1.54297 2.14843,-4.08204 0,-1.66015 -2.01172,-2.94921 -1.93359,-1.25 -4.21875,-1.25 z"
       id="path12135" />
    <path
       style="color:#000000;-inkscape-font-specification:'Comic Sans MS Bold';fill:#b3b3b3;stroke-width:1.7078;-inkscape-stroke:none"
       d="m 840.64185,141.1895 q 0,0.97656 -0.33204,3.08594 -0.39062,2.51953 -2.85156,2.51953 -1.36719,0 -3.08594,-1.54297 -7.51953,-6.77734 -16.97265,-19.00391 -0.11719,5.07813 -0.11719,6.23047 0,1.54297 0.0586,4.64844 0.0781,3.10547 0.0781,4.64844 0,5.76172 -2.8125,5.76172 -1.42578,0 -2.28516,-0.87891 -0.76172,-0.78125 -0.76172,-1.89453 0,-0.78125 0.11719,-2.36328 0.13672,-1.58203 0.13672,-2.36328 0,-1.15235 0.0781,-3.45704 0.0781,-2.30468 0.0781,-3.45703 0,-1.23047 -0.0586,-3.71093 -0.0586,-2.48047 -0.0586,-3.71094 0,-1.17188 -0.23437,-3.4961 -0.23438,-2.32421 -0.23438,-3.49609 0,-1.17187 0.9961,-2.08984 1.01562,-0.91797 2.30468,-0.91797 1.44532,0 3.20313,2.5 8.86719,12.65625 17.5,20.64453 0.0195,-0.625 0.0195,-2.96875 0,-9.62891 -0.19531,-12.98828 -0.0391,-0.56641 -0.25391,-2.10938 -0.19531,-1.36718 -0.19531,-2.14843 0,-2.69532 2.85156,-2.69532 3.1836,0 3.1836,9.82422 0,0.21485 -0.0391,3.08594 -0.11718,9.92187 -0.11718,12.34375 z"
       id="path12137" />
    <path
       style="color:#000000;-inkscape-font-specification:'Comic Sans MS Bold';fill:#b3b3b3;stroke-width:1.7078;-inkscape-stroke:none"
       d="m 850.34888,135.09575 q -0.33203,0 -1.64063,-0.13672 -0.11719,2.73438 -0.11719,8.98438 0,1.03515 -0.72265,1.77734 -0.72266,0.74219 -1.83594,0.74219 -1.11328,0 -1.85547,-0.74219 -0.72265,-0.74219 -0.72265,-1.77734 v -5.44922 q 0,-3.02735 0.39062,-8.96485 0.37109,-6.03515 0.39063,-9.0039 0.0195,-5.07813 2.85156,-4.86328 0.66406,-0.17579 1.83594,-0.25391 1.17187,-0.0977 2.85156,-0.0977 3.82812,0 7.1875,2.48047 3.73047,2.77344 3.73047,6.75781 0,5 -3.96485,7.94922 -3.51562,2.59766 -8.3789,2.59766 z m 0.97656,-14.74609 q -0.625,0 -1.11328,0.0195 -0.46875,0 -0.80078,0.0391 0,0.91797 -0.0195,2.75391 -0.0391,2.16796 -0.3711,6.75781 0.9961,0.15625 1.32813,0.15625 3.04687,0 5.05859,-1.44531 2.14844,-1.54297 2.14844,-4.08204 0,-1.66015 -2.01172,-2.94921 -1.93359,-1.25 -4.21875,-1.25 z"
       id="path12139" />
    <path
       style="color:#000000;fill:#b3b3b3;stroke-linecap:round;stroke-linejoin:bevel;-inkscape-stroke:none"
       d="m 83.376953,106.91016 -0.853516,0.85351 v 724.58594 l 0.853516,0.85351 H 570.73828 l 0.85352,-0.85351 V 107.76367 l -0.85352,-0.85351 z m 0.853516,1.70703 H 569.88477 V 831.49414 H 84.230469 Z"
       id="path15083" />
    <path
       style="color:#000000;fill:#b3b3b3;stroke-linecap:round;stroke-linejoin:bevel;-inkscape-stroke:none"
       d="m 571.80664,106.91016 -0.85547,0.85351 v 724.58594 l 0.85547,0.85351 H 1059.168 l 0.8535,-0.85351 V 107.76367 l -0.8535,-0.85351 z m 0.85352,1.70703 H 1058.3145 V 831.49414 H 572.66016 Z"
       id="path15085" />
    <path
       style="color:#000000;fill:#b3b3b3;-inkscape-stroke:none"
       d="m 81.869141,155.11523 v 1.70704 H 1058.0273 v -1.70704 z"
       id="path15087" />
  </g>
</svg>
