<?xml version="1.0" encoding="UTF-8" standalone="no"?>
<!-- Created with Inkscape (http://www.inkscape.org/) -->

<svg
   width="1000"
   height="550"
   viewBox="0 0 937.49984 515.62499"
   id="svg3597"
   version="1.1"
   inkscape:version="1.1 (c68e22c387, 2021-05-23)"
   sodipodi:docname="debounceSPDT.svg"
   xmlns:inkscape="http://www.inkscape.org/namespaces/inkscape"
   xmlns:sodipodi="http://sodipodi.sourceforge.net/DTD/sodipodi-0.dtd"
   xmlns="http://www.w3.org/2000/svg"
   xmlns:svg="http://www.w3.org/2000/svg"
   xmlns:rdf="http://www.w3.org/1999/02/22-rdf-syntax-ns#"
   xmlns:cc="http://creativecommons.org/ns#"
   xmlns:dc="http://purl.org/dc/elements/1.1/">
  <defs
     id="defs3599" />
  <sodipodi:namedview
     id="base"
     pagecolor="#ffffff"
     bordercolor="#666666"
     borderopacity="1.0"
     inkscape:pageopacity="0.0"
     inkscape:pageshadow="2"
     inkscape:zoom="1.1727273"
     inkscape:cx="500.11628"
     inkscape:cy="275"
     inkscape:document-units="px"
     inkscape:current-layer="layer1"
     showgrid="false"
     inkscape:window-width="1606"
     inkscape:window-height="853"
     inkscape:window-x="896"
     inkscape:window-y="407"
     inkscape:window-maximized="0"
     fit-margin-top="10"
     fit-margin-left="10"
     fit-margin-right="10"
     fit-margin-bottom="10"
     inkscape:pagecheckerboard="0"
     width="1000mm"
     units="px"
     height="600px" />
  <metadata
     id="metadata3602">
    <rdf:RDF>
      <cc:Work
         rdf:about="">
        <dc:format>image/svg+xml</dc:format>
        <dc:type
           rdf:resource="http://purl.org/dc/dcmitype/StillImage" />
      </cc:Work>
    </rdf:RDF>
  </metadata>
  <g
     inkscape:label="Layer 1"
     inkscape:groupmode="layer"
     id="layer1"
     transform="translate(-209.06086,-212.36476)">
    <rect
       style="fill:none;stroke:#b3b3b3;stroke-width:2.8125"
       id="rect867"
       width="197.72656"
       height="239.34961"
       x="765.62109"
       y="382.68475" />
    <g
       aria-label="PRE"
       id="text4798"
       style="font-size:37.5px;letter-spacing:0px;word-spacing:0px;stroke-width:2.40227px;fill:#b3b3b3">
      <path
         style="color:#000000;fill:#b3b3b3;-inkscape-stroke:none"
         d="m 856.57489,399.70413 q 0,1.81275 -0.64087,3.36914 -0.62256,1.53809 -1.75781,2.67334 -1.40991,1.40991 -3.33252,2.12403 -1.92261,0.6958 -4.8523,0.6958 h -3.62548 v 10.16235 h -3.62549 v -27.2644 h 7.39746 q 2.45361,0 4.15649,0.42114 1.70288,0.40283 3.02124,1.28174 1.5564,1.0437 2.39868,2.60009 0.8606,1.5564 0.8606,3.93677 z m -3.77197,0.0915 q 0,-1.40991 -0.49439,-2.45361 -0.49438,-1.0437 -1.50146,-1.70288 -0.87891,-0.56763 -2.01416,-0.80566 -1.11695,-0.25635 -2.83814,-0.25635 h -3.58886 v 10.89477 h 3.05786 q 2.19726,0 3.57055,-0.38452 1.37329,-0.40283 2.23389,-1.26342 0.8606,-0.87891 1.2085,-1.84937 0.36621,-0.97046 0.36621,-2.17896 z"
         id="path261" />
      <path
         style="color:#000000;fill:#b3b3b3;-inkscape-stroke:none"
         d="m 883.91254,418.72879 h -4.70581 l -9.11866,-10.83984 h -5.10864 v 10.83984 h -3.62549 v -27.2644 h 7.6355 q 2.47192,0 4.11987,0.32959 1.64795,0.31128 2.96631,1.13525 1.48316,0.93384 2.30713,2.36206 0.84229,1.40991 0.84229,3.58887 0,2.948 -1.48316,4.94385 -1.48315,1.97753 -4.08325,2.98461 z m -8.47779,-19.59228 q 0,-1.17188 -0.42114,-2.0691 -0.40283,-0.91552 -1.35498,-1.53808 -0.78735,-0.53101 -1.86768,-0.73242 -1.08032,-0.21973 -2.54516,-0.21973 h -4.26636 v 10.29053 h 3.66211 q 1.72119,0 3.00293,-0.29297 1.28174,-0.31128 2.17896,-1.13526 0.82397,-0.76904 1.20849,-1.75781 0.40283,-1.00708 0.40283,-2.54516 z"
         id="path263" />
      <path
         style="color:#000000;fill:#b3b3b3;-inkscape-stroke:none"
         d="m 905.39081,418.72879 h -17.96265 v -27.2644 h 17.96265 v 3.22265 h -14.33716 v 7.47071 h 14.33716 v 3.22265 h -14.33716 v 10.12573 h 14.33716 z"
         id="path265" />
    </g>
    <g
       aria-label="CLR"
       id="text4802"
       style="font-size:37.5px;letter-spacing:0px;word-spacing:0px;stroke-width:2.40227px;fill:#b3b3b3">
      <path
         style="color:#000000;fill:#b3b3b3;-inkscape-stroke:none"
         d="m 856.19153,610.80988 q -1.00708,0.43945 -1.83106,0.82397 -0.80566,0.38452 -2.12402,0.80566 -1.11694,0.3479 -2.4353,0.58594 -1.30005,0.25635 -2.87476,0.25635 -2.96631,0 -5.40161,-0.82398 -2.41699,-0.84228 -4.21143,-2.6184 -1.75781,-1.73951 -2.74658,-4.41285 -0.98877,-2.69165 -0.98877,-6.24389 0,-3.36914 0.95215,-6.02417 0.95215,-2.65503 2.74658,-4.48609 1.73951,-1.77612 4.19312,-2.70996 2.47192,-0.93383 5.47485,-0.93383 2.19727,0 4.37622,0.531 2.19727,0.53101 4.87061,1.86768 v 4.30298 h -0.27466 q -2.2522,-1.88599 -4.46777,-2.74659 -2.21558,-0.86059 -4.74243,-0.86059 -2.0691,0 -3.73536,0.67749 -1.64795,0.65918 -2.94799,2.06909 -1.26343,1.37329 -1.97754,3.479 -0.6958,2.08741 -0.6958,4.83399 0,2.87475 0.76904,4.94385 0.78735,2.06909 2.01416,3.36914 1.28174,1.35498 2.98462,2.01416 1.72119,0.64087 3.62549,0.64087 2.6184,0 4.90722,-0.89722 2.28882,-0.89722 4.28467,-2.69165 h 0.25635 z"
         id="path254" />
      <path
         style="color:#000000;fill:#b3b3b3;-inkscape-stroke:none"
         d="m 878.56702,612.78741 h -17.24854 v -27.2644 h 3.62549 v 24.04175 h 13.62305 z"
         id="path256" />
      <path
         style="color:#000000;fill:#b3b3b3;-inkscape-stroke:none"
         d="m 904.7511,612.78741 h -4.70581 l -9.11865,-10.83984 h -5.10865 v 10.83984 h -3.62549 v -27.2644 h 7.6355 q 2.47193,0 4.11988,0.32959 1.64795,0.31128 2.9663,1.13525 1.48316,0.93384 2.30713,2.36206 0.84229,1.40992 0.84229,3.58887 0,2.948 -1.48316,4.94385 -1.48315,1.97754 -4.08325,2.98462 z m -8.47778,-19.59228 q 0,-1.17188 -0.42115,-2.06909 -0.40283,-0.91553 -1.35498,-1.53809 -0.78735,-0.531 -1.86767,-0.73242 -1.08033,-0.21973 -2.54517,-0.21973 h -4.26636 v 10.29053 h 3.66211 q 1.72119,0 3.00293,-0.29297 1.28174,-0.31128 2.17896,-1.13525 0.82397,-0.76905 1.20849,-1.75781 0.40284,-1.00708 0.40284,-2.54517 z"
         id="path258" />
    </g>
    <g
       aria-label="CLK"
       id="text4806"
       style="font-size:37.5px;letter-spacing:0px;word-spacing:0px;stroke-width:2.40227px;fill:#b3b3b3">
      <path
         style="color:#000000;fill:#b3b3b3;-inkscape-stroke:none"
         d="m 812.89935,516.93182 q -1.00708,0.43946 -1.83105,0.82398 -0.80567,0.38452 -2.12403,0.80566 -1.11694,0.3479 -2.4353,0.58594 -1.30005,0.25635 -2.87475,0.25635 -2.96631,0 -5.40162,-0.82398 -2.41699,-0.84228 -4.21142,-2.61841 -1.75781,-1.7395 -2.74658,-4.41284 -0.98877,-2.69165 -0.98877,-6.24389 0,-3.36914 0.95215,-6.02417 0.95214,-2.65503 2.74658,-4.48609 1.7395,-1.77612 4.19311,-2.70996 2.47193,-0.93384 5.47486,-0.93384 2.19726,0 4.37622,0.53101 2.19726,0.53101 4.8706,1.86768 v 4.30297 h -0.27466 q -2.25219,-1.88598 -4.46777,-2.74658 -2.21557,-0.86059 -4.74243,-0.86059 -2.06909,0 -3.73535,0.67749 -1.64795,0.65918 -2.948,2.06909 -1.26343,1.37329 -1.97754,3.479 -0.6958,2.0874 -0.6958,4.83399 0,2.87475 0.76904,4.94384 0.78736,2.0691 2.01416,3.36914 1.28174,1.35499 2.98462,2.01416 1.72119,0.64087 3.62549,0.64087 2.61841,0 4.90723,-0.89721 2.28882,-0.89722 4.28467,-2.69165 h 0.25634 z"
         id="path247" />
      <path
         style="color:#000000;fill:#b3b3b3;-inkscape-stroke:none"
         d="m 835.27484,518.90936 h -17.24853 v -27.2644 h 3.62548 v 24.04175 h 13.62305 z"
         id="path249" />
      <path
         style="color:#000000;fill:#b3b3b3;-inkscape-stroke:none"
         d="m 860.81805,518.90936 h -4.70581 l -10.78491,-12.13989 -2.70996,2.89307 v 9.24682 h -3.62549 v -27.2644 h 3.62549 v 14.22729 l 13.23853,-14.22729 h 4.39453 l -12.17652,12.81738 z"
         id="path251" />
    </g>
    <g
       aria-label="D"
       id="text4810"
       style="font-size:37.5px;letter-spacing:0px;word-spacing:0px;stroke-width:2.40227px;fill:#b3b3b3">
      <path
         style="color:#000000;fill:#b3b3b3;-inkscape-stroke:none"
         d="m 813.32782,446.44067 q 0,3.71704 -1.62964,6.73829 -1.61133,3.02124 -4.30298,4.6875 -1.86767,1.15356 -4.1748,1.66625 -2.28882,0.5127 -6.04248,0.5127 h -6.88477 v -27.2644 h 6.81153 q 3.99169,0 6.33544,0.58593 2.36207,0.56763 3.9917,1.57471 2.78321,1.7395 4.3396,4.63257 1.5564,2.89307 1.5564,6.86645 z m -3.79028,-0.0549 q 0,-3.20434 -1.11695,-5.40161 -1.11694,-2.19726 -3.33252,-3.46069 -1.61132,-0.91553 -3.42407,-1.26343 -1.81274,-0.36621 -4.3396,-0.36621 h -3.40576 v 21.03882 h 3.40576 q 2.61841,0 4.55933,-0.38452 1.95923,-0.38453 3.58887,-1.42823 2.03247,-1.30005 3.03955,-3.42407 1.02539,-2.12402 1.02539,-5.31006 z"
         id="path244" />
    </g>
    <g
       aria-label="Q"
       id="text4814"
       style="font-size:37.5px;letter-spacing:0px;word-spacing:0px;stroke-width:2.40227px;fill:#b3b3b3">
      <path
         style="color:#000000;fill:#b3b3b3;-inkscape-stroke:none"
         d="m 952.63812,467.13004 q -1.09863,0.27465 -2.17895,0.38452 -1.06201,0.12817 -2.17896,0.12817 -3.18603,0 -5.12695,-1.75781 -1.92261,-1.7395 -2.0874,-4.99878 -0.43946,0.0732 -0.8606,0.0915 -0.40283,0.0366 -0.78735,0.0366 -2.87476,0 -5.23682,-0.95215 -2.34375,-0.95214 -3.9917,-2.76489 -1.64795,-1.81274 -2.54516,-4.44946 -0.87891,-2.63672 -0.87891,-6.02417 0,-3.33252 0.87891,-5.96924 0.8789,-2.65503 2.56347,-4.54101 1.61133,-1.79444 3.9917,-2.74659 2.39868,-0.95215 5.21851,-0.95215 2.92969,0 5.25512,0.97046 2.34375,0.95215 3.97339,2.72828 1.66626,1.83105 2.54517,4.48608 0.89722,2.65503 0.89722,6.02417 0,4.99878 -2.05079,8.42285 -2.03247,3.42407 -5.47485,4.79736 0.0732,2.08741 0.98877,3.24097 0.91553,1.15357 3.33252,1.15357 0.75073,0 1.77612,-0.23804 1.0437,-0.21973 1.48316,-0.40283 h 0.49438 z m -4.32129,-20.3064 q 0,-5.31006 -2.38037,-8.18482 -2.38037,-2.89306 -6.50024,-2.89306 -4.1565,0 -6.53687,2.89306 -2.36206,2.87476 -2.36206,8.18482 0,5.36499 2.41699,8.22143 2.417,2.83814 6.48194,2.83814 4.06494,0 6.46362,-2.83814 2.41699,-2.85644 2.41699,-8.22143 z"
         id="path241" />
    </g>
    <g
       aria-label="Q"
       id="text4818"
       style="font-size:37.5px;letter-spacing:0px;word-spacing:0px;stroke-width:2.40227px;fill:#b3b3b3">
      <path
         style="color:#000000;fill:#b3b3b3;-inkscape-stroke:none"
         d="m 951.91693,566.48279 q -1.09863,0.27466 -2.17895,0.38452 -1.06202,0.12817 -2.17896,0.12817 -3.18603,0 -5.12695,-1.75781 -1.92261,-1.7395 -2.0874,-4.99878 -0.43946,0.0732 -0.8606,0.0915 -0.40283,0.0366 -0.78735,0.0366 -2.87476,0 -5.23682,-0.95215 -2.34375,-0.95215 -3.9917,-2.7649 -1.64795,-1.81274 -2.54517,-4.44946 -0.8789,-2.63672 -0.8789,-6.02417 0,-3.33252 0.8789,-5.96924 0.87891,-2.65503 2.56348,-4.54101 1.61133,-1.79444 3.9917,-2.74658 2.39868,-0.95215 5.21851,-0.95215 2.92968,0 5.25512,0.97046 2.34375,0.95214 3.97339,2.72827 1.66626,1.83105 2.54517,4.48608 0.89721,2.65503 0.89721,6.02417 0,4.99878 -2.05078,8.42285 -2.03247,3.42408 -5.47485,4.79737 0.0732,2.0874 0.98877,3.24096 0.91553,1.15357 3.33252,1.15357 0.75073,0 1.77612,-0.23804 1.0437,-0.21973 1.48316,-0.40283 h 0.49438 z m -4.32129,-20.3064 q 0,-5.31006 -2.38037,-8.18481 -2.38037,-2.89307 -6.50024,-2.89307 -4.1565,0 -6.53687,2.89307 -2.36206,2.87475 -2.36206,8.18481 0,5.36499 2.41699,8.22144 2.417,2.83813 6.48194,2.83813 4.06494,0 6.46362,-2.83813 2.41699,-2.85645 2.41699,-8.22144 z"
         id="path238" />
    </g>
    <path
       style="color:#000000;fill:#b3b3b3;-inkscape-stroke:none"
       d="m 869.56836,361.4043 c -6.08138,0 -11.04102,4.96158 -11.04102,11.04297 0,6.08139 4.95964,11.04101 11.04102,11.04101 6.08143,0 11.04297,-4.95962 11.04297,-11.04101 0,-6.08139 -4.96154,-11.04297 -11.04297,-11.04297 z m 0,2.8125 c 4.56145,0 8.23047,3.66908 8.23047,8.23047 0,4.56139 -3.66901,8.22851 -8.23047,8.22851 -4.56139,0 -8.22852,-3.66712 -8.22852,-8.22851 0,-4.56139 3.66713,-8.23047 8.22852,-8.23047 z"
       id="path4822" />
    <path
       style="color:#000000;fill:#b3b3b3;-inkscape-stroke:none"
       d="m 869.56836,620.84961 c -6.08138,0 -11.04102,4.96158 -11.04102,11.04297 0,6.08139 4.95964,11.04101 11.04102,11.04101 6.08143,0 11.04297,-4.95962 11.04297,-11.04101 0,-6.08139 -4.96154,-11.04297 -11.04297,-11.04297 z m 0,2.8125 c 4.56146,0 8.23047,3.66907 8.23047,8.23047 0,4.5614 -3.66901,8.22851 -8.23047,8.22851 -4.56139,0 -8.22852,-3.66711 -8.22852,-8.22851 0,-4.5614 3.66713,-8.23047 8.22852,-8.23047 z"
       id="path4824" />
    <path
       style="color:#000000;fill:#b3b3b3;fill-rule:evenodd;-inkscape-stroke:none"
       d="m 767.76758,497.46875 -1.53711,2.35547 10.6582,6.95117 -10.58203,5.98242 1.38477,2.44727 14.60937,-8.25781 z"
       id="path4826" />
    <path
       style="color:#000000;fill:#b3b3b3;-inkscape-stroke:none"
       d="m 708.57031,504.08789 v 2.8125 h 57.81055 v -2.8125 z"
       id="path4828" />
    <path
       style="color:#000000;fill:#b3b3b3;-inkscape-stroke:none"
       d="m 707.16797,446.00977 -0.20899,59.98828 2.8125,0.01 0.19922,-57.18554 h 56.41016 v -2.8125 z"
       id="path4830" />
    <path
       style="color:#000000;fill:#b3b3b3;-inkscape-stroke:none"
       d="m 963.21094,446.00977 v 2.8125 h 57.81246 v -2.8125 z"
       id="path4832" />
    <path
       style="color:#000000;fill:#b3b3b3;-inkscape-stroke:none"
       d="m 963.21094,542.10156 v 2.8125 h 57.81246 v -2.8125 z"
       id="path4834" />
    <path
       style="color:#000000;fill:#b3b3b3;fill-rule:evenodd;-inkscape-stroke:none"
       d="m 562.85156,510.9707 -123.96679,1.22657 0.0273,2.8125 121.12695,-1.19922 v 174.70312 l 310.23242,0.48828 v -47.41211 h -2.8125 v 44.59571 l -304.60742,-0.48047 z"
       id="path4836" />
    <path
       style="color:#000000;fill:#b3b3b3;fill-rule:evenodd;-inkscape-stroke:none"
       d="m 870.27148,313.46875 -310.47656,0.95898 v 107.9336 l -168.2168,0.0488 0.002,2.8125 171.02734,-0.0488 V 317.23242 l 304.85156,-0.9414 v 44.59375 h 2.8125 z"
       id="path4838" />
    <g
       aria-label="Set"
       id="text4848"
       style="font-size:37.5px;letter-spacing:0px;word-spacing:0px;stroke-width:2.40227px;fill:#b3b3b3">
      <path
         style="color:#000000;fill:#b3b3b3;-inkscape-stroke:none"
         d="m 667.65515,298.98474 q 0,1.59302 -0.75073,3.14942 -0.73242,1.55639 -2.06909,2.63671 -1.46485,1.17188 -3.42408,1.83106 -1.94091,0.65918 -4.6875,0.65918 -2.94799,0 -5.31005,-0.54932 -2.34375,-0.54931 -4.77906,-1.62964 v -4.54101 h 0.25635 q 2.06909,1.72119 4.77905,2.65503 2.70996,0.93383 5.09034,0.93383 3.36914,0 5.23681,-1.26342 1.88599,-1.26343 1.88599,-3.36914 0,-1.81275 -0.89722,-2.67334 -0.8789,-0.8606 -2.69165,-1.33667 -1.37329,-0.36621 -2.98462,-0.60425 -1.59302,-0.23804 -3.38745,-0.60425 -3.62549,-0.76904 -5.3833,-2.61841 -1.7395,-1.86767 -1.7395,-4.85229 0,-3.42407 2.89306,-5.60303 2.89307,-2.19727 7.34253,-2.19727 2.87476,0 5.27344,0.54932 2.39868,0.54932 4.24805,1.35498 v 4.28467 h -0.25635 q -1.5564,-1.31836 -4.10156,-2.17896 -2.52686,-0.8789 -5.18189,-0.8789 -2.91137,0 -4.6875,1.20849 -1.75781,1.2085 -1.75781,3.1128 0,1.70288 0.87891,2.67334 0.8789,0.97046 3.09448,1.48315 1.17187,0.25635 3.33252,0.62256 2.16064,0.36621 3.66211,0.75073 3.03955,0.80567 4.57764,2.43531 1.53808,1.62963 1.53808,4.55932 z"
         id="path231" />
      <path
         style="color:#000000;fill:#b3b3b3;-inkscape-stroke:none"
         d="m 690.32361,296.89734 h -15.06958 q 0,1.88599 0.56763,3.2959 0.56762,1.3916 1.55639,2.28882 0.95215,0.8789 2.2522,1.31836 1.31836,0.43945 2.89307,0.43945 2.0874,0 4.19311,-0.82398 2.12402,-0.84228 3.02124,-1.64795 h 0.18311 v 3.75367 q -1.73951,0.73242 -3.55225,1.2268 -1.81274,0.49439 -3.80859,0.49439 -5.09034,0 -7.94678,-2.74658 -2.85645,-2.7649 -2.85645,-7.83692 0,-5.01709 2.72828,-7.96509 2.74658,-2.94799 7.21435,-2.94799 4.13818,0 6.37207,2.41699 2.2522,2.41699 2.2522,6.86645 z m -3.35083,-2.63672 q -0.0183,-2.70996 -1.37329,-4.19312 -1.33667,-1.48315 -4.08325,-1.48315 -2.7649,0 -4.41285,1.62964 -1.62964,1.62964 -1.84936,4.04663 z"
         id="path233" />
      <path
         style="color:#000000;fill:#b3b3b3;-inkscape-stroke:none"
         d="m 706.16223,306.58362 q -0.97046,0.25635 -2.12402,0.42114 -1.13526,0.1648 -2.03247,0.1648 -3.13111,0 -4.76074,-1.68457 -1.62964,-1.68457 -1.62964,-5.40162 v -10.87646 h -2.32544 v -2.89307 h 2.32544 v -5.87768 h 3.44238 v 5.87768 h 7.10449 v 2.89307 h -7.10449 v 9.32007 q 0,1.61133 0.0732,2.52685 0.0732,0.89722 0.5127,1.68457 0.40283,0.73243 1.09863,1.08033 0.71411,0.32959 2.16064,0.32959 0.84229,0 1.75782,-0.23804 0.91552,-0.25635 1.31836,-0.42114 h 0.1831 z"
         id="path235" />
    </g>
    <g
       aria-label="Reset"
       id="text4852"
       style="font-size:37.5px;letter-spacing:0px;word-spacing:0px;stroke-width:2.40227px;fill:#b3b3b3">
      <path
         style="color:#000000;fill:#b3b3b3;-inkscape-stroke:none"
         d="m 655.30286,677.58502 h -4.70581 l -9.11866,-10.83984 h -5.10864 v 10.83984 h -3.62549 v -27.2644 h 7.6355 q 2.47192,0 4.11987,0.32959 1.64795,0.31128 2.96631,1.13525 1.48316,0.93384 2.30713,2.36206 0.84229,1.40991 0.84229,3.58887 0,2.948 -1.48316,4.94385 -1.48315,1.97754 -4.08325,2.98462 z m -8.47779,-19.59228 q 0,-1.17188 -0.42114,-2.06909 -0.40283,-0.91553 -1.35498,-1.53809 -0.78735,-0.53101 -1.86768,-0.73242 -1.08032,-0.21973 -2.54516,-0.21973 h -4.26636 v 10.29053 h 3.66211 q 1.72119,0 3.00293,-0.29297 1.28174,-0.31128 2.17896,-1.13525 0.82397,-0.76905 1.20849,-1.75782 0.40283,-1.00708 0.40283,-2.54516 z"
         id="path220" />
      <path
         style="color:#000000;fill:#b3b3b3;-inkscape-stroke:none"
         d="m 674.74866,667.71564 h -15.06958 q 0,1.88598 0.56762,3.2959 0.56763,1.3916 1.5564,2.28881 0.95215,0.87891 2.2522,1.31836 1.31836,0.43946 2.89306,0.43946 2.08741,0 4.19312,-0.82398 2.12402,-0.84228 3.02124,-1.64795 h 0.18311 v 3.75366 q -1.73951,0.73243 -3.55225,1.22681 -1.81275,0.49439 -3.80859,0.49439 -5.09034,0 -7.94678,-2.74659 -2.85645,-2.76489 -2.85645,-7.83691 0,-5.01709 2.72827,-7.96509 2.74659,-2.948 7.21436,-2.948 4.13818,0 6.37207,2.417 2.2522,2.41699 2.2522,6.86645 z m -3.35083,-2.63672 q -0.0183,-2.70996 -1.37329,-4.19312 -1.33667,-1.48315 -4.08326,-1.48315 -2.76489,0 -4.41284,1.62964 -1.62964,1.62964 -1.84936,4.04663 z"
         id="path222" />
      <path
         style="color:#000000;fill:#b3b3b3;-inkscape-stroke:none"
         d="m 694.57898,671.68903 q 0,2.80151 -2.32544,4.59594 -2.30713,1.79444 -6.31714,1.79444 -2.27051,0 -4.1748,-0.53101 -1.88599,-0.54932 -3.16773,-1.19018 v -3.86353 h 0.18311 q 1.62964,1.22681 3.62549,1.95923 1.99585,0.71411 3.8269,0.71411 2.27051,0 3.55225,-0.73242 1.28173,-0.73242 1.28173,-2.30713 0,-1.2085 -0.6958,-1.83106 -0.6958,-0.62255 -2.67334,-1.06201 -0.73242,-0.16479 -1.9226,-0.38452 -1.17188,-0.21973 -2.14234,-0.47607 -2.69165,-0.71411 -3.8269,-2.08741 -1.11695,-1.3916 -1.11695,-3.40576 0,-1.26342 0.5127,-2.38037 0.53101,-1.11694 1.59302,-1.99585 1.02539,-0.86059 2.6001,-1.35498 1.59301,-0.51269 3.55224,-0.51269 1.83106,0 3.69873,0.45776 1.88599,0.43945 3.13111,1.08032 v 3.68042 h -0.18311 q -1.31836,-0.97046 -3.20435,-1.62964 -1.88598,-0.67749 -3.69873,-0.67749 -1.88598,0 -3.18603,0.73243 -1.30005,0.71411 -1.30005,2.14233 0,1.26343 0.78735,1.9043 0.76905,0.64087 2.49024,1.0437 0.95215,0.21972 2.12402,0.43945 1.19019,0.21973 1.97754,0.40283 2.39868,0.54932 3.69873,1.88599 1.30005,1.35498 1.30005,3.58887 z"
         id="path224" />
      <path
         style="color:#000000;fill:#b3b3b3;-inkscape-stroke:none"
         d="M 716.62488,667.71564 H 701.5553 q 0,1.88598 0.56762,3.2959 0.56763,1.3916 1.5564,2.28881 0.95215,0.87891 2.2522,1.31836 1.31836,0.43946 2.89306,0.43946 2.08741,0 4.19312,-0.82398 2.12402,-0.84228 3.02124,-1.64795 h 0.18311 v 3.75366 q -1.73951,0.73243 -3.55225,1.22681 -1.81274,0.49439 -3.80859,0.49439 -5.09034,0 -7.94678,-2.74659 -2.85645,-2.76489 -2.85645,-7.83691 0,-5.01709 2.72827,-7.96509 2.74659,-2.948 7.21436,-2.948 4.13818,0 6.37207,2.417 2.2522,2.41699 2.2522,6.86645 z m -3.35083,-2.63672 q -0.0183,-2.70996 -1.37329,-4.19312 -1.33667,-1.48315 -4.08326,-1.48315 -2.76489,0 -4.41284,1.62964 -1.62964,1.62964 -1.84936,4.04663 z"
         id="path226" />
      <path
         style="color:#000000;fill:#b3b3b3;-inkscape-stroke:none"
         d="m 732.4635,677.40192 q -0.97046,0.25634 -2.12402,0.42114 -1.13526,0.16479 -2.03247,0.16479 -3.13111,0 -4.76075,-1.68457 -1.62963,-1.68457 -1.62963,-5.40161 v -10.87646 h -2.32544 v -2.89307 h 2.32544 v -5.87768 h 3.44238 v 5.87768 h 7.10449 v 2.89307 h -7.10449 v 9.32007 q 0,1.61132 0.0732,2.52685 0.0732,0.89722 0.5127,1.68457 0.40283,0.73242 1.09863,1.08032 0.71411,0.32959 2.16064,0.32959 0.84229,0 1.75782,-0.23803 0.91552,-0.25635 1.31836,-0.42115 h 0.1831 z"
         id="path228" />
    </g>
    <g
       aria-label="Clock"
       id="text4856"
       style="font-size:37.5px;letter-spacing:0px;word-spacing:0px;stroke-width:2.40227px;fill:#b3b3b3">
      <path
         style="color:#000000;fill:#b3b3b3;-inkscape-stroke:none"
         d="m 1054.6012,457.78397 q -1.0071,0.43945 -1.8311,0.82397 -0.8056,0.38452 -2.124,0.80566 -1.1169,0.34791 -2.4353,0.58594 -1.3,0.25635 -2.8747,0.25635 -2.9663,0 -5.4017,-0.82397 -2.4169,-0.84229 -4.2114,-2.61841 -1.7578,-1.7395 -2.7466,-4.41284 -0.9887,-2.69166 -0.9887,-6.2439 0,-3.36914 0.9521,-6.02417 0.9522,-2.65503 2.7466,-4.48609 1.7395,-1.77612 4.1931,-2.70996 2.4719,-0.93383 5.4749,-0.93383 2.1972,0 4.3762,0.531 2.1973,0.53101 4.8706,1.86768 v 4.30298 h -0.2747 q -2.2522,-1.88599 -4.4677,-2.74659 -2.2156,-0.86059 -4.7425,-0.86059 -2.0691,0 -3.7353,0.67749 -1.648,0.65918 -2.948,2.06909 -1.2634,1.37329 -1.9776,3.479 -0.6958,2.08741 -0.6958,4.83399 0,2.87475 0.7691,4.94385 0.7873,2.06909 2.0141,3.36914 1.2818,1.35498 2.9847,2.01416 1.7212,0.64087 3.6255,0.64087 2.6184,0 4.9072,-0.89722 2.2888,-0.89722 4.2846,-2.69165 h 0.2564 z"
         id="path209" />
      <path
         style="color:#000000;fill:#b3b3b3;-inkscape-stroke:none"
         d="m 1062.9325,459.76151 h -3.4424 v -28.49122 h 3.4424 z"
         id="path211" />
      <path
         style="color:#000000;fill:#b3b3b3;-inkscape-stroke:none"
         d="m 1087.1757,449.54422 q 0,4.99878 -2.5635,7.89185 -2.5635,2.89306 -6.8665,2.89306 -4.3396,0 -6.903,-2.89306 -2.5452,-2.89307 -2.5452,-7.89185 0,-4.99878 2.5452,-7.89185 2.5634,-2.91137 6.903,-2.91137 4.303,0 6.8665,2.91137 2.5635,2.89307 2.5635,7.89185 z m -3.5523,0 q 0,-3.97339 -1.5564,-5.896 -1.5564,-1.94091 -4.3213,-1.94091 -2.8015,0 -4.3579,1.94091 -1.5381,1.92261 -1.5381,5.896 0,3.84521 1.5564,5.84106 1.5564,1.97754 4.3396,1.97754 2.7466,0 4.303,-1.95923 1.5747,-1.97753 1.5747,-5.85937 z"
         id="path213" />
      <path
         style="color:#000000;fill:#b3b3b3;-inkscape-stroke:none"
         d="m 1107.6285,458.47977 q -1.7212,0.82397 -3.2775,1.28174 -1.5381,0.45776 -3.2776,0.45776 -2.2156,0 -4.065,-0.64087 -1.8493,-0.65918 -3.1677,-1.97754 -1.3367,-1.31836 -2.0691,-3.33252 -0.7324,-2.01416 -0.7324,-4.70581 0,-5.01709 2.7466,-7.87353 2.7649,-2.85645 7.2876,-2.85645 1.7578,0 3.4423,0.49438 1.7029,0.49439 3.1128,1.2085 v 3.82691 h -0.1831 q -1.5747,-1.22681 -3.2592,-1.88599 -1.6663,-0.65918 -3.2593,-0.65918 -2.9297,0 -4.6326,1.97754 -1.6846,1.95923 -1.6846,5.76782 0,3.69873 1.648,5.69458 1.6663,1.97754 4.6692,1.97754 1.0437,0 2.124,-0.27466 1.0803,-0.27466 1.9409,-0.71411 0.7508,-0.38452 1.4099,-0.80566 0.6592,-0.43946 1.0437,-0.75074 h 0.1831 z"
         id="path215" />
      <path
         style="color:#000000;fill:#b3b3b3;-inkscape-stroke:none"
         d="m 1130.6083,459.76151 h -4.541 l -8.2032,-8.95386 -2.2339,2.12402 v 6.82984 h -3.4423 v -28.49122 h 3.4423 v 18.27393 l 9.9427,-10.2356 h 4.3396 l -9.5032,9.44825 z"
         id="path217" />
    </g>
    <path
       style="color:#000000;fill:#b3b3b3;-inkscape-stroke:none"
       d="m 648.05859,271.22266 v 2.8125 h 55.95899 v -2.8125 z"
       id="path4862" />
    <path
       style="color:#000000;fill:#b3b3b3;-inkscape-stroke:none"
       d="m 631.89648,642.76953 v 2.8125 h 94.39649 v -2.8125 z"
       id="path4864" />
    <path
       style="color:#000000;fill:#b3b3b3;-inkscape-stroke:none"
       d="m 927.72656,524.72461 v 2.8125 h 22.32617 v -2.8125 z"
       id="path4866" />
    <path
       style="color:#000000;fill:#b3b3b3;-inkscape-stroke:none"
       d="m 391.31641,300.34961 v 23.61523 l 6.60156,6.52344 -14.70117,12.10742 14.58593,12.00977 -14.58593,12.01172 14.70117,12.10742 -6.60156,6.52344 v 180.75976 h 2.8125 V 386.42383 l 7.98242,-7.88867 -14.46875,-11.91602 14.58398,-12.01172 -14.58398,-12.01172 14.46875,-11.91601 -7.98242,-7.89063 v -19.62695 h 45.23242 v 20.80273 l 6.60156,6.52344 -14.70117,12.10742 14.58594,12.00977 -14.58594,12.01172 14.70117,12.10742 -6.60156,6.52344 v 180.75976 h 2.8125 V 386.42383 l 7.98242,-7.88867 -14.46875,-11.91602 14.58398,-12.01172 -14.58398,-12.01172 14.46875,-11.91601 -7.98242,-7.89063 v -22.43945 z"
       id="path4416" />
    <path
       style="color:#000000;fill:#b3b3b3;-inkscape-stroke:none"
       d="m 415.33789,277.73437 v 24.02149 h 2.8125 v -24.02149 z"
       id="path4418" />
    <path
       style="color:#000000;fill:#b3b3b3;-inkscape-stroke:none"
       d="m 441.02344,565.02539 c -2.84258,0 -5.17774,2.3351 -5.17774,5.17773 0,2.84265 2.33514,5.17579 5.17774,5.17579 2.84267,0 5.17578,-2.33316 5.17578,-5.17579 0,-2.84261 -2.33312,-5.17773 -5.17578,-5.17773 z m 0,2.8125 c 1.32273,0 2.36328,1.04259 2.36328,2.36523 0,1.32267 -1.04056,2.36329 -2.36328,2.36329 -1.32256,0 -2.36524,-1.04064 -2.36524,-2.36329 0,-1.32261 1.04266,-2.36523 2.36524,-2.36523 z"
       id="path4420" />
    <path
       style="color:#000000;fill:#b3b3b3;-inkscape-stroke:none"
       d="m 392.97656,565.02539 c -2.84258,0 -5.17578,2.33509 -5.17578,5.17773 0,2.84266 2.33319,5.17579 5.17578,5.17579 2.84267,0 5.17774,-2.33316 5.17774,-5.17579 0,-2.84261 -2.33508,-5.17773 -5.17774,-5.17773 z m 0,2.8125 c 1.32274,0 2.36524,1.04259 2.36524,2.36523 0,1.32267 -1.04251,2.36329 -2.36524,2.36329 -1.32256,0 -2.36328,-1.04064 -2.36328,-2.36329 0,-1.32261 1.04071,-2.36523 2.36328,-2.36523 z"
       id="path4422" />
    <path
       style="color:#000000;fill:#b3b3b3;-inkscape-stroke:none"
       d="m 417,608.26562 c -2.84258,0 -5.17773,2.3351 -5.17773,5.17774 0,2.84265 2.33513,5.17773 5.17773,5.17773 2.84267,0 5.17773,-2.3351 5.17773,-5.17773 0,-2.84262 -2.33507,-5.17774 -5.17773,-5.17774 z m 0,2.8125 c 1.32274,0 2.36523,1.0426 2.36523,2.36524 0,1.32266 -1.04251,2.36523 -2.36523,2.36523 -1.32256,0 -2.36523,-1.04258 -2.36523,-2.36523 0,-1.32262 1.04266,-2.36524 2.36523,-2.36524 z"
       id="path4426" />
    <path
       style="color:#000000;fill:#b3b3b3;-inkscape-stroke:none"
       d="m 415.33789,618.37891 v 37.60742 h 2.8125 v -37.60742 z"
       id="path4430" />
    <path
       style="color:#000000;fill:#b3b3b3;-inkscape-stroke:none"
       d="m 443.65234,572.85742 -30.24023,36.7832 2.17187,1.78711 30.24024,-36.7832 z"
       id="path4434" />
    <path
       style="color:#000000;fill:#b3b3b3;stroke-width:2.8125;-inkscape-stroke:none"
       d="m 445.17435,514.35601 c 0,2.88454 -2.33835,5.22286 -5.22288,5.22286 -2.88446,0 -5.22281,-2.33832 -5.22281,-5.22286 0,-2.88448 2.33835,-5.22281 5.22281,-5.22281 2.88453,0 5.22288,2.33833 5.22288,5.22281 z"
       id="path4436" />
    <path
       style="color:#000000;fill:#b3b3b3;stroke-width:2.8125;-inkscape-stroke:none"
       d="m 397.85442,423.31377 c 0,2.88453 -2.33835,5.22285 -5.22288,5.22285 -2.88446,0 -5.22281,-2.33832 -5.22281,-5.22285 0,-2.88449 2.33835,-5.22281 5.22281,-5.22281 2.88453,0 5.22288,2.33832 5.22288,5.22281 z"
       id="path4438" />
    <path
       style="color:#000000;fill:#b3b3b3;-inkscape-stroke:none"
       d="m 395.29102,654.58008 v 2.8125 h 42.9082 v -2.8125 z m 6.5625,8.58203 v 2.8125 h 30.03515 v -2.8125 z m 6.31054,8.58203 v 2.8125 h 17.16211 v -2.8125 z m 6.43555,8.58203 v 2.8125 h 4.54297 v -2.8125 z"
       id="path4448" />
    <g
       aria-label="+5V"
       id="text4452"
       style="font-size:37.5px;font-family:'Comic Sans MS';-inkscape-font-specification:'Comic Sans MS';letter-spacing:0px;word-spacing:0px;stroke-width:2.40227;fill:#b3b3b3">
      <path
         style="color:#000000;-inkscape-font-specification:'Comic Sans MS';fill:#b3b3b3;-inkscape-stroke:none"
         d="m 400.03009,257.37265 q 0,0.67749 -0.45776,1.19019 -0.43946,0.49438 -1.11695,0.49438 -0.21972,0 -0.65918,-0.0732 -0.43945,-0.0732 -0.67749,-0.0732 l -1.83105,0.0366 q -1.11694,0.0366 -1.83106,0 v 4.30298 q 0,1.64794 -1.62963,1.64794 -0.80567,0 -1.22681,-0.40283 -0.40283,-0.42114 -0.40283,-1.24511 l -0.0183,-2.10572 -0.0183,-2.12402 q -2.21558,0.12817 -3.13111,0.12817 -2.83813,0 -2.83813,-1.68457 0,-1.19018 1.00708,-1.48315 0.3479,-0.0916 1.83105,-0.0916 0.91553,0 3.13111,-0.12818 l -0.0183,-2.14233 q 0,-1.66626 0.16479,-2.30713 0.18311,-0.65918 0.56763,-0.98877 0.38452,-0.32959 0.98877,-0.32959 0.6958,0 1.17187,0.45776 0.49439,0.43946 0.49439,1.13526 0,0.31128 -0.0733,0.98877 -0.0549,0.67749 -0.0549,1.02539 l 0.0183,2.0874 1.37329,0.0549 q 0.36621,0 1.11695,-0.0366 0.75073,-0.0549 1.11694,-0.0549 3.00293,0 3.00293,1.72119 z"
         id="path202" />
      <path
         style="color:#000000;-inkscape-font-specification:'Comic Sans MS';fill:#b3b3b3;-inkscape-stroke:none"
         d="m 411.62067,270.2999 q -5.2002,0 -7.65381,-3.84522 -0.32959,-0.531 -0.32959,-1.02539 0,-0.71411 0.56763,-1.22681 0.56762,-0.531 1.28173,-0.531 0.75074,0 1.42823,0.80566 0.97045,1.17188 1.46484,1.50147 1.19019,0.80566 3.24097,0.80566 3.16772,0 5.25512,-2.41699 1.99585,-2.30713 1.99585,-5.5481 0,-2.67334 -0.8789,-4.3396 -1.13526,-2.10571 -3.49732,-2.10571 -1.95923,0 -3.20434,0.53101 -0.98877,0.42114 -1.99585,1.44653 l -1.99585,2.17895 q -0.80567,0.82398 -1.64795,0.82398 -0.73242,0 -1.24512,-0.5127 -0.51269,-0.531 -0.51269,-1.26342 0,-0.36621 0.29296,-3.25928 0.62256,-5.76782 0.62256,-7.58057 0,-0.64087 -0.32959,-1.3916 -0.31128,-0.76904 -0.31128,-1.13525 0,-1.11695 1.92261,-1.11695 0.36621,0 1.09863,0.0733 0.75074,0.0549 1.11695,0.0549 1.06201,0 3.18603,-0.0732 2.12403,-0.0733 3.18604,-0.0733 0.49438,0 1.50146,0.0366 1.00708,0.0366 1.50147,0.0366 0.3479,0 1.00708,-0.12818 0.65918,-0.14648 0.98877,-0.14648 0.71411,0 1.26342,0.531 0.54932,0.53101 0.54932,1.22681 0,2.05078 -4.3396,2.05078 -0.56763,0 -1.42822,-0.0366 -0.8606,-0.0366 -1.0437,-0.0366 l -3.09448,0.0549 -3.09449,0.0915 q 0,0.82398 -0.67749,6.09742 2.50855,-1.99585 6.68335,-1.99585 4.02832,0 6.15235,3.14941 1.79443,2.67334 1.79443,6.81152 0,4.94385 -2.89307,8.1482 -3.00293,3.33252 -7.92846,3.33252 z"
         id="path204" />
      <path
         style="color:#000000;-inkscape-font-specification:'Comic Sans MS';fill:#b3b3b3;-inkscape-stroke:none"
         d="m 448.1319,244.04257 q -1.13526,1.70288 -1.84937,3.57056 l -1.3916,4.01001 -4.92554,13.31177 q -0.86059,2.34375 -2.01416,4.57763 -0.58593,1.09864 -1.64795,1.09864 -1.40991,0 -1.97754,-1.42823 -2.21557,-5.5664 -4.92553,-16.02173 l -1.44654,-5.0354 q -1.08032,-3.80859 -1.08032,-4.98046 0,-0.82398 0.58594,-1.35499 0.53101,-0.49438 1.28174,-0.49438 1.3916,0 1.79443,1.50146 l 0.67749,3.18604 1.75781,6.22559 q 1.75782,6.81152 3.42408,11.73706 l 0.10986,-0.29297 4.90723,-13.29346 1.55639,-4.48608 q 1.0437,-2.70996 2.21558,-4.10157 0.60425,-0.73242 1.42822,-0.73242 0.73242,0 1.30005,0.56763 0.58594,0.54932 0.58594,1.33667 0,0.54932 -0.36621,1.09863 z"
         id="path206" />
    </g>
    <g
       aria-label="S1"
       id="text4456"
       style="font-size:37.5px;font-family:'Comic Sans MS';-inkscape-font-specification:'Comic Sans MS';letter-spacing:0px;word-spacing:0px;stroke-width:2.40227;fill:#b3b3b3">
      <path
         style="color:#000000;-inkscape-font-specification:'Comic Sans MS';fill:#b3b3b3;-inkscape-stroke:none"
         d="m 251.04405,517.8678 q -0.0183,-0.76905 0.5127,-1.24512 0.54931,-0.49438 1.33667,-0.49438 0.89721,0 1.5747,1.02539 0.93384,1.3916 1.66626,1.88598 1.5564,1.02539 4.52271,1.02539 2.83813,0 5.27344,-1.2268 3.11279,-1.57471 3.11279,-4.37622 0,-2.30713 -2.61841,-3.6438 -2.21557,-1.15357 -5.47485,-1.24512 -2.89307,-0.10986 -4.92554,-1.26343 -2.6001,-1.48315 -2.6001,-4.24804 0,-3.25928 3.69873,-5.95093 3.53394,-2.54517 7.30591,-2.54517 1.77612,0 4.01001,0.60425 2.96631,0.78735 2.96631,2.01416 0,1.61133 -1.64795,1.61133 -0.73242,0 -2.56348,-0.38452 -1.83105,-0.40284 -2.83813,-0.38452 -2.85645,0.0366 -4.8523,1.40991 -2.05078,1.40991 -2.05078,3.42407 0,1.51977 2.70996,2.14233 1.00708,0.23804 3.90015,0.43946 4.19312,0.31128 6.55518,2.63672 2.16064,2.12402 2.16064,5.18188 0,4.35791 -4.02832,6.95801 -3.49731,2.2522 -8.11157,2.2522 -3.35083,0 -6.13403,-1.28174 -3.40577,-1.57471 -3.4607,-4.32129 z"
         id="path197" />
      <path
         style="color:#000000;-inkscape-font-specification:'Comic Sans MS';fill:#b3b3b3;-inkscape-stroke:none"
         d="m 287.48204,522.44543 h -3.6438 l -3.62549,-0.0183 q -1.28173,0 -1.79443,-0.16479 -0.93384,-0.32959 -0.93384,-1.3916 0,-1.84937 2.87476,-1.84937 l 0.8789,0.0183 0.75074,0.0366 q 0,-0.8789 -0.1648,-2.60009 -0.14648,-1.7212 -0.14648,-2.58179 0,-2.32544 0.42114,-7.06787 0.40283,-4.66919 0.38452,-7.08618 -2.45361,1.90429 -3.1311,1.90429 -0.73242,0 -1.28174,-0.54931 -0.53101,-0.54932 -0.53101,-1.26343 0,-0.8606 1.57471,-2.0874 0.98877,-0.6958 2.80151,-2.23389 1.61133,-1.62964 3.07618,-1.62964 1.2268,0 1.2268,1.40991 0,0.42115 -0.10986,1.26343 -0.10986,0.82398 -0.10986,1.24512 0,0.60425 0.0549,1.83105 0.0732,1.22681 0.0732,1.83106 0,2.0874 -0.43945,6.22558 -0.43946,4.13819 -0.43946,6.20728 0,1.06201 0.14649,2.58179 0.14648,1.51977 0.16479,2.49023 l 1.92261,-0.0366 q 0.76904,0 1.26343,0.51269 0.51269,0.49439 0.51269,1.24512 0,0.76905 -0.51269,1.26343 -0.49439,0.49438 -1.26343,0.49438 z"
         id="path199" />
    </g>
    <g
       aria-label="CLOCK"
       id="text4468"
       style="font-size:37.5px;font-family:'Comic Sans MS';-inkscape-font-specification:'Comic Sans MS';letter-spacing:0px;word-spacing:0px;stroke-width:2.40227;fill:#b3b3b3">
      <path
         style="color:#000000;-inkscape-font-specification:'Comic Sans MS';fill:#b3b3b3;-inkscape-stroke:none"
         d="m 244.16267,467.27933 q -1.17187,0 -1.75781,-1.37329 -0.51269,-1.17188 -0.95215,-1.42823 -0.38452,-0.20141 -1.90429,-0.20141 -2.65503,0 -5.896,4.06494 -4.39453,5.45654 -4.39453,10.34546 0,2.36206 1.51977,4.06494 1.5564,1.75781 3.75367,1.75781 1.88598,0 3.79028,-0.97046 1.06201,-0.54931 3.25928,-2.16064 1.0437,-0.76904 1.5747,-0.76904 0.78736,0 1.31836,0.60424 0.53101,0.58594 0.53101,1.31836 0,0.82398 -0.6958,1.44654 -4.83399,4.28466 -9.77783,4.28466 -3.79029,0 -6.4087,-2.91137 -2.52685,-2.81983 -2.52685,-6.66504 0,-6.20728 5.20019,-12.72583 4.3396,-5.43823 8.75245,-5.43823 0.89721,0 1.61132,0.0915 0.71412,0.0732 1.26343,0.25635 0.64087,-0.93384 1.66626,-0.93384 1.26343,0 1.59302,1.66626 0.29297,1.48315 0.29297,3.6438 0,0.75073 -0.40283,1.31836 -0.49439,0.71411 -1.40992,0.71411 z"
         id="path186" />
      <path
         style="color:#000000;-inkscape-font-specification:'Comic Sans MS';fill:#b3b3b3;-inkscape-stroke:none"
         d="m 265.31136,487.07303 q -2.0691,0.97046 -6.50025,1.7395 -4.08325,0.71411 -6.66504,0.71411 -1.84936,0 -2.65503,-0.56763 -1.09863,-0.76904 -1.09863,-2.81982 l 0.36621,-6.06079 q 0.47608,-8.38623 0.47608,-18.60352 0,-0.78735 0.51269,-1.33667 0.53101,-0.54931 1.30005,-0.54931 0.78735,0 1.30005,0.54931 0.531,0.54932 0.531,1.33667 0,10.34546 -0.49438,18.82325 l -0.23804,2.7832 q -0.14648,1.51977 -0.10986,2.69165 4.77905,0.0549 12.08496,-2.2522 0.31128,-0.0915 0.58594,-0.0915 0.78735,0 1.31836,0.62256 0.45776,0.56763 0.45776,1.30005 0,1.17187 -1.17187,1.72119 z"
         id="path188" />
      <path
         style="color:#000000;-inkscape-font-specification:'Comic Sans MS';fill:#b3b3b3;-inkscape-stroke:none"
         d="m 281.8824,488.9407 q -5.16357,0 -8.75244,-3.09448 -3.80859,-3.2959 -3.80859,-8.49609 0,-6.33545 3.75366,-11.51734 4.19311,-5.74951 10.45532,-5.74951 6.02417,0 8.95386,2.70996 3.05786,2.81983 3.05786,8.89893 0,6.33545 -3.44238,11.42578 -3.95508,5.82275 -10.21729,5.82275 z m 1.64795,-25.10376 q -4.48608,0 -7.59888,4.46778 -2.87475,4.10156 -2.87475,9.04541 0,3.53393 2.61841,5.74951 2.50854,2.0874 6.20727,2.0874 4.44946,0 7.34253,-4.48608 2.58179,-4.01001 2.58179,-9.00879 0,-4.37622 -1.95923,-6.15234 -1.86768,-1.70289 -6.31714,-1.70289 z"
         id="path190" />
      <path
         style="color:#000000;-inkscape-font-specification:'Comic Sans MS';fill:#b3b3b3;-inkscape-stroke:none"
         d="m 317.34993,467.27933 q -1.17188,0 -1.75781,-1.37329 -0.5127,-1.17188 -0.95215,-1.42823 -0.38452,-0.20141 -1.9043,-0.20141 -2.65503,0 -5.89599,4.06494 -4.39454,5.45654 -4.39454,10.34546 0,2.36206 1.51978,4.06494 1.5564,1.75781 3.75366,1.75781 1.88599,0 3.79029,-0.97046 1.06201,-0.54931 3.25927,-2.16064 1.0437,-0.76904 1.57471,-0.76904 0.78735,0 1.31836,0.60424 0.531,0.58594 0.531,1.31836 0,0.82398 -0.6958,1.44654 -4.83398,4.28466 -9.77783,4.28466 -3.79028,0 -6.40869,-2.91137 -2.52685,-2.81983 -2.52685,-6.66504 0,-6.20728 5.20019,-12.72583 4.3396,-5.43823 8.75244,-5.43823 0.89722,0 1.61133,0.0915 0.71411,0.0732 1.26343,0.25635 0.64087,-0.93384 1.66626,-0.93384 1.26343,0 1.59302,1.66626 0.29296,1.48315 0.29296,3.6438 0,0.75073 -0.40283,1.31836 -0.49438,0.71411 -1.40991,0.71411 z"
         id="path192" />
      <path
         style="color:#000000;-inkscape-font-specification:'Comic Sans MS';fill:#b3b3b3;-inkscape-stroke:none"
         d="m 340.84236,488.57449 q -2.7832,0 -7.92847,-4.88891 l -5.47485,-5.51148 v 0.25635 l -0.0183,9.59473 q 0,1.81274 -1.59302,1.81274 -1.0437,0 -1.66626,-0.91553 -0.51269,-0.75073 -0.51269,-1.62963 0,-4.28467 0.25635,-12.81739 0.25634,-8.53271 0.25634,-12.79907 0,-0.78735 0.5127,-1.33667 0.531,-0.54932 1.30005,-0.54932 0.78735,0 1.30005,0.54932 0.531,0.54932 0.531,1.33667 0,1.77612 -0.21972,5.52979 -0.21973,3.62548 -0.20142,5.54809 2.45361,-2.32544 5.5481,-5.84106 l 5.25512,-6.09742 q 0.62256,-0.71411 1.3916,-0.71411 0.73243,0 1.30005,0.54932 0.56763,0.54932 0.56763,1.33667 0,1.2085 -4.72412,6.44531 -3.25928,3.57056 -6.73828,6.99463 2.19726,2.30713 6.88476,6.62842 l 1.92261,1.61133 q 1.0437,0.80566 2.2522,1.20849 1.44653,0.47608 1.44653,1.81275 0,0.62256 -0.38452,1.19018 -0.47608,0.6958 -1.26343,0.6958 z"
         id="path194" />
    </g>
    <g
       aria-label="R1"
       id="text4472"
       style="font-size:37.5px;font-family:'Comic Sans MS';-inkscape-font-specification:'Comic Sans MS';letter-spacing:0px;word-spacing:0px;stroke-width:2.40227;fill:#b3b3b3">
      <path
         style="color:#000000;-inkscape-font-specification:'Comic Sans MS';fill:#b3b3b3;-inkscape-stroke:none"
         d="m 355.83768,346.65955 q -0.6958,0 -1.30005,-0.58594 -6.06079,-5.98755 -13.47656,-8.05664 l 0.14648,3.58886 0.0915,3.60718 q 0,0.80567 -0.531,1.33667 -0.5127,0.54932 -1.30005,0.54932 -0.78736,0 -1.31836,-0.54932 -0.5127,-0.531 -0.5127,-1.33667 0,-1.44653 -0.14648,-4.30298 -0.12817,-2.87475 -0.12817,-4.32128 0,-1.68458 0.36621,-5.01709 0.36621,-3.33252 0.36621,-4.99878 0,-0.93384 -0.18311,-2.7649 -0.16479,-1.83105 -0.16479,-2.76489 0,-1.0437 0.58593,-1.83105 0.6958,-0.97046 1.92261,-0.87891 l 4.41284,0.3479 q 2.50855,0.31128 4.22974,1.22681 7.41577,3.93676 7.41577,9.61303 0,2.78321 -2.52685,4.92554 -2.03247,1.72119 -5.07203,2.61841 5.69458,3.05786 8.51441,6.44531 0.47607,0.58594 0.47607,1.24512 0,0.76904 -0.56762,1.33667 -0.54932,0.56763 -1.30005,0.56763 z m -11.66382,-24.20655 -2.70996,-0.21972 0.1831,2.21557 q 0.12818,1.35498 0.12818,2.21558 0,1.46484 -0.23804,3.6438 l -0.38452,3.6438 q 0.25635,0 0.78735,0.0183 0.54932,0.0183 0.82398,0.0183 4.66919,0 6.99463,-1.24512 1.02539,-0.56763 1.90429,-1.48315 0.97046,-1.02539 0.97046,-1.73951 0,-2.54516 -2.89307,-4.74243 -2.65502,-2.01416 -5.5664,-2.32544 z"
         id="path181" />
      <path
         style="color:#000000;-inkscape-font-specification:'Comic Sans MS';fill:#b3b3b3;-inkscape-stroke:none"
         d="m 371.6763,346.47644 h -3.6438 l -3.62549,-0.0183 q -1.28174,0 -1.79443,-0.1648 -0.93384,-0.32958 -0.93384,-1.3916 0,-1.84936 2.87476,-1.84936 l 0.8789,0.0183 0.75074,0.0366 q 0,-0.87891 -0.1648,-2.6001 -0.14648,-1.72119 -0.14648,-2.58178 0,-2.32544 0.42114,-7.06788 0.40283,-4.66919 0.38452,-7.08618 -2.45361,1.9043 -3.1311,1.9043 -0.73242,0 -1.28174,-0.54932 -0.53101,-0.54931 -0.53101,-1.26342 0,-0.8606 1.57471,-2.08741 0.98877,-0.6958 2.80151,-2.23388 1.61133,-1.62964 3.07618,-1.62964 1.2268,0 1.2268,1.40991 0,0.42114 -0.10986,1.26343 -0.10986,0.82397 -0.10986,1.24511 0,0.60425 0.0549,1.83106 0.0732,1.22681 0.0732,1.83105 0,2.08741 -0.43945,6.22559 -0.43946,4.13818 -0.43946,6.20728 0,1.06201 0.14649,2.58178 0.14648,1.51978 0.16479,2.49024 l 1.92261,-0.0366 q 0.76904,0 1.26343,0.51269 0.51269,0.49439 0.51269,1.24512 0,0.76904 -0.51269,1.26343 -0.49439,0.49438 -1.26343,0.49438 z"
         id="path183" />
    </g>
    <g
       aria-label="1K"
       id="text4476"
       style="font-size:37.5px;font-family:'Comic Sans MS';-inkscape-font-specification:'Comic Sans MS';letter-spacing:0px;word-spacing:0px;stroke-width:2.40227;fill:#b3b3b3">
      <path
         style="color:#000000;-inkscape-font-specification:'Comic Sans MS';fill:#b3b3b3;-inkscape-stroke:none"
         d="m 346.95859,383.09976 h -3.6438 l -3.62549,-0.0183 q -1.28174,0 -1.79443,-0.16479 -0.93384,-0.32959 -0.93384,-1.39161 0,-1.84936 2.87475,-1.84936 l 0.87891,0.0183 0.75073,0.0366 q 0,-0.8789 -0.16479,-2.6001 -0.14649,-1.72119 -0.14649,-2.58178 0,-2.32544 0.42115,-7.06787 0.40283,-4.66919 0.38452,-7.08619 -2.45361,1.9043 -3.13111,1.9043 -0.73242,0 -1.28173,-0.54932 -0.53101,-0.54931 -0.53101,-1.26342 0,-0.8606 1.57471,-2.08741 0.98877,-0.6958 2.80151,-2.23388 1.61133,-1.62964 3.07617,-1.62964 1.22681,0 1.22681,1.40991 0,0.42114 -0.10986,1.26343 -0.10987,0.82397 -0.10987,1.24512 0,0.60424 0.0549,1.83105 0.0733,1.22681 0.0733,1.83106 0,2.0874 -0.43946,6.22558 -0.43945,4.13818 -0.43945,6.20728 0,1.06201 0.14649,2.58178 0.14648,1.51978 0.16479,2.49024 l 1.92261,-0.0366 q 0.76904,0 1.26343,0.51269 0.51269,0.49439 0.51269,1.24512 0,0.76904 -0.51269,1.26343 -0.49439,0.49438 -1.26343,0.49438 z"
         id="path176" />
      <path
         style="color:#000000;-inkscape-font-specification:'Comic Sans MS';fill:#b3b3b3;-inkscape-stroke:none"
         d="m 372.06235,383.83218 q -2.78321,0 -7.92847,-4.88891 l -5.47485,-5.51148 v 0.25635 l -0.0183,9.59473 q 0,1.81274 -1.59302,1.81274 -1.0437,0 -1.66626,-0.91553 -0.5127,-0.75073 -0.5127,-1.62963 0,-4.28467 0.25635,-12.81739 0.25635,-8.53271 0.25635,-12.79907 0,-0.78735 0.51269,-1.33667 0.53101,-0.54932 1.30005,-0.54932 0.78736,0 1.30005,0.54932 0.53101,0.54932 0.53101,1.33667 0,1.77612 -0.21973,5.52979 -0.21973,3.62548 -0.20141,5.54809 2.45361,-2.32544 5.54809,-5.84106 l 5.25513,-6.09742 q 0.62256,-0.71411 1.3916,-0.71411 0.73242,0 1.30005,0.54932 0.56763,0.54932 0.56763,1.33667 0,1.2085 -4.72413,6.44531 -3.25927,3.57056 -6.73828,6.99463 2.19727,2.30713 6.88477,6.62842 l 1.92261,1.61133 q 1.0437,0.80566 2.25219,1.20849 1.44654,0.47608 1.44654,1.81275 0,0.62256 -0.38452,1.19018 -0.47608,0.6958 -1.26343,0.6958 z"
         id="path178" />
    </g>
    <g
       aria-label="R2"
       id="text4480"
       style="font-size:37.5px;font-family:'Comic Sans MS';-inkscape-font-specification:'Comic Sans MS';letter-spacing:0px;word-spacing:0px;stroke-width:2.40227;fill:#b3b3b3">
      <path
         style="color:#000000;-inkscape-font-specification:'Comic Sans MS';fill:#b3b3b3;-inkscape-stroke:none"
         d="m 483.77829,348.52744 q -0.6958,0 -1.30005,-0.58594 -6.06079,-5.98755 -13.47656,-8.05664 l 0.14648,3.58886 0.0916,3.60718 q 0,0.80567 -0.53101,1.33667 -0.5127,0.54932 -1.30005,0.54932 -0.78735,0 -1.31836,-0.54932 -0.51269,-0.531 -0.51269,-1.33667 0,-1.44653 -0.14649,-4.30298 -0.12817,-2.87475 -0.12817,-4.32129 0,-1.68457 0.36621,-5.01709 0.36621,-3.33251 0.36621,-4.99877 0,-0.93384 -0.18311,-2.7649 -0.16479,-1.83105 -0.16479,-2.76489 0,-1.0437 0.58594,-1.83105 0.6958,-0.97046 1.9226,-0.87891 l 4.41285,0.3479 q 2.50854,0.31128 4.22973,1.22681 7.41577,3.93676 7.41577,9.61303 0,2.78321 -2.52685,4.92554 -2.03247,1.72119 -5.07202,2.61841 5.69458,3.05786 8.5144,6.44531 0.47608,0.58594 0.47608,1.24512 0,0.76904 -0.56763,1.33667 -0.54932,0.56763 -1.30005,0.56763 z m -11.66382,-24.20655 -2.70996,-0.21972 0.18311,2.21557 q 0.12817,1.35498 0.12817,2.21558 0,1.46484 -0.23804,3.6438 l -0.38452,3.6438 q 0.25635,0 0.78735,0.0183 0.54932,0.0183 0.82398,0.0183 4.66919,0 6.99463,-1.24512 1.02539,-0.56763 1.9043,-1.48315 0.97045,-1.0254 0.97045,-1.73951 0,-2.54516 -2.89306,-4.74243 -2.65503,-2.01416 -5.56641,-2.32544 z"
         id="path171" />
      <path
         style="color:#000000;-inkscape-font-specification:'Comic Sans MS';fill:#b3b3b3;-inkscape-stroke:none"
         d="m 505.18332,348.36264 q -0.45776,0 -1.30005,-0.27466 -0.82397,-0.29297 -1.26343,-0.29297 -0.93384,0 -2.80151,0.10987 -1.86768,0.10986 -2.81983,0.10986 -0.71411,0 -2.12402,0.18311 -1.3916,0.1831 -2.10571,0.1831 -0.20142,0 -0.58594,-0.0732 -0.38452,-0.0732 -0.58594,-0.0732 -1.26342,0 -1.64795,-1.22681 -0.21972,-0.64087 -0.21972,-2.19727 0,-4.26635 2.32544,-6.86645 1.06201,-1.19019 5.7312,-4.39453 2.61841,-1.79444 3.49731,-2.80152 1.57471,-1.75781 1.57471,-4.11987 0,-1.17187 -1.51978,-2.0874 -1.33667,-0.82398 -2.6184,-0.82398 -1.68457,0 -3.20435,0.97046 l -2.61841,2.05078 q -0.78735,0.62256 -1.26343,0.62256 -1.88598,0 -1.88598,-1.50146 0,-0.8606 0.6958,-1.48316 2.14233,-2.01416 3.71704,-2.91137 2.21558,-1.26343 4.55933,-1.26343 2.9663,0 5.29174,1.61133 2.6001,1.81274 2.6001,4.65088 0,1.86767 -0.531,3.44238 -0.53101,1.57471 -1.61133,2.87475 -1.37329,1.64795 -4.65088,3.68042 -3.44238,2.16065 -4.52271,3.27759 -2.03247,2.10572 -1.99585,5.10865 l 3.77198,-0.34791 q 3.88183,-0.21972 5.54809,-0.21972 1.3916,0 2.63672,0.47607 1.64795,0.64087 1.64795,1.77613 0,0.71411 -0.49438,1.28173 -0.49439,0.54932 -1.22681,0.54932 z"
         id="path173" />
    </g>
    <g
       aria-label="1K"
       id="text4484"
       style="font-size:37.5px;font-family:'Comic Sans MS';-inkscape-font-specification:'Comic Sans MS';letter-spacing:0px;word-spacing:0px;stroke-width:2.40227;fill:#b3b3b3">
      <path
         style="color:#000000;-inkscape-font-specification:'Comic Sans MS';fill:#b3b3b3;-inkscape-stroke:none"
         d="m 476.98785,383.40604 h -3.64379 l -3.62549,-0.0183 q -1.28174,0 -1.79444,-0.1648 -0.93383,-0.32959 -0.93383,-1.3916 0,-1.84937 2.87475,-1.84937 l 0.87891,0.0183 0.75073,0.0366 q 0,-0.87891 -0.16479,-2.6001 -0.14649,-1.72119 -0.14649,-2.58179 0,-2.32544 0.42114,-7.06787 0.40284,-4.66919 0.38452,-7.08618 -2.45361,1.9043 -3.1311,1.9043 -0.73242,0 -1.28174,-0.54932 -0.531,-0.54932 -0.531,-1.26343 0,-0.86059 1.5747,-2.0874 0.98877,-0.6958 2.80152,-2.23389 1.61133,-1.62964 3.07617,-1.62964 1.22681,0 1.22681,1.40992 0,0.42114 -0.10987,1.26342 -0.10986,0.82398 -0.10986,1.24512 0,0.60425 0.0549,1.83105 0.0732,1.22681 0.0732,1.83106 0,2.0874 -0.43945,6.22559 -0.43945,4.13818 -0.43945,6.20727 0,1.06201 0.14648,2.58179 0.14649,1.51977 0.1648,2.49023 l 1.9226,-0.0366 q 0.76905,0 1.26343,0.5127 0.5127,0.49438 0.5127,1.24511 0,0.76905 -0.5127,1.26343 -0.49438,0.49439 -1.26343,0.49439 z"
         id="path166" />
      <path
         style="color:#000000;-inkscape-font-specification:'Comic Sans MS';fill:#b3b3b3;-inkscape-stroke:none"
         d="m 502.09161,384.13846 q -2.7832,0 -7.92846,-4.88892 l -5.47486,-5.51147 v 0.25635 l -0.0183,9.59472 q 0,1.81275 -1.59301,1.81275 -1.04371,0 -1.66626,-0.91553 -0.5127,-0.75073 -0.5127,-1.62964 0,-4.28467 0.25635,-12.81738 0.25635,-8.53272 0.25635,-12.79908 0,-0.78735 0.51269,-1.33667 0.53101,-0.54931 1.30005,-0.54931 0.78735,0 1.30005,0.54931 0.531,0.54932 0.531,1.33667 0,1.77613 -0.21972,5.52979 -0.21973,3.62549 -0.20142,5.5481 2.45362,-2.32544 5.5481,-5.84107 l 5.25512,-6.09741 q 0.62256,-0.71411 1.39161,-0.71411 0.73242,0 1.30004,0.54931 0.56763,0.54932 0.56763,1.33667 0,1.2085 -4.72412,6.44532 -3.25928,3.57055 -6.73828,6.99463 2.19727,2.30712 6.88477,6.62841 l 1.9226,1.61133 q 1.0437,0.80567 2.2522,1.2085 1.44653,0.47607 1.44653,1.81274 0,0.62256 -0.38452,1.19019 -0.47607,0.6958 -1.26343,0.6958 z"
         id="path168" />
    </g>
    <g
       aria-label="n/o"
       id="text4610"
       style="font-size:37.5px;font-family:'Comic Sans MS';-inkscape-font-specification:'Comic Sans MS';letter-spacing:0px;word-spacing:0px;stroke-width:2.40227;fill:#b3b3b3">
      <path
         style="color:#000000;-inkscape-font-specification:'Comic Sans MS';fill:#b3b3b3;-inkscape-stroke:none"
         d="m 343.24026,609.28339 q -1.5747,0 -1.77612,-1.7212 l -0.51269,-4.01 q -0.25635,-2.14234 -0.25635,-4.01001 0,-0.5127 0.0549,-1.73951 0.0732,-1.2268 0.0732,-1.7395 0,-3.95508 -1.46484,-3.95508 -2.05078,0 -3.91846,2.43531 -1.68457,2.21557 -2.63672,5.60302 -0.0366,0.71411 -0.16479,1.79444 -0.10987,0.91552 -0.10987,1.77612 0,0.54932 0.10987,1.64795 0.10986,1.09863 0.10986,1.64795 0,0.82397 -0.51269,1.33667 -0.49439,0.51269 -1.28174,0.51269 -0.80567,0 -1.30005,-0.51269 -0.49439,-0.5127 -0.49439,-1.33667 0,-0.54932 -0.12817,-1.64795 -0.10986,-1.09863 -0.10986,-1.64795 0,-1.88599 0.25634,-5.21851 0.27466,-3.35083 0.27466,-5.23681 0,-0.58594 -0.0732,-1.7395 -0.0549,-1.15357 -0.0549,-1.73951 0,-0.78735 0.51269,-1.28173 0.53101,-0.5127 1.30005,-0.5127 1.68457,0 1.84937,2.38037 l 0.0549,2.14234 q 3.07617,-4.10157 6.31714,-4.10157 2.92969,0 4.08325,2.58179 0.78735,1.72119 0.8606,5.09033 v 1.84937 l -0.0183,1.70288 q 0,1.51977 0.38452,3.93677 0.40283,2.39868 0.40283,3.90014 0,0.80567 -0.53101,1.30005 -0.51269,0.5127 -1.30005,0.5127 z"
         id="path159" />
      <path
         style="color:#000000;-inkscape-font-specification:'Comic Sans MS';fill:#b3b3b3;-inkscape-stroke:none"
         d="m 349.52078,609.63129 q -0.67749,0 -1.19018,-0.45777 -0.5127,-0.45776 -0.5127,-1.13525 0,-0.29297 0.12818,-0.62256 1.42822,-3.93677 5.3833,-11.33423 3.95507,-7.41577 5.40161,-11.37085 2.39868,-6.55517 3.62549,-6.50024 0.67749,0.0183 1.19018,0.49438 0.5127,0.45777 0.5127,1.11695 0,0.42114 -0.20142,1.00708 l -2.05078,4.98047 q -1.22681,3.38745 -3.49732,7.8186 l -3.99169,7.58057 -3.31421,7.34252 q -0.49439,1.08033 -1.48316,1.08033 z"
         id="path161" />
      <path
         style="color:#000000;-inkscape-font-specification:'Comic Sans MS';fill:#b3b3b3;-inkscape-stroke:none"
         d="m 374.88089,609.06366 q -3.07617,0 -5.29175,-2.27051 -2.47192,-2.52685 -2.6001,-6.79321 -0.10986,-4.13818 2.08741,-7.2876 2.56347,-3.71704 7.14111,-3.71704 3.66211,0 5.5481,3.35083 1.50146,2.70996 1.44653,6.51856 -0.0549,4.06494 -2.12402,6.93969 -2.34375,3.25928 -6.20728,3.25928 z m 1.09863,-16.35132 q -2.69165,-0.0183 -4.19311,2.56348 -1.19019,2.06909 -1.19019,4.72412 0,2.65503 1.44654,4.13818 1.20849,1.22681 2.83813,1.22681 1.9043,0 3.27759,-1.3916 1.55639,-1.53809 1.64795,-4.1565 0.25634,-7.08618 -3.82691,-7.10449 z"
         id="path163" />
    </g>
    <g
       aria-label="n/c"
       id="text4614"
       style="font-size:37.5px;font-family:'Comic Sans MS';-inkscape-font-specification:'Comic Sans MS';letter-spacing:0px;word-spacing:0px;stroke-width:2.40227;fill:#b3b3b3">
      <path
         style="color:#000000;-inkscape-font-specification:'Comic Sans MS';fill:#b3b3b3;-inkscape-stroke:none"
         d="m 475.2731,609.88794 q -1.57471,0 -1.77612,-1.72119 l -0.5127,-4.01001 q -0.25634,-2.14234 -0.25634,-4.01001 0,-0.5127 0.0549,-1.7395 0.0732,-1.22681 0.0732,-1.73951 0,-3.95507 -1.46484,-3.95507 -2.05079,0 -3.91846,2.4353 -1.68457,2.21558 -2.63672,5.60303 -0.0366,0.71411 -0.16479,1.79443 -0.10987,0.91553 -0.10987,1.77612 0,0.54932 0.10987,1.64795 0.10986,1.09864 0.10986,1.64795 0,0.82398 -0.5127,1.33667 -0.49438,0.5127 -1.28174,0.5127 -0.80566,0 -1.30004,-0.5127 -0.49439,-0.51269 -0.49439,-1.33667 0,-0.54931 -0.12817,-1.64795 -0.10987,-1.09863 -0.10987,-1.64795 0,-1.88598 0.25635,-5.2185 0.27466,-3.35083 0.27466,-5.23682 0,-0.58594 -0.0732,-1.7395 -0.0549,-1.15357 -0.0549,-1.7395 0,-0.78736 0.51269,-1.28174 0.53101,-0.5127 1.30005,-0.5127 1.68457,0 1.84937,2.38037 l 0.0549,2.14234 q 3.07617,-4.10156 6.31714,-4.10156 2.92968,0 4.08325,2.58178 0.78735,1.72119 0.86059,5.09034 v 1.84936 l -0.0183,1.70288 q 0,1.51978 0.38452,3.93677 0.40284,2.39868 0.40284,3.90015 0,0.80566 -0.53101,1.30004 -0.51269,0.5127 -1.30005,0.5127 z"
         id="path152" />
      <path
         style="color:#000000;-inkscape-font-specification:'Comic Sans MS';fill:#b3b3b3;-inkscape-stroke:none"
         d="m 481.55362,610.23584 q -0.67749,0 -1.19019,-0.45776 -0.51269,-0.45777 -0.51269,-1.13526 0,-0.29297 0.12817,-0.62256 1.42823,-3.93676 5.3833,-11.33422 3.95508,-7.41578 5.40161,-11.37085 2.39869,-6.55518 3.62549,-6.50025 0.67749,0.0183 1.19019,0.49439 0.51269,0.45776 0.51269,1.11694 0,0.42114 -0.20141,1.00708 l -2.05078,4.98047 q -1.22681,3.38745 -3.49732,7.8186 l -3.9917,7.58057 -3.31421,7.34253 q -0.49438,1.08032 -1.48315,1.08032 z"
         id="path154" />
      <path
         style="color:#000000;-inkscape-font-specification:'Comic Sans MS';fill:#b3b3b3;-inkscape-stroke:none"
         d="m 508.32364,609.74146 q -3.75366,0 -6.26221,-2.27051 -2.63672,-2.38037 -2.63672,-6.28052 0,-3.71704 2.47193,-7.67212 2.74658,-4.39453 6.18896,-4.39453 1.79444,0 4.01001,0.84228 2.80152,1.08033 2.80152,2.63672 0,0.6958 -0.45777,1.24512 -0.45776,0.53101 -1.13525,0.53101 -0.53101,0 -0.93384,-0.31128 -0.38452,-0.32959 -0.75073,-0.64087 -1.08032,-0.8606 -3.53394,-0.8606 -1.86767,0 -3.69873,3.33252 -1.66626,3.05786 -1.66626,5.29175 0,2.41699 1.64795,3.80859 1.53809,1.30005 3.95508,1.30005 1.09863,0 2.34375,-0.58594 l 2.12402,-1.13525 q 0.54932,-0.29297 0.78736,-0.29297 0.67749,0 1.17187,0.54932 0.49439,0.531 0.49439,1.22681 0,1.33667 -2.81983,2.58178 -2.47192,1.09864 -4.10156,1.09864 z"
         id="path156" />
    </g>
    <path
       style="color:#000000;fill:#b3b3b3;-inkscape-stroke:none"
       d="m 707.57031,504.46289 v 37.60742 h 2.8125 v -37.60742 z"
       id="path3767" />
    <path
       style="color:#000000;fill:#b3b3b3;-inkscape-stroke:none"
       d="m 687.52148,540.66406 v 2.8125 h 42.90821 v -2.8125 z m 6.5625,8.58203 v 2.8125 h 30.03516 v -2.8125 z m 6.31055,8.58203 v 2.8125 h 17.16211 v -2.8125 z m 6.43555,8.58008 v 2.8125 h 4.54297 v -2.8125 z"
       id="path3769" />
  </g>
</svg>
