<?xml version="1.0" encoding="UTF-8" standalone="no"?>
<!-- Created with Inkscape (http://www.inkscape.org/) -->

<svg
   width="767.61609"
   height="548.95355"
   id="svg2"
   version="1.1"
   inkscape:version="1.1 (c68e22c387, 2021-05-23)"
   sodipodi:docname="diode.svg"
   inkscape:export-filename="C:\Users\annarose\Desktop\diode.png"
   inkscape:export-xdpi="90"
   inkscape:export-ydpi="90"
   xmlns:inkscape="http://www.inkscape.org/namespaces/inkscape"
   xmlns:sodipodi="http://sodipodi.sourceforge.net/DTD/sodipodi-0.dtd"
   xmlns:xlink="http://www.w3.org/1999/xlink"
   xmlns="http://www.w3.org/2000/svg"
   xmlns:svg="http://www.w3.org/2000/svg"
   xmlns:rdf="http://www.w3.org/1999/02/22-rdf-syntax-ns#"
   xmlns:cc="http://creativecommons.org/ns#"
   xmlns:dc="http://purl.org/dc/elements/1.1/">
  <defs
     id="defs4">
    <linearGradient
       inkscape:collect="always"
       id="linearGradient4371">
      <stop
         style="stop-color:#0000ff;stop-opacity:1;"
         offset="0"
         id="stop4367" />
      <stop
         style="stop-color:#0000ff;stop-opacity:0"
         offset="1"
         id="stop4369" />
    </linearGradient>
    <linearGradient
       inkscape:collect="always"
       id="linearGradient4344">
      <stop
         style="stop-color:#00ff00;stop-opacity:1;"
         offset="0"
         id="stop4340" />
      <stop
         style="stop-color:#00ff00;stop-opacity:0"
         offset="1"
         id="stop4342" />
    </linearGradient>
    <linearGradient
       inkscape:collect="always"
       id="linearGradient2207">
      <stop
         style="stop-color:#ff0000;stop-opacity:1;"
         offset="0"
         id="stop2203" />
      <stop
         style="stop-color:#ff0000;stop-opacity:0"
         offset="1"
         id="stop2205" />
    </linearGradient>
    <linearGradient
       inkscape:collect="always"
       xlink:href="#linearGradient2207"
       id="linearGradient2209"
       x1="665.96912"
       y1="885.39941"
       x2="660.8349"
       y2="456.18445"
       gradientUnits="userSpaceOnUse" />
    <linearGradient
       inkscape:collect="always"
       xlink:href="#linearGradient4344"
       id="linearGradient4346"
       x1="936.23749"
       y1="894.9588"
       x2="931.10333"
       y2="483.90659"
       gradientUnits="userSpaceOnUse" />
    <linearGradient
       inkscape:collect="always"
       xlink:href="#linearGradient4371"
       id="linearGradient4373"
       x1="1195.0809"
       y1="885.39941"
       x2="1198.5502"
       y2="467.65567"
       gradientUnits="userSpaceOnUse" />
  </defs>
  <sodipodi:namedview
     id="base"
     pagecolor="#ffffff"
     bordercolor="#666666"
     borderopacity="1.0"
     inkscape:pageopacity="0.0"
     inkscape:pageshadow="2"
     inkscape:zoom="1.0460958"
     inkscape:cx="383.80804"
     inkscape:cy="274.83141"
     inkscape:document-units="px"
     inkscape:current-layer="layer1"
     showgrid="true"
     inkscape:snap-global="false"
     inkscape:window-width="1590"
     inkscape:window-height="1231"
     inkscape:window-x="775"
     inkscape:window-y="135"
     inkscape:window-maximized="0"
     fit-margin-top="10"
     fit-margin-left="10"
     fit-margin-bottom="10"
     fit-margin-right="10"
     inkscape:pagecheckerboard="0" />
  <metadata
     id="metadata7">
    <rdf:RDF>
      <cc:Work
         rdf:about="">
        <dc:format>image/svg+xml</dc:format>
        <dc:type
           rdf:resource="http://purl.org/dc/dcmitype/StillImage" />
      </cc:Work>
    </rdf:RDF>
  </metadata>
  <g
     inkscape:label="Layer 1"
     inkscape:groupmode="layer"
     id="layer1"
     transform="translate(-543.19601,-594.64062)">
    <path
       style="color:#000000;fill:url(#linearGradient2209);stroke-width:5.68938;-inkscape-stroke:none;fill-opacity:1"
       d="m 595.29132,821.67654 c 0,0 2.25406,-76.65005 0,-155.77274 -2.25411,-79.12266 137.49895,-76.65009 139.75305,0 2.25407,76.65009 2.25407,158.24534 2.25407,158.24534 l 31.55717,-3e-5 v 37.08877 H 572.75047 c -24.79488,-7.41775 -20.28671,-34.61616 2.2541,-37.08874 z"
       id="path1259" />
    <path
       style="color:#000000;fill:#b3b3b3;-inkscape-stroke:none"
       d="m 663.50195,604.64453 c -17.99738,-0.15921 -35.90745,4.65842 -49.35742,14.83203 -13.44997,10.17361 -22.28461,25.89119 -21.69726,46.50781 2.19399,77.01414 0.14992,149.43115 0.043,153.16797 l -17.79492,2.16993 c -12.37377,1.35732 -20.40708,9.79423 -21.39844,19.21875 -0.99135,9.42451 5.28125,19.4258 18.63868,23.42187 l 0.39843,0.11914 h 199.36719 v -42.77734 h -31.57422 c -0.002,-4.40855 -0.0461,-80.93925 -2.23828,-155.48438 -0.5889,-20.02537 -10.30291,-35.47609 -24.27148,-45.67773 -13.96858,-10.20165 -32.11786,-15.33884 -50.11524,-15.49805 z m -0.0508,5.68945 c 16.94085,0.14987 34.01193,5.0571 46.81055,14.4043 12.79862,9.3472 21.4013,22.95036 21.93945,41.25 2.25233,76.59072 2.25196,158.16016 2.25195,158.16016 v 2.8457 h 31.5586 v 31.39844 H 573.24414 c -11.16772,-3.46485 -14.98113,-10.67655 -14.28906,-17.25586 0.69921,-6.64726 6.19236,-13.0449 16.35937,-14.16016 l 0.0176,-0.002 22.73047,-2.76953 0.0723,-2.44531 c 0,0 2.25708,-76.70866 0,-155.9375 -0.53972,-18.94467 7.25123,-32.5879 19.4414,-41.8086 12.19018,-9.22069 28.93415,-13.82955 45.875,-13.67969 z"
       id="path1261" />
    <path
       style="color:#000000;fill:#b3b3b3;-inkscape-stroke:none"
       d="m 665.23047,639.87891 c -15.1274,-0.33188 -30.63839,8.06552 -36.5957,27.66992 l -0.96485,3.17383 3.2832,0.4707 c 24.76032,3.54267 43.2231,14.47381 51.72657,31.62486 8.45743,17.05819 10.60471,39.8296 10.60718,40.006 l 4.35961,311.64648 h 12.21985 c -1.55732,-112.06538 3.24138,-212.63216 -0.86801,-320.05664 -0.87722,-21.67119 0.63021,-54.18834 -7.42993,-72.16211 -6.10117,-13.60536 -21.2105,-22.04117 -36.33789,-22.37304 z"
       sodipodi:nodetypes="scccsscccsss"
       id="path6352" />
    <path
       style="color:#000000;fill:#b3b3b3;-inkscape-stroke:none"
       d="m 626.25781,683.35547 v 9.74609 l 1.91187,440.49224 h 12.74829 l 4.82226,-416.57427 z"
       sodipodi:nodetypes="cccccc"
       id="path6354" />
    <g
       aria-label="K"
       id="text2995"
       style="font-size:8px;font-family:'Comic Sans MS';-inkscape-font-specification:'Comic Sans MS';letter-spacing:0px;word-spacing:0px;fill:#b3b3b3"
       transform="matrix(2.8446867,0,0,2.8446867,-699.36547,-1057.7378)">
      <path
         style="color:#000000;-inkscape-font-specification:'Comic Sans MS';-inkscape-stroke:none"
         d="m 511.20221,691.48126 q -1.03906,0 -2.95996,-1.82519 l -2.04395,-2.05762 v 0.0957 l -0.007,3.58203 q 0,0.67676 -0.59473,0.67676 -0.38965,0 -0.62207,-0.34179 -0.19141,-0.28028 -0.19141,-0.6084 0,-1.59961 0.0957,-4.78516 0.0957,-3.18555 0.0957,-4.77832 0,-0.29395 0.19141,-0.49902 0.19824,-0.20508 0.48535,-0.20508 0.29394,0 0.48535,0.20508 0.19824,0.20507 0.19824,0.49902 0,0.66309 -0.082,2.06445 -0.082,1.35352 -0.0752,2.07129 0.91601,-0.86816 2.07128,-2.18066 l 1.96192,-2.27637 q 0.23242,-0.2666 0.51953,-0.2666 0.27344,0 0.48535,0.20508 0.21192,0.20508 0.21192,0.49902 0,0.45117 -1.76368,2.40625 -1.21679,1.33301 -2.51562,2.61133 0.82031,0.86133 2.57031,2.47461 l 0.71777,0.60156 q 0.38965,0.30078 0.84082,0.45117 0.54004,0.17774 0.54004,0.67676 0,0.23242 -0.14355,0.44434 -0.17774,0.25976 -0.47168,0.25976 z"
         id="path194" />
    </g>
    <g
       aria-label="A"
       id="text2999"
       style="font-size:14px;font-family:'Comic Sans MS';-inkscape-font-specification:'Comic Sans MS';letter-spacing:0px;word-spacing:0px;fill:#b3b3b3"
       transform="matrix(2.8446867,0,0,2.8446867,-699.36547,-1057.7378)">
      <path
         style="color:#000000;-inkscape-font-specification:'Comic Sans MS';-inkscape-stroke:none"
         d="m 456.79462,691.40607 q -0.62891,0 -1.09375,-1.61328 -0.17774,-0.61524 -0.44434,-2.15332 -0.69726,0.0957 -1.82519,0.34179 l -1.81836,0.37598 q -0.3418,0.89551 -1.16895,2.61816 -0.21875,0.38282 -0.59473,0.38282 -0.27343,0 -0.49218,-0.19825 -0.21192,-0.19824 -0.21192,-0.49218 0,-0.32813 1.03223,-2.49512 -0.11621,-0.17774 -0.11621,-0.41016 0,-0.55371 0.66992,-0.71094 0.7793,-1.46289 1.96875,-3.36328 1.62012,-2.59082 2.0166,-2.59082 0.54004,0 0.73828,0.75196 l 0.43067,2.29687 1.01855,4.75098 0.38965,1.08008 q 0.19824,0.55371 0.19824,0.73828 0,0.29394 -0.21191,0.49218 -0.21192,0.19825 -0.48535,0.19825 z m -2.41309,-7.81348 -1.95508,3.15137 q 0.82715,-0.21192 2.50879,-0.5127 z"
         id="path197" />
    </g>
    <path
       style="color:#000000;fill:url(#linearGradient4346);stroke-width:5.68938;-inkscape-stroke:none;fill-opacity:1"
       d="m 862.69187,821.67654 c 0,0 2.25407,-76.65005 0,-155.77274 -2.25411,-79.12266 137.49893,-76.65009 139.75303,0 2.2541,76.65009 2.2541,158.24534 2.2541,158.24534 l 31.5572,-3e-5 v 37.08877 H 840.15102 c -24.79488,-7.41775 -20.28671,-34.61616 2.2541,-37.08874 z"
       id="path1231" />
    <path
       style="color:#000000;fill:#b3b3b3;-inkscape-stroke:none"
       d="m 930.90234,604.64453 c -17.99737,-0.15921 -35.90745,4.65842 -49.35742,14.83203 -13.44997,10.17361 -22.28461,25.89119 -21.69726,46.50781 2.194,77.01414 0.14993,149.43115 0.043,153.16797 l -17.79492,2.16993 c -12.37377,1.35732 -20.40708,9.79423 -21.39843,19.21875 -0.99135,9.42451 5.28124,19.4258 18.63867,23.42187 l 0.39843,0.11914 h 199.36719 v -42.77734 h -31.5743 c 0,-4.40855 -0.046,-80.93925 -2.2382,-155.48438 -0.5889,-20.02537 -10.30291,-35.47609 -24.27148,-45.67773 -13.96857,-10.20165 -32.11786,-15.33884 -50.11524,-15.49805 z m -0.0488,5.68945 c 16.94084,0.14987 34.00997,5.0571 46.80859,14.4043 12.79862,9.3472 21.4013,22.95036 21.93945,41.25 2.25232,76.59072 2.25192,158.16016 2.25192,158.16016 v 2.8457 h 31.5586 v 31.39844 H 840.64453 c -11.16772,-3.46485 -14.98113,-10.67655 -14.28906,-17.25586 0.69921,-6.64726 6.19236,-13.0449 16.35937,-14.16016 l 0.0176,-0.002 22.73047,-2.76953 0.0723,-2.44531 c 0,0 2.25709,-76.70866 0,-155.9375 -0.53971,-18.94467 7.25123,-32.5879 19.4414,-41.8086 12.19017,-9.22069 28.93611,-13.82955 45.87696,-13.67969 z"
       id="path1233" />
    <g
       aria-label="K"
       id="g277"
       style="font-size:8px;font-family:'Comic Sans MS';-inkscape-font-specification:'Comic Sans MS';letter-spacing:0px;word-spacing:0px;fill:#b3b3b3"
       transform="matrix(2.8446867,0,0,2.8446867,-431.96489,-1057.7378)">
      <path
         style="color:#000000;-inkscape-font-specification:'Comic Sans MS';-inkscape-stroke:none"
         d="m 511.20221,691.48126 q -1.03906,0 -2.95996,-1.82519 l -2.04395,-2.05762 v 0.0957 l -0.007,3.58203 q 0,0.67676 -0.59473,0.67676 -0.38965,0 -0.62207,-0.34179 -0.19141,-0.28028 -0.19141,-0.6084 0,-1.59961 0.0957,-4.78516 0.0957,-3.18555 0.0957,-4.77832 0,-0.29395 0.19141,-0.49902 0.19824,-0.20508 0.48535,-0.20508 0.29394,0 0.48535,0.20508 0.19824,0.20507 0.19824,0.49902 0,0.66309 -0.082,2.06445 -0.082,1.35352 -0.0752,2.07129 0.91601,-0.86816 2.07128,-2.18066 l 1.96192,-2.27637 q 0.23242,-0.2666 0.51953,-0.2666 0.27344,0 0.48535,0.20508 0.21192,0.20508 0.21192,0.49902 0,0.45117 -1.76368,2.40625 -1.21679,1.33301 -2.51562,2.61133 0.82031,0.86133 2.57031,2.47461 l 0.71777,0.60156 q 0.38965,0.30078 0.84082,0.45117 0.54004,0.17774 0.54004,0.67676 0,0.23242 -0.14355,0.44434 -0.17774,0.25976 -0.47168,0.25976 z"
         id="path275" />
    </g>
    <g
       aria-label="A"
       id="g281"
       style="font-size:14px;font-family:'Comic Sans MS';-inkscape-font-specification:'Comic Sans MS';letter-spacing:0px;word-spacing:0px;fill:#b3b3b3"
       transform="matrix(2.8446867,0,0,2.8446867,-431.96489,-1057.7378)">
      <path
         style="color:#000000;-inkscape-font-specification:'Comic Sans MS';-inkscape-stroke:none"
         d="m 456.79462,691.40607 q -0.62891,0 -1.09375,-1.61328 -0.17774,-0.61524 -0.44434,-2.15332 -0.69726,0.0957 -1.82519,0.34179 l -1.81836,0.37598 q -0.3418,0.89551 -1.16895,2.61816 -0.21875,0.38282 -0.59473,0.38282 -0.27343,0 -0.49218,-0.19825 -0.21192,-0.19824 -0.21192,-0.49218 0,-0.32813 1.03223,-2.49512 -0.11621,-0.17774 -0.11621,-0.41016 0,-0.55371 0.66992,-0.71094 0.7793,-1.46289 1.96875,-3.36328 1.62012,-2.59082 2.0166,-2.59082 0.54004,0 0.73828,0.75196 l 0.43067,2.29687 1.01855,4.75098 0.38965,1.08008 q 0.19824,0.55371 0.19824,0.73828 0,0.29394 -0.21191,0.49218 -0.21192,0.19825 -0.48535,0.19825 z m -2.41309,-7.81348 -1.95508,3.15137 q 0.82715,-0.21192 2.50879,-0.5127 z"
         id="path279" />
    </g>
    <path
       style="color:#000000;fill:url(#linearGradient4373);stroke-width:5.68938;-inkscape-stroke:none;fill-opacity:1"
       d="m 1124.4031,821.67654 c 0,0 2.254,-76.65005 0,-155.77274 -2.2541,-79.12266 137.4989,-76.65009 139.753,0 2.2541,76.65009 2.2541,158.24534 2.2541,158.24534 l 31.5572,-3e-5 v 37.08877 h -196.1052 c -24.7949,-7.41775 -20.2867,-34.61616 2.2541,-37.08874 z"
       id="path1199" />
    <path
       style="color:#000000;fill:#b3b3b3;-inkscape-stroke:none"
       d="m 1192.6133,604.64453 c -17.9974,-0.15921 -35.9075,4.65842 -49.3574,14.83203 -13.45,10.17361 -22.2846,25.89119 -21.6973,46.50781 2.1939,77.01414 0.1519,149.43115 0.045,153.16797 l -17.7969,2.16993 c -12.3737,1.35732 -20.4051,9.79423 -21.3964,19.21875 -0.9914,9.42451 5.2792,19.4258 18.6367,23.42187 l 0.3984,0.11914 h 199.3672 v -42.77734 h -31.5723 c 0,-4.40855 -0.048,-80.93925 -2.2402,-155.48438 -0.5889,-20.02537 -10.301,-35.47609 -24.2695,-45.67773 -13.9686,-10.20165 -32.1198,-15.33884 -50.1172,-15.49805 z m -0.049,5.68945 c 16.9408,0.14987 34.0099,5.0571 46.8085,14.4043 12.7987,9.3472 21.4014,22.95036 21.9395,41.25 2.2524,76.59072 2.2539,158.16016 2.2539,158.16016 v 2.8457 h 31.5566 v 31.39844 h -192.7675 c -11.1678,-3.46485 -14.9792,-10.67655 -14.2871,-17.25586 0.6992,-6.64726 6.1904,-13.0449 16.3574,-14.16016 l 0.018,-0.002 22.7304,-2.76953 0.072,-2.44531 c 0,0 2.257,-76.70866 0,-155.9375 -0.5397,-18.94467 7.2512,-32.5879 19.4414,-41.8086 12.1902,-9.22069 28.9361,-13.82955 45.877,-13.67969 z"
       id="path1201" />
    <g
       aria-label="K"
       id="g291"
       style="font-size:8px;font-family:'Comic Sans MS';-inkscape-font-specification:'Comic Sans MS';letter-spacing:0px;word-spacing:0px;fill:#b3b3b3"
       transform="matrix(2.8446867,0,0,2.8446867,-170.25371,-1057.7378)">
      <path
         style="color:#000000;-inkscape-font-specification:'Comic Sans MS';-inkscape-stroke:none"
         d="m 511.20221,691.48126 q -1.03906,0 -2.95996,-1.82519 l -2.04395,-2.05762 v 0.0957 l -0.007,3.58203 q 0,0.67676 -0.59473,0.67676 -0.38965,0 -0.62207,-0.34179 -0.19141,-0.28028 -0.19141,-0.6084 0,-1.59961 0.0957,-4.78516 0.0957,-3.18555 0.0957,-4.77832 0,-0.29395 0.19141,-0.49902 0.19824,-0.20508 0.48535,-0.20508 0.29394,0 0.48535,0.20508 0.19824,0.20507 0.19824,0.49902 0,0.66309 -0.082,2.06445 -0.082,1.35352 -0.0752,2.07129 0.91601,-0.86816 2.07128,-2.18066 l 1.96192,-2.27637 q 0.23242,-0.2666 0.51953,-0.2666 0.27344,0 0.48535,0.20508 0.21192,0.20508 0.21192,0.49902 0,0.45117 -1.76368,2.40625 -1.21679,1.33301 -2.51562,2.61133 0.82031,0.86133 2.57031,2.47461 l 0.71777,0.60156 q 0.38965,0.30078 0.84082,0.45117 0.54004,0.17774 0.54004,0.67676 0,0.23242 -0.14355,0.44434 -0.17774,0.25976 -0.47168,0.25976 z"
         id="path289" />
    </g>
    <g
       aria-label="A"
       id="g295"
       style="font-size:14px;font-family:'Comic Sans MS';-inkscape-font-specification:'Comic Sans MS';letter-spacing:0px;word-spacing:0px;fill:#b3b3b3"
       transform="matrix(2.8446867,0,0,2.8446867,-170.25371,-1057.7378)">
      <path
         style="color:#000000;-inkscape-font-specification:'Comic Sans MS';-inkscape-stroke:none"
         d="m 456.79462,691.40607 q -0.62891,0 -1.09375,-1.61328 -0.17774,-0.61524 -0.44434,-2.15332 -0.69726,0.0957 -1.82519,0.34179 l -1.81836,0.37598 q -0.3418,0.89551 -1.16895,2.61816 -0.21875,0.38282 -0.59473,0.38282 -0.27343,0 -0.49218,-0.19825 -0.21192,-0.19824 -0.21192,-0.49218 0,-0.32813 1.03223,-2.49512 -0.11621,-0.17774 -0.11621,-0.41016 0,-0.55371 0.66992,-0.71094 0.7793,-1.46289 1.96875,-3.36328 1.62012,-2.59082 2.0166,-2.59082 0.54004,0 0.73828,0.75196 l 0.43067,2.29687 1.01855,4.75098 0.38965,1.08008 q 0.19824,0.55371 0.19824,0.73828 0,0.29394 -0.21191,0.49218 -0.21192,0.19825 -0.48535,0.19825 z m -2.41309,-7.81348 -1.95508,3.15137 q 0.82715,-0.21192 2.50879,-0.5127 z"
         id="path293" />
    </g>
    <path
       style="color:#000000;fill:#b3b3b3;-inkscape-stroke:none"
       d="m 931.23047,639.87891 c -15.1274,-0.33188 -30.63839,8.06552 -36.5957,27.66992 l -0.96485,3.17383 3.2832,0.4707 c 24.76032,3.54267 43.2231,14.47381 51.72657,31.62486 8.45743,17.05819 10.60471,39.8296 10.60718,40.006 l 4.35961,311.64648 h 12.21985 c -1.55732,-112.06538 3.24138,-212.63216 -0.86801,-320.05664 -0.87722,-21.67119 0.63021,-54.18834 -7.42993,-72.16211 -6.10117,-13.60536 -21.2105,-22.04117 -36.33789,-22.37304 z"
       sodipodi:nodetypes="scccsscccsss"
       id="path6179" />
    <path
       style="color:#000000;fill:#b3b3b3;-inkscape-stroke:none"
       d="m 892.25781,683.35547 v 9.74609 l 1.91187,440.49224 h 12.74829 l 4.82226,-416.57427 z"
       sodipodi:nodetypes="cccccc"
       id="path6181" />
    <path
       style="color:#000000;fill:#b3b3b3;-inkscape-stroke:none"
       d="m 1193.2305,639.87891 c -15.1274,-0.33188 -30.6384,8.06552 -36.5957,27.66992 l -0.9649,3.17383 3.2832,0.4707 c 24.7603,3.54267 43.2231,14.47381 51.7266,31.62486 8.4574,17.05819 10.6047,39.8296 10.6072,40.006 l 4.3596,311.64648 h 12.2198 c -1.5573,-112.06538 3.2414,-212.63216 -0.868,-320.05664 -0.8772,-21.67119 0.6302,-54.18834 -7.4299,-72.16211 -6.1012,-13.60536 -21.2105,-22.04117 -36.3379,-22.37304 z"
       sodipodi:nodetypes="scccsscccsss"
       id="path6183" />
    <path
       style="color:#000000;fill:#b3b3b3;-inkscape-stroke:none"
       d="m 1154.2578,683.35547 v 9.74609 l 1.9119,440.49224 h 12.7483 l 4.8222,-416.57427 z"
       sodipodi:nodetypes="cccccc"
       id="path6185" />
  </g>
</svg>
