<?xml version="1.0" encoding="UTF-8" standalone="no"?>
<!-- Created with Inkscape (http://www.inkscape.org/) -->

<svg
   width="1000"
   height="1000"
   id="svg3541"
   version="1.1"
   inkscape:version="1.1 (c68e22c387, 2021-05-23)"
   sodipodi:docname="flip-flops.svg"
   xmlns:inkscape="http://www.inkscape.org/namespaces/inkscape"
   xmlns:sodipodi="http://sodipodi.sourceforge.net/DTD/sodipodi-0.dtd"
   xmlns="http://www.w3.org/2000/svg"
   xmlns:svg="http://www.w3.org/2000/svg"
   xmlns:rdf="http://www.w3.org/1999/02/22-rdf-syntax-ns#"
   xmlns:cc="http://creativecommons.org/ns#"
   xmlns:dc="http://purl.org/dc/elements/1.1/">
  <defs
     id="defs3543" />
  <sodipodi:namedview
     id="base"
     pagecolor="#ffffff"
     bordercolor="#666666"
     borderopacity="1.0"
     inkscape:pageopacity="0.0"
     inkscape:pageshadow="2"
     inkscape:zoom="0.741"
     inkscape:cx="500"
     inkscape:cy="499.32524"
     inkscape:document-units="px"
     inkscape:current-layer="layer1"
     showgrid="true"
     inkscape:window-width="954"
     inkscape:window-height="1008"
     inkscape:window-x="1168"
     inkscape:window-y="327"
     inkscape:window-maximized="0"
     inkscape:snap-global="true"
     fit-margin-top="10"
     fit-margin-left="10"
     fit-margin-right="10"
     fit-margin-bottom="10"
     inkscape:pagecheckerboard="0"
     width="1000px" />
  <metadata
     id="metadata3546">
    <rdf:RDF>
      <cc:Work
         rdf:about="">
        <dc:format>image/svg+xml</dc:format>
        <dc:type
           rdf:resource="http://purl.org/dc/dcmitype/StillImage" />
      </cc:Work>
    </rdf:RDF>
  </metadata>
  <g
     inkscape:label="Layer 1"
     inkscape:groupmode="layer"
     id="layer1"
     transform="translate(-392.07584,93.708104)">
    <path
       style="color:#000000;fill:#b3b3b3;-inkscape-stroke:none"
       d="m 1114.1641,-59.890625 1.1718,2.203125 c 0,0 16.2612,30.659532 0,61.2617188 l -1.1718,2.203125 h 35.7949 c 8.325,0 20.9899,0.015886 33.75,-3.9863282 12.7601,-4.0022136 25.6563,-12.1115966 34.1758,-28.1445316 l 0.375,-0.703125 -0.375,-0.703125 c -8.5195,-16.032925 -21.4157,-24.14232 -34.1758,-28.144531 -12.7601,-4.002211 -25.425,-3.986328 -33.75,-3.986328 z m 4.7793,3 h 31.0156 c 8.325,0 20.6364,0.01637 32.8515,3.847656 12.0157,3.768717 23.8803,11.182901 32.004,25.986328 -8.1237,14.803436 -19.9883,22.217609 -32.004,25.986328 -12.2151,3.8312931 -24.5265,3.8476568 -32.8515,3.8476568 h -30.9434 c 13.5953,-28.1037148 2.47,-54.3290178 -0.072,-59.6679688 z"
       id="path11513" />
    <path
       style="color:#000000;fill:#b3b3b3;-inkscape-stroke:none"
       d="m 1053.373,-47.324219 v 3 h 67.5606 v -3 z"
       id="path11515" />
    <path
       style="color:#000000;fill:#b3b3b3;-inkscape-stroke:none"
       d="m 1225.123,-35.359375 c -5.1369,0 -9.332,4.195051 -9.332,9.332031 0,5.137012 4.1951,9.333985 9.332,9.333985 5.1371,0 9.334,-4.196973 9.334,-9.333985 0,-5.13698 -4.1969,-9.332031 -9.334,-9.332031 z m 0,3 c 3.5158,0 6.334,2.816381 6.334,6.332031 0,3.515696 -2.8182,6.333985 -6.334,6.333985 -3.5156,0 -6.332,-2.818289 -6.332,-6.333985 0,-3.51565 2.8164,-6.332031 6.332,-6.332031 z"
       id="path11517" />
    <path
       style="color:#000000;fill:#b3b3b3;-inkscape-stroke:none"
       d="m 1232.2266,-28.556641 v 3 h 80.1289 v -3 z"
       id="path11519" />
    <path
       style="color:#000000;fill:#b3b3b3;-inkscape-stroke:none"
       d="m 1114.1641,52.710937 1.1718,2.203125 c 0,0 16.2612,30.657583 0,61.259768 l -1.1718,2.20508 h 35.7949 c 8.325,0 20.9899,0.0159 33.75,-3.98633 12.7601,-4.00222 25.6563,-12.1116 34.1758,-28.144533 l 0.375,-0.703125 -0.375,-0.705078 c -8.5195,-16.032924 -21.4157,-24.142321 -34.1758,-28.144532 -12.7601,-4.00221 -25.425,-3.984375 -33.75,-3.984375 z m 4.7812,3 h 31.0137 c 8.325,10e-7 20.6364,0.01637 32.8515,3.847657 12.0153,3.768588 23.8803,11.181955 32.004,25.984375 -8.1237,14.803431 -19.9883,22.219561 -32.004,25.988281 -12.2151,3.83129 -24.5265,3.84766 -32.8515,3.84766 h -30.9434 c 13.5941,-28.101243 2.4734,-54.325592 -0.07,-59.667973 z"
       id="path11521" />
    <path
       style="color:#000000;fill:#b3b3b3;-inkscape-stroke:none"
       d="m 1051.4961,102.81055 v 3 h 69.9121 v -3 z"
       id="path11523" />
    <path
       style="color:#000000;fill:#b3b3b3;-inkscape-stroke:none"
       d="m 1225.123,77.240234 c -5.1369,0 -9.332,4.197004 -9.332,9.333985 0,5.137011 4.1951,9.333984 9.332,9.333984 5.1371,0 9.334,-4.196973 9.334,-9.333984 0,-5.136981 -4.1969,-9.333985 -9.334,-9.333985 z m 0,3 c 3.5158,0 6.334,2.818334 6.334,6.333985 0,3.515694 -2.8182,6.333984 -6.334,6.333984 -3.5156,0 -6.332,-2.81829 -6.332,-6.333984 0,-3.515651 2.8164,-6.333985 6.332,-6.333985 z"
       id="path11525" />
    <path
       style="color:#000000;fill:#b3b3b3;-inkscape-stroke:none"
       d="m 1232.2266,84.044922 v 3 h 83.8828 v -3 z"
       id="path11527" />
    <path
       style="color:#000000;fill:#b3b3b3;-inkscape-stroke:none"
       d="m 1074.3926,-8.289062 v 20.017578 l 206.4355,37.533203 v 36.283203 h 3 V 46.759766 L 1077.3926,9.2246094 V -8.289062 Z"
       id="path11529" />
    <path
       style="color:#000000;fill:#b3b3b3;-inkscape-stroke:none"
       d="M 1280.8281,-27.056641 V 9.2246094 L 1074.3926,46.759766 v 20.017578 h 3 V 49.261719 l 206.4355,-37.533203 v -38.785157 z"
       id="path11531" />
    <path
       style="color:#000000;fill:#b3b3b3;stroke-width:3;-inkscape-stroke:none"
       d="m 1286.4524,-26.500595 c 0,2.253429 -1.8268,4.080155 -4.0802,4.080155 -2.2534,0 -4.0801,-1.826726 -4.0801,-4.080155 0,-2.253391 1.8267,-4.080118 4.0801,-4.080118 2.2534,0 4.0802,1.826727 4.0802,4.080118 z"
       id="path11533" />
    <path
       style="color:#000000;fill:#b3b3b3;stroke-width:3;-inkscape-stroke:none"
       d="m 1286.4524,86.100451 c 0,2.253428 -1.8268,4.080155 -4.0802,4.080155 -2.2534,0 -4.0801,-1.826727 -4.0801,-4.080155 0,-2.253391 1.8267,-4.080118 4.0801,-4.080118 2.2534,0 4.0802,1.826727 4.0802,4.080118 z"
       id="path11535" />
    <path
       style="color:#000000;fill:#b3b3b3;-inkscape-stroke:none"
       d="m 1075.8926,65.277344 v 3 h 45.0215 v -3 z"
       id="path11537" />
    <path
       style="color:#000000;fill:#b3b3b3;-inkscape-stroke:none"
       d="m 1075.8926,-9.789062 v 3 h 45.5156 v -3 z"
       id="path11539" />
    <path
       style="color:#000000;fill:#b3b3b3;-inkscape-stroke:none"
       d="m 605.32031,-60.316406 1.16992,2.203125 c 0,0 16.26129,30.659533 0,61.2617185 l -1.16992,2.203125 h 35.79492 c 8.32506,0 20.98993,0.015886 33.75,-3.9863281 12.76008,-4.0022144 25.65628,-12.1115984 34.17579,-28.1445314 l 0.37304,-0.703125 -0.37304,-0.705078 c -8.51951,-16.032924 -21.41571,-24.14232 -34.17579,-28.144531 -12.76007,-4.002212 -25.42494,-3.984375 -33.75,-3.984375 z m 4.7793,3 h 31.01562 c 8.32506,0 20.63643,0.01637 32.85157,3.847656 12.01522,3.768589 23.87828,11.181953 32.00195,25.984375 -8.12369,14.803438 -19.98632,22.219562 -32.00195,25.988281 -12.21514,3.8312928 -24.52651,3.8476565 -32.85157,3.8476565 h -30.94531 c 13.59478,-28.1020315 2.47301,-54.3264215 -0.0703,-59.6679685 z"
       id="path11541" />
    <path
       style="color:#000000;fill:#b3b3b3;-inkscape-stroke:none"
       d="m 540.77539,-47.75 v 3 h 54.97656 v -3 z"
       id="path11543" />
    <path
       style="color:#000000;fill:#b3b3b3;-inkscape-stroke:none"
       d="m 603.66602,-56.101562 c -5.13695,0 -9.33204,4.197003 -9.33204,9.333984 0,5.137011 4.19508,9.333984 9.33204,9.333984 5.13701,0 9.33398,-4.19698 9.33398,-9.333984 0,-5.136974 -4.19698,-9.333985 -9.33398,-9.333984 z m 0,3 c 3.51572,0 6.33398,2.818326 6.33398,6.333984 0,3.515701 -2.81827,6.333984 -6.33398,6.333984 -3.51562,0 -6.33204,-2.81829 -6.33204,-6.333984 0,-3.515651 2.81641,-6.333985 6.33204,-6.333984 z"
       id="path11545" />
    <path
       style="color:#000000;fill:#b3b3b3;-inkscape-stroke:none"
       d="m 708.36914,-28.982422 v 3 h 91.38867 v -3 z"
       id="path11547" />
    <path
       style="color:#000000;fill:#b3b3b3;-inkscape-stroke:none"
       d="m 605.32031,52.285156 1.16992,2.203125 c 0,0 16.26129,30.657581 0,61.259769 l -1.16992,2.20508 h 35.79492 c 8.32506,0 20.98993,0.0159 33.75,-3.98633 12.76008,-4.00222 25.65628,-12.1116 34.17579,-28.144534 l 0.37304,-0.703125 -0.37304,-0.705079 c -8.51951,-16.032921 -21.41571,-24.14232 -34.17579,-28.144531 -12.76007,-4.002211 -25.42494,-3.984375 -33.75,-3.984375 z m 4.7793,3 h 31.01562 c 8.32506,0 20.63643,0.01637 32.85157,3.847656 12.01522,3.768589 23.87828,11.181955 32.00195,25.984375 -8.12369,14.803438 -19.98632,22.217613 -32.00195,25.986333 -12.21514,3.83129 -24.52651,3.84961 -32.85157,3.84961 h -30.94531 c 13.59478,-28.102035 2.47301,-54.326427 -0.0703,-59.667974 z"
       id="path11549" />
    <path
       style="color:#000000;fill:#b3b3b3;-inkscape-stroke:none"
       d="m 538.89844,99.574219 v 3.000001 h 58.65039 v -3.000001 z"
       id="path11551" />
    <path
       style="color:#000000;fill:#b3b3b3;-inkscape-stroke:none"
       d="m 604.55078,57.824219 c -5.13693,0 -9.33398,4.197001 -9.33398,9.333984 0,5.137013 4.19704,9.333984 9.33398,9.333984 5.13703,0 9.33203,-4.196982 9.33203,-9.333984 0,-5.136971 -4.19501,-9.333984 -9.33203,-9.333984 z m 0,3 c 3.51574,0 6.33203,2.818324 6.33203,6.333984 0,3.515704 -2.8163,6.333985 -6.33203,6.333984 -3.51561,0 -6.33398,-2.818292 -6.33398,-6.333984 0,-3.515648 2.81837,-6.333984 6.33398,-6.333984 z"
       id="path11553" />
    <path
       style="color:#000000;fill:#b3b3b3;-inkscape-stroke:none"
       d="m 708.36914,83.619141 v 3 h 91.38867 v -3 z"
       id="path11555" />
    <path
       style="color:#000000;fill:#b3b3b3;-inkscape-stroke:none"
       d="M 550.53516,-8.716797 V 11.302734 L 756.9707,48.835937 v 36.283204 h 3 V 46.332031 L 553.53516,8.7988281 V -8.716797 Z"
       id="path11557" />
    <path
       style="color:#000000;fill:#b3b3b3;-inkscape-stroke:none"
       d="M 756.9707,-27.482422 V 8.7988281 L 550.53516,46.332031 v 20.019531 h 3 V 48.835937 L 759.9707,11.302734 v -38.785156 z"
       id="path11559" />
    <path
       style="color:#000000;fill:#b3b3b3;stroke-width:3;-inkscape-stroke:none"
       d="m 762.59452,-26.926705 c 0,2.253428 -1.82674,4.080155 -4.08017,4.080155 -2.25337,0 -4.08012,-1.826727 -4.08012,-4.080155 0,-2.253391 1.82675,-4.080118 4.08012,-4.080118 2.25343,0 4.08017,1.826727 4.08017,4.080118 z"
       id="path11561" />
    <path
       style="color:#000000;fill:#b3b3b3;stroke-width:3;-inkscape-stroke:none"
       d="m 762.59452,85.67434 c 0,2.253428 -1.82674,4.080155 -4.08017,4.080155 -2.25337,0 -4.08012,-1.826727 -4.08012,-4.080155 0,-2.253391 1.82675,-4.080118 4.08012,-4.080118 2.25343,0 4.08017,1.826727 4.08017,4.080118 z"
       id="path11563" />
    <path
       style="color:#000000;fill:#b3b3b3;-inkscape-stroke:none"
       d="m 552.03516,64.851562 v 3 h 45.02148 v -3 z"
       id="path11565" />
    <path
       style="color:#000000;fill:#b3b3b3;-inkscape-stroke:none"
       d="m 552.03516,-10.216797 v 3 h 43.52734 v -3 z"
       id="path11567" />
    <path
       style="color:#000000;fill:#b3b3b3;-inkscape-stroke:none"
       d="m 603.66602,-18.566406 c -5.13695,0 -9.33204,4.19505 -9.33204,9.332031 0,5.137011 4.19508,9.3339844 9.33204,9.3339844 5.13701,0 9.33398,-4.1969804 9.33398,-9.3339844 0,-5.136974 -4.19698,-9.332031 -9.33398,-9.332031 z m 0,3 c 3.51572,0 6.33398,2.816373 6.33398,6.332031 0,3.515701 -2.81827,6.333984 -6.33398,6.333984 -3.51562,0 -6.33204,-2.818289 -6.33204,-6.333984 0,-3.515651 2.81641,-6.332031 6.33204,-6.332031 z"
       id="path11569" />
    <path
       style="color:#000000;fill:#b3b3b3;-inkscape-stroke:none"
       d="m 604.55078,91.605469 c -5.13693,0 -9.33398,4.197001 -9.33398,9.333981 0,5.13702 4.19704,9.33203 9.33398,9.33203 5.13703,0 9.33203,-4.19503 9.33203,-9.33203 0,-5.136968 -4.19501,-9.333981 -9.33203,-9.333981 z m 0,3 c 3.51574,0 6.33203,2.818324 6.33203,6.333981 0,3.51571 -2.8163,6.33203 -6.33203,6.33203 -3.51561,0 -6.33398,-2.81633 -6.33398,-6.33203 0,-3.515645 2.81837,-6.333981 6.33398,-6.333981 z"
       id="path11571" />
    <g
       aria-label="Set"
       id="text3703"
       style="font-size:40px;letter-spacing:0px;word-spacing:0px;fill:#b3b3b3;stroke-width:1.87668px"
       transform="translate(0,10)">
      <path
         style="color:#000000;-inkscape-font-specification:'Comic Sans MS';fill:#b3b3b3;-inkscape-stroke:none"
         d="m 471.086,-48.827686 q -0.0195,-0.820313 0.54687,-1.328125 0.58594,-0.527344 1.42578,-0.527344 0.95704,0 1.67969,1.09375 0.9961,1.484375 1.77735,2.011719 1.66015,1.09375 4.82421,1.09375 3.02735,0 5.625,-1.308594 3.32032,-1.679688 3.32032,-4.667969 0,-2.460937 -2.79297,-3.886719 -2.36328,-1.230468 -5.83985,-1.328125 -3.08593,-0.117187 -5.2539,-1.347656 -2.77344,-1.582031 -2.77344,-4.53125 0,-3.476562 3.94531,-6.347656 3.76953,-2.714844 7.79297,-2.714844 1.89453,0 4.27735,0.644531 3.16406,0.839844 3.16406,2.148438 0,1.71875 -1.75781,1.71875 -0.78125,0 -2.73438,-0.410156 -1.95312,-0.429688 -3.02734,-0.410157 -3.04688,0.03906 -5.17578,1.503907 -2.1875,1.503906 -2.1875,3.652343 0,1.621094 2.89062,2.285157 1.07422,0.253906 4.16016,0.46875 4.47265,0.332031 6.99218,2.8125 2.30469,2.265625 2.30469,5.527343 0,4.648438 -4.29687,7.421875 -3.73047,2.402344 -8.65235,2.402344 -3.57422,0 -6.54297,-1.367187 -3.63281,-1.679688 -3.6914,-4.609375 z"
         id="path10157" />
      <path
         style="color:#000000;-inkscape-font-specification:'Comic Sans MS';fill:#b3b3b3;-inkscape-stroke:none"
         d="m 508.03912,-43.065968 q -4.41406,0 -7.14843,-2.207031 -2.98829,-2.441406 -2.98829,-6.835937 0,-5.078125 2.46094,-8.515625 2.67578,-3.75 7.14844,-3.75 3.24219,0 5.29297,1.09375 2.51953,1.347656 2.51953,4.140625 0,1.953125 -2.20703,3.554687 -0.97656,0.703125 -4.14063,2.1875 l -7.46093,3.535156 q 1.09375,1.621094 2.71484,2.441407 1.64062,0.820312 3.80859,0.820312 1.34766,0 3.16407,-0.507812 2.30468,-0.644532 2.96875,-1.679688 0.66406,-1.054687 1.42578,-1.054687 0.68359,0 1.21093,0.527343 0.54688,0.507813 0.54688,1.191407 0,2.167968 -3.49609,3.730468 -2.98829,1.328125 -5.82032,1.328125 z m -0.52734,-17.792968 q -2.38281,0 -3.96484,1.855468 -1.58204,1.835938 -2.36329,5.546875 l 5.9961,-2.851562 q 3.53515,-1.71875 5.03906,-2.988281 -1.67969,-1.5625 -4.70703,-1.5625 z"
         id="path10159" />
      <path
         style="color:#000000;-inkscape-font-specification:'Comic Sans MS';fill:#b3b3b3;-inkscape-stroke:none"
         d="m 533.8985,-60.60503 q -0.41016,0 -0.97656,-0.03906 -0.54688,-0.03906 -0.95704,-0.03906 -0.44921,0 -2.65625,0.292969 l 0.3711,11.542968 0.0195,0.859375 0.0195,0.996094 q 0.0781,4.277344 -2.05078,4.277344 -0.78125,0 -1.36719,-0.507813 -0.5664,-0.507812 -0.5664,-1.269531 0,-0.742187 0.0586,-2.226562 0.0586,-1.484375 0.0586,-2.226563 l -0.39062,-11.40625 q -1.42578,-0.05859 -4.33594,-0.332031 -1.73828,-0.234375 -1.73828,-1.933594 0,-0.859375 0.52734,-1.425781 0.52735,-0.566406 1.34766,-0.566406 l 4.10156,0.332031 q 0,-0.996094 -0.0977,-2.65625 -0.0781,-1.679688 -0.0781,-2.421875 0,-0.820313 0.56641,-1.347656 0.5664,-0.546875 1.38672,-0.546875 1.75781,0 2.05078,2.871093 0.0586,0.722657 0.0586,1.738282 l -0.0391,1.132812 -0.0195,1.210938 q 2.42187,-0.3125 2.77343,-0.3125 2.03125,0 2.65625,0.195312 1.19141,0.390625 1.19141,1.835938 0,0.859375 -0.54687,1.425781 -0.52735,0.546875 -1.36719,0.546875 z"
         id="path10161" />
    </g>
    <g
       aria-label="Reset"
       id="text3707"
       style="font-size:40px;letter-spacing:0px;word-spacing:0px;fill:#b3b3b3;stroke-width:1.87668px"
       transform="translate(0,10)">
      <path
         style="color:#000000;-inkscape-font-specification:'Comic Sans MS';fill:#b3b3b3;-inkscape-stroke:none"
         d="m 451.73154,102.14327 q -0.74219,0 -1.38672,-0.625 -6.46485,-6.386716 -14.375,-8.593748 l 0.15625,3.828125 0.0976,3.847653 q 0,0.85938 -0.5664,1.42578 -0.54688,0.58594 -1.38672,0.58594 -0.83984,0 -1.40625,-0.58594 -0.54688,-0.5664 -0.54688,-1.42578 0,-1.542965 -0.15625,-4.58984 -0.13671,-3.066406 -0.13671,-4.609375 0,-1.796875 0.39062,-5.351563 0.39063,-3.554687 0.39063,-5.332031 0,-0.996094 -0.19532,-2.949219 -0.17578,-1.953125 -0.17578,-2.949218 0,-1.113282 0.625,-1.953125 0.74219,-1.035157 2.05078,-0.9375 l 4.70703,0.371093 q 2.67579,0.332032 4.51172,1.308594 7.91016,4.199219 7.91016,10.253906 0,2.96875 -2.69531,5.253907 -2.16797,1.835937 -5.41016,2.792968 6.07422,3.261719 9.08203,6.875 0.50781,0.625 0.50781,1.328123 0,0.82031 -0.60546,1.42578 -0.58594,0.60547 -1.38672,0.60547 z m -12.44141,-25.82031 -2.89062,-0.234375 0.19531,2.363281 q 0.13672,1.445313 0.13672,2.363281 0,1.5625 -0.25391,3.886719 l -0.41016,3.886719 q 0.27344,0 0.83985,0.01953 0.58594,0.01953 0.8789,0.01953 4.98047,0 7.46094,-1.328125 1.09375,-0.605468 2.03125,-1.582031 1.03516,-1.09375 1.03516,-1.855469 0,-2.714843 -3.08594,-5.058593 -2.83203,-2.148438 -5.9375,-2.480469 z"
         id="path10146" />
      <path
         style="color:#000000;-inkscape-font-specification:'Comic Sans MS';fill:#b3b3b3;-inkscape-stroke:none"
         d="m 466.71201,102.82687 q -4.41407,0 -7.14844,-2.20704 -2.98828,-2.441401 -2.98828,-6.835933 0,-5.078125 2.46093,-8.515625 2.67579,-3.75 7.14844,-3.75 3.24219,0 5.29297,1.09375 2.51953,1.347657 2.51953,4.140625 0,1.953125 -2.20703,3.554688 -0.97656,0.703125 -4.14062,2.1875 l -7.46094,3.535156 q 1.09375,1.621094 2.71484,2.441406 1.64063,0.820313 3.8086,0.820313 1.34765,0 3.16406,-0.507813 2.30469,-0.644531 2.96875,-1.679687 0.66406,-1.054688 1.42578,-1.054688 0.68359,0 1.21094,0.527344 0.54687,0.507813 0.54687,1.191406 0,2.167969 -3.49609,3.730468 -2.98828,1.32813 -5.82031,1.32813 z m -0.52735,-17.792973 q -2.38281,0 -3.96484,1.855469 -1.58203,1.835938 -2.36328,5.546875 l 5.99609,-2.851562 q 3.53516,-1.71875 5.03906,-2.988282 -1.67968,-1.5625 -4.70703,-1.5625 z"
         id="path10148" />
      <path
         style="color:#000000;-inkscape-font-specification:'Comic Sans MS';fill:#b3b3b3;-inkscape-stroke:none"
         d="m 492.68857,86.889366 q -1.07422,0 -1.50391,-0.722656 -0.29297,-0.507813 -0.50781,-2.109375 -1.46484,0.371094 -4.51172,1.367187 -3.14453,1.25 -3.16406,3.085938 0.58594,0.214844 1.15234,0.3125 4.49219,0.800781 6.67969,2.207031 3.18359,2.050781 3.18359,5.9375 0,3.183589 -2.7539,4.804689 -2.28516,1.32812 -5.78125,1.32812 -2.5586,0 -4.88282,-0.85937 -3.00781,-1.09375 -3.00781,-3.046876 0,-0.78125 0.60547,-1.367188 0.625,-0.585937 1.40625,-0.585937 0.60547,0 1.5625,0.9375 0.46875,0.449218 2.10938,0.742187 1.30859,0.234375 2.20703,0.234375 1.64062,0 2.89062,-0.390625 1.81641,-0.566406 1.81641,-1.796875 0,-2.65625 -3.71094,-3.59375 l -2.03125,-0.449219 q -2.59766,-0.566406 -3.69141,-1.328125 -1.58203,-1.09375 -1.58203,-3.300781 0,-4.082031 3.84766,-5.820312 1.17187,-0.527344 3.75,-1.25 2.57812,-0.742188 3.69141,-1.25 0.80078,-0.351563 1.73828,-0.351563 0.83984,0 1.36718,0.546875 0.54688,0.546875 0.54688,1.425781 0,0.566407 0.23437,1.660157 0.25391,1.09375 0.25391,1.660156 0,0.878906 -0.54687,1.425781 -0.52735,0.546875 -1.36719,0.546875 z"
         id="path10150" />
      <path
         style="color:#000000;-inkscape-font-specification:'Comic Sans MS';fill:#b3b3b3;-inkscape-stroke:none"
         d="m 508.09872,102.82687 q -4.41406,0 -7.14843,-2.20704 -2.98828,-2.441401 -2.98828,-6.835933 0,-5.078125 2.46093,-8.515625 2.67578,-3.75 7.14844,-3.75 3.24219,0 5.29297,1.09375 2.51953,1.347657 2.51953,4.140625 0,1.953125 -2.20703,3.554688 -0.97656,0.703125 -4.14063,2.1875 l -7.46093,3.535156 q 1.09375,1.621094 2.71484,2.441406 1.64063,0.820313 3.80859,0.820313 1.34766,0 3.16407,-0.507813 2.30468,-0.644531 2.96875,-1.679687 0.66406,-1.054688 1.42578,-1.054688 0.68359,0 1.21094,0.527344 0.54687,0.507813 0.54687,1.191406 0,2.167969 -3.49609,3.730468 -2.98828,1.32813 -5.82032,1.32813 z m -0.52734,-17.792973 q -2.38281,0 -3.96484,1.855469 -1.58203,1.835938 -2.36328,5.546875 l 5.99609,-2.851562 q 3.53516,-1.71875 5.03906,-2.988282 -1.67969,-1.5625 -4.70703,-1.5625 z"
         id="path10152" />
      <path
         style="color:#000000;-inkscape-font-specification:'Comic Sans MS';fill:#b3b3b3;-inkscape-stroke:none"
         d="m 533.9581,85.287804 q -0.41016,0 -0.97656,-0.03906 -0.54688,-0.03906 -0.95703,-0.03906 -0.44922,0 -2.65625,0.292968 l 0.37109,11.542969 0.0195,0.859375 0.0195,0.996094 q 0.0781,4.27734 -2.05078,4.27734 -0.78125,0 -1.36719,-0.50781 -0.5664,-0.50782 -0.5664,-1.26954 0,-0.74218 0.0586,-2.226553 0.0586,-1.484375 0.0586,-2.226562 L 525.5206,85.54171 q -1.42578,-0.05859 -4.33594,-0.332031 -1.73828,-0.234375 -1.73828,-1.933594 0,-0.859375 0.52734,-1.425781 0.52735,-0.566407 1.34766,-0.566407 l 4.10156,0.332032 q 0,-0.996094 -0.0977,-2.65625 -0.0781,-1.679688 -0.0781,-2.421875 0,-0.820313 0.56641,-1.347657 0.5664,-0.546875 1.38672,-0.546875 1.75781,0 2.05078,2.871094 0.0586,0.722656 0.0586,1.738281 l -0.0391,1.132813 -0.0195,1.210937 q 2.42187,-0.3125 2.77344,-0.3125 2.03125,0 2.65625,0.195313 1.1914,0.390625 1.1914,1.835937 0,0.859375 -0.54687,1.425782 -0.52735,0.546875 -1.36719,0.546875 z"
         id="path10154" />
    </g>
    <g
       aria-label="Q"
       id="text3711"
       style="font-size:40px;letter-spacing:0px;word-spacing:0px;fill:#b3b3b3;stroke-width:1.87668px"
       transform="translate(0,10)">
      <path
         style="color:#000000;-inkscape-font-specification:'Comic Sans MS';fill:#b3b3b3;-inkscape-stroke:none"
         d="m 844.8797,-22.174919 q -0.85938,0 -4.62891,-3.339844 l -4.66797,-4.277344 q -3.30078,1.328125 -6.54296,1.328125 -5.87891,0 -10.35157,-4.6875 -4.45312,-4.6875 -4.45312,-10.605468 0,-6.972657 5.19531,-11.835938 5.07813,-4.726562 12.01172,-4.726562 7.30469,0 11.07422,5.46875 3.20312,4.6875 3.20312,12.128906 0,6.464844 -6.32812,10.878906 l 4.25781,3.925781 2.51953,2.148438 q 0.74219,0.703125 0.74219,1.523437 0,0.800782 -0.60547,1.425782 -0.58594,0.644531 -1.42578,0.644531 z m -13.4375,-34.101563 q -5.35156,0 -9.21875,3.574219 -3.98438,3.671875 -3.98438,8.945313 0,4.277343 3.30079,7.734375 3.32031,3.515625 7.5,3.515625 1.34765,0 2.77343,-0.332032 -3.76953,-3.28125 -3.76953,-5.175781 0,-0.859375 0.625,-1.425781 0.64453,-0.566406 1.42578,-0.566406 0.9375,0 1.66016,0.9375 1.93359,2.519531 4.375,4.511718 5.56641,-3.242187 5.56641,-8.164062 0,-5.800781 -2.36329,-9.414063 -2.69531,-4.140625 -7.89062,-4.140625 z"
         id="path10143" />
    </g>
    <g
       aria-label="Q"
       id="text3715"
       style="font-size:40px;letter-spacing:0px;word-spacing:0px;fill:#b3b3b3;stroke-width:1.87668px"
       transform="translate(0,10)">
      <path
         style="color:#000000;-inkscape-font-specification:'Comic Sans MS';fill:#b3b3b3;-inkscape-stroke:none"
         d="m 842.38147,91.493813 q -0.85938,0 -4.62891,-3.339844 l -4.66797,-4.277344 q -3.30078,1.328125 -6.54296,1.328125 -5.87891,0 -10.35157,-4.6875 -4.45312,-4.6875 -4.45312,-10.605469 0,-6.972656 5.19531,-11.835937 5.07813,-4.726563 12.01172,-4.726563 7.30469,0 11.07422,5.46875 3.20312,4.6875 3.20312,12.128907 0,6.464843 -6.32812,10.878906 l 4.25781,3.925781 2.51953,2.148438 q 0.74219,0.703125 0.74219,1.523437 0,0.800781 -0.60547,1.425781 -0.58594,0.644532 -1.42578,0.644532 z M 828.94397,57.39225 q -5.35156,0 -9.21875,3.574219 -3.98438,3.671875 -3.98438,8.945312 0,4.277344 3.30079,7.734375 3.32031,3.515625 7.5,3.515625 1.34765,0 2.77343,-0.332031 -3.76953,-3.28125 -3.76953,-5.175781 0,-0.859375 0.625,-1.425781 0.64453,-0.566407 1.42578,-0.566407 0.9375,0 1.66016,0.9375 1.93359,2.519532 4.375,4.511719 5.56641,-3.242187 5.56641,-8.164062 0,-5.800782 -2.36329,-9.414063 -2.69531,-4.140625 -7.89062,-4.140625 z"
         id="path10140" />
    </g>
    <path
       style="color:#000000;fill:#b3b3b3;-inkscape-stroke:none"
       d="m 484.47461,-72.269531 v 3 h 43.7168 v -3 z"
       id="path11587" />
    <path
       style="color:#000000;fill:#b3b3b3;-inkscape-stroke:none"
       d="m 448.44727,76.111328 v 3 h 77.49609 v -3 z"
       id="path11589" />
    <path
       style="color:#000000;fill:#b3b3b3;-inkscape-stroke:none"
       d="m 815.99414,54.632812 v 3 h 24.94922 v -3 z"
       id="path11591" />
    <g
       aria-label="Set"
       id="text3739"
       style="font-size:40px;letter-spacing:0px;word-spacing:0px;fill:#b3b3b3;stroke-width:1.87668px"
       transform="translate(0,10)">
      <path
         style="color:#000000;-inkscape-font-specification:'Comic Sans MS';fill:#b3b3b3;-inkscape-stroke:none"
         d="m 979.72437,100.86009 q -0.0195,-0.82031 0.54687,-1.328123 0.58594,-0.527344 1.42578,-0.527344 0.95703,0 1.67969,1.093747 0.99609,1.48438 1.77734,2.01172 1.66016,1.09375 4.82422,1.09375 3.02735,0 5.625,-1.30859 3.32031,-1.67969 3.32031,-4.66797 0,-2.460938 -2.79296,-3.886719 -2.36329,-1.230469 -5.83985,-1.328125 -3.08594,-0.117188 -5.2539,-1.347656 -2.77344,-1.582032 -2.77344,-4.53125 0,-3.476563 3.94531,-6.347657 3.76953,-2.714843 7.79297,-2.714843 1.89453,0 4.27734,0.644531 3.16405,0.839844 3.16405,2.148437 0,1.71875 -1.7578,1.71875 -0.78125,0 -2.73437,-0.410156 -1.95313,-0.429687 -3.02735,-0.410156 -3.04687,0.03906 -5.17578,1.503906 -2.1875,1.503906 -2.1875,3.652344 0,1.621094 2.89063,2.285156 1.07422,0.253906 4.16015,0.46875 4.47266,0.332031 6.99222,2.8125 2.3047,2.265625 2.3047,5.527344 0,4.648434 -4.29692,7.421874 -3.73046,2.40234 -8.65234,2.40234 -3.57422,0 -6.54297,-1.36718 -3.63281,-1.67969 -3.6914,-4.60938 z"
         id="path10133" />
      <path
         style="color:#000000;-inkscape-font-specification:'Comic Sans MS';fill:#b3b3b3;-inkscape-stroke:none"
         d="m 1016.6775,106.62181 q -4.4141,0 -7.1484,-2.20703 -2.9883,-2.44141 -2.9883,-6.835938 0,-5.078125 2.4609,-8.515625 2.6758,-3.75 7.1484,-3.75 3.2422,0 5.293,1.09375 2.5195,1.347656 2.5195,4.140625 0,1.953125 -2.207,3.554688 -0.9765,0.703125 -4.1406,2.1875 l -7.4609,3.535156 q 1.0937,1.621094 2.7148,2.441404 1.6406,0.82031 3.8086,0.82031 1.3476,0 3.1641,-0.50781 2.3046,-0.64453 2.9687,-1.67969 0.6641,-1.054683 1.4258,-1.054683 0.6836,0 1.2109,0.527343 0.5469,0.50781 0.5469,1.19141 0,2.16797 -3.4961,3.73047 -2.9883,1.32812 -5.8203,1.32812 z m -0.5274,-17.792968 q -2.3828,0 -3.9648,1.855469 -1.582,1.835937 -2.3633,5.546875 l 5.9961,-2.851563 q 3.5352,-1.71875 5.0391,-2.988281 -1.6797,-1.5625 -4.7071,-1.5625 z"
         id="path10135" />
      <path
         style="color:#000000;-inkscape-font-specification:'Comic Sans MS';fill:#b3b3b3;-inkscape-stroke:none"
         d="m 1042.5369,89.082748 q -0.4102,0 -0.9766,-0.03906 -0.5469,-0.03906 -0.957,-0.03906 -0.4492,0 -2.6563,0.292969 l 0.3711,11.542963 0.02,0.85938 0.02,0.99609 q 0.078,4.27734 -2.0508,4.27734 -0.7813,0 -1.3672,-0.50781 -0.5664,-0.50781 -0.5664,-1.26953 0,-0.74219 0.059,-2.22656 0.059,-1.48438 0.059,-2.22657 l -0.3906,-11.40624 q -1.4258,-0.05859 -4.336,-0.332032 -1.7383,-0.234375 -1.7383,-1.933593 0,-0.859375 0.5274,-1.425782 0.5273,-0.566406 1.3476,-0.566406 l 4.1016,0.332031 q 0,-0.996093 -0.098,-2.65625 -0.078,-1.679687 -0.078,-2.421875 0,-0.820312 0.5664,-1.347656 0.5664,-0.546875 1.3868,-0.546875 1.7578,0 2.0507,2.871094 0.059,0.722656 0.059,1.738281 l -0.039,1.132813 -0.02,1.210937 q 2.4219,-0.3125 2.7735,-0.3125 2.0312,0 2.6562,0.195313 1.1914,0.390625 1.1914,1.835937 0,0.859375 -0.5468,1.425781 -0.5274,0.546875 -1.3672,0.546875 z"
         id="path10137" />
    </g>
    <g
       aria-label="Reset"
       id="text3743"
       style="font-size:40px;letter-spacing:0px;word-spacing:0px;fill:#b3b3b3;stroke-width:1.87668px"
       transform="translate(0,10)">
      <path
         style="color:#000000;-inkscape-font-specification:'Comic Sans MS';fill:#b3b3b3;-inkscape-stroke:none"
         d="m 965.21045,-42.283669 q -0.74219,0 -1.38672,-0.625 -6.46484,-6.386718 -14.375,-8.59375 l 0.15625,3.828125 0.0977,3.847657 q 0,0.859375 -0.56641,1.425781 -0.54687,0.585937 -1.38672,0.585937 -0.83984,0 -1.40625,-0.585937 -0.54687,-0.566406 -0.54687,-1.425781 0,-1.542969 -0.15625,-4.589844 -0.13672,-3.066406 -0.13672,-4.609375 0,-1.796875 0.39062,-5.351563 0.39063,-3.554687 0.39063,-5.332031 0,-0.996094 -0.19531,-2.949219 -0.17579,-1.953125 -0.17579,-2.949218 0,-1.113282 0.625,-1.953125 0.74219,-1.035157 2.05079,-0.9375 l 4.70703,0.371093 q 2.67578,0.332032 4.51172,1.308594 7.91015,4.199219 7.91015,10.253906 0,2.96875 -2.69531,5.253907 -2.16797,1.835937 -5.41016,2.792968 6.07422,3.261719 9.08203,6.875 0.50782,0.625 0.50782,1.328125 0,0.820313 -0.60547,1.425782 -0.58594,0.605468 -1.38672,0.605468 z m -12.44141,-25.820312 -2.89062,-0.234375 0.19531,2.363281 q 0.13672,1.445313 0.13672,2.363281 0,1.5625 -0.25391,3.886719 l -0.41015,3.886719 q 0.27343,0 0.83984,0.01953 0.58594,0.01953 0.87891,0.01953 4.98047,0 7.46093,-1.328125 1.09375,-0.605468 2.03125,-1.582031 1.03516,-1.09375 1.03516,-1.855469 0,-2.714843 -3.08594,-5.058593 -2.83203,-2.148438 -5.9375,-2.480469 z"
         id="path10122" />
      <path
         style="color:#000000;-inkscape-font-specification:'Comic Sans MS';fill:#b3b3b3;-inkscape-stroke:none"
         d="m 980.19092,-41.600075 q -4.41406,0 -7.14844,-2.207031 -2.98828,-2.441406 -2.98828,-6.835938 0,-5.078125 2.46094,-8.515625 2.67578,-3.75 7.14843,-3.75 3.24219,0 5.29297,1.09375 2.51953,1.347657 2.51953,4.140625 0,1.953125 -2.20703,3.554688 -0.97656,0.703125 -4.14062,2.1875 l -7.46094,3.535156 q 1.09375,1.621094 2.71484,2.441406 1.64063,0.820313 3.8086,0.820313 1.34765,0 3.16406,-0.507813 2.30469,-0.644531 2.96875,-1.679687 0.66406,-1.054688 1.42578,-1.054688 0.6836,0 1.21094,0.527344 0.54687,0.507813 0.54687,1.191406 0,2.167969 -3.49609,3.730469 -2.98828,1.328125 -5.82031,1.328125 z m -0.52735,-17.792969 q -2.38281,0 -3.96484,1.855469 -1.58203,1.835938 -2.36328,5.546875 l 5.99609,-2.851562 q 3.53516,-1.71875 5.03907,-2.988282 -1.67969,-1.5625 -4.70704,-1.5625 z"
         id="path10124" />
      <path
         style="color:#000000;-inkscape-font-specification:'Comic Sans MS';fill:#b3b3b3;-inkscape-stroke:none"
         d="m 1006.1675,-57.537575 q -1.0742,0 -1.5039,-0.722656 -0.293,-0.507813 -0.5078,-2.109375 -1.4649,0.371094 -4.51176,1.367187 -3.14453,1.25 -3.16406,3.085938 0.58594,0.214844 1.15234,0.3125 4.49218,0.800781 6.67968,2.207031 3.1836,2.050781 3.1836,5.9375 0,3.183594 -2.7539,4.804688 -2.2852,1.328125 -5.78125,1.328125 -2.55859,0 -4.88281,-0.859375 -3.00782,-1.09375 -3.00782,-3.046875 0,-0.78125 0.60547,-1.367188 0.625,-0.585937 1.40625,-0.585937 0.60547,0 1.5625,0.9375 0.46875,0.449218 2.10938,0.742187 1.30859,0.234375 2.20703,0.234375 1.64065,0 2.89065,-0.390625 1.8164,-0.566406 1.8164,-1.796875 0,-2.65625 -3.71096,-3.59375 l -2.03125,-0.449219 q -2.59765,-0.566406 -3.6914,-1.328125 -1.58203,-1.09375 -1.58203,-3.300781 0,-4.082031 3.84765,-5.820312 1.17188,-0.527344 3.74999,-1.25 2.5781,-0.742188 3.6914,-1.25 0.8008,-0.351563 1.7383,-0.351563 0.8398,0 1.3672,0.546875 0.5469,0.546875 0.5469,1.425781 0,0.566407 0.2343,1.660157 0.2539,1.09375 0.2539,1.660156 0,0.878906 -0.5468,1.425781 -0.5274,0.546875 -1.3672,0.546875 z"
         id="path10126" />
      <path
         style="color:#000000;-inkscape-font-specification:'Comic Sans MS';fill:#b3b3b3;-inkscape-stroke:none"
         d="m 1021.5776,-41.600075 q -4.414,0 -7.1484,-2.207031 -2.9883,-2.441406 -2.9883,-6.835938 0,-5.078125 2.461,-8.515625 2.6757,-3.75 7.1484,-3.75 3.2422,0 5.293,1.09375 2.5195,1.347657 2.5195,4.140625 0,1.953125 -2.207,3.554688 -0.9766,0.703125 -4.1407,2.1875 l -7.4609,3.535156 q 1.0937,1.621094 2.7148,2.441406 1.6407,0.820313 3.8086,0.820313 1.3477,0 3.1641,-0.507813 2.3047,-0.644531 2.9687,-1.679687 0.6641,-1.054688 1.4258,-1.054688 0.6836,0 1.211,0.527344 0.5468,0.507813 0.5468,1.191406 0,2.167969 -3.4961,3.730469 -2.9882,1.328125 -5.8203,1.328125 z m -0.5273,-17.792969 q -2.3828,0 -3.9649,1.855469 -1.582,1.835938 -2.3632,5.546875 l 5.9961,-2.851562 q 3.5351,-1.71875 5.039,-2.988282 -1.6797,-1.5625 -4.707,-1.5625 z"
         id="path10128" />
      <path
         style="color:#000000;-inkscape-font-specification:'Comic Sans MS';fill:#b3b3b3;-inkscape-stroke:none"
         d="m 1047.437,-59.139137 q -0.4101,0 -0.9766,-0.03906 -0.5468,-0.03906 -0.957,-0.03906 -0.4492,0 -2.6562,0.292968 l 0.3711,11.542969 0.02,0.859375 0.019,0.996094 q 0.078,4.277344 -2.0508,4.277344 -0.7812,0 -1.3671,-0.507813 -0.5665,-0.507812 -0.5665,-1.269531 0,-0.742188 0.059,-2.226563 0.059,-1.484375 0.059,-2.226562 l -0.3906,-11.40625 q -1.4258,-0.05859 -4.3359,-0.332031 -1.7383,-0.234375 -1.7383,-1.933594 0,-0.859375 0.5273,-1.425781 0.5274,-0.566407 1.3477,-0.566407 l 4.1016,0.332032 q 0,-0.996094 -0.098,-2.65625 -0.078,-1.679688 -0.078,-2.421875 0,-0.820313 0.5664,-1.347657 0.5664,-0.546875 1.3867,-0.546875 1.7578,0 2.0508,2.871094 0.059,0.722656 0.059,1.738281 l -0.039,1.132813 -0.019,1.210937 q 2.4219,-0.3125 2.7734,-0.3125 2.0313,0 2.6563,0.195313 1.1914,0.390625 1.1914,1.835937 0,0.859375 -0.5469,1.425782 -0.5273,0.546875 -1.3672,0.546875 z"
         id="path10130" />
    </g>
    <g
       aria-label="Q"
       id="text3747"
       style="font-size:40px;letter-spacing:0px;word-spacing:0px;fill:#b3b3b3;stroke-width:1.87668px"
       transform="translate(0,10)">
      <path
         style="color:#000000;-inkscape-font-specification:'Comic Sans MS';fill:#b3b3b3;-inkscape-stroke:none"
         d="m 1351.0979,-15.334358 q -0.8594,0 -4.6289,-3.339844 l -4.668,-4.277344 q -3.3008,1.328125 -6.5429,1.328125 -5.8789,0 -10.3516,-4.6875 -4.4531,-4.6875 -4.4531,-10.605468 0,-6.972657 5.1953,-11.835938 5.0781,-4.726562 12.0117,-4.726562 7.3047,0 11.0742,5.46875 3.2031,4.6875 3.2031,12.128906 0,6.464844 -6.3281,10.878906 l 4.2578,3.925781 2.5196,2.148438 q 0.7422,0.703125 0.7422,1.523437 0,0.800782 -0.6055,1.425782 -0.586,0.644531 -1.4258,0.644531 z m -13.4375,-34.101563 q -5.3516,0 -9.2187,3.574219 -3.9844,3.671875 -3.9844,8.945313 0,4.277343 3.3008,7.734375 3.3203,3.515625 7.5,3.515625 1.3476,0 2.7734,-0.332032 -3.7695,-3.28125 -3.7695,-5.175781 0,-0.859375 0.625,-1.425781 0.6445,-0.566406 1.4257,-0.566406 0.9375,0 1.6602,0.9375 1.9336,2.519531 4.375,4.511718 5.5664,-3.242187 5.5664,-8.164062 0,-5.800781 -2.3633,-9.414063 -2.6953,-4.140625 -7.8906,-4.140625 z"
         id="path10119" />
    </g>
    <g
       aria-label="Q"
       id="text3751"
       style="font-size:40px;letter-spacing:0px;word-spacing:0px;fill:#b3b3b3;stroke-width:1.87668px"
       transform="translate(0,10)">
      <path
         style="color:#000000;-inkscape-font-specification:'Comic Sans MS';fill:#b3b3b3;-inkscape-stroke:none"
         d="m 1352.5996,98.334373 q -0.8594,0 -4.6289,-3.339843 l -4.668,-4.277344 q -3.3007,1.328125 -6.5429,1.328125 -5.8789,0 -10.3516,-4.6875 -4.4531,-4.6875 -4.4531,-10.605469 0,-6.972656 5.1953,-11.835937 5.0781,-4.726563 12.0117,-4.726563 7.3047,0 11.0742,5.46875 3.2032,4.6875 3.2032,12.128906 0,6.464844 -6.3282,10.878907 l 4.2578,3.925781 2.5196,2.148437 q 0.7422,0.703125 0.7422,1.523438 0,0.800781 -0.6055,1.425781 -0.5859,0.644531 -1.4258,0.644531 z m -13.4375,-34.101562 q -5.3516,0 -9.2187,3.574219 -3.9844,3.671875 -3.9844,8.945312 0,4.277344 3.3008,7.734375 3.3203,3.515625 7.5,3.515625 1.3476,0 2.7734,-0.332031 -3.7695,-3.28125 -3.7695,-5.175781 0,-0.859375 0.625,-1.425782 0.6445,-0.566406 1.4258,-0.566406 0.9375,0 1.6601,0.9375 1.9336,2.519531 4.375,4.511719 5.5664,-3.242188 5.5664,-8.164063 0,-5.800781 -2.3633,-9.414062 -2.6953,-4.140625 -7.8906,-4.140625 z"
         id="path10116" />
    </g>
    <path
       style="color:#000000;fill:#b3b3b3;-inkscape-stroke:none"
       d="m 1326.2109,61.474609 v 3 h 24.9493 v -3 z"
       id="path11607" />
    <path
       style="color:#000000;fill:#b3b3b3;-inkscape-stroke:none"
       d="m 1093.5547,611.62695 1.0058,2.13672 c 0,0 16.317,34.83379 0,69.54883 l -1.0058,2.13672 h 35.6523 c 8.3223,0 21.0088,0.02 33.7891,-4.51172 12.7803,-4.53175 25.6605,-13.70738 34.1465,-31.76172 l 0.2988,-0.63672 -0.2988,-0.63867 c -8.486,-18.05432 -21.3662,-27.22997 -34.1465,-31.76172 -12.7803,-4.53174 -25.4668,-4.51172 -33.7891,-4.51172 z m 4.5449,3 h 31.1074 c 8.3223,0 20.6006,0.0186 32.7871,4.33985 12.0276,4.26485 23.9432,12.66761 32.0957,29.57226 -8.1525,16.9036 -20.0685,25.3056 -32.0957,29.57031 -12.1865,4.32122 -24.4648,4.33985 -32.7871,4.33985 h -31.0468 c 13.9879,-32.25816 2.2211,-62.50263 -0.061,-67.82227 z"
       id="path11609" />
    <path
       style="color:#000000;fill:#b3b3b3;-inkscape-stroke:none"
       d="m 1029.8848,592.19336 -3,0.041 0.4902,34.88086 h 56.4551 v -3 h -53.4961 z"
       id="path11611" />
    <path
       style="color:#000000;fill:#b3b3b3;-inkscape-stroke:none"
       d="m 1091.7461,615.76367 c -5.137,0 -9.334,4.19701 -9.334,9.33399 0,5.13701 4.197,9.33398 9.334,9.33398 5.137,0 9.334,-4.19699 9.334,-9.33398 0,-5.13696 -4.197,-9.33399 -9.334,-9.33399 z m 0,3 c 3.5158,0 6.334,2.81831 6.334,6.33399 0,3.51572 -2.8183,6.33398 -6.334,6.33398 -3.5156,0 -6.334,-2.81829 -6.334,-6.33398 0,-3.51565 2.8184,-6.33399 6.334,-6.33399 z"
       id="path11613" />
    <path
       style="color:#000000;fill:#b3b3b3;-inkscape-stroke:none"
       d="m 1196.4375,647.03906 v 3 h 91.3574 v -3 z"
       id="path11615" />
    <path
       style="color:#000000;fill:#b3b3b3;-inkscape-stroke:none"
       d="m 1093.5547,738.88086 1.0058,2.13867 c 0,0 16.317,34.83186 0,69.54688 l -1.0058,2.13867 h 35.6523 c 8.3223,0 21.0088,0.0181 33.7891,-4.51367 12.7803,-4.53175 25.6605,-13.70544 34.1465,-31.75977 l 0.2988,-0.63867 -0.2988,-0.63867 c -8.486,-18.05433 -21.3662,-27.22802 -34.1465,-31.75977 -12.7803,-4.53175 -25.4668,-4.51367 -33.7891,-4.51367 z m 4.5449,3 h 31.1074 c 8.3223,0 20.6006,0.0186 32.7871,4.33984 12.0273,4.26473 23.9432,12.66857 32.0957,29.57227 -8.1525,16.9037 -20.0684,25.30753 -32.0957,29.57226 -12.1865,4.32122 -24.4648,4.33985 -32.7871,4.33985 h -31.0468 c 13.9893,-32.26081 2.2197,-62.50818 -0.061,-67.82422 z"
       id="path11617" />
    <path
       style="color:#000000;fill:#b3b3b3;-inkscape-stroke:none"
       d="m 1023.9785,794.55664 0.2559,38.79492 3,-0.0195 -0.2364,-35.77539 h 57.1407 v -3 z"
       id="path11619" />
    <path
       style="color:#000000;fill:#b3b3b3;-inkscape-stroke:none"
       d="m 1091.7461,745.58984 c -5.137,0 -9.334,4.19505 -9.334,9.33203 0,5.13702 4.197,9.33399 9.334,9.33399 5.137,0 9.334,-4.19699 9.334,-9.33399 0,-5.13695 -4.197,-9.33203 -9.334,-9.33203 z m 0,3 c 3.5158,0 6.334,2.81636 6.334,6.33203 0,3.51573 -2.8183,6.33399 -6.334,6.33399 -3.5156,0 -6.334,-2.81829 -6.334,-6.33399 0,-3.51565 2.8184,-6.33203 6.334,-6.33203 z"
       id="path11621" />
    <path
       style="color:#000000;fill:#b3b3b3;-inkscape-stroke:none"
       d="m 1196.4375,774.29297 v 3 h 91.3574 v -3 z"
       id="path11623" />
    <path
       style="color:#000000;fill:#b3b3b3;-inkscape-stroke:none"
       d="m 1038.6563,668.24219 v 23.9375 l 206.3652,42.41797 v 41.19531 h 3 v -43.64063 l -206.3652,-42.41797 v -18.48242 l 42.4296,0.1211 0.01,-3 z"
       id="path11625" />
    <path
       style="color:#000000;fill:#b3b3b3;-inkscape-stroke:none"
       d="m 1245.0215,648.53906 v 41.19531 l -206.3652,42.41797 v 25.19532 l 44.8242,-0.41211 -0.027,-3 -41.7968,0.38476 v -19.72265 l 206.3652,-42.41797 v -43.64063 z"
       id="path11627" />
    <path
       style="color:#000000;fill:#b3b3b3;stroke-width:3;-inkscape-stroke:none"
       d="m 1250.6445,649.16651 c 0,2.54668 -1.8261,4.61115 -4.0788,4.61115 -2.2526,0 -4.0788,-2.06447 -4.0788,-4.61115 0,-2.54666 1.8262,-4.6111 4.0788,-4.6111 2.2527,0 4.0788,2.06444 4.0788,4.6111 z"
       id="path11629" />
    <path
       style="color:#000000;fill:#b3b3b3;stroke-width:3;-inkscape-stroke:none"
       d="m 1250.6445,776.42146 c 0,2.5467 -1.8261,4.61117 -4.0788,4.61117 -2.2526,0 -4.0788,-2.06447 -4.0788,-4.61117 0,-2.54664 1.8262,-4.61109 4.0788,-4.61109 2.2527,0 4.0788,2.06445 4.0788,4.61109 z"
       id="path11631" />
    <path
       style="color:#000000;fill:#b3b3b3;-inkscape-stroke:none"
       d="m 1092.3711,659.54297 c -5.1369,0 -9.334,4.197 -9.334,9.33398 0,5.13701 4.1971,9.33399 9.334,9.33399 5.137,0 9.332,-4.19698 9.332,-9.33399 0,-5.13698 -4.195,-9.33398 -9.332,-9.33398 z m 0,3 c 3.5158,0 6.332,2.81833 6.332,6.33398 0,3.51569 -2.8163,6.33399 -6.332,6.33399 -3.5155,0 -6.334,-2.8183 -6.334,-6.33399 0,-3.51565 2.8185,-6.33398 6.334,-6.33398 z"
       id="path11633" />
    <path
       style="color:#000000;fill:#b3b3b3;-inkscape-stroke:none"
       d="m 1091.7461,786.80078 c -5.137,0 -9.334,4.197 -9.334,9.33399 0,5.13701 4.197,9.33398 9.334,9.33398 5.137,0 9.334,-4.19699 9.334,-9.33398 0,-5.13696 -4.197,-9.33399 -9.334,-9.33399 z m 0,3 c 3.5158,0 6.334,2.81831 6.334,6.33399 0,3.51572 -2.8183,6.33398 -6.334,6.33398 -3.5156,0 -6.334,-2.81829 -6.334,-6.33398 0,-3.51565 2.8184,-6.33399 6.334,-6.33399 z"
       id="path11635" />
    <g
       aria-label="Set"
       id="text3793"
       style="font-size:40px;letter-spacing:0px;word-spacing:0px;fill:#b3b3b3;stroke-width:1.87668px"
       transform="translate(0,-10)">
      <path
         style="color:#000000;-inkscape-font-specification:'Comic Sans MS';fill:#b3b3b3;-inkscape-stroke:none"
         d="m 993.4032,588.88843 q -0.0195,-0.82031 0.54687,-1.32813 0.58594,-0.52734 1.42578,-0.52734 0.95704,0 1.67969,1.09375 0.9961,1.48437 1.77735,2.01172 1.66011,1.09375 4.82421,1.09375 3.0273,0 5.625,-1.3086 3.3203,-1.67968 3.3203,-4.66796 0,-2.46094 -2.793,-3.88672 -2.3632,-1.23047 -5.8398,-1.32813 -3.0859,-0.11719 -5.2539,-1.34765 -2.77344,-1.58204 -2.77344,-4.53125 0,-3.47657 3.94531,-6.34766 3.76953,-2.71484 7.79293,-2.71484 1.8946,0 4.2774,0.64453 3.164,0.83984 3.164,2.14843 0,1.71875 -1.7578,1.71875 -0.7812,0 -2.7343,-0.41015 -1.9532,-0.42969 -3.0274,-0.41016 -3.0469,0.0391 -5.1758,1.50391 -2.1875,1.5039 -2.1875,3.65234 0,1.6211 2.8907,2.28516 1.0742,0.2539 4.1601,0.46875 4.4727,0.33203 6.9922,2.8125 2.3047,2.26562 2.3047,5.52734 0,4.64844 -4.2969,7.42188 -3.7305,2.40234 -8.6523,2.40234 -3.5742,0 -6.543,-1.36719 -3.63281,-1.67968 -3.6914,-4.60937 z"
         id="path10109" />
      <path
         style="color:#000000;-inkscape-font-specification:'Comic Sans MS';fill:#b3b3b3;-inkscape-stroke:none"
         d="m 1030.3563,594.65015 q -4.414,0 -7.1484,-2.20703 -2.9883,-2.44141 -2.9883,-6.83594 0,-5.07813 2.4609,-8.51563 2.6758,-3.75 7.1485,-3.75 3.2422,0 5.2929,1.09375 2.5196,1.34766 2.5196,4.14063 0,1.95312 -2.2071,3.55469 -0.9765,0.70312 -4.1406,2.1875 l -7.4609,3.53515 q 1.0937,1.6211 2.7148,2.44141 1.6407,0.82031 3.8086,0.82031 1.3477,0 3.1641,-0.50781 2.3047,-0.64453 2.9687,-1.67969 0.6641,-1.05469 1.4258,-1.05469 0.6836,0 1.211,0.52735 0.5468,0.50781 0.5468,1.1914 0,2.16797 -3.4961,3.73047 -2.9882,1.32813 -5.8203,1.32813 z m -0.5273,-17.79297 q -2.3828,0 -3.9649,1.85547 -1.582,1.83593 -2.3632,5.54687 l 5.996,-2.85156 q 3.5352,-1.71875 5.0391,-2.98828 -1.6797,-1.5625 -4.707,-1.5625 z"
         id="path10111" />
      <path
         style="color:#000000;-inkscape-font-specification:'Comic Sans MS';fill:#b3b3b3;-inkscape-stroke:none"
         d="m 1056.2157,577.11108 q -0.4102,0 -0.9766,-0.0391 -0.5468,-0.0391 -0.957,-0.0391 -0.4492,0 -2.6562,0.29297 l 0.371,11.54297 0.02,0.85937 0.02,0.9961 q 0.078,4.27734 -2.0508,4.27734 -0.7812,0 -1.3672,-0.50781 -0.5664,-0.50782 -0.5664,-1.26953 0,-0.74219 0.059,-2.22657 0.059,-1.48437 0.059,-2.22656 l -0.3906,-11.40625 q -1.4258,-0.0586 -4.3359,-0.33203 -1.7383,-0.23438 -1.7383,-1.93359 0,-0.85938 0.5273,-1.42579 0.5274,-0.5664 1.3477,-0.5664 l 4.1015,0.33203 q 0,-0.99609 -0.098,-2.65625 -0.078,-1.67969 -0.078,-2.42188 0,-0.82031 0.5664,-1.34765 0.5664,-0.54688 1.3867,-0.54688 1.7578,0 2.0508,2.8711 0.059,0.72265 0.059,1.73828 l -0.039,1.13281 -0.019,1.21094 q 2.4218,-0.3125 2.7734,-0.3125 2.0313,0 2.6563,0.19531 1.1914,0.39063 1.1914,1.83594 0,0.85937 -0.5469,1.42578 -0.5274,0.54687 -1.3672,0.54687 z"
         id="path10113" />
    </g>
    <g
       aria-label="Reset"
       id="text3797"
       style="font-size:40px;letter-spacing:0px;word-spacing:0px;fill:#b3b3b3;stroke-width:1.87668px"
       transform="translate(0,-10)">
      <path
         style="color:#000000;-inkscape-font-specification:'Comic Sans MS';fill:#b3b3b3;-inkscape-stroke:none"
         d="m 992.84363,887.63361 q -0.74219,0 -1.38672,-0.625 -6.46484,-6.38672 -14.375,-8.59375 l 0.15625,3.82812 0.0977,3.84766 q 0,0.85937 -0.56641,1.42578 -0.54688,0.58594 -1.38672,0.58594 -0.83984,0 -1.40625,-0.58594 -0.54687,-0.56641 -0.54687,-1.42578 0,-1.54297 -0.15625,-4.58985 -0.13672,-3.0664 -0.13672,-4.60937 0,-1.79688 0.39062,-5.35156 0.39063,-3.55469 0.39063,-5.33204 0,-0.99609 -0.19532,-2.94921 -0.17578,-1.95313 -0.17578,-2.94922 0,-1.11328 0.625,-1.95313 0.74219,-1.03515 2.05078,-0.9375 l 4.70704,0.3711 q 2.67578,0.33203 4.51171,1.30859 7.91016,4.19922 7.91016,10.25391 0,2.96875 -2.69531,5.2539 -2.16797,1.83594 -5.41016,2.79297 6.07422,3.26172 9.08203,6.875 0.50782,0.625 0.50782,1.32813 0,0.82031 -0.60547,1.42578 -0.58594,0.60547 -1.38672,0.60547 z m -12.44141,-25.82032 -2.89062,-0.23437 0.19531,2.36328 q 0.13672,1.44531 0.13672,2.36328 0,1.5625 -0.25391,3.88672 l -0.41015,3.88672 q 0.27343,0 0.83984,0.0195 0.58594,0.0195 0.87891,0.0195 4.98046,0 7.46093,-1.32812 1.09375,-0.60547 2.03125,-1.58204 1.03516,-1.09375 1.03516,-1.85546 0,-2.71485 -3.08594,-5.0586 -2.83203,-2.14844 -5.9375,-2.48047 z"
         id="path10098" />
      <path
         style="color:#000000;-inkscape-font-specification:'Comic Sans MS';fill:#b3b3b3;-inkscape-stroke:none"
         d="m 1007.8241,888.3172 q -4.4141,0 -7.1484,-2.20703 -2.98832,-2.44141 -2.98832,-6.83594 0,-5.07812 2.46092,-8.51562 2.6758,-3.75 7.1485,-3.75 3.2421,0 5.2929,1.09375 2.5196,1.34765 2.5196,4.14062 0,1.95313 -2.2071,3.55469 -0.9765,0.70312 -4.1406,2.1875 l -7.4609,3.53515 q 1.0937,1.6211 2.7148,2.44141 1.6406,0.82031 3.8086,0.82031 1.3477,0 3.1641,-0.50781 2.3046,-0.64453 2.9687,-1.67969 0.6641,-1.05468 1.4258,-1.05468 0.6836,0 1.2109,0.52734 0.5469,0.50781 0.5469,1.19141 0,2.16796 -3.4961,3.73046 -2.9883,1.32813 -5.8203,1.32813 z m -0.5273,-17.79297 q -2.3829,0 -3.9649,1.85547 -1.582,1.83594 -2.3633,5.54687 l 5.9961,-2.85156 q 3.5352,-1.71875 5.0391,-2.98828 -1.6797,-1.5625 -4.707,-1.5625 z"
         id="path10100" />
      <path
         style="color:#000000;-inkscape-font-specification:'Comic Sans MS';fill:#b3b3b3;-inkscape-stroke:none"
         d="m 1033.8007,872.3797 q -1.0743,0 -1.5039,-0.72266 -0.293,-0.50781 -0.5079,-2.10937 -1.4648,0.37109 -4.5117,1.36719 -3.1445,1.25 -3.164,3.08593 0.5859,0.21485 1.1523,0.3125 4.4922,0.80078 6.6797,2.20703 3.1836,2.05079 3.1836,5.9375 0,3.1836 -2.7539,4.80469 -2.2852,1.32813 -5.7813,1.32813 -2.5586,0 -4.8828,-0.85938 -3.0078,-1.09375 -3.0078,-3.04687 0,-0.78125 0.6055,-1.36719 0.625,-0.58594 1.4062,-0.58594 0.6055,0 1.5625,0.9375 0.4688,0.44922 2.1094,0.74219 1.3086,0.23437 2.207,0.23437 1.6407,0 2.8907,-0.39062 1.8164,-0.56641 1.8164,-1.79688 0,-2.65625 -3.711,-3.59375 l -2.0312,-0.44921 q -2.5977,-0.56641 -3.6914,-1.32813 -1.5821,-1.09375 -1.5821,-3.30078 0,-4.08203 3.8477,-5.82031 1.1719,-0.52735 3.75,-1.25 2.5781,-0.74219 3.6914,-1.25 0.8008,-0.35157 1.7383,-0.35157 0.8398,0 1.3672,0.54688 0.5468,0.54687 0.5468,1.42578 0,0.56641 0.2344,1.66016 0.2539,1.09375 0.2539,1.66015 0,0.87891 -0.5469,1.42578 -0.5273,0.54688 -1.3671,0.54688 z"
         id="path10102" />
      <path
         style="color:#000000;-inkscape-font-specification:'Comic Sans MS';fill:#b3b3b3;-inkscape-stroke:none"
         d="m 1049.2108,888.3172 q -4.414,0 -7.1484,-2.20703 -2.9883,-2.44141 -2.9883,-6.83594 0,-5.07812 2.4609,-8.51562 2.6758,-3.75 7.1485,-3.75 3.2422,0 5.2929,1.09375 2.5196,1.34765 2.5196,4.14062 0,1.95313 -2.2071,3.55469 -0.9765,0.70312 -4.1406,2.1875 l -7.4609,3.53515 q 1.0937,1.6211 2.7148,2.44141 1.6406,0.82031 3.8086,0.82031 1.3477,0 3.1641,-0.50781 2.3047,-0.64453 2.9687,-1.67969 0.6641,-1.05468 1.4258,-1.05468 0.6836,0 1.2109,0.52734 0.5469,0.50781 0.5469,1.19141 0,2.16796 -3.4961,3.73046 -2.9883,1.32813 -5.8203,1.32813 z m -0.5273,-17.79297 q -2.3828,0 -3.9649,1.85547 -1.582,1.83594 -2.3633,5.54687 l 5.9961,-2.85156 q 3.5352,-1.71875 5.0391,-2.98828 -1.6797,-1.5625 -4.707,-1.5625 z"
         id="path10104" />
      <path
         style="color:#000000;-inkscape-font-specification:'Comic Sans MS';fill:#b3b3b3;-inkscape-stroke:none"
         d="m 1075.0702,870.77814 q -0.4102,0 -0.9766,-0.0391 -0.5468,-0.0391 -0.957,-0.0391 -0.4492,0 -2.6563,0.29297 l 0.3711,11.54297 0.02,0.85937 0.019,0.9961 q 0.078,4.27734 -2.0508,4.27734 -0.7812,0 -1.3672,-0.50781 -0.5664,-0.50781 -0.5664,-1.26953 0,-0.74219 0.059,-2.22656 0.059,-1.48438 0.059,-2.22657 l -0.3906,-11.40625 q -1.4258,-0.0586 -4.3359,-0.33203 -1.7383,-0.23437 -1.7383,-1.93359 0,-0.85938 0.5273,-1.42578 0.5274,-0.56641 1.3477,-0.56641 l 4.1015,0.33203 q 0,-0.99609 -0.098,-2.65625 -0.078,-1.67969 -0.078,-2.42187 0,-0.82032 0.5664,-1.34766 0.5664,-0.54687 1.3867,-0.54687 1.7578,0 2.0508,2.87109 0.059,0.72266 0.059,1.73828 l -0.039,1.13281 -0.02,1.21094 q 2.4218,-0.3125 2.7734,-0.3125 2.0312,0 2.6562,0.19531 1.1915,0.39063 1.1915,1.83594 0,0.85938 -0.5469,1.42578 -0.5274,0.54688 -1.3672,0.54688 z"
         id="path10106" />
    </g>
    <g
       aria-label="Q"
       id="text3801"
       style="font-size:40px;letter-spacing:0px;word-spacing:0px;fill:#b3b3b3;stroke-width:1.87668px"
       transform="translate(0,-10)">
      <path
         style="color:#000000;-inkscape-font-specification:'Comic Sans MS';fill:#b3b3b3;-inkscape-stroke:none"
         d="m 1324.959,683.19739 q -0.8594,0 -4.6289,-3.33985 l -4.668,-4.27734 q -3.3008,1.32813 -6.543,1.32813 -5.8789,0 -10.3515,-4.6875 -4.4531,-4.6875 -4.4531,-10.60547 0,-6.97266 5.1953,-11.83594 5.0781,-4.72656 12.0117,-4.72656 7.3047,0 11.0742,5.46875 3.2031,4.6875 3.2031,12.1289 0,6.46485 -6.3281,10.87891 l 4.2578,3.92578 2.5195,2.14844 q 0.7422,0.70312 0.7422,1.52344 0,0.80078 -0.6054,1.42578 -0.586,0.64453 -1.4258,0.64453 z m -13.4375,-34.10156 q -5.3516,0 -9.2188,3.57421 -3.9843,3.67188 -3.9843,8.94532 0,4.27734 3.3007,7.73437 3.3204,3.51563 7.5,3.51563 1.3477,0 2.7735,-0.33203 -3.7696,-3.28125 -3.7696,-5.17579 0,-0.85937 0.625,-1.42578 0.6446,-0.5664 1.4258,-0.5664 0.9375,0 1.6602,0.9375 1.9336,2.51953 4.375,4.51172 5.5664,-3.24219 5.5664,-8.16407 0,-5.80078 -2.3633,-9.41406 -2.6953,-4.14062 -7.8906,-4.14062 z"
         id="path10095" />
    </g>
    <g
       aria-label="Q"
       id="text3805"
       style="font-size:40px;letter-spacing:0px;word-spacing:0px;fill:#b3b3b3;stroke-width:1.87668px"
       transform="translate(0,-10)">
      <path
         style="color:#000000;-inkscape-font-specification:'Comic Sans MS';fill:#b3b3b3;-inkscape-stroke:none"
         d="m 1324.4608,810.12616 q -0.8594,0 -4.6289,-3.33984 l -4.668,-4.27735 q -3.3007,1.32813 -6.5429,1.32813 -5.8789,0 -10.3516,-4.6875 -4.4531,-4.6875 -4.4531,-10.60547 0,-6.97266 5.1953,-11.83594 5.0781,-4.72656 12.0117,-4.72656 7.3047,0 11.0742,5.46875 3.2032,4.6875 3.2032,12.1289 0,6.46485 -6.3282,10.87891 l 4.2578,3.92578 2.5196,2.14844 q 0.7422,0.70312 0.7422,1.52344 0,0.80078 -0.6055,1.42578 -0.5859,0.64453 -1.4258,0.64453 z m -13.4375,-34.10156 q -5.3515,0 -9.2187,3.57422 -3.9844,3.67187 -3.9844,8.94531 0,4.27734 3.3008,7.73437 3.3203,3.51563 7.5,3.51563 1.3476,0 2.7734,-0.33203 -3.7695,-3.28125 -3.7695,-5.17578 0,-0.85938 0.625,-1.42579 0.6445,-0.5664 1.4258,-0.5664 0.9375,0 1.6601,0.9375 1.9336,2.51953 4.375,4.51172 5.5664,-3.24219 5.5664,-8.16407 0,-5.80078 -2.3633,-9.41406 -2.6953,-4.14062 -7.8906,-4.14062 z"
         id="path10092" />
    </g>
    <path
       style="color:#000000;fill:#b3b3b3;-inkscape-stroke:none"
       d="m 1004.791,545.44727 v 3 h 43.7168 v -3 z"
       id="path11651" />
    <path
       style="color:#000000;fill:#b3b3b3;-inkscape-stroke:none"
       d="m 986.91016,841.36914 v 3 h 73.74214 v -3 z"
       id="path11653" />
    <path
       style="color:#000000;fill:#b3b3b3;-inkscape-stroke:none"
       d="m 1298.0723,753.26562 v 3 h 24.9492 v -3 z"
       id="path11655" />
    <path
       style="color:#000000;fill:#b3b3b3;-inkscape-stroke:none"
       d="m 1094.3965,766.22852 c -5.137,0 -9.334,4.19505 -9.334,9.33203 0,5.137 4.197,9.33398 9.334,9.33398 5.1369,0 9.332,-4.19698 9.332,-9.33398 0,-5.13698 -4.1951,-9.33203 -9.332,-9.33203 z m 0,3 c 3.5156,0 6.332,2.81638 6.332,6.33203 0,3.51568 -2.8164,6.33398 -6.332,6.33398 -3.5156,0 -6.334,-2.8183 -6.334,-6.33398 0,-3.51565 2.8183,-6.33203 6.334,-6.33203 z"
       id="path11657" />
    <path
       style="color:#000000;fill:#b3b3b3;-inkscape-stroke:none"
       d="m 1094.2441,637.68359 c -5.1369,0 -9.3339,4.19701 -9.3339,9.33399 0,5.13701 4.197,9.33398 9.3339,9.33398 5.1371,0 9.334,-4.19697 9.334,-9.33398 0,-5.13698 -4.1969,-9.33399 -9.334,-9.33399 z m 0,3 c 3.5158,0 6.334,2.81834 6.334,6.33399 0,3.5157 -2.8182,6.33398 -6.334,6.33398 -3.5156,0 -6.3339,-2.81828 -6.3339,-6.33398 0,-3.51565 2.8183,-6.33399 6.3339,-6.33399 z"
       id="path11659" />
    <path
       style="color:#000000;fill:#b3b3b3;-inkscape-stroke:none"
       d="m 903.11719,612.48437 v 1.5 61.70313 h 44.22461 c 11.03316,0 19.49471,-3.92879 25.12109,-9.875 5.62638,-5.94621 8.42188,-13.84637 8.42188,-21.72656 0,-7.88019 -2.7955,-15.7784 -8.42188,-21.72461 -5.62638,-5.94622 -14.08793,-9.87695 -25.12109,-9.87696 z m 3,3 h 41.22461 c 10.3286,0 17.8869,3.59763 22.9414,8.93946 5.05451,5.34183 7.60157,12.49157 7.60157,19.66211 0,7.17053 -2.54706,14.32223 -7.60157,19.66406 -5.0545,5.34183 -12.6128,8.9375 -22.9414,8.9375 h -41.22461 z"
       id="path11661" />
    <path
       style="color:#000000;fill:#b3b3b3;-inkscape-stroke:none"
       d="m 988.09766,636.05078 c -4.9668,0 -9.02539,4.05858 -9.02539,9.02539 0,4.9668 4.05858,9.02539 9.02539,9.02539 4.96678,0 9.02539,-4.05859 9.02539,-9.02539 0,-4.96681 -4.05862,-9.02539 -9.02539,-9.02539 z m 0,3 c 3.34543,0 6.02539,2.67991 6.02539,6.02539 0,3.34547 -2.67996,6.02539 -6.02539,6.02539 -3.34547,0 -6.02539,-2.67992 -6.02539,-6.02539 0,-3.34548 2.67992,-6.02539 6.02539,-6.02539 z"
       id="path11663" />
    <path
       style="color:#000000;fill:#b3b3b3;-inkscape-stroke:none"
       d="m 903.11719,742.9707 v 1.5 61.70313 h 44.22461 c 11.03316,0 19.49471,-3.93074 25.12109,-9.87696 5.62638,-5.94621 8.42188,-13.84441 8.42188,-21.7246 0,-7.8802 -2.7955,-15.78035 -8.42188,-21.72657 -5.62638,-5.94621 -14.08793,-9.875 -25.12109,-9.875 z m 3,3 h 41.22461 c 10.3286,0 17.8869,3.59567 22.9414,8.9375 5.05451,5.34183 7.60157,12.49353 7.60157,19.66407 0,7.17053 -2.54706,14.32028 -7.60157,19.6621 -5.0545,5.34183 -12.6128,8.93946 -22.9414,8.93946 h -41.22461 z"
       id="path11665" />
    <path
       style="color:#000000;fill:#b3b3b3;-inkscape-stroke:none"
       d="m 988.09766,766.53516 c -4.96681,0 -9.02539,4.05858 -9.02539,9.02539 0,4.96681 4.05858,9.02539 9.02539,9.02539 4.96678,0 9.02539,-4.05858 9.02539,-9.02539 0,-4.96681 -4.05861,-9.02539 -9.02539,-9.02539 z m 0,3 c 3.34543,0 6.02539,2.67992 6.02539,6.02539 0,3.34548 -2.67996,6.02539 -6.02539,6.02539 -3.34547,0 -6.02539,-2.67991 -6.02539,-6.02539 0,-3.34547 2.67992,-6.02539 6.02539,-6.02539 z"
       id="path11667" />
    <path
       style="color:#000000;fill:#b3b3b3;-inkscape-stroke:none"
       d="m 995.15234,644.43164 v 3 h 90.44536 v -3 z"
       id="path11669" />
    <path
       style="color:#000000;fill:#b3b3b3;-inkscape-stroke:none"
       d="m 995.15234,774.03125 v 3 h 90.44536 v -3 z"
       id="path11671" />
    <path
       style="color:#000000;fill:#b3b3b3;-inkscape-stroke:none"
       d="m 533.82422,624.11523 v 3 h 370.25781 v -3 z"
       id="path11673" />
    <path
       style="color:#000000;fill:#b3b3b3;-inkscape-stroke:none"
       d="m 763.56445,674.3125 v 1.5 61.70312 h 44.22266 c 11.03317,0 19.49471,-3.92878 25.12109,-9.875 5.62638,-5.94621 8.42188,-13.84637 8.42188,-21.72656 0,-7.88019 -2.7955,-15.77839 -8.42188,-21.72461 -5.62638,-5.94621 -14.08792,-9.87695 -25.12109,-9.87695 z m 3,3 h 41.22266 c 10.3286,0 17.88885,3.59567 22.94336,8.9375 5.0545,5.34183 7.59961,12.49353 7.59961,19.66406 0,7.17054 -2.54511,14.32224 -7.59961,19.66406 -5.05451,5.34183 -12.61476,8.9375 -22.94336,8.9375 h -41.22266 z"
       id="path11675" />
    <path
       style="color:#000000;fill:#b3b3b3;fill-rule:evenodd;-inkscape-stroke:none"
       d="m 886,657.8418 v 99.27343 h 17.39844 v -3 H 889 V 660.8418 h 15.28125 v -3 z"
       id="path11677" />
    <path
       style="color:#000000;fill:#b3b3b3;fill-rule:evenodd;-inkscape-stroke:none"
       d="m 887.47266,703.76953 -47.69532,0.88477 0.0547,2.99804 47.69531,-0.88281 z"
       id="path11679" />
    <path
       style="color:#000000;fill:#b3b3b3;stroke-width:3;-inkscape-stroke:none"
       d="m 891.59622,705.69462 c 0,2.54668 -1.82613,4.61115 -4.07879,4.61115 -2.25262,0 -4.07875,-2.06447 -4.07875,-4.61115 0,-2.54666 1.82613,-4.6111 4.07875,-4.6111 2.25266,0 4.07879,2.06444 4.07879,4.6111 z"
       id="path11681" />
    <path
       style="color:#000000;fill:#b3b3b3;-inkscape-stroke:none"
       d="m 796.71289,758.41016 v 2.42578 62.64648 l 65.07227,-32.53711 z m 3,4.85351 55.36328,27.68164 -55.36328,27.68164 z"
       id="path11683" />
    <path
       style="color:#000000;fill:#b3b3b3;-inkscape-stroke:none"
       d="m 789.79297,782.9082 c -4.9678,0 -9.02735,4.05955 -9.02735,9.02735 0,4.96778 4.05955,9.02734 9.02735,9.02734 4.9678,0 9.02734,-4.05955 9.02734,-9.02734 0,-4.9678 -4.05954,-9.02735 -9.02734,-9.02735 z m 0,3 c 3.34648,0 6.02734,2.68087 6.02734,6.02735 0,3.34646 -2.68086,6.02734 -6.02734,6.02734 -3.34647,0 -6.02735,-2.68088 -6.02735,-6.02734 0,-3.34648 2.68088,-6.02735 6.02735,-6.02735 z"
       id="path11685" />
    <path
       style="color:#000000;fill:#b3b3b3;-inkscape-stroke:none"
       d="m 581.62891,625.77539 -3,0.004 0.26953,166.66601 H 783.1582 v -3 H 581.89258 Z"
       id="path11687" />
    <path
       style="color:#000000;fill:#b3b3b3;-inkscape-stroke:none"
       d="m 858.43164,789.44531 v 3 h 45.16211 v -3 z"
       id="path11689" />
    <path
       style="color:#000000;fill:#b3b3b3;-inkscape-stroke:none"
       d="m 658.04297,655.06836 v 2.42773 62.64453 l 65.07226,-32.53515 z m 3,4.85547 55.36328,27.68164 -55.36328,27.68164 z"
       id="path11691" />
    <path
       style="color:#000000;fill:#b3b3b3;-inkscape-stroke:none"
       d="m 651.12305,679.56836 c -4.96779,0 -9.02735,4.05955 -9.02735,9.02734 0,4.9678 4.05956,9.02539 9.02735,9.02539 4.96783,0 9.02734,-4.05759 9.02734,-9.02539 0,-4.96778 -4.05951,-9.02734 -9.02734,-9.02734 z m 0,3 c 3.34652,0 6.02734,2.68088 6.02734,6.02734 0,3.34648 -2.68082,6.02539 -6.02734,6.02539 -3.34646,0 -6.02735,-2.67891 -6.02735,-6.02539 0,-3.34646 2.68089,-6.02734 6.02735,-6.02734 z"
       id="path11693" />
    <path
       style="color:#000000;fill:#b3b3b3;-inkscape-stroke:none"
       d="m 535.55859,686.10547 v 3 h 108.92969 v -3 z"
       id="path11695" />
    <path
       style="color:#000000;fill:#b3b3b3;-inkscape-stroke:none"
       d="m 719.75977,686.10547 v 3 h 45.16406 v -3 z"
       id="path11697" />
    <path
       style="color:#000000;fill:#b3b3b3;-inkscape-stroke:none"
       d="m 616.07422,686.71094 -3,0.0215 0.27148,40.19141 h 150.29883 v -3 H 616.32422 Z"
       id="path11699" />
    <path
       style="color:#000000;fill:#b3b3b3;stroke-width:3;-inkscape-stroke:none"
       d="m 618.67134,688.02958 c 0,2.54668 -1.82613,4.61115 -4.07879,4.61115 -2.25262,0 -4.07875,-2.06447 -4.07875,-4.61115 0,-2.54666 1.82613,-4.6111 4.07875,-4.6111 2.25266,0 4.07879,2.06444 4.07879,4.6111 z"
       id="path11701" />
    <path
       style="color:#000000;fill:#b3b3b3;stroke-width:3;-inkscape-stroke:none"
       d="m 584.22452,626.20196 c 0,2.54668 -1.82613,4.61114 -4.07879,4.61114 -2.25262,0 -4.07875,-2.06446 -4.07875,-4.61114 0,-2.54666 1.82613,-4.61111 4.07875,-4.61111 2.25266,0 4.07879,2.06445 4.07879,4.61111 z"
       id="path11703" />
    <g
       aria-label="Data"
       id="text3887"
       style="font-size:40px;letter-spacing:0px;word-spacing:0px;fill:#b3b3b3;stroke-width:1.87668px"
       transform="translate(0,-10)">
      <path
         style="color:#000000;-inkscape-font-specification:'Comic Sans MS';fill:#b3b3b3;-inkscape-stroke:none"
         d="m 457.92078,644.05707 q -3.02735,2.07031 -8.69141,2.07031 -1.42578,0 -3.26172,-0.44922 -2.20703,-0.52734 -3.32031,-1.36719 h -0.19531 q -0.83985,0 -1.40625,-0.58593 -0.56641,-0.58594 -0.56641,-1.42578 0,-2.05079 0.17578,-6.13282 0.19531,-4.10156 0.19531,-6.15234 0,-2.28516 -0.0976,-6.81641 -0.0781,-4.55078 -0.0781,-6.83593 0,-0.80079 0.82032,-1.67969 0.82031,-0.87891 1.64062,-0.87891 0.46875,0 3.125,1.3086 3.00781,1.46484 3.47656,1.62109 5.54688,1.89453 9.45313,5.82031 4.58984,4.62891 4.58984,10.17578 0,3.33985 -1.58203,6.40625 -1.5625,3.06641 -4.27734,4.92188 z m -4.10157,-20.66406 q -1.99218,-1.3086 -9.19921,-4.49219 l 0.0976,5.625 0.0586,5.60547 -0.3125,10.66406 q 0.13671,0.0586 0.41015,0.25391 1.71875,1.15234 4.33594,1.15234 4.45312,0 6.48437,-1.36719 1.89454,-1.28906 3.00782,-3.45703 1.13281,-2.1875 1.13281,-4.55078 0,-5.50781 -6.01563,-9.43359 z"
         id="path10083" />
      <path
         style="color:#000000;-inkscape-font-specification:'Comic Sans MS';fill:#b3b3b3;-inkscape-stroke:none"
         d="m 483.74109,645.48285 q -0.37109,0 -1.34766,-0.85938 -0.8789,-0.80078 -1.30859,-1.42578 -1.875,1.01563 -3.30078,1.52344 -1.42578,0.52734 -2.38281,0.52734 -4.57032,0 -6.66016,-2.57812 -1.97266,-2.42188 -1.97266,-7.42188 0,-4.72656 3.24219,-8.08593 3.26172,-3.35938 7.77344,-3.35938 1.69922,0 3.80859,0.87891 2.65625,1.09375 2.65625,2.63672 0,0.52734 -0.39062,0.9375 -0.19532,0.74218 -0.3125,2.4414 -0.0977,1.69922 -0.11719,4.35547 -0.0195,2.42188 0.33203,3.82813 0.19531,0.85937 1.23047,3.4375 0.13672,0.35156 0.44922,1.03515 l 0.11719,0.33203 q 0,0.78125 -0.54688,1.28907 -0.54687,0.50781 -1.26953,0.50781 z m -4.0625,-13.57422 q 0,-0.83984 0.0977,-1.81641 0.11718,-0.99609 0.33203,-2.10937 -0.72266,-0.37109 -1.25,-0.54688 -0.50782,-0.17578 -0.82032,-0.17578 -3.02734,0 -5.23437,2.48047 -2.1875,2.46094 -2.1875,5.6836 0,3.20312 1.13281,4.80468 1.13281,1.60157 3.39844,1.60157 1.875,0 3.18359,-0.6836 0.70313,-0.37109 1.97266,-1.48437 -0.625,-5.17578 -0.625,-7.75391 z"
         id="path10085" />
      <path
         style="color:#000000;-inkscape-font-specification:'Comic Sans MS';fill:#b3b3b3;-inkscape-stroke:none"
         d="m 502.02234,627.55316 q -0.41016,0 -0.97656,-0.0391 -0.54688,-0.0391 -0.95703,-0.0391 -0.44922,0 -2.65625,0.29297 l 0.37109,11.54296 0.0195,0.85938 0.0195,0.99609 q 0.0781,4.27735 -2.05078,4.27735 -0.78125,0 -1.36719,-0.50782 -0.5664,-0.50781 -0.5664,-1.26953 0,-0.74218 0.0586,-2.22656 0.0586,-1.48437 0.0586,-2.22656 l -0.39062,-11.40625 q -1.42578,-0.0586 -4.33594,-0.33203 -1.73828,-0.23438 -1.73828,-1.9336 0,-0.85937 0.52734,-1.42578 0.52735,-0.5664 1.34766,-0.5664 l 4.10156,0.33203 q 0,-0.9961 -0.0977,-2.65625 -0.0781,-1.67969 -0.0781,-2.42188 0,-0.82031 0.56641,-1.34765 0.5664,-0.54688 1.38672,-0.54688 1.75781,0 2.05078,2.87109 0.0586,0.72266 0.0586,1.73829 l -0.0391,1.13281 -0.0195,1.21094 q 2.42187,-0.3125 2.77344,-0.3125 2.03125,0 2.65625,0.19531 1.1914,0.39062 1.1914,1.83594 0,0.85937 -0.54687,1.42578 -0.52735,0.54687 -1.36719,0.54687 z"
         id="path10087" />
      <path
         style="color:#000000;-inkscape-font-specification:'Comic Sans MS';fill:#b3b3b3;-inkscape-stroke:none"
         d="m 523.0575,645.48285 q -0.3711,0 -1.34766,-0.85938 -0.87891,-0.80078 -1.30859,-1.42578 -1.875,1.01563 -3.30079,1.52344 -1.42578,0.52734 -2.38281,0.52734 -4.57031,0 -6.66015,-2.57812 -1.97266,-2.42188 -1.97266,-7.42188 0,-4.72656 3.24219,-8.08593 3.26172,-3.35938 7.77343,-3.35938 1.69922,0 3.8086,0.87891 2.65625,1.09375 2.65625,2.63672 0,0.52734 -0.39063,0.9375 -0.19531,0.74218 -0.3125,2.4414 -0.0976,1.69922 -0.11718,4.35547 -0.0195,2.42188 0.33203,3.82813 0.19531,0.85937 1.23047,3.4375 0.13671,0.35156 0.44921,1.03515 l 0.11719,0.33203 q 0,0.78125 -0.54687,1.28907 -0.54688,0.50781 -1.26953,0.50781 z m -4.0625,-13.57422 q 0,-0.83984 0.0977,-1.81641 0.11719,-0.99609 0.33203,-2.10937 -0.72265,-0.37109 -1.25,-0.54688 -0.50781,-0.17578 -0.82031,-0.17578 -3.02734,0 -5.23437,2.48047 -2.1875,2.46094 -2.1875,5.6836 0,3.20312 1.13281,4.80468 1.13281,1.60157 3.39844,1.60157 1.875,0 3.18359,-0.6836 0.70312,-0.37109 1.97266,-1.48437 -0.625,-5.17578 -0.625,-7.75391 z"
         id="path10089" />
    </g>
    <g
       aria-label="Clock"
       id="text3891"
       style="font-size:40px;letter-spacing:0px;word-spacing:0px;fill:#b3b3b3;stroke-width:1.87668px"
       transform="translate(0,-10)">
      <path
         style="color:#000000;-inkscape-font-specification:'Comic Sans MS';fill:#b3b3b3;-inkscape-stroke:none"
         d="m 434.40128,685.87384 q -1.25,0 -1.875,-1.46484 -0.54688,-1.25 -1.01563,-1.52344 -0.41016,-0.21484 -2.03125,-0.21484 -2.83203,0 -6.28906,4.33593 -4.6875,5.82032 -4.6875,11.03516 0,2.51953 1.62109,4.33594 1.66016,1.875 4.00391,1.875 2.01172,0 4.04297,-1.03516 1.13281,-0.58594 3.47656,-2.30469 1.11328,-0.82031 1.67969,-0.82031 0.83984,0 1.40625,0.64453 0.5664,0.625 0.5664,1.40625 0,0.87891 -0.74218,1.54297 -5.15625,4.57031 -10.42969,4.57031 -4.04297,0 -6.83594,-3.10547 -2.69531,-3.00781 -2.69531,-7.10937 0,-6.62109 5.54687,-13.57422 4.62891,-5.80078 9.33594,-5.80078 0.95703,0 1.71875,0.0977 0.76172,0.0781 1.34766,0.27343 0.68359,-0.99609 1.77734,-0.99609 1.34766,0 1.69922,1.77734 0.3125,1.58203 0.3125,3.88672 0,0.80078 -0.42969,1.40625 -0.52734,0.76172 -1.5039,0.76172 z"
         id="path10072" />
      <path
         style="color:#000000;-inkscape-font-specification:'Comic Sans MS';fill:#b3b3b3;-inkscape-stroke:none"
         d="m 444.61612,692.43634 -0.29297,9.70703 q 0,1.54297 -0.15625,4.53125 -0.19531,1.95313 -1.91406,1.95313 -1.91406,0 -1.91406,-1.99219 0,-2.36328 0.21484,-7.08984 0.21484,-4.7461 0.21484,-7.10938 0,-3.08594 0.0977,-7.05078 0.0977,-3.98438 0.0977,-7.07031 0,-1.95313 1.91406,-1.95313 1.93359,0 1.93359,1.95313 0,3.08593 -0.0976,7.07031 -0.0977,3.96484 -0.0977,7.05078 z"
         id="path10074" />
      <path
         style="color:#000000;-inkscape-font-specification:'Comic Sans MS';fill:#b3b3b3;-inkscape-stroke:none"
         d="m 457.93643,708.94025 q -3.28125,0 -5.64453,-2.42188 -2.63672,-2.69531 -2.77344,-7.24609 -0.11718,-4.41406 2.22657,-7.77344 2.73437,-3.96484 7.61718,-3.96484 3.90625,0 5.91797,3.57422 1.60156,2.89062 1.54297,6.95312 -0.0586,4.33594 -2.26562,7.40234 -2.5,3.47657 -6.6211,3.47657 z m 1.17188,-17.44141 q -2.8711,-0.0195 -4.47266,2.73438 -1.26953,2.20703 -1.26953,5.03906 0,2.83203 1.54297,4.41406 1.28906,1.30859 3.02734,1.30859 2.03125,0 3.4961,-1.48437 1.66015,-1.64063 1.75781,-4.43359 0.27344,-7.5586 -4.08203,-7.57813 z"
         id="path10076" />
      <path
         style="color:#000000;-inkscape-font-specification:'Comic Sans MS';fill:#b3b3b3;-inkscape-stroke:none"
         d="m 480.47549,709.01837 q -4.0039,0 -6.67968,-2.42187 -2.8125,-2.53907 -2.8125,-6.69922 0,-3.96485 2.63672,-8.1836 2.92968,-4.6875 6.60156,-4.6875 1.91406,0 4.27734,0.89844 2.98828,1.15235 2.98828,2.8125 0,0.74219 -0.48828,1.32813 -0.48828,0.5664 -1.21094,0.5664 -0.5664,0 -0.99609,-0.33203 -0.41016,-0.35156 -0.80078,-0.68359 -1.15234,-0.91797 -3.76953,-0.91797 -1.99219,0 -3.94531,3.55469 -1.77735,3.26172 -1.77735,5.64453 0,2.57812 1.75781,4.0625 1.64063,1.38672 4.21875,1.38672 1.17188,0 2.5,-0.625 l 2.26563,-1.21094 q 0.58594,-0.3125 0.83984,-0.3125 0.72266,0 1.25,0.58594 0.52735,0.5664 0.52735,1.30859 0,1.42578 -3.00782,2.75391 -2.63671,1.17187 -4.375,1.17187 z"
         id="path10078" />
      <path
         style="color:#000000;-inkscape-font-specification:'Comic Sans MS';fill:#b3b3b3;-inkscape-stroke:none"
         d="m 508.46378,708.58868 q -1.07422,0 -1.66016,-1.13281 -1.01563,-1.97265 -3.06641,-4.66797 l -3.45703,-4.70703 q -1.13281,0.89844 -3.51562,2.51953 -0.21485,3.02735 -0.21485,5.89844 0,0.87891 -0.54687,1.42578 -0.52735,0.54688 -1.36719,0.54688 -1.97266,0 -1.97266,-2.65625 0,-1.6211 0.21485,-4.84375 0.23437,-3.24219 0.23437,-4.86328 0,-2.96875 0.0781,-6.77735 0.0976,-3.82812 0.0976,-6.75781 0,-0.87891 -0.0976,-2.07031 -0.0781,-1.19141 -0.0781,-2.07032 0,-0.8789 0.52735,-1.42578 0.54687,-0.54687 1.38672,-0.54687 0.83984,0 1.36718,0.54687 0.54688,0.54688 0.54688,1.42578 0,0.89844 0.0976,2.12891 0.0977,1.21094 0.0977,2.10938 l -0.13672,6.28906 q -0.0976,3.39844 -0.0586,6.79687 2.65625,-2.03125 5.11719,-4.45312 l 4.29687,-4.4336 q 0.64453,-0.66406 1.38672,-0.66406 0.76172,0 1.36719,0.60547 0.625,0.60547 0.625,1.40625 0,0.66406 -0.56641,1.30859 -2.40234,2.8125 -5.91797,6.03516 l 4.25781,5.80078 q 2.98829,4.08203 2.98829,5.3125 0,0.78125 -0.625,1.34766 -0.60547,0.5664 -1.40625,0.5664 z"
         id="path10080" />
    </g>
    <path
       style="color:#000000;fill:#b3b3b3;fill-rule:evenodd;-inkscape-stroke:none"
       d="m 524.99805,671.53125 v 22.08203 h -9.98243 v 3 h 12.98243 v -22.08203 h 8.21679 v -3 z"
       id="path11716" />
    <path
       style="color:#000000;fill:#b3b3b3;fill-rule:evenodd;-inkscape-stroke:none"
       d="m 526.36328,675.72852 -4.69531,7.89843 2.57812,1.53321 2.17383,-3.65625 2.28906,3.68164 2.54883,-1.58399 z"
       id="path11718" />
    <path
       style="color:#000000;fill:#b3b3b3;-inkscape-stroke:none"
       d="m 1007.1035,250.70898 1.1699,2.20508 c 0,0 16.2612,30.65758 0,61.25977 l -1.1699,2.20312 h 35.7949 c 8.3251,0 20.9899,0.0178 33.75,-3.98437 12.7601,-4.00222 25.6563,-12.1116 34.1758,-28.14453 l 0.3731,-0.70508 -0.3731,-0.70313 c -8.5195,-16.03292 -21.4157,-24.14232 -34.1758,-28.14453 -12.7601,-4.00221 -25.4249,-3.98633 -33.75,-3.98633 z m 4.7793,3 h 31.0156 c 8.3251,0 20.6364,0.0164 32.8516,3.84766 12.0153,3.76859 23.8783,11.18391 32.002,25.98633 -8.1237,14.80344 -19.9863,22.21761 -32.002,25.98633 -12.2152,3.83129 -24.5265,3.84765 -32.8516,3.84765 h -30.9433 c 13.5936,-28.10264 2.4701,-54.32856 -0.072,-59.66797 z"
       id="path11720" />
    <path
       style="color:#000000;fill:#b3b3b3;-inkscape-stroke:none"
       d="m 916.28516,263.27734 v 3 h 81.25 v -3 z"
       id="path11722" />
    <path
       style="color:#000000;fill:#b3b3b3;-inkscape-stroke:none"
       d="m 1005.4492,254.92578 c -5.137,0 -9.33201,4.19507 -9.33201,9.33203 0,5.13699 4.19501,9.33399 9.33201,9.33399 5.137,0 9.334,-4.197 9.334,-9.33399 0,-5.13696 -4.197,-9.33203 -9.334,-9.33203 z m 0,3 c 3.5157,0 6.334,2.81636 6.334,6.33203 0,3.51572 -2.8183,6.33399 -6.334,6.33399 -3.5157,0 -6.33201,-2.81827 -6.33201,-6.33399 0,-3.51567 2.81631,-6.33203 6.33201,-6.33203 z"
       id="path11724" />
    <path
       style="color:#000000;fill:#b3b3b3;-inkscape-stroke:none"
       d="m 1110.1523,282.04297 v 3 h 91.3887 v -3 z"
       id="path11726" />
    <path
       style="color:#000000;fill:#b3b3b3;-inkscape-stroke:none"
       d="m 1007.1035,363.31055 1.1699,2.20312 c 0,0 16.2612,30.65953 0,61.26172 l -1.1699,2.20313 h 35.7949 c 8.3251,0 20.9899,0.0178 33.75,-3.98438 12.7601,-4.00221 25.6563,-12.11355 34.1758,-28.14648 l 0.3731,-0.70313 -0.3731,-0.70312 c -8.5195,-16.03293 -21.4157,-24.14232 -34.1758,-28.14454 -12.7601,-4.00221 -25.4249,-3.98632 -33.75,-3.98632 z m 4.7793,3 h 31.0156 c 8.3251,0 20.6364,0.0164 32.8516,3.84765 12.0157,3.76872 23.8783,11.1829 32.002,25.98633 -8.1237,14.80344 -19.9863,22.21761 -32.002,25.98633 -12.2152,3.83129 -24.5265,3.84766 -32.8516,3.84766 h -30.9453 c 13.5954,-28.10347 2.4722,-54.32841 -0.07,-59.66797 z"
       id="path11728" />
    <path
       style="color:#000000;fill:#b3b3b3;-inkscape-stroke:none"
       d="m 915.26367,410.60156 v 3 h 84.06836 v -3 z"
       id="path11730" />
    <path
       style="color:#000000;fill:#b3b3b3;-inkscape-stroke:none"
       d="m 1006.332,368.85156 c -5.1369,0 -9.332,4.19702 -9.332,9.33399 0,5.137 4.1951,9.33203 9.332,9.33203 5.1372,0 9.334,-4.19502 9.334,-9.33203 0,-5.13698 -4.1969,-9.33399 -9.334,-9.33399 z m 0,3 c 3.5159,0 6.334,2.81834 6.334,6.33399 0,3.51569 -2.8181,6.33203 -6.334,6.33203 -3.5156,0 -6.332,-2.81632 -6.332,-6.33203 0,-3.51567 2.8164,-6.33399 6.332,-6.33399 z"
       id="path11732" />
    <path
       style="color:#000000;fill:#b3b3b3;-inkscape-stroke:none"
       d="m 1110.1523,394.64453 v 3 h 91.3887 v -3 z"
       id="path11734" />
    <path
       style="color:#000000;fill:#b3b3b3;-inkscape-stroke:none"
       d="m 952.31836,302.31055 v 20.01953 l 206.43554,37.5332 v 36.28125 h 3 v -38.78516 l -206.43554,-37.5332 v -17.51562 z"
       id="path11736" />
    <path
       style="color:#000000;fill:#b3b3b3;-inkscape-stroke:none"
       d="m 1158.7539,283.54297 v 36.2832 l -206.43554,37.5332 v 20.01758 h 3 v -17.51367 l 206.43554,-37.5332 v -38.78711 z"
       id="path11738" />
    <path
       style="color:#000000;fill:#b3b3b3;stroke-width:3;-inkscape-stroke:none"
       d="m 1164.3778,284.09959 c 0,2.25343 -1.8268,4.08015 -4.0803,4.08015 -2.2533,0 -4.0801,-1.82672 -4.0801,-4.08015 0,-2.25339 1.8268,-4.08012 4.0801,-4.08012 2.2535,0 4.0803,1.82673 4.0803,4.08012 z"
       id="path11740" />
    <path
       style="color:#000000;fill:#b3b3b3;stroke-width:3;-inkscape-stroke:none"
       d="m 1164.3778,396.70064 c 0,2.25342 -1.8268,4.08015 -4.0803,4.08015 -2.2533,0 -4.0801,-1.82673 -4.0801,-4.08015 0,-2.25339 1.8268,-4.08012 4.0801,-4.08012 2.2535,0 4.0803,1.82673 4.0803,4.08012 z"
       id="path11742" />
    <path
       style="color:#000000;fill:#b3b3b3;-inkscape-stroke:none"
       d="m 953.81836,375.87695 v 3 h 45.02148 v -3 z"
       id="path11744" />
    <path
       style="color:#000000;fill:#b3b3b3;-inkscape-stroke:none"
       d="m 953.81836,300.81055 v 3 h 43.52734 v -3 z"
       id="path11746" />
    <path
       style="color:#000000;fill:#b3b3b3;-inkscape-stroke:none"
       d="m 1005.4492,292.45898 c -5.137,0 -9.33201,4.19703 -9.33201,9.33399 0,5.13699 4.19501,9.33203 9.33201,9.33203 5.137,0 9.334,-4.19504 9.334,-9.33203 0,-5.13696 -4.197,-9.33399 -9.334,-9.33399 z m 0,3 c 3.5157,0 6.334,2.81832 6.334,6.33399 0,3.51572 -2.8183,6.33203 -6.334,6.33203 -3.5157,0 -6.33201,-2.81631 -6.33201,-6.33203 0,-3.51567 2.81631,-6.33399 6.33201,-6.33399 z"
       id="path11748" />
    <path
       style="color:#000000;fill:#b3b3b3;-inkscape-stroke:none"
       d="m 1006.332,402.63086 c -5.1369,0 -9.332,4.19702 -9.332,9.33398 0,5.137 4.1951,9.33399 9.332,9.33399 5.1372,0 9.334,-4.19698 9.334,-9.33399 0,-5.13698 -4.1969,-9.33398 -9.334,-9.33398 z m 0,3 c 3.5159,0 6.334,2.81833 6.334,6.33398 0,3.51569 -2.8181,6.33399 -6.334,6.33399 -3.5156,0 -6.332,-2.81829 -6.332,-6.33399 0,-3.51566 2.8164,-6.33398 6.332,-6.33398 z"
       id="path11750" />
    <g
       aria-label="Q"
       id="text3943"
       style="font-size:40px;letter-spacing:0px;word-spacing:0px;stroke-width:1.87668px;fill:#b3b3b3">
      <path
         style="color:#000000;-inkscape-font-specification:'Comic Sans MS';fill:#b3b3b3;-inkscape-stroke:none"
         d="m 1238.663,306.85144 q -0.8594,0 -4.6289,-3.33984 l -4.668,-4.27735 q -3.3008,1.32813 -6.543,1.32813 -5.8789,0 -10.3515,-4.6875 -4.4532,-4.6875 -4.4532,-10.60547 0,-6.97266 5.1953,-11.83594 5.0782,-4.72656 12.0118,-4.72656 7.3047,0 11.0742,5.46875 3.2031,4.6875 3.2031,12.12891 0,6.46484 -6.3281,10.8789 l 4.2578,3.92578 2.5195,2.14844 q 0.7422,0.70313 0.7422,1.52344 0,0.80078 -0.6055,1.42578 -0.5859,0.64453 -1.4257,0.64453 z m -13.4375,-34.10156 q -5.3516,0 -9.2188,3.57422 -3.9844,3.67187 -3.9844,8.94531 0,4.27734 3.3008,7.73437 3.3203,3.51563 7.5,3.51563 1.3477,0 2.7735,-0.33203 -3.7696,-3.28125 -3.7696,-5.17578 0,-0.85938 0.625,-1.42578 0.6446,-0.56641 1.4258,-0.56641 0.9375,0 1.6602,0.9375 1.9336,2.51953 4.375,4.51172 5.5664,-3.24219 5.5664,-8.16406 0,-5.80079 -2.3633,-9.41407 -2.6953,-4.14062 -7.8906,-4.14062 z"
         id="path10069" />
    </g>
    <g
       aria-label="Q"
       id="text3947"
       style="font-size:40px;letter-spacing:0px;word-spacing:0px;stroke-width:1.87668px;fill:#b3b3b3">
      <path
         style="color:#000000;-inkscape-font-specification:'Comic Sans MS';fill:#b3b3b3;-inkscape-stroke:none"
         d="m 1238.1648,420.52017 q -0.8594,0 -4.6289,-3.33984 l -4.668,-4.27735 q -3.3008,1.32813 -6.5429,1.32813 -5.879,0 -10.3516,-4.6875 -4.4531,-4.6875 -4.4531,-10.60547 0,-6.97266 5.1953,-11.83594 5.0781,-4.72656 12.0117,-4.72656 7.3047,0 11.0742,5.46875 3.2031,4.6875 3.2031,12.12891 0,6.46484 -6.3281,10.8789 l 4.2578,3.92578 2.5196,2.14844 q 0.7421,0.70313 0.7421,1.52344 0,0.80078 -0.6054,1.42578 -0.586,0.64453 -1.4258,0.64453 z m -13.4375,-34.10156 q -5.3516,0 -9.2188,3.57422 -3.9843,3.67187 -3.9843,8.94531 0,4.27734 3.3008,7.73438 3.3203,3.51562 7.5,3.51562 1.3476,0 2.7734,-0.33203 -3.7695,-3.28125 -3.7695,-5.17578 0,-0.85938 0.625,-1.42578 0.6445,-0.56641 1.4257,-0.56641 0.9375,0 1.6602,0.9375 1.9336,2.51953 4.375,4.51172 5.5664,-3.24219 5.5664,-8.16406 0,-5.80078 -2.3633,-9.41407 -2.6953,-4.14062 -7.8906,-4.14062 z"
         id="path10066" />
    </g>
    <path
       style="color:#000000;fill:#b3b3b3;-inkscape-stroke:none"
       d="m 1211.7773,373.66016 v 3 h 24.9493 v -3 z"
       id="path11756" />
    <path
       style="color:#000000;fill:#b3b3b3;-inkscape-stroke:none"
       d="m 823.63086,231.9082 v 1.5 61.70313 h 44.22461 c 11.03316,0 19.49471,-3.93074 25.12109,-9.87696 5.62638,-5.94621 8.42188,-13.84441 8.42188,-21.7246 0,-7.8802 -2.7955,-15.78035 -8.42188,-21.72657 -5.62638,-5.94621 -14.08793,-9.875 -25.12109,-9.875 z m 3,3 h 41.22461 c 10.3286,0 17.8869,3.59567 22.9414,8.9375 5.05451,5.34183 7.60157,12.49353 7.60157,19.66407 0,7.17053 -2.54706,14.32223 -7.60157,19.66406 -5.0545,5.34183 -12.6128,8.9375 -22.9414,8.9375 h -41.22461 z"
       id="path11758" />
    <path
       style="color:#000000;fill:#b3b3b3;-inkscape-stroke:none"
       d="m 908.61133,255.47266 c -4.9668,0 -9.02539,4.05858 -9.02539,9.02539 0,4.9668 4.05859,9.02539 9.02539,9.02539 4.96678,0 9.02539,-4.05859 9.02539,-9.02539 0,-4.96681 -4.05861,-9.02539 -9.02539,-9.02539 z m 0,3 c 3.34543,0 6.02539,2.67992 6.02539,6.02539 0,3.34547 -2.67996,6.02539 -6.02539,6.02539 -3.34547,0 -6.02539,-2.67992 -6.02539,-6.02539 0,-3.34547 2.67992,-6.02539 6.02539,-6.02539 z"
       id="path11760" />
    <path
       style="color:#000000;fill:#b3b3b3;-inkscape-stroke:none"
       d="m 823.63086,379.44727 v 1.5 61.70312 h 44.22461 c 11.03316,0 19.49471,-3.92878 25.12109,-9.875 5.62638,-5.94621 8.42188,-13.84637 8.42188,-21.72656 0,-7.88019 -2.7955,-15.7784 -8.42188,-21.72461 -5.62638,-5.94622 -14.08793,-9.87695 -25.12109,-9.87695 z m 3,3 h 41.22461 c 10.3286,0 17.8869,3.59567 22.9414,8.9375 5.05451,5.34182 7.60157,12.49352 7.60157,19.66406 0,7.17053 -2.54706,14.32223 -7.60157,19.66406 -5.0545,5.34183 -12.6128,8.9375 -22.9414,8.9375 h -41.22461 z"
       id="path11762" />
    <path
       style="color:#000000;fill:#b3b3b3;-inkscape-stroke:none"
       d="m 908.61133,403.01367 c -4.9668,0 -9.02539,4.05859 -9.02539,9.02539 0,4.96681 4.05859,9.02539 9.02539,9.02539 4.96677,0 9.02539,-4.05858 9.02539,-9.02539 0,-4.9668 -4.05861,-9.02539 -9.02539,-9.02539 z m 0,3 c 3.34543,0 6.02539,2.67992 6.02539,6.02539 0,3.34548 -2.67996,6.02539 -6.02539,6.02539 -3.34547,0 -6.02539,-2.67991 -6.02539,-6.02539 0,-3.34547 2.67992,-6.02539 6.02539,-6.02539 z"
       id="path11764" />
    <path
       style="color:#000000;fill:#b3b3b3;fill-rule:evenodd;-inkscape-stroke:none"
       d="m 806.51367,277.26367 v 118.04102 h 17.39844 v -3 H 809.51367 V 280.26367 h 15.28125 v -3 z"
       id="path11766" />
    <path
       style="color:#000000;fill:#b3b3b3;stroke-width:3;-inkscape-stroke:none"
       d="m 812.1099,335.32693 c 0,2.54668 -1.82613,4.61114 -4.07879,4.61114 -2.25262,0 -4.07875,-2.06446 -4.07875,-4.61114 0,-2.54666 1.82613,-4.61111 4.07875,-4.61111 2.25266,0 4.07879,2.06445 4.07879,4.61111 z"
       id="path11768" />
    <path
       style="color:#000000;fill:#b3b3b3;-inkscape-stroke:none"
       d="m 726.6582,394.88672 v 2.42773 62.64453 l 65.07227,-32.53515 z m 3,4.85547 55.36328,27.68164 -55.36328,27.68164 z"
       id="path11770" />
    <path
       style="color:#000000;fill:#b3b3b3;-inkscape-stroke:none"
       d="m 719.73828,419.38672 c -4.9678,0 -9.02734,4.05955 -9.02734,9.02734 0,4.96779 4.05954,9.02539 9.02734,9.02539 4.96782,0 9.02734,-4.0576 9.02734,-9.02539 0,-4.96779 -4.05952,-9.02734 -9.02734,-9.02734 z m 0,3 c 3.3465,0 6.02734,2.68087 6.02734,6.02734 0,3.34647 -2.68084,6.02539 -6.02734,6.02539 -3.34647,0 -6.02734,-2.67892 -6.02734,-6.02539 0,-3.34647 2.68087,-6.02734 6.02734,-6.02734 z"
       id="path11772" />
    <path
       style="color:#000000;fill:#b3b3b3;-inkscape-stroke:none"
       d="m 788.63867,426.00391 v 3 h 35.27539 v -3 z"
       id="path11774" />
    <path
       style="color:#000000;fill:#b3b3b3;-inkscape-stroke:none"
       d="m 626.22266,245.30664 v 3 h 197.60546 v -3 z"
       id="path11776" />
    <path
       style="color:#000000;fill:#b3b3b3;-inkscape-stroke:none"
       d="m 627.02148,333.44336 v 3 h 178.83594 v -3 z"
       id="path11778" />
    <path
       style="color:#000000;fill:#b3b3b3;-inkscape-stroke:none"
       d="m 677.74805,246.29102 0.0469,183.42382 H 711.75 v -3 h -30.95508 l -0.0469,-180.42382 z"
       id="path11780" />
    <path
       style="color:#000000;fill:#b3b3b3;stroke-width:3;-inkscape-stroke:none"
       d="m 682.89946,247.19 c 0,2.54667 -1.82612,4.61114 -4.07878,4.61114 -2.25263,0 -4.07875,-2.06447 -4.07875,-4.61114 0,-2.54666 1.82612,-4.61111 4.07875,-4.61111 2.25266,0 4.07878,2.06445 4.07878,4.61111 z"
       id="path11782" />
    <g
       aria-label="Data"
       id="text3983"
       style="font-size:40px;letter-spacing:0px;word-spacing:0px;stroke-width:1.87668px;fill:#b3b3b3">
      <path
         style="color:#000000;-inkscape-font-specification:'Comic Sans MS';fill:#b3b3b3;-inkscape-stroke:none"
         d="m 546.35388,256.50934 q -3.02734,2.07031 -8.6914,2.07031 -1.42579,0 -3.26172,-0.44922 -2.20703,-0.52734 -3.32032,-1.36719 h -0.19531 q -0.83984,0 -1.40625,-0.58593 -0.5664,-0.58594 -0.5664,-1.42578 0,-2.05079 0.17578,-6.13282 0.19531,-4.10156 0.19531,-6.15234 0,-2.28516 -0.0977,-6.81641 -0.0781,-4.55078 -0.0781,-6.83593 0,-0.80079 0.82031,-1.67969 0.82031,-0.87891 1.64063,-0.87891 0.46875,0 3.125,1.3086 3.00781,1.46484 3.47656,1.62109 5.54687,1.89453 9.45312,5.82031 4.58985,4.62891 4.58985,10.17578 0,3.33985 -1.58203,6.40625 -1.5625,3.06641 -4.27735,4.92188 z m -4.10156,-20.66406 q -1.99219,-1.3086 -9.19922,-4.49219 l 0.0977,5.625 0.0586,5.60547 -0.3125,10.66406 q 0.13672,0.0586 0.41016,0.25391 1.71875,1.15234 4.33593,1.15234 4.45313,0 6.48438,-1.36719 1.89453,-1.28906 3.00781,-3.45703 1.13281,-2.1875 1.13281,-4.55078 0,-5.50781 -6.01562,-9.43359 z"
         id="path10057" />
      <path
         style="color:#000000;-inkscape-font-specification:'Comic Sans MS';fill:#b3b3b3;-inkscape-stroke:none"
         d="m 572.17419,257.93512 q -0.37109,0 -1.34765,-0.85938 -0.87891,-0.80078 -1.3086,-1.42578 -1.875,1.01563 -3.30078,1.52344 -1.42578,0.52734 -2.38281,0.52734 -4.57031,0 -6.66016,-2.57812 -1.97265,-2.42188 -1.97265,-7.42188 0,-4.72656 3.24219,-8.08593 3.26171,-3.35938 7.77343,-3.35938 1.69922,0 3.8086,0.87891 2.65625,1.09375 2.65625,2.63672 0,0.52734 -0.39063,0.9375 -0.19531,0.74218 -0.3125,2.4414 -0.0977,1.69922 -0.11719,4.35547 -0.0195,2.42188 0.33204,3.82813 0.19531,0.85937 1.23046,3.4375 0.13672,0.35156 0.44922,1.03515 l 0.11719,0.33203 q 0,0.78125 -0.54687,1.28907 -0.54688,0.50781 -1.26954,0.50781 z m -4.0625,-13.57422 q 0,-0.83984 0.0977,-1.81641 0.11719,-0.99609 0.33203,-2.10937 -0.72265,-0.37109 -1.25,-0.54688 -0.50781,-0.17578 -0.82031,-0.17578 -3.02734,0 -5.23438,2.48047 -2.1875,2.46094 -2.1875,5.6836 0,3.20312 1.13282,4.80468 1.13281,1.60157 3.39843,1.60157 1.875,0 3.1836,-0.6836 0.70312,-0.37109 1.97265,-1.48437 -0.625,-5.17578 -0.625,-7.75391 z"
         id="path10059" />
      <path
         style="color:#000000;-inkscape-font-specification:'Comic Sans MS';fill:#b3b3b3;-inkscape-stroke:none"
         d="m 590.45544,240.00543 q -0.41015,0 -0.97656,-0.0391 -0.54687,-0.0391 -0.95703,-0.0391 -0.44922,0 -2.65625,0.29297 l 0.37109,11.54296 0.0195,0.85938 0.0195,0.99609 q 0.0781,4.27735 -2.05078,4.27735 -0.78125,0 -1.36719,-0.50782 -0.56641,-0.50781 -0.56641,-1.26953 0,-0.74218 0.0586,-2.22656 0.0586,-1.48437 0.0586,-2.22656 l -0.39063,-11.40625 q -1.42578,-0.0586 -4.33593,-0.33203 -1.73828,-0.23438 -1.73828,-1.9336 0,-0.85937 0.52734,-1.42578 0.52734,-0.5664 1.34766,-0.5664 l 4.10156,0.33203 q 0,-0.9961 -0.0977,-2.65625 -0.0781,-1.67969 -0.0781,-2.42188 0,-0.82031 0.5664,-1.34765 0.56641,-0.54688 1.38672,-0.54688 1.75781,0 2.05078,2.87109 0.0586,0.72266 0.0586,1.73829 l -0.0391,1.13281 -0.0195,1.21094 q 2.42188,-0.3125 2.77344,-0.3125 2.03125,0 2.65625,0.19531 1.19141,0.39062 1.19141,1.83594 0,0.85937 -0.54688,1.42578 -0.52734,0.54687 -1.36719,0.54687 z"
         id="path10061" />
      <path
         style="color:#000000;-inkscape-font-specification:'Comic Sans MS';fill:#b3b3b3;-inkscape-stroke:none"
         d="m 611.4906,257.93512 q -0.37109,0 -1.34766,-0.85938 -0.8789,-0.80078 -1.30859,-1.42578 -1.875,1.01563 -3.30078,1.52344 -1.42578,0.52734 -2.38281,0.52734 -4.57032,0 -6.66016,-2.57812 -1.97266,-2.42188 -1.97266,-7.42188 0,-4.72656 3.24219,-8.08593 3.26172,-3.35938 7.77344,-3.35938 1.69922,0 3.80859,0.87891 2.65625,1.09375 2.65625,2.63672 0,0.52734 -0.39062,0.9375 -0.19531,0.74218 -0.3125,2.4414 -0.0977,1.69922 -0.11719,4.35547 -0.0195,2.42188 0.33203,3.82813 0.19531,0.85937 1.23047,3.4375 0.13672,0.35156 0.44922,1.03515 l 0.11719,0.33203 q 0,0.78125 -0.54688,1.28907 -0.54687,0.50781 -1.26953,0.50781 z m -4.0625,-13.57422 q 0,-0.83984 0.0977,-1.81641 0.11718,-0.99609 0.33203,-2.10937 -0.72266,-0.37109 -1.25,-0.54688 -0.50781,-0.17578 -0.82031,-0.17578 -3.02735,0 -5.23438,2.48047 -2.1875,2.46094 -2.1875,5.6836 0,3.20312 1.13281,4.80468 1.13282,1.60157 3.39844,1.60157 1.875,0 3.18359,-0.6836 0.70313,-0.37109 1.97266,-1.48437 -0.625,-5.17578 -0.625,-7.75391 z"
         id="path10063" />
    </g>
    <g
       aria-label="Enable"
       id="text3987"
       style="font-size:40px;letter-spacing:0px;word-spacing:0px;stroke-width:1.87668px;fill:#b3b3b3">
      <path
         style="color:#000000;-inkscape-font-specification:'Comic Sans MS';fill:#b3b3b3;-inkscape-stroke:none"
         d="m 520.13342,318.12906 q -0.27343,0 -0.60547,-0.0977 -3.30078,-0.9375 -6.36718,-0.9375 -1.60157,0 -3.4961,0.29297 -1.89453,0.29297 -4.08203,0.89844 0.17578,1.26953 0.17578,2.03125 0,2.71484 -0.33203,7.46094 l 8.55469,-0.82032 q 3.76953,-0.39062 4.62891,-0.39062 0.85937,0 1.44531,0.54687 0.58594,0.54688 0.58594,1.46485 0,1.77734 -1.79688,1.99219 l -4.64844,0.41015 -9.02343,0.82031 q -0.0781,1.38672 -0.13672,2.63672 -0.0391,1.23047 -0.0391,2.30469 0,4.31641 0.625,5.07813 0.46875,0.54687 3.06641,0.54687 1.21094,0 3.63281,-0.0586 2.44141,-0.0781 3.67188,-0.0781 0.39062,0 1.15234,-0.11719 0.76172,-0.13671 1.13281,-0.13671 2.07032,0 2.07032,2.03125 0,1.64062 -1.66016,1.97265 -1.83594,0.3711 -7.94922,0.3711 -6.05469,0 -7.77344,-1.60157 -1.875,-1.73828 -1.875,-8.00781 0,-1.25 0.0586,-2.73437 0.0586,-1.48438 0.15625,-3.20313 -0.21485,-0.44922 -0.21485,-0.95703 0,-0.66406 0.3711,-1.19141 0.39062,-5.64453 0.39062,-8.33984 0,-0.72266 -0.19531,-2.10938 -0.19531,-1.40625 -0.19531,-2.1289 0,-2.32422 1.95312,-2.32422 0.82032,0 1.40625,0.56641 2.34375,-0.625 4.41407,-0.9375 2.08984,-0.3125 3.92578,-0.3125 4.74609,0 7.57812,1.13281 1.3086,0.52734 1.3086,1.875 0,0.78125 -0.50782,1.38672 -0.5664,0.66406 -1.40625,0.66406 z"
         id="path10044" />
      <path
         style="color:#000000;-inkscape-font-specification:'Comic Sans MS';fill:#b3b3b3;-inkscape-stroke:none"
         d="m 541.03186,345.80484 q -1.67969,0 -1.89453,-1.83594 l -0.54688,-4.27734 q -0.27343,-2.28516 -0.27343,-4.27734 0,-0.54688 0.0586,-1.85547 0.0781,-1.3086 0.0781,-1.85547 0,-4.21875 -1.5625,-4.21875 -2.1875,0 -4.17969,2.59765 -1.79688,2.36329 -2.8125,5.97657 -0.0391,0.76172 -0.17578,1.91406 -0.11719,0.97656 -0.11719,1.89453 0,0.58594 0.11719,1.75781 0.11718,1.17188 0.11718,1.75782 0,0.8789 -0.54687,1.42578 -0.52734,0.54687 -1.36719,0.54687 -0.85937,0 -1.38672,-0.54687 -0.52734,-0.54688 -0.52734,-1.42578 0,-0.58594 -0.13672,-1.75782 -0.11719,-1.17187 -0.11719,-1.75781 0,-2.01172 0.27344,-5.56641 0.29297,-3.57421 0.29297,-5.58593 0,-0.625 -0.0781,-1.85547 -0.0586,-1.23047 -0.0586,-1.85547 0,-0.83984 0.54688,-1.36719 0.5664,-0.54687 1.38671,-0.54687 1.79688,0 1.97266,2.53906 l 0.0586,2.28516 q 3.28125,-4.375 6.73829,-4.375 3.125,0 4.35546,2.7539 0.83985,1.83594 0.91797,5.42969 v 1.97266 l -0.0195,1.8164 q 0,1.6211 0.41016,4.19922 0.42969,2.55859 0.42969,4.16016 0,0.85937 -0.56641,1.38672 -0.54688,0.54687 -1.38672,0.54687 z"
         id="path10046" />
      <path
         style="color:#000000;-inkscape-font-specification:'Comic Sans MS';fill:#b3b3b3;-inkscape-stroke:none"
         d="m 562.2428,345.70718 q -0.3711,0 -1.34766,-0.85937 -0.8789,-0.80078 -1.30859,-1.42578 -1.875,1.01562 -3.30078,1.52344 -1.42578,0.52734 -2.38282,0.52734 -4.57031,0 -6.66015,-2.57813 -1.97266,-2.42187 -1.97266,-7.42187 0,-4.72656 3.24219,-8.08594 3.26172,-3.35937 7.77344,-3.35937 1.69922,0 3.80859,0.8789 2.65625,1.09375 2.65625,2.63672 0,0.52735 -0.39062,0.9375 -0.19532,0.74219 -0.3125,2.44141 -0.0977,1.69922 -0.11719,4.35547 -0.0195,2.42187 0.33203,3.82812 0.19531,0.85938 1.23047,3.4375 0.13672,0.35156 0.44922,1.03516 l 0.11718,0.33203 q 0,0.78125 -0.54687,1.28906 -0.54688,0.50781 -1.26953,0.50781 z m -4.0625,-13.57421 q 0,-0.83985 0.0977,-1.81641 0.11719,-0.99609 0.33204,-2.10938 -0.72266,-0.37109 -1.25,-0.54687 -0.50782,-0.17578 -0.82032,-0.17578 -3.02734,0 -5.23437,2.48047 -2.1875,2.46093 -2.1875,5.68359 0,3.20313 1.13281,4.80469 1.13281,1.60156 3.39844,1.60156 1.875,0 3.18359,-0.68359 0.70313,-0.3711 1.97266,-1.48438 -0.625,-5.17578 -0.625,-7.7539 z"
         id="path10048" />
      <path
         style="color:#000000;-inkscape-font-specification:'Comic Sans MS';fill:#b3b3b3;-inkscape-stroke:none"
         d="m 576.57874,345.23843 q -2.98829,0 -5.42969,-1.17187 -0.625,0.9375 -1.52344,0.9375 -0.74219,0 -1.26953,-0.52734 -0.50781,-0.50782 -0.50781,-1.28907 0,-0.50781 0.0391,-1.5039 0.0586,-0.9961 0.0586,-1.50391 0,-2.07031 -0.11718,-6.19141 -0.0977,-4.14062 -0.0977,-6.21093 0,-1.42578 0.0195,-5.39063 0.0195,-3.98437 0.0195,-5.42969 0,-1.17187 0.48828,-2.10937 0.64453,-1.19141 1.77735,-1.19141 1.46484,0 1.46484,1.69922 0,0.27344 -0.0977,0.80078 -0.0977,0.52735 -0.0977,0.80078 l -0.0586,4.27735 -0.0391,4.98047 q 1.69922,-1.15235 3.22266,-1.71875 1.54297,-0.58594 2.89062,-0.58594 4.19922,0 6.81641,3.22266 2.46094,3.02734 2.46094,7.4414 0,4.45313 -2.8711,7.5586 -2.87109,3.10546 -7.14843,3.10546 z m 0.74218,-17.63671 q -1.60156,0 -3.28125,0.89843 -0.82031,0.44922 -2.8125,1.9336 l -0.0391,3.3789 0.0195,3.04688 0.0195,3.20312 q 0.9375,0.42969 2.63672,1.09375 1.21094,0.3711 2.71485,0.3711 2.83203,0 4.64843,-1.99219 1.81641,-1.99219 1.81641,-4.96094 0,-2.91015 -1.46484,-4.86328 -1.58204,-2.10937 -4.25782,-2.10937 z"
         id="path10050" />
      <path
         style="color:#000000;-inkscape-font-specification:'Comic Sans MS';fill:#b3b3b3;-inkscape-stroke:none"
         d="m 596.14905,329.06656 -0.29297,9.70703 q 0,1.54297 -0.15625,4.53125 -0.19531,1.95313 -1.91406,1.95313 -1.91407,0 -1.91407,-1.99219 0,-2.36328 0.21485,-7.08985 0.21484,-4.74609 0.21484,-7.10937 0,-3.08594 0.0977,-7.05078 0.0977,-3.98438 0.0977,-7.07031 0,-1.95313 1.91407,-1.95313 1.93359,0 1.93359,1.95313 0,3.08593 -0.0977,7.07031 -0.0977,3.96484 -0.0977,7.05078 z"
         id="path10052" />
      <path
         style="color:#000000;-inkscape-font-specification:'Comic Sans MS';fill:#b3b3b3;-inkscape-stroke:none"
         d="m 611.26624,345.31656 q -4.41407,0 -7.14844,-2.20703 -2.98828,-2.44141 -2.98828,-6.83594 0,-5.07812 2.46093,-8.51562 2.67579,-3.75 7.14844,-3.75 3.24219,0 5.29297,1.09375 2.51953,1.34765 2.51953,4.14062 0,1.95313 -2.20703,3.55469 -0.97656,0.70312 -4.14062,2.1875 l -7.46094,3.53515 q 1.09375,1.6211 2.71484,2.44141 1.64063,0.82031 3.8086,0.82031 1.34765,0 3.16406,-0.50781 2.30469,-0.64453 2.96875,-1.67969 0.66406,-1.05468 1.42578,-1.05468 0.68359,0 1.21094,0.52734 0.54687,0.50781 0.54687,1.19141 0,2.16796 -3.49609,3.73046 -2.98828,1.32813 -5.82031,1.32813 z m -0.52735,-17.79297 q -2.38281,0 -3.96484,1.85547 -1.58203,1.83594 -2.36328,5.54687 l 5.99609,-2.85156 q 3.53516,-1.71875 5.03906,-2.98828 -1.67968,-1.5625 -4.70703,-1.5625 z"
         id="path10054" />
    </g>
  </g>
</svg>
