<?xml version="1.0" encoding="UTF-8" standalone="no"?>
<!-- Created with Inkscape (http://www.inkscape.org/) -->

<svg
   width="80"
   height="80"
   viewBox="0 0 21.166666 21.166667"
   version="1.1"
   id="svg8"
   inkscape:version="1.1 (c68e22c387, 2021-05-23)"
   sodipodi:docname="bN.svg"
   xmlns:inkscape="http://www.inkscape.org/namespaces/inkscape"
   xmlns:sodipodi="http://sodipodi.sourceforge.net/DTD/sodipodi-0.dtd"
   xmlns:xlink="http://www.w3.org/1999/xlink"
   xmlns="http://www.w3.org/2000/svg"
   xmlns:svg="http://www.w3.org/2000/svg"
   xmlns:rdf="http://www.w3.org/1999/02/22-rdf-syntax-ns#"
   xmlns:cc="http://creativecommons.org/ns#"
   xmlns:dc="http://purl.org/dc/elements/1.1/">
  <defs
     id="defs2">
    <linearGradient
       inkscape:collect="always"
       xlink:href="#linearGradient6770"
       id="linearGradient432"
       gradientUnits="userSpaceOnUse"
       gradientTransform="matrix(2.7971141,0,0,3.0154599,-17.665876,-499.91031)"
       x1="4.7330637"
       y1="257.91168"
       x2="10.969352"
       y2="260.60272" />
    <linearGradient
       id="linearGradient6770"
       inkscape:collect="always">
      <stop
         id="stop6766"
         offset="0"
         style="stop-color:#e6e6fa;stop-opacity:1" />
      <stop
         id="stop6768"
         offset="1"
         style="stop-color:#ffffff;stop-opacity:0" />
    </linearGradient>
  </defs>
  <sodipodi:namedview
     id="base"
     pagecolor="#ffffff"
     bordercolor="#666666"
     borderopacity="1.0"
     inkscape:pageopacity="0.0"
     inkscape:pageshadow="2"
     inkscape:zoom="8.175"
     inkscape:cx="40"
     inkscape:cy="40"
     inkscape:document-units="px"
     inkscape:current-layer="layer1"
     showgrid="true"
     units="px"
     inkscape:window-width="1441"
     inkscape:window-height="902"
     inkscape:window-x="764"
     inkscape:window-y="435"
     inkscape:window-maximized="0"
     inkscape:snap-global="false"
     inkscape:pagecheckerboard="0">
    <inkscape:grid
       type="xygrid"
       id="grid842" />
  </sodipodi:namedview>
  <metadata
     id="metadata5">
    <rdf:RDF>
      <cc:Work
         rdf:about="">
        <dc:format>image/svg+xml</dc:format>
        <dc:type
           rdf:resource="http://purl.org/dc/dcmitype/StillImage" />
      </cc:Work>
    </rdf:RDF>
  </metadata>
  <g
     inkscape:label="Layer 1"
     inkscape:groupmode="layer"
     id="layer1"
     transform="translate(0,-275.83332)">
    <path
       inkscape:connector-curvature="0"
       id="path266"
       d="m 8.8664127,277.80196 c 4.9802893,0.83004 9.1305263,1.6601 9.1305263,4.98029 0,3.32018 -2.490144,8.30046 -2.490144,8.30046 0,0 1.713521,3.21537 1.660097,4.15025 H 6.3762689 l -0.83005,-2.49014 c 0,0 -1.6600938,-4.98029 7.4704331,-8.30047 -2.059691,0.67503 -4.1502393,1.66008 -5.8103362,0 -0.9734478,-0.7565 -2.4901438,0.83004 -2.4901438,0.83004 l -1.6600969,-2.49014 6.6403845,-3.32019 z"
       style="display:inline;fill:#8a2be2;fill-opacity:1;stroke:none;stroke-width:0.784297;stroke-linecap:butt;stroke-linejoin:miter;stroke-opacity:1"
       sodipodi:nodetypes="cscccccccccc" />
    <path
       style="display:inline;fill:url(#linearGradient432);fill-opacity:1;stroke:none;stroke-width:0.726058;stroke-linecap:butt;stroke-linejoin:miter;stroke-opacity:1"
       d="m 8.2365652,277.76974 c 4.4404198,0.79782 8.1407658,1.5957 8.1407658,4.78704 0,3.19136 -2.220208,7.9784 -2.220208,7.9784 l 1.480139,3.98922 H 6.0163558 l -0.7400716,-2.39352 c 0,0 -1.2961642,-3.98984 6.8446028,-7.18118 -1.836419,0.64883 -3.8843218,0.79844 -5.3644623,-0.79722 -0.867925,-0.72714 -2.2202091,0.79781 -2.2202091,0.79781 l -1.4801405,-2.39351 6.503141,-3.06868 z"
       id="path268"
       inkscape:connector-curvature="0"
       sodipodi:nodetypes="cscccccccccc" />
    <path
       sodipodi:nodetypes="ccccccc"
       inkscape:connector-curvature="0"
       id="path316"
       d="m 8.0371799,293.26052 v 0.62499 l 2.4381231,-0.0894 2.497833,0.0894 v -0.62499 l -2.497833,-0.0894 z"
       style="color:#000000;font-style:normal;font-variant:normal;font-weight:normal;font-stretch:normal;font-size:medium;line-height:normal;font-family:sans-serif;font-variant-ligatures:normal;font-variant-position:normal;font-variant-caps:normal;font-variant-numeric:normal;font-variant-alternates:normal;font-feature-settings:normal;text-indent:0;text-align:start;text-decoration:none;text-decoration-line:none;text-decoration-style:solid;text-decoration-color:#000000;letter-spacing:normal;word-spacing:normal;text-transform:none;writing-mode:lr-tb;direction:ltr;text-orientation:mixed;dominant-baseline:auto;baseline-shift:baseline;text-anchor:start;white-space:normal;shape-padding:0;clip-rule:nonzero;display:inline;overflow:visible;visibility:visible;isolation:auto;mix-blend-mode:normal;color-interpolation:sRGB;color-interpolation-filters:linearRGB;solid-color:#000000;solid-opacity:1;vector-effect:none;fill:#000000;fill-opacity:1;fill-rule:nonzero;stroke:none;stroke-width:0.627438;stroke-linecap:butt;stroke-linejoin:miter;stroke-miterlimit:4;stroke-dasharray:none;stroke-dashoffset:0;stroke-opacity:1;color-rendering:auto;image-rendering:auto;shape-rendering:auto;text-rendering:auto;enable-background:accumulate" />
    <path
       inkscape:connector-curvature="0"
       id="path328"
       d="m 8.6254029,279.99485 c -0.6703499,0 -1.2193288,0.54901 -1.2193373,1.21933 8.5e-6,0.67036 0.5489874,1.22548 1.2193373,1.22548 0.6703495,0 1.225456,-0.55512 1.2254645,-1.22548 -8.5e-6,-0.67032 -0.555115,-1.21933 -1.2254645,-1.21933 z m 0,0.7843 c 0.2464858,0 0.4411641,0.18855 0.4411672,0.43503 -3.1e-6,0.24659 -0.1946814,0.44119 -0.4411672,0.44119 -0.246489,0 -0.4350369,-0.19482 -0.43504,-0.44119 3.1e-6,-0.24658 0.1885513,-0.43503 0.43504,-0.43503 z"
       style="color:#000000;font-style:normal;font-variant:normal;font-weight:normal;font-stretch:normal;font-size:medium;line-height:normal;font-family:sans-serif;font-variant-ligatures:normal;font-variant-position:normal;font-variant-caps:normal;font-variant-numeric:normal;font-variant-alternates:normal;font-feature-settings:normal;text-indent:0;text-align:start;text-decoration:none;text-decoration-line:none;text-decoration-style:solid;text-decoration-color:#000000;letter-spacing:normal;word-spacing:normal;text-transform:none;writing-mode:lr-tb;direction:ltr;text-orientation:mixed;dominant-baseline:auto;baseline-shift:baseline;text-anchor:start;white-space:normal;shape-padding:0;clip-rule:nonzero;display:inline;overflow:visible;visibility:visible;isolation:auto;mix-blend-mode:normal;color-interpolation:sRGB;color-interpolation-filters:linearRGB;solid-color:#000000;solid-opacity:1;vector-effect:none;fill:#000000;fill-opacity:1;fill-rule:nonzero;stroke:none;stroke-width:0.784297;stroke-linecap:butt;stroke-linejoin:miter;stroke-miterlimit:4;stroke-dasharray:none;stroke-dashoffset:0;stroke-opacity:1;color-rendering:auto;image-rendering:auto;shape-rendering:auto;text-rendering:auto;enable-background:accumulate" />
    <path
       style="color:#000000;font-style:normal;font-variant:normal;font-weight:normal;font-stretch:normal;font-size:medium;line-height:normal;font-family:sans-serif;font-variant-ligatures:normal;font-variant-position:normal;font-variant-caps:normal;font-variant-numeric:normal;font-variant-alternates:normal;font-feature-settings:normal;text-indent:0;text-align:start;text-decoration:none;text-decoration-line:none;text-decoration-style:solid;text-decoration-color:#000000;letter-spacing:normal;word-spacing:normal;text-transform:none;writing-mode:lr-tb;direction:ltr;text-orientation:mixed;dominant-baseline:auto;baseline-shift:baseline;text-anchor:start;white-space:normal;shape-padding:0;clip-rule:nonzero;display:inline;overflow:visible;visibility:visible;isolation:auto;mix-blend-mode:normal;color-interpolation:sRGB;color-interpolation-filters:linearRGB;solid-color:#000000;solid-opacity:1;vector-effect:none;fill:#000000;fill-opacity:1;fill-rule:nonzero;stroke:none;stroke-width:0.784297;stroke-linecap:butt;stroke-linejoin:miter;stroke-miterlimit:4;stroke-dasharray:none;stroke-dashoffset:0;stroke-opacity:1;color-rendering:auto;image-rendering:auto;shape-rendering:auto;text-rendering:auto;enable-background:accumulate"
       d="m 7.8557042,277.15247 c 0.3451059,0.78203 0.8509484,1.56834 1.3150303,2.28214 l -6.6849088,3.34553 2.1573053,3.27837 c 0.3427953,-0.40727 0.7651711,-0.72096 1.1038931,-0.98649 1.5058407,-0.91377 1.7068721,1.20019 4.1651157,0.65805 -2.3937769,1.07449 -3.9766613,2.45031 -4.5128976,3.75418 -0.7771398,1.77634 -0.603118,3.19598 -0.3753606,3.90455 l 0.9190982,2.29203 H 17.664758 l -0.005,-2.27986 -1.688529,-1.23969 c 0.06732,-0.13615 1.107908,-2.26 1.701241,-3.84221 0.63008,-1.68021 1.037409,-3.41737 1.037409,-5.17551 0,-0.91173 -0.459501,-2.03115 -0.980418,-2.65334 -0.520902,-0.62217 -1.248539,-1.09193 -2.113926,-1.47056 -1.730772,-0.75719 -4.506387,-1.32339 -7.0000172,-1.73898 z m 1.5106673,1.10369 c 2.0686435,0.35824 4.0551655,0.71468 5.4114825,1.30805 0.774685,0.33894 1.377433,0.73771 1.779931,1.21849 0.402498,0.48077 0.765684,1.42497 0.868067,2.14724 0.215838,1.52273 -0.223807,3.779 -1.011615,5.37765 -0.599498,1.59865 -1.764007,3.75562 -1.764007,3.75562 l 1.744691,1.16315 2.04e-4,1.45838 -5.898891,-0.17443 -3.7380434,0.17443 -0.7227249,-1.71463 c 0,0 -0.3657514,-1.50497 0.2926746,-3.00994 2.1228979,-4.19179 5.6295767,-3.16383 6.5104817,-5.77598 -0.797602,0.64909 -1.48753,0.88933 -2.403091,1.01338 -0.8906993,0.11105 -2.1453208,-0.19231 -2.6892385,-0.7001 -0.5439176,-0.50778 -1.067965,-0.51142 -1.4148255,-0.45881 -0.3468601,0.0527 -0.5327533,0.14243 -0.8037004,0.30619 -0.3323027,0.20046 -0.4088316,0.30838 -0.5734013,0.45994 l -1.1527762,-1.72621 6.4328489,-3.21345 z"
       id="path5217"
       inkscape:connector-curvature="0"
       sodipodi:nodetypes="cccccccccccccsccccccsscccccccccccsccccc" />
  </g>
</svg>
