<?xml version="1.0" encoding="UTF-8" standalone="no"?>
<!-- Created with Inkscape (http://www.inkscape.org/) -->

<svg
   width="80"
   height="80"
   viewBox="0 0 21.166666 21.166667"
   version="1.1"
   id="svg8"
   inkscape:version="1.1 (c68e22c387, 2021-05-23)"
   sodipodi:docname="bP.svg"
   xmlns:inkscape="http://www.inkscape.org/namespaces/inkscape"
   xmlns:sodipodi="http://sodipodi.sourceforge.net/DTD/sodipodi-0.dtd"
   xmlns:xlink="http://www.w3.org/1999/xlink"
   xmlns="http://www.w3.org/2000/svg"
   xmlns:svg="http://www.w3.org/2000/svg"
   xmlns:rdf="http://www.w3.org/1999/02/22-rdf-syntax-ns#"
   xmlns:cc="http://creativecommons.org/ns#"
   xmlns:dc="http://purl.org/dc/elements/1.1/">
  <defs
     id="defs2">
    <linearGradient
       inkscape:collect="always"
       xlink:href="#linearGradient6776"
       id="linearGradient430"
       gradientUnits="userSpaceOnUse"
       gradientTransform="matrix(2.5977592,0,0,3.0353899,1.1766261,-506.22934)"
       x1="0.4503023"
       y1="259.3949"
       x2="4.2379608"
       y2="260.99304" />
    <linearGradient
       id="linearGradient6776"
       inkscape:collect="always">
      <stop
         id="stop6772"
         offset="0"
         style="stop-color:#e6e6fa;stop-opacity:1" />
      <stop
         id="stop6774"
         offset="1"
         style="stop-color:#ffffff;stop-opacity:0" />
    </linearGradient>
  </defs>
  <sodipodi:namedview
     id="base"
     pagecolor="#ffffff"
     bordercolor="#666666"
     borderopacity="1.0"
     inkscape:pageopacity="0.0"
     inkscape:pageshadow="2"
     inkscape:zoom="6.1375"
     inkscape:cx="40"
     inkscape:cy="39.918534"
     inkscape:document-units="px"
     inkscape:current-layer="layer1"
     showgrid="true"
     units="px"
     inkscape:window-width="1278"
     inkscape:window-height="916"
     inkscape:window-x="1084"
     inkscape:window-y="324"
     inkscape:window-maximized="0"
     inkscape:pagecheckerboard="0">
    <inkscape:grid
       type="xygrid"
       id="grid15" />
  </sodipodi:namedview>
  <metadata
     id="metadata5">
    <rdf:RDF>
      <cc:Work
         rdf:about="">
        <dc:format>image/svg+xml</dc:format>
        <dc:type
           rdf:resource="http://purl.org/dc/dcmitype/StillImage" />
      </cc:Work>
    </rdf:RDF>
  </metadata>
  <g
     inkscape:label="Layer 1"
     inkscape:groupmode="layer"
     id="layer1"
     transform="translate(0,-275.83332)">
    <path
       sodipodi:nodetypes="scccccccccccs"
       inkscape:connector-curvature="0"
       style="display:inline;fill:#8a2be2;fill-opacity:1;stroke:none;stroke-width:0.789481;stroke-miterlimit:4;stroke-dasharray:none;stroke-opacity:1"
       d="m 10.633917,278.70505 c -2.3072681,0 -4.1776762,1.87038 -4.1776702,4.17766 7.8e-6,1.57283 0.8731412,2.93623 2.1573743,3.64894 l -0.9546602,0.69522 0.8355342,0.83555 -2.5066044,6.10654 h 4.5954363 4.595439 l -2.476033,-6.11929 0.804968,-0.8228 -0.938349,-0.65116 c 1.330607,-0.69869 2.242227,-2.08581 2.242236,-3.693 6e-6,-2.30728 -1.870404,-4.17766 -4.177671,-4.17766 z"
       id="path270" />
    <path
       id="path272"
       d="m 9.8097877,278.59184 c -1.8979964,0 -3.4366247,1.79781 -3.4366196,4.01555 6.3e-6,1.5118 1.0886386,3.03837 2.1450695,3.72342 l -1.1556974,0.82257 1.1502974,0.98831 -2.5249469,5.31403 h 3.7802818 3.7802805 l -2.036823,-5.88186 0.662179,-0.79087 -0.7719,-0.6259 c 1.094577,-0.6716 1.844492,-2.00487 1.844499,-3.5497 3e-6,-2.21774 -1.538623,-4.01555 -3.4366203,-4.01555 z"
       style="display:inline;fill:url(#linearGradient430);fill-opacity:1;stroke:none;stroke-width:0.702016;stroke-miterlimit:4;stroke-dasharray:none;stroke-opacity:1"
       inkscape:connector-curvature="0"
       sodipodi:nodetypes="scccccccccccs" />
    <path
       style="color:#000000;font-style:normal;font-variant:normal;font-weight:normal;font-stretch:normal;font-size:medium;line-height:normal;font-family:sans-serif;font-variant-ligatures:normal;font-variant-position:normal;font-variant-caps:normal;font-variant-numeric:normal;font-variant-alternates:normal;font-feature-settings:normal;text-indent:0;text-align:start;text-decoration:none;text-decoration-line:none;text-decoration-style:solid;text-decoration-color:#000000;letter-spacing:normal;word-spacing:normal;text-transform:none;writing-mode:lr-tb;direction:ltr;text-orientation:mixed;dominant-baseline:auto;baseline-shift:baseline;text-anchor:start;white-space:normal;shape-padding:0;clip-rule:nonzero;display:inline;overflow:visible;visibility:visible;isolation:auto;mix-blend-mode:normal;color-interpolation:sRGB;color-interpolation-filters:linearRGB;solid-color:#000000;solid-opacity:1;vector-effect:none;fill:#000000;fill-opacity:1;fill-rule:nonzero;stroke:none;stroke-width:0.789481;stroke-linecap:butt;stroke-linejoin:miter;stroke-miterlimit:4;stroke-dasharray:none;stroke-dashoffset:0;stroke-opacity:1;color-rendering:auto;image-rendering:auto;shape-rendering:auto;text-rendering:auto;enable-background:accumulate"
       d="m 10.633917,278.34982 c -2.5206,0 -4.5725974,2.05199 -4.5725907,4.57261 7.9e-6,1.58834 0.8696325,2.67226 2.10189,3.49045 l -1.4671571,0.85372 1.5436998,1.09027 -2.8050832,6.24672 h 5.1486512 5.148654 l -2.805079,-6.24672 1.5437,-1.09027 -1.449213,-0.80638 c 1.278003,-0.80966 2.18511,-1.91453 2.18512,-3.53779 6e-6,-2.52062 -2.051991,-4.57261 -4.572592,-4.57261 z m 3.671084,4.67616 c -7e-6,1.41544 -0.800158,2.63156 -1.970949,3.24634 l -0.291508,0.15221 1.189123,0.81917 -1.184213,0.81121 2.46036,5.54519 -3.924471,-0.19264 -3.9244712,0.19264 2.4603663,-5.54519 -1.1842106,-0.81121 1.2033761,-0.85403 -0.2820342,-0.15695 c -1.1299426,-0.62707 -1.8964787,-1.82158 -1.8964856,-3.20674 -5.4e-6,-2.03298 1.6396186,-3.67257 3.6725592,-3.67248 2.032938,7e-5 3.672563,1.63966 3.672558,3.67263 z"
       id="path5233"
       inkscape:connector-curvature="0"
       sodipodi:nodetypes="scccccccccccsccccccccccccccc" />
  </g>
</svg>
