<?xml version="1.0" encoding="UTF-8" standalone="no"?>
<!-- Created with Inkscape (http://www.inkscape.org/) -->

<svg
   width="80"
   height="80"
   viewBox="0 0 21.166666 21.166667"
   version="1.1"
   id="svg8"
   inkscape:version="1.1 (c68e22c387, 2021-05-23)"
   sodipodi:docname="wB.svg"
   xmlns:inkscape="http://www.inkscape.org/namespaces/inkscape"
   xmlns:sodipodi="http://sodipodi.sourceforge.net/DTD/sodipodi-0.dtd"
   xmlns:xlink="http://www.w3.org/1999/xlink"
   xmlns="http://www.w3.org/2000/svg"
   xmlns:svg="http://www.w3.org/2000/svg"
   xmlns:rdf="http://www.w3.org/1999/02/22-rdf-syntax-ns#"
   xmlns:cc="http://creativecommons.org/ns#"
   xmlns:dc="http://purl.org/dc/elements/1.1/">
  <defs
     id="defs2">
    <linearGradient
       inkscape:collect="always"
       xlink:href="#linearGradient6916"
       id="linearGradient422"
       gradientUnits="userSpaceOnUse"
       gradientTransform="matrix(2.7835046,0,0,2.9668275,-35.423539,-486.1433)"
       x1="16.239605"
       y1="259.97714"
       x2="20.522463"
       y2="261.44336" />
    <linearGradient
       id="linearGradient6916"
       inkscape:collect="always">
      <stop
         id="stop6912"
         offset="0"
         style="stop-color:#e6e6fa;stop-opacity:1" />
      <stop
         id="stop6914"
         offset="1"
         style="stop-color:#8a2be2;stop-opacity:1" />
    </linearGradient>
  </defs>
  <sodipodi:namedview
     id="base"
     pagecolor="#ffffff"
     bordercolor="#666666"
     borderopacity="1.0"
     inkscape:pageopacity="0.0"
     inkscape:pageshadow="2"
     inkscape:zoom="8.175"
     inkscape:cx="40"
     inkscape:cy="40"
     inkscape:document-units="px"
     inkscape:current-layer="layer1"
     showgrid="true"
     units="px"
     inkscape:window-width="1441"
     inkscape:window-height="902"
     inkscape:window-x="764"
     inkscape:window-y="435"
     inkscape:window-maximized="0"
     inkscape:snap-global="false"
     inkscape:pagecheckerboard="0">
    <inkscape:grid
       type="xygrid"
       id="grid842" />
  </sodipodi:namedview>
  <metadata
     id="metadata5">
    <rdf:RDF>
      <cc:Work
         rdf:about="">
        <dc:format>image/svg+xml</dc:format>
        <dc:type
           rdf:resource="http://purl.org/dc/dcmitype/StillImage" />
      </cc:Work>
    </rdf:RDF>
  </metadata>
  <g
     inkscape:label="Layer 1"
     inkscape:groupmode="layer"
     id="layer1"
     transform="translate(0,-275.83332)">
    <path
       inkscape:connector-curvature="0"
       style="display:inline;fill:#e6e6fa;fill-opacity:1;stroke:none;stroke-width:0.773534;stroke-miterlimit:4;stroke-dasharray:none;stroke-opacity:1"
       d="m 10.600129,277.28953 a 0.82065532,0.81666115 0 0 0 -0.8206561,0.81668 0.82065532,0.81666115 0 0 0 0.8206561,0.81664 0.82065532,0.81666115 0 0 0 0.820655,-0.81664 0.82065532,0.81666115 0 0 0 -0.820655,-0.81668 z m 0,2.44999 c -3.2826223,1.63329 -8.2065575,8.98328 -3.2826223,13.88326 0.020161,0.1495 0,1.63332 0,1.63332 H 13.88275 v -1.63332 c 4.923932,-4.89998 3e-6,-12.24997 -3.282621,-13.88326 z"
       id="path346" />
    <path
       id="path348"
       d="m 10.974001,278.20934 c -0.406747,0 -0.736479,0.35145 -0.736473,0.78497 -6e-6,0.43355 -0.0038,0.12127 0.403004,0.12127 0.406743,0 0.645523,0.0407 0.64552,-0.39279 3e-6,-0.43355 0.0947,-0.51348 -0.312051,-0.51348 z m 0,2.35493 c -2.9458786,1.56991 -7.3646944,8.6347 -2.9458786,13.34452 0.01799,0.14361 0,1.56998 0,1.56998 h 5.8917516 v -1.56998 c 4.418813,-4.70982 3e-6,-11.77461 -2.945873,-13.34452 z"
       style="display:inline;fill:url(#linearGradient422);fill-opacity:1;stroke:none;stroke-width:0.718426;stroke-miterlimit:4;stroke-dasharray:none;stroke-opacity:1"
       inkscape:connector-curvature="0"
       sodipodi:nodetypes="ccccccccccc" />
    <path
       style="color:#000000;font-style:normal;font-variant:normal;font-weight:normal;font-stretch:normal;font-size:medium;line-height:normal;font-family:sans-serif;font-variant-ligatures:normal;font-variant-position:normal;font-variant-caps:normal;font-variant-numeric:normal;font-variant-alternates:normal;font-feature-settings:normal;text-indent:0;text-align:start;text-decoration:none;text-decoration-line:none;text-decoration-style:solid;text-decoration-color:#000000;letter-spacing:normal;word-spacing:normal;text-transform:none;writing-mode:lr-tb;direction:ltr;text-orientation:mixed;dominant-baseline:auto;baseline-shift:baseline;text-anchor:start;white-space:normal;shape-padding:0;clip-rule:nonzero;display:inline;overflow:visible;visibility:visible;isolation:auto;mix-blend-mode:normal;color-interpolation:sRGB;color-interpolation-filters:linearRGB;solid-color:#000000;solid-opacity:1;vector-effect:none;fill:#000000;fill-opacity:1;fill-rule:nonzero;stroke:none;stroke-width:0.773534;stroke-linecap:butt;stroke-linejoin:miter;stroke-miterlimit:4;stroke-dasharray:none;stroke-dashoffset:0;stroke-opacity:1;color-rendering:auto;image-rendering:auto;shape-rendering:auto;text-rendering:auto;enable-background:accumulate"
       d="m 10.59771,279.30554 -0.169632,0.0906 c -1.780024,0.88565 -3.8452809,3.17302 -4.9069706,5.91998 -1.0344042,2.67635 -0.9709001,5.82931 1.4115107,8.36156 -0.00651,-0.0437 0.00527,0.11135 0.0062,0.26519 9.275e-4,0.15726 0.00126,0.35465 0,0.54863 -0.00251,0.3879 -0.0062,0.75958 -0.0062,0.75958 l -0.0062,0.39183 H 14.2687 v -1.96526 c 2.382303,-2.53222 2.445903,-5.68524 1.411514,-8.36156 -1.061693,-2.74693 -3.126947,-5.03433 -4.906972,-5.91998 z m 8.4e-5,1.19756 c 1.439971,0.80026 3.311652,2.75368 4.236737,5.1472 0.961574,2.48789 0.968233,5.26693 -1.31221,7.53629 l -0.111816,0.10546 v 1.37023 l -2.795732,-0.0605 -2.8179436,0.0605 c 0.00151,-0.13678 -0.0012,-0.17741 0,-0.36305 0.00123,-0.19014 9.336e-4,-0.38626 0,-0.54456 -9.336e-4,-0.15819 0.00527,-0.2317 -0.011786,-0.35723 l -0.017679,-0.12282 -0.088274,-0.0881 c -2.280446,-2.26935 -2.2737835,-5.0484 -1.3122101,-7.53629 0.9245672,-2.39221 2.7912104,-4.34597 4.2308557,-5.14719 z"
       id="path360"
       inkscape:connector-curvature="0"
       sodipodi:nodetypes="ccsccccccccccccccccccccccccc" />
    <path
       style="color:#000000;font-style:normal;font-variant:normal;font-weight:normal;font-stretch:normal;font-size:medium;line-height:normal;font-family:sans-serif;font-variant-ligatures:normal;font-variant-position:normal;font-variant-caps:normal;font-variant-numeric:normal;font-variant-alternates:normal;font-feature-settings:normal;text-indent:0;text-align:start;text-decoration:none;text-decoration-line:none;text-decoration-style:solid;text-decoration-color:#000000;letter-spacing:normal;word-spacing:normal;text-transform:none;writing-mode:lr-tb;direction:ltr;text-orientation:mixed;dominant-baseline:auto;baseline-shift:baseline;text-anchor:start;white-space:normal;shape-padding:0;clip-rule:nonzero;display:inline;overflow:visible;visibility:visible;isolation:auto;mix-blend-mode:normal;color-interpolation:sRGB;color-interpolation-filters:linearRGB;solid-color:#000000;solid-opacity:1;vector-effect:none;fill:#000000;fill-opacity:1;fill-rule:nonzero;stroke:none;stroke-width:0.773534;stroke-linecap:butt;stroke-linejoin:miter;stroke-miterlimit:4;stroke-dasharray:none;stroke-dashoffset:0;stroke-opacity:1;color-rendering:auto;image-rendering:auto;shape-rendering:auto;text-rendering:auto;enable-background:accumulate"
       d="m 10.59771,277.15805 c -0.6627681,0 -1.2055328,0.54016 -1.2055421,1.19968 -1.86e-5,0.65957 0.5427585,1.20571 1.2055421,1.20571 0.662782,0 1.211613,-0.54614 1.211598,-1.20571 -9e-6,-0.65952 -0.548835,-1.19968 -1.211598,-1.19968 z m 0,0.77167 c 0.2437,0 0.436172,0.18548 0.436176,0.42801 6e-6,0.24255 -0.192461,0.43408 -0.436176,0.43408 -0.243701,0 -0.430126,-0.19138 -0.430119,-0.43408 3e-6,-0.24256 0.186412,-0.42801 0.430119,-0.42801 z"
       id="path362"
       inkscape:connector-curvature="0" />
    <path
       style="color:#000000;font-style:normal;font-variant:normal;font-weight:normal;font-stretch:normal;font-size:medium;line-height:normal;font-family:sans-serif;font-variant-ligatures:normal;font-variant-position:normal;font-variant-caps:normal;font-variant-numeric:normal;font-variant-alternates:normal;font-feature-settings:normal;text-indent:0;text-align:start;text-decoration:none;text-decoration-line:none;text-decoration-style:solid;text-decoration-color:#000000;letter-spacing:normal;word-spacing:normal;text-transform:none;writing-mode:lr-tb;direction:ltr;text-orientation:mixed;dominant-baseline:auto;baseline-shift:baseline;text-anchor:start;white-space:normal;shape-padding:0;clip-rule:nonzero;display:inline;overflow:visible;visibility:visible;isolation:auto;mix-blend-mode:normal;color-interpolation:sRGB;color-interpolation-filters:linearRGB;solid-color:#000000;solid-opacity:1;vector-effect:none;fill:#000000;fill-opacity:1;fill-rule:nonzero;stroke:none;stroke-width:0.818654px;stroke-linecap:butt;stroke-linejoin:miter;stroke-miterlimit:4;stroke-dasharray:none;stroke-dashoffset:0;stroke-opacity:1;color-rendering:auto;image-rendering:auto;shape-rendering:auto;text-rendering:auto;enable-background:accumulate"
       d="m 12.6756,281.90984 c -0.182007,2.49109 -2.459545,6.67353 -2.459545,6.67353 1.056183,-0.44124 3.202797,-3.91296 3.27895,-6.16613 z"
       id="path364"
       inkscape:connector-curvature="0"
       sodipodi:nodetypes="cccc" />
    <path
       style="color:#000000;font-style:normal;font-variant:normal;font-weight:normal;font-stretch:normal;font-size:medium;line-height:normal;font-family:sans-serif;font-variant-ligatures:normal;font-variant-position:normal;font-variant-caps:normal;font-variant-numeric:normal;font-variant-alternates:normal;font-feature-settings:normal;text-indent:0;text-align:start;text-decoration:none;text-decoration-line:none;text-decoration-style:solid;text-decoration-color:#000000;letter-spacing:normal;word-spacing:normal;text-transform:none;writing-mode:lr-tb;direction:ltr;text-orientation:mixed;dominant-baseline:auto;baseline-shift:baseline;text-anchor:start;white-space:normal;shape-padding:0;clip-rule:nonzero;display:inline;overflow:visible;visibility:visible;isolation:auto;mix-blend-mode:normal;color-interpolation:sRGB;color-interpolation-filters:linearRGB;solid-color:#000000;solid-opacity:1;vector-effect:none;fill:#000000;fill-opacity:1;fill-rule:nonzero;stroke:none;stroke-width:0.618827;stroke-linecap:butt;stroke-linejoin:miter;stroke-miterlimit:4;stroke-dasharray:none;stroke-dashoffset:0;stroke-opacity:1;color-rendering:auto;image-rendering:auto;shape-rendering:auto;text-rendering:auto;enable-background:accumulate"
       d="m 8.9559928,293.31578 v 0.61491 l 1.6592042,-0.0624 1.624228,0.0624 v -0.61491 l -1.636738,-0.0624 z"
       id="path396"
       inkscape:connector-curvature="0"
       sodipodi:nodetypes="ccccccc" />
  </g>
</svg>
