<?xml version="1.0" encoding="UTF-8" standalone="no"?>
<!-- Created with Inkscape (http://www.inkscape.org/) -->

<svg
   width="80"
   height="80"
   viewBox="0 0 21.166666 21.166667"
   version="1.1"
   id="svg8"
   inkscape:version="1.1 (c68e22c387, 2021-05-23)"
   sodipodi:docname="wK.svg"
   xmlns:inkscape="http://www.inkscape.org/namespaces/inkscape"
   xmlns:sodipodi="http://sodipodi.sourceforge.net/DTD/sodipodi-0.dtd"
   xmlns:xlink="http://www.w3.org/1999/xlink"
   xmlns="http://www.w3.org/2000/svg"
   xmlns:svg="http://www.w3.org/2000/svg"
   xmlns:rdf="http://www.w3.org/1999/02/22-rdf-syntax-ns#"
   xmlns:cc="http://creativecommons.org/ns#"
   xmlns:dc="http://purl.org/dc/elements/1.1/">
  <defs
     id="defs2">
    <linearGradient
       inkscape:collect="always"
       xlink:href="#linearGradient6934"
       id="linearGradient428"
       gradientUnits="userSpaceOnUse"
       gradientTransform="matrix(2.9944771,0,0,3.0299323,-98.140181,-502.84736)"
       x1="35.885345"
       y1="260.83737"
       x2="41.678066"
       y2="262.43512" />
    <linearGradient
       inkscape:collect="always"
       id="linearGradient6934">
      <stop
         style="stop-color:#e6e6fa;stop-opacity:1"
         offset="0"
         id="stop6930" />
      <stop
         style="stop-color:#8a2be2;stop-opacity:1"
         offset="1"
         id="stop6932" />
    </linearGradient>
  </defs>
  <sodipodi:namedview
     id="base"
     pagecolor="#ffffff"
     bordercolor="#666666"
     borderopacity="1.0"
     inkscape:pageopacity="0.0"
     inkscape:pageshadow="2"
     inkscape:zoom="8.175"
     inkscape:cx="40"
     inkscape:cy="40"
     inkscape:document-units="px"
     inkscape:current-layer="layer1"
     showgrid="true"
     units="px"
     inkscape:window-width="1441"
     inkscape:window-height="902"
     inkscape:window-x="764"
     inkscape:window-y="435"
     inkscape:window-maximized="0"
     inkscape:snap-global="false"
     inkscape:pagecheckerboard="0">
    <inkscape:grid
       type="xygrid"
       id="grid842" />
  </sodipodi:namedview>
  <metadata
     id="metadata5">
    <rdf:RDF>
      <cc:Work
         rdf:about="">
        <dc:format>image/svg+xml</dc:format>
        <dc:type
           rdf:resource="http://purl.org/dc/dcmitype/StillImage" />
      </cc:Work>
    </rdf:RDF>
  </metadata>
  <g
     inkscape:label="Layer 1"
     inkscape:groupmode="layer"
     id="layer1"
     transform="translate(0,-275.83332)">
    <path
       style="display:inline;fill:#e6e6fa;fill-opacity:1;stroke:none;stroke-width:0.788062;stroke-linecap:butt;stroke-linejoin:miter;stroke-opacity:1"
       d="m 9.8584746,277.50149 c -0.2504145,-0.0283 -0.474123,0.0829 -0.6238988,0.36654 -0.2995579,0.56721 1.4041682,2.26914 1.4041682,2.26914 0,0 1.703716,-1.70193 1.404174,-2.26914 -0.299526,-0.56722 -0.898586,-0.44822 -1.404174,0.11884 -0.252779,-0.28371 -0.529861,-0.45594 -0.7802694,-0.48545 z m 0.7232544,3.22862 c -0.460619,0 -0.8340306,0.37342 -0.8340306,0.83402 0,0.46064 0.3734116,0.83405 0.8340306,0.83405 0.460618,0 0.834031,-0.37341 0.834031,-0.83405 0,-0.4606 -0.373413,-0.83402 -0.834031,-0.83402 z m -5.1573103,0.7705 c -0.8542239,0.0189 -1.6226752,0.38142 -2.1420927,1.25756 -3.13584125,-0.70447 -1.6897392,5.42123 1.3960255,9.57346 -0.2838598,0.18788 -0.6019938,0.42823 -0.7493266,0.44308 v 2.50209 H 17.27353 v -2.50209 h -1.049051 c 1.656303,-1.92598 6.136663,-10.80331 1.668064,-10.00838 l -0.0017,0.0157 c -1.369979,-2.5056 -6.254695,-0.87084 -7.289634,1.65341 -1.2783713,-2.38344 -2.2821692,-2.9354 -5.1768607,-2.9354 z"
       id="path334"
       inkscape:connector-curvature="0"
       sodipodi:nodetypes="ccccccssssscccccccccccc" />
    <path
       sodipodi:nodetypes="scccccscssscccccccccccccc"
       inkscape:connector-curvature="0"
       id="path336"
       d="m 10.124833,278.31426 c -0.2378684,-0.0283 -0.4503928,0.0797 -0.5926726,0.35233 -0.2845532,0.54521 1.0257976,1.47247 1.0257976,1.47247 0,0 1.680065,-1.01969 1.395514,-1.5649 -0.284521,-0.54522 -0.607138,-0.33839 -1.08742,0.20647 -0.240138,-0.27266 -0.503341,-0.43825 -0.741219,-0.46662 z m 0.687057,3.10336 c -0.437566,0 -0.792289,0.35891 -0.792289,0.80164 0,0.44277 0.200673,0.27803 0.638242,0.27803 0.437567,0 0.25861,-2.47143 0.946336,-0.27803 0.132457,0.42246 -0.354723,-0.80164 -0.792289,-0.80164 z m -4.8991884,0.74065 c -0.81147,0.0189 -1.5414608,0.3666 -2.0348818,1.20876 -2.97889408,-0.67714 -1.6051676,5.21085 1.3261561,9.20197 -0.2696432,0.18062 -0.5718647,0.41162 -0.7118243,0.4259 v 2.40497 H 17.168768 v -2.40497 h -0.996544 c 1.573405,-1.85128 5.829524,-10.38413 1.584577,-9.62005 l -0.0016,0.0157 c -1.301411,-2.40838 -5.941648,-0.83701 -6.92479,1.58928 -1.21439,-2.29097 -2.1679475,-2.82152 -4.9177585,-2.82152 z"
       style="display:inline;fill:url(#linearGradient428);fill-opacity:1;stroke:none;stroke-width:0.753037;stroke-linecap:butt;stroke-linejoin:miter;stroke-opacity:1" />
    <path
       style="color:#000000;font-style:normal;font-variant:normal;font-weight:normal;font-stretch:normal;font-size:medium;line-height:normal;font-family:sans-serif;font-variant-ligatures:normal;font-variant-position:normal;font-variant-caps:normal;font-variant-numeric:normal;font-variant-alternates:normal;font-feature-settings:normal;text-indent:0;text-align:start;text-decoration:none;text-decoration-line:none;text-decoration-style:solid;text-decoration-color:#000000;letter-spacing:normal;word-spacing:normal;text-transform:none;writing-mode:lr-tb;direction:ltr;text-orientation:mixed;dominant-baseline:auto;baseline-shift:baseline;text-anchor:start;white-space:normal;shape-padding:0;clip-rule:nonzero;display:inline;overflow:visible;visibility:visible;isolation:auto;mix-blend-mode:normal;color-interpolation:sRGB;color-interpolation-filters:linearRGB;solid-color:#000000;solid-opacity:1;vector-effect:none;fill:#000000;fill-opacity:1;fill-rule:nonzero;stroke:none;stroke-width:0.788062;stroke-linecap:butt;stroke-linejoin:miter;stroke-miterlimit:4;stroke-dasharray:none;stroke-dashoffset:0;stroke-opacity:1;color-rendering:auto;image-rendering:auto;shape-rendering:auto;text-rendering:auto;enable-background:accumulate"
       d="m 3.5322612,292.38402 v 3.28767 H 3.9262918 17.668113 v -3.28767 z m 1.0014053,0.81407 6.0691695,-0.17369 6.063872,0.17369 v 1.65342 l -6.068039,-0.24588 -6.0650025,0.24588 z"
       id="path376"
       inkscape:connector-curvature="0"
       sodipodi:nodetypes="ccccccccccccc" />
    <path
       style="color:#000000;font-style:normal;font-variant:normal;font-weight:normal;font-stretch:normal;font-size:medium;line-height:normal;font-family:sans-serif;font-variant-ligatures:normal;font-variant-position:normal;font-variant-caps:normal;font-variant-numeric:normal;font-variant-alternates:normal;font-feature-settings:normal;text-indent:0;text-align:start;text-decoration:none;text-decoration-line:none;text-decoration-style:solid;text-decoration-color:#000000;letter-spacing:normal;word-spacing:normal;text-transform:none;writing-mode:lr-tb;direction:ltr;text-orientation:mixed;dominant-baseline:auto;baseline-shift:baseline;text-anchor:start;white-space:normal;shape-padding:0;clip-rule:nonzero;display:inline;overflow:visible;visibility:visible;isolation:auto;mix-blend-mode:normal;color-interpolation:sRGB;color-interpolation-filters:linearRGB;solid-color:#000000;solid-opacity:1;vector-effect:none;fill:#000000;fill-opacity:1;fill-rule:nonzero;stroke:none;stroke-width:0.788062;stroke-linecap:butt;stroke-linejoin:miter;stroke-miterlimit:4;stroke-dasharray:none;stroke-dashoffset:0;stroke-opacity:1;color-rendering:auto;image-rendering:auto;shape-rendering:auto;text-rendering:auto;enable-background:accumulate"
       d="m 16.90468,281.40041 c -1.138995,-0.47228 -2.559696,-0.28308 -3.817175,0.26478 -1.257474,0.54768 -2.378472,1.44527 -2.841346,2.57421 l -0.03026,0.0662 v 8.34138 h 0.768873 v -8.14316 c 0.360569,-0.84436 1.099125,-1.64654 2.173244,-2.1144 1.087167,-0.4735 2.302211,-0.59883 3.123547,-0.25848 0.82133,0.34053 1.356389,1.1945 1.201365,2.80909 -0.155028,1.61455 -0.914819,4.0663 -3.134338,7.49654 l 0.751933,0.55073 c 2.312267,-3.57351 3.335565,-6.16062 3.515495,-8.03454 0.179931,-1.87388 -0.572577,-3.08015 -1.711571,-3.55243 z"
       id="path378"
       inkscape:connector-curvature="0"
       sodipodi:nodetypes="ccccccccccccscc" />
    <path
       style="color:#000000;font-style:normal;font-variant:normal;font-weight:normal;font-stretch:normal;font-size:medium;line-height:normal;font-family:sans-serif;font-variant-ligatures:normal;font-variant-position:normal;font-variant-caps:normal;font-variant-numeric:normal;font-variant-alternates:normal;font-feature-settings:normal;text-indent:0;text-align:start;text-decoration:none;text-decoration-line:none;text-decoration-style:solid;text-decoration-color:#000000;letter-spacing:normal;word-spacing:normal;text-transform:none;writing-mode:lr-tb;direction:ltr;text-orientation:mixed;dominant-baseline:auto;baseline-shift:baseline;text-anchor:start;white-space:normal;shape-padding:0;clip-rule:nonzero;display:inline;overflow:visible;visibility:visible;isolation:auto;mix-blend-mode:normal;color-interpolation:sRGB;color-interpolation-filters:linearRGB;solid-color:#000000;solid-opacity:1;vector-effect:none;fill:#000000;fill-opacity:1;fill-rule:nonzero;stroke:none;stroke-width:0.788062;stroke-linecap:butt;stroke-linejoin:miter;stroke-miterlimit:4;stroke-dasharray:none;stroke-dashoffset:0;stroke-opacity:1;color-rendering:auto;image-rendering:auto;shape-rendering:auto;text-rendering:auto;enable-background:accumulate"
       d="m 4.2525998,281.40041 c -1.1389946,0.47226 -1.8914987,1.67853 -1.7115717,3.55242 0.1799302,1.87391 1.2032279,4.46103 3.5154946,8.03453 l 0.7537367,-0.55073 c -2.2195183,-3.43024 -2.9793072,-5.88196 -3.1343346,-7.49651 -0.1550274,-1.61461 0.3800316,-2.46859 1.2013649,-2.80912 0.8213334,-0.34057 2.036379,-0.2153 3.1235445,0.25817 1.0741182,0.46785 1.9367144,1.27004 2.2972898,2.11437 v 8.14316 h 0.520787 v -8.34138 l -0.03026,-0.0662 c -0.462864,-1.12899 -1.4616243,-2.0266 -2.7191023,-2.57426 -1.257475,-0.5477 -2.6781763,-0.73703 -3.8171709,-0.2648 z"
       id="path380"
       inkscape:connector-curvature="0"
       sodipodi:nodetypes="ccccccccccccccc" />
    <path
       style="color:#000000;font-style:normal;font-variant:normal;font-weight:normal;font-stretch:normal;font-size:medium;line-height:normal;font-family:sans-serif;font-variant-ligatures:normal;font-variant-position:normal;font-variant-caps:normal;font-variant-numeric:normal;font-variant-alternates:normal;font-feature-settings:normal;text-indent:0;text-align:start;text-decoration:none;text-decoration-line:none;text-decoration-style:solid;text-decoration-color:#000000;letter-spacing:normal;word-spacing:normal;text-transform:none;writing-mode:lr-tb;direction:ltr;text-orientation:mixed;dominant-baseline:auto;baseline-shift:baseline;text-anchor:start;white-space:normal;shape-padding:0;clip-rule:nonzero;display:inline;overflow:visible;visibility:visible;isolation:auto;mix-blend-mode:normal;color-interpolation:sRGB;color-interpolation-filters:linearRGB;solid-color:#000000;solid-opacity:1;vector-effect:none;fill:#000000;fill-opacity:1;fill-rule:nonzero;stroke:none;stroke-width:0.630449;stroke-linecap:butt;stroke-linejoin:miter;stroke-miterlimit:4;stroke-dasharray:none;stroke-dashoffset:0;stroke-opacity:1;color-rendering:auto;image-rendering:auto;shape-rendering:auto;text-rendering:auto;enable-background:accumulate"
       d="m 17.815874,282.45936 0.153925,0.61567 c 0.37204,-0.093 0.566351,-0.0948 0.74989,-0.019 0.183556,0.0763 0.312042,0.21309 0.414473,0.43854 0.204897,0.45074 0.226868,1.26825 0.03026,2.25253 -0.393719,1.96861 -1.902011,4.71617 -3.495096,6.70754 l 0.798457,0.51425 c 1.703284,-2.12905 2.968025,-4.86007 3.398515,-7.01248 0.215235,-1.07621 0.237395,-2.01189 -0.07389,-2.69668 -0.155626,-0.34237 -0.411096,-0.61986 -0.757277,-0.76341 -0.346179,-0.14343 -0.757043,-0.15257 -1.219033,-0.0369 z"
       id="path382"
       inkscape:connector-curvature="0"
       sodipodi:nodetypes="cccccccccccc" />
    <path
       style="color:#000000;font-style:normal;font-variant:normal;font-weight:normal;font-stretch:normal;font-size:medium;line-height:normal;font-family:sans-serif;font-variant-ligatures:normal;font-variant-position:normal;font-variant-caps:normal;font-variant-numeric:normal;font-variant-alternates:normal;font-feature-settings:normal;text-indent:0;text-align:start;text-decoration:none;text-decoration-line:none;text-decoration-style:solid;text-decoration-color:#000000;letter-spacing:normal;word-spacing:normal;text-transform:none;writing-mode:lr-tb;direction:ltr;text-orientation:mixed;dominant-baseline:auto;baseline-shift:baseline;text-anchor:start;white-space:normal;shape-padding:0;clip-rule:nonzero;display:inline;overflow:visible;visibility:visible;isolation:auto;mix-blend-mode:normal;color-interpolation:sRGB;color-interpolation-filters:linearRGB;solid-color:#000000;solid-opacity:1;vector-effect:none;fill:#000000;fill-opacity:1;fill-rule:nonzero;stroke:none;stroke-width:0.630449;stroke-linecap:butt;stroke-linejoin:miter;stroke-miterlimit:4;stroke-dasharray:none;stroke-dashoffset:0;stroke-opacity:1;color-rendering:auto;image-rendering:auto;shape-rendering:auto;text-rendering:auto;enable-background:accumulate"
       d="m 3.4214408,282.45936 c -0.4619868,-0.11537 -0.8790099,-0.10654 -1.2251896,0.0369 -0.3461796,0.14342 -0.6016471,0.42104 -0.7572766,0.76341 -0.3112526,0.68479 -0.2891239,1.62044 -0.073889,2.69668 0.4304896,2.15245 1.6952305,4.88343 3.3985148,7.01249 l 0.7984575,-0.51423 c -1.5930818,-1.9914 -3.1013778,-4.73896 -3.4950932,-6.70754 -0.1968578,-0.98431 -0.1748867,-1.80182 0.030262,-2.25256 0.1024481,-0.22539 0.2369229,-0.36238 0.420475,-0.43853 0.1835552,-0.076 0.3780015,-0.074 0.7500453,0.0189 z"
       id="path384"
       inkscape:connector-curvature="0"
       sodipodi:nodetypes="csccccccccc" />
    <path
       style="color:#000000;font-style:normal;font-variant:normal;font-weight:normal;font-stretch:normal;font-size:medium;line-height:normal;font-family:sans-serif;font-variant-ligatures:normal;font-variant-position:normal;font-variant-caps:normal;font-variant-numeric:normal;font-variant-alternates:normal;font-feature-settings:normal;text-indent:0;text-align:start;text-decoration:none;text-decoration-line:none;text-decoration-style:solid;text-decoration-color:#000000;letter-spacing:normal;word-spacing:normal;text-transform:none;writing-mode:lr-tb;direction:ltr;text-orientation:mixed;dominant-baseline:auto;baseline-shift:baseline;text-anchor:start;white-space:normal;shape-padding:0;clip-rule:nonzero;display:inline;overflow:visible;visibility:visible;isolation:auto;mix-blend-mode:normal;color-interpolation:sRGB;color-interpolation-filters:linearRGB;solid-color:#000000;solid-opacity:1;vector-effect:none;fill:#000000;fill-opacity:1;fill-rule:nonzero;stroke:none;stroke-width:0.788062;stroke-linecap:butt;stroke-linejoin:miter;stroke-miterlimit:4;stroke-dasharray:none;stroke-dashoffset:0;stroke-opacity:1;color-rendering:auto;image-rendering:auto;shape-rendering:auto;text-rendering:auto;enable-background:accumulate"
       d="m 10.58172,280.33529 c -0.6735755,0 -1.2313496,0.55775 -1.2313496,1.23133 0,0.67361 0.5577741,1.22521 1.2313496,1.22521 0.673571,0 1.225186,-0.5516 1.225186,-1.22521 0,-0.67358 -0.551615,-1.23133 -1.225186,-1.23133 z m 0,0.78806 c 0.247671,0 0.437125,0.19544 0.437125,0.44327 0,0.24777 -0.189451,0.43716 -0.437125,0.43716 -0.247672,0 -0.443284,-0.18945 -0.443288,-0.43716 0,-0.24777 0.195628,-0.44327 0.443288,-0.44327 z"
       id="path386"
       inkscape:connector-curvature="0" />
    <path
       style="color:#000000;font-style:normal;font-variant:normal;font-weight:normal;font-stretch:normal;font-size:medium;line-height:normal;font-family:sans-serif;font-variant-ligatures:normal;font-variant-position:normal;font-variant-caps:normal;font-variant-numeric:normal;font-variant-alternates:normal;font-feature-settings:normal;text-indent:0;text-align:start;text-decoration:none;text-decoration-line:none;text-decoration-style:solid;text-decoration-color:#000000;letter-spacing:normal;word-spacing:normal;text-transform:none;writing-mode:lr-tb;direction:ltr;text-orientation:mixed;dominant-baseline:auto;baseline-shift:baseline;text-anchor:start;white-space:normal;shape-padding:0;clip-rule:nonzero;display:inline;overflow:visible;visibility:visible;isolation:auto;mix-blend-mode:normal;color-interpolation:sRGB;color-interpolation-filters:linearRGB;solid-color:#000000;solid-opacity:1;vector-effect:none;fill:#000000;fill-opacity:1;fill-rule:nonzero;stroke:none;stroke-width:0.630449;stroke-linecap:butt;stroke-linejoin:miter;stroke-miterlimit:4;stroke-dasharray:none;stroke-dashoffset:0;stroke-opacity:1;color-rendering:auto;image-rendering:auto;shape-rendering:auto;text-rendering:auto;enable-background:accumulate"
       d="m 9.8983221,277.18919 c -0.3645005,-0.0429 -0.7474826,0.16108 -0.9419824,0.52948 -0.162908,0.30861 -0.048324,0.60675 0.086182,0.88043 0.1345379,0.27361 0.333867,0.55491 0.535636,0.81268 0.403541,0.51551 0.8373153,0.94813 0.8373153,0.94813 l 0.221634,0.2216 0.221635,-0.2216 c 0,0 0.439934,-0.43262 0.843472,-0.94813 0.201775,-0.25786 0.39496,-0.53898 0.52948,-0.81268 0.134506,-0.27362 0.255268,-0.57195 0.09236,-0.88043 -0.194493,-0.3683 -0.577498,-0.57238 -0.941979,-0.52948 -0.277082,0.0328 -0.512546,0.23831 -0.744965,0.4433 -0.23213,-0.20458 -0.462128,-0.4107 -0.7388071,-0.4433 z m -0.073889,0.62799 c 0.1363347,0.0157 0.3598639,0.13618 0.5787339,0.38177 l 0.23396,0.25849 0.233959,-0.25849 c 0.218861,-0.24556 0.448542,-0.36573 0.58489,-0.38177 0.136366,-0.0157 0.202815,-0.002 0.307848,0.19702 -0.01323,-0.0252 0.0022,0.10308 -0.09851,0.30797 -0.100681,0.20489 -0.275033,0.46332 -0.461757,0.70184 -0.268097,0.34253 -0.42426,0.49214 -0.566416,0.64033 -0.142167,-0.14816 -0.29833,-0.29789 -0.566421,-0.64033 -0.1867398,-0.23861 -0.3610685,-0.49698 -0.4617544,-0.70184 -0.1006822,-0.20489 -0.085363,-0.33269 -0.098507,-0.30797 0.1050329,-0.19891 0.1776606,-0.2131 0.3139952,-0.19702 z"
       id="path398"
       inkscape:connector-curvature="0" />
  </g>
</svg>
