<?xml version="1.0" encoding="UTF-8" standalone="no"?>
<!-- Created with Inkscape (http://www.inkscape.org/) -->

<svg
   width="80"
   height="80"
   viewBox="0 0 21.166666 21.166667"
   version="1.1"
   id="svg8"
   inkscape:version="1.1 (c68e22c387, 2021-05-23)"
   sodipodi:docname="wN.svg"
   xmlns:inkscape="http://www.inkscape.org/namespaces/inkscape"
   xmlns:sodipodi="http://sodipodi.sourceforge.net/DTD/sodipodi-0.dtd"
   xmlns:xlink="http://www.w3.org/1999/xlink"
   xmlns="http://www.w3.org/2000/svg"
   xmlns:svg="http://www.w3.org/2000/svg"
   xmlns:rdf="http://www.w3.org/1999/02/22-rdf-syntax-ns#"
   xmlns:cc="http://creativecommons.org/ns#"
   xmlns:dc="http://purl.org/dc/elements/1.1/">
  <defs
     id="defs2">
    <linearGradient
       inkscape:collect="always"
       xlink:href="#linearGradient6910"
       id="linearGradient6878"
       gradientUnits="userSpaceOnUse"
       gradientTransform="matrix(2.7884026,0,0,3.1008033,-15.864296,-521.29155)"
       x1="9.2093735"
       y1="259.50635"
       x2="15.229297"
       y2="261.77649" />
    <linearGradient
       inkscape:collect="always"
       id="linearGradient6910">
      <stop
         style="stop-color:#e6e6fa;stop-opacity:1"
         offset="0"
         id="stop6906" />
      <stop
         style="stop-color:#8a2be2;stop-opacity:1"
         offset="1"
         id="stop6908" />
    </linearGradient>
  </defs>
  <sodipodi:namedview
     id="base"
     pagecolor="#ffffff"
     bordercolor="#666666"
     borderopacity="1.0"
     inkscape:pageopacity="0.0"
     inkscape:pageshadow="2"
     inkscape:zoom="8.175"
     inkscape:cx="40"
     inkscape:cy="40"
     inkscape:document-units="px"
     inkscape:current-layer="layer1"
     showgrid="true"
     units="px"
     inkscape:window-width="1441"
     inkscape:window-height="902"
     inkscape:window-x="764"
     inkscape:window-y="435"
     inkscape:window-maximized="0"
     inkscape:snap-global="false"
     inkscape:pagecheckerboard="0">
    <inkscape:grid
       type="xygrid"
       id="grid842" />
  </sodipodi:namedview>
  <metadata
     id="metadata5">
    <rdf:RDF>
      <cc:Work
         rdf:about="">
        <dc:format>image/svg+xml</dc:format>
        <dc:type
           rdf:resource="http://purl.org/dc/dcmitype/StillImage" />
      </cc:Work>
    </rdf:RDF>
  </metadata>
  <g
     inkscape:label="Layer 1"
     inkscape:groupmode="layer"
     id="layer1"
     transform="translate(0,-275.83332)">
    <path
       style="display:inline;fill:#e6e6fa;fill-opacity:1;stroke:none;stroke-width:0.794079;stroke-linecap:butt;stroke-linejoin:miter;stroke-opacity:1"
       d="m 8.9876807,277.71714 c 4.9647783,0.85353 9.1020923,1.70708 9.1020923,5.12124 0,3.41414 -2.482391,8.53537 -2.482391,8.53537 l 1.654927,4.26773 H 6.5052923 l -0.827465,-2.56063 c 0,0 -1.6549233,-5.12125 7.4471677,-8.53537 -2.053275,0.69411 -4.1373143,1.70704 -5.7922409,0 C 6.362338,283.76756 4.8503653,285.399 4.8503653,285.399 l -1.6549262,-2.56062 6.6197033,-3.41416 z"
       id="path6802"
       inkscape:connector-curvature="0" />
    <path
       inkscape:connector-curvature="0"
       id="path6804"
       d="m 9.9574712,278.39813 c 4.4265898,0.8204 8.1154108,1.64088 8.1154108,4.92253 0,3.28169 -2.21329,8.2042 -2.21329,8.2042 l 1.475526,4.10213 H 7.7441767 l -0.737767,-2.46124 c 0,0 -2.5453633,-5.11176 5.5700473,-8.3934 -1.830697,0.66719 -2.6189858,1.83 -4.0945164,0.18904 -0.865222,-0.74772 -2.7329287,-0.18872 -2.7329287,-0.18872 l -0.9558965,-1.4523 5.9021216,-3.28166 z"
       style="display:inline;fill:url(#linearGradient6878);fill-opacity:1;stroke:none;stroke-width:0.735114;stroke-linecap:butt;stroke-linejoin:miter;stroke-opacity:1"
       sodipodi:nodetypes="cscccccccccc" />
    <path
       style="color:#000000;font-style:normal;font-variant:normal;font-weight:normal;font-stretch:normal;font-size:medium;line-height:normal;font-family:sans-serif;font-variant-ligatures:normal;font-variant-position:normal;font-variant-caps:normal;font-variant-numeric:normal;font-variant-alternates:normal;font-feature-settings:normal;text-indent:0;text-align:start;text-decoration:none;text-decoration-line:none;text-decoration-style:solid;text-decoration-color:#000000;letter-spacing:normal;word-spacing:normal;text-transform:none;writing-mode:lr-tb;direction:ltr;text-orientation:mixed;dominant-baseline:auto;baseline-shift:baseline;text-anchor:start;white-space:normal;shape-padding:0;clip-rule:nonzero;display:inline;overflow:visible;visibility:visible;opacity:1;isolation:auto;mix-blend-mode:normal;color-interpolation:sRGB;color-interpolation-filters:linearRGB;solid-color:#000000;solid-opacity:1;vector-effect:none;fill:#000000;fill-opacity:1;fill-rule:nonzero;stroke:none;stroke-width:0.635263;stroke-linecap:butt;stroke-linejoin:miter;stroke-miterlimit:4;stroke-dasharray:none;stroke-dashoffset:0;stroke-opacity:1;color-rendering:auto;image-rendering:auto;shape-rendering:auto;text-rendering:auto;enable-background:accumulate"
       d="m 8.1610304,293.6132 v 0.64269 l 2.4305306,-0.092 2.490053,0.092 v -0.64269 l -2.490053,-0.092 z"
       id="path6852"
       inkscape:connector-curvature="0"
       sodipodi:nodetypes="ccccccc" />
    <path
       style="color:#000000;font-style:normal;font-variant:normal;font-weight:normal;font-stretch:normal;font-size:medium;line-height:normal;font-family:sans-serif;font-variant-ligatures:normal;font-variant-position:normal;font-variant-caps:normal;font-variant-numeric:normal;font-variant-alternates:normal;font-feature-settings:normal;text-indent:0;text-align:start;text-decoration:none;text-decoration-line:none;text-decoration-style:solid;text-decoration-color:#000000;letter-spacing:normal;word-spacing:normal;text-transform:none;writing-mode:lr-tb;direction:ltr;text-orientation:mixed;dominant-baseline:auto;baseline-shift:baseline;text-anchor:start;white-space:normal;shape-padding:0;clip-rule:nonzero;display:inline;overflow:visible;visibility:visible;opacity:1;isolation:auto;mix-blend-mode:normal;color-interpolation:sRGB;color-interpolation-filters:linearRGB;solid-color:#000000;solid-opacity:1;vector-effect:none;fill:#000000;fill-opacity:1;fill-rule:nonzero;stroke:none;stroke-width:0.794079;stroke-linecap:butt;stroke-linejoin:miter;stroke-miterlimit:4;stroke-dasharray:none;stroke-dashoffset:0;stroke-opacity:1;color-rendering:auto;image-rendering:auto;shape-rendering:auto;text-rendering:auto;enable-background:accumulate"
       d="m 8.7474215,279.97209 c -0.6682621,0 -1.2155313,0.56455 -1.2155397,1.25385 8.4e-6,0.68933 0.5472776,1.26015 1.2155397,1.26015 0.6682616,0 1.2216394,-0.57082 1.2216476,-1.26015 -8.2e-6,-0.6893 -0.553386,-1.25385 -1.2216476,-1.25385 z m 0,0.80649 c 0.245718,0 0.43979,0.19389 0.439793,0.44736 -3e-6,0.25355 -0.194075,0.45367 -0.439793,0.45367 -0.2457214,0 -0.4336821,-0.20034 -0.4336852,-0.45367 3.1e-6,-0.25357 0.1879642,-0.44736 0.4336852,-0.44736 z"
       id="path6864"
       inkscape:connector-curvature="0" />
    <path
       style="color:#000000;font-style:normal;font-variant:normal;font-weight:normal;font-stretch:normal;font-size:medium;line-height:normal;font-family:sans-serif;font-variant-ligatures:normal;font-variant-position:normal;font-variant-caps:normal;font-variant-numeric:normal;font-variant-alternates:normal;font-feature-settings:normal;text-indent:0;text-align:start;text-decoration:none;text-decoration-line:none;text-decoration-style:solid;text-decoration-color:#000000;letter-spacing:normal;word-spacing:normal;text-transform:none;writing-mode:lr-tb;direction:ltr;text-orientation:mixed;dominant-baseline:auto;baseline-shift:baseline;text-anchor:start;white-space:normal;shape-padding:0;clip-rule:nonzero;display:inline;overflow:visible;visibility:visible;isolation:auto;mix-blend-mode:normal;color-interpolation:sRGB;color-interpolation-filters:linearRGB;solid-color:#000000;solid-opacity:1;vector-effect:none;fill:#000000;fill-opacity:1;fill-rule:nonzero;stroke:none;stroke-width:0.785311;stroke-linecap:butt;stroke-linejoin:miter;stroke-miterlimit:4;stroke-dasharray:none;stroke-dashoffset:0;stroke-opacity:1;color-rendering:auto;image-rendering:auto;shape-rendering:auto;text-rendering:auto;enable-background:accumulate"
       d="m 7.8622083,277.14204 c 0.3455525,0.78305 0.8520497,1.57037 1.3167306,2.28509 l -6.6935491,3.34987 2.1600946,3.28259 c 0.3432373,-0.40781 0.7661586,-0.72189 1.1053187,-0.98776 1.5077872,-0.91496 1.709078,1.20175 4.1704995,0.65889 -2.3968721,1.07589 -3.981802,2.45348 -4.5187315,3.75905 -0.7781424,1.77864 -0.6038978,3.2001 -0.3758435,3.90958 l 0.9202837,2.295 H 17.683938 l -0.0049,-2.28281 -1.690711,-1.24129 c 0.06741,-0.13634 1.109339,-2.26292 1.70344,-3.84717 0.630892,-1.68239 1.038749,-3.42181 1.038749,-5.18222 0,-0.9129 -0.460094,-2.03376 -0.981685,-2.65676 -0.521577,-0.62296 -1.250152,-1.09335 -2.116657,-1.47245 -1.733008,-0.75818 -4.512207,-1.32512 -7.0090649,-1.74123 z m 1.5126185,1.10512 c 2.0713192,0.3587 4.0604072,0.7156 5.4184772,1.30973 0.775686,0.33939 1.379213,0.73867 1.782231,1.22008 0.403018,0.48138 0.766673,1.42681 0.869189,2.15002 0.216117,1.52468 -0.224096,3.78387 -1.012922,5.38459 -0.600274,1.60072 -1.766287,3.76047 -1.766287,3.76047 l 1.746946,1.16465 2.03e-4,1.46026 -5.906511,-0.17464 -3.742877,0.17464 -0.7236576,-1.71684 c 0,0 -0.3662249,-1.50691 0.2930465,-3.01384 2.1256414,-4.1972 5.6368531,-3.16791 6.5188941,-5.78343 -0.798633,0.64994 -1.489451,0.89048 -2.406195,1.01468 -0.8918506,0.1112 -2.1480934,-0.19255 -2.6927158,-0.70099 -0.5446195,-0.50845 -1.0693451,-0.51209 -1.4166535,-0.45942 -0.3473084,0.0529 -0.5334396,0.14262 -0.8047394,0.30661 -0.3327298,0.2007 -0.4093573,0.30876 -0.5741408,0.46053 l -1.1542653,-1.72844 6.4411598,-3.21761 z"
       id="path358"
       inkscape:connector-curvature="0"
       sodipodi:nodetypes="cccccccccccccsccccccsscccccccccccsccccc" />
  </g>
</svg>
