<?xml version="1.0" encoding="UTF-8" standalone="no"?>
<!-- Created with Inkscape (http://www.inkscape.org/) -->

<svg
   width="80"
   height="80"
   viewBox="0 0 21.166666 21.166667"
   version="1.1"
   id="svg8"
   inkscape:version="1.1 (c68e22c387, 2021-05-23)"
   sodipodi:docname="wQ.svg"
   xmlns:inkscape="http://www.inkscape.org/namespaces/inkscape"
   xmlns:sodipodi="http://sodipodi.sourceforge.net/DTD/sodipodi-0.dtd"
   xmlns:xlink="http://www.w3.org/1999/xlink"
   xmlns="http://www.w3.org/2000/svg"
   xmlns:svg="http://www.w3.org/2000/svg"
   xmlns:rdf="http://www.w3.org/1999/02/22-rdf-syntax-ns#"
   xmlns:cc="http://creativecommons.org/ns#"
   xmlns:dc="http://purl.org/dc/elements/1.1/">
  <defs
     id="defs2">
    <linearGradient
       inkscape:collect="always"
       xlink:href="#linearGradient6934"
       id="linearGradient426"
       gradientUnits="userSpaceOnUse"
       gradientTransform="matrix(2.7776497,0,0,2.8993463,-71.753621,-468.23955)"
       x1="29.506487"
       y1="260.73715"
       x2="33.597176"
       y2="261.88248" />
    <linearGradient
       inkscape:collect="always"
       id="linearGradient6934">
      <stop
         style="stop-color:#e6e6fa;stop-opacity:1"
         offset="0"
         id="stop6930" />
      <stop
         style="stop-color:#8a2be2;stop-opacity:1"
         offset="1"
         id="stop6932" />
    </linearGradient>
  </defs>
  <sodipodi:namedview
     id="base"
     pagecolor="#ffffff"
     bordercolor="#666666"
     borderopacity="1.0"
     inkscape:pageopacity="0.0"
     inkscape:pageshadow="2"
     inkscape:zoom="8.175"
     inkscape:cx="40"
     inkscape:cy="40"
     inkscape:document-units="px"
     inkscape:current-layer="layer1"
     showgrid="true"
     units="px"
     inkscape:window-width="1441"
     inkscape:window-height="902"
     inkscape:window-x="764"
     inkscape:window-y="435"
     inkscape:window-maximized="0"
     inkscape:snap-global="false"
     inkscape:pagecheckerboard="0">
    <inkscape:grid
       type="xygrid"
       id="grid842" />
  </sodipodi:namedview>
  <metadata
     id="metadata5">
    <rdf:RDF>
      <cc:Work
         rdf:about="">
        <dc:format>image/svg+xml</dc:format>
        <dc:type
           rdf:resource="http://purl.org/dc/dcmitype/StillImage" />
      </cc:Work>
    </rdf:RDF>
  </metadata>
  <g
     inkscape:label="Layer 1"
     inkscape:groupmode="layer"
     id="layer1"
     transform="translate(0,-275.83332)">
    <path
       inkscape:connector-curvature="0"
       style="display:inline;fill:#e6e6fa;fill-opacity:1;stroke:none;stroke-width:0.731429;stroke-linecap:butt;stroke-linejoin:miter;stroke-opacity:1"
       d="m 7.6489288,277.63897 c -0.4310229,0 -0.780435,0.34374 -0.780435,0.76781 6e-6,0.42404 0.3494181,0.76778 0.780435,0.76778 0.4310199,0 0.780435,-0.34374 0.780441,-0.76778 -3e-6,-0.42407 -0.3494151,-0.76781 -0.780441,-0.76781 z m 5.9798082,0 c -0.431023,0 -0.780435,0.34374 -0.780438,0.76781 9e-6,0.42404 0.349421,0.76778 0.780438,0.76778 0.431017,0 0.780429,-0.34374 0.780438,-0.76778 -3e-6,-0.42407 -0.349415,-0.76781 -0.780438,-0.76781 z m -11.1852687,1.76804 c -0.4310199,0 -0.780432,0.34374 -0.780441,0.76778 -1.2e-5,0.42407 0.3494061,0.76784 0.780441,0.76784 0.4310349,0 0.7804531,-0.34377 0.780438,-0.76784 -6e-6,-0.42404 -0.3494181,-0.76778 -0.780438,-0.76778 z m 16.3892137,0 c -0.43102,0 -0.780435,0.34374 -0.780441,0.76778 -1.5e-5,0.42407 0.349403,0.76784 0.780441,0.76784 0.431032,0 0.780447,-0.34377 0.780435,-0.76784 -6e-6,-0.42404 -0.349418,-0.76778 -0.780435,-0.76778 z m -10.9368125,0.3644 -0.9224862,5.08941 -3.7601479,-3.5538 3.0896341,10.82704 -1.5608791,0.7678 v 2.30339 H 16.44857 v -2.30339 l -1.560876,-0.7678 3.153879,-10.82704 -3.868659,3.34263 -0.813972,-4.87824 -2.717819,4.10445 z"
       id="path338"
       sodipodi:nodetypes="scscsscscsscscsscscscccccccccccccc" />
    <path
       id="path340"
       d="m 8.1201029,278.12136 c -0.4058765,0 -0.3889528,0.37294 -0.3889648,0.79659 0.3803571,0.0692 0.1619283,-0.19098 0.172515,-0.38329 -1.2e-5,-0.42361 0.6223353,-0.4133 0.2164258,-0.4133 z m 5.6310401,0 c -0.405877,0 -0.571667,0.22798 -0.571676,0.65156 -9e-6,0.42368 -0.208997,0.14587 0.196877,0.14587 0.405888,0 0.879071,0.009 0.879068,-0.41333 -1.2e-5,-0.42368 -0.09841,-0.38386 -0.504281,-0.38386 z m -10.5328969,1.76648 c -0.4058765,0 -0.7349092,0.34343 -0.7349213,0.76711 -6e-6,0.42365 -0.074618,-0.0584 0.3313065,-0.0584 0.4058915,0 0.3601401,0.30512 0.3601371,-0.1185 -1.2e-5,-0.42367 0.4493571,-0.59023 0.04346,-0.59023 z m 15.7995459,-0.33911 c -0.405879,0 -0.870548,-0.13143 -0.870563,0.29234 -3e-6,0.42365 0.186621,0.48187 0.592521,0.48187 0.405892,0 0.538226,0.75569 0.53822,0.33198 -1.3e-5,-0.42368 0.145687,-1.10622 -0.260187,-1.10622 z m -10.6651547,0.70317 -1.1814873,4.81882 -3.345793,-3.07454 3.0574439,10.5399 -1.4698395,0.76715 v 2.30134 H 16.436759 v -2.30134 l -1.573466,-1.64798 3.043305,-9.86912 -3.64302,3.33971 -0.766501,-4.87394 -2.559298,4.10081 z"
       style="display:inline;fill:url(#linearGradient426);fill-opacity:1;stroke:none;stroke-width:0.709465;stroke-linecap:butt;stroke-linejoin:miter;stroke-opacity:1"
       inkscape:connector-curvature="0"
       sodipodi:nodetypes="sccsscscscccccccccccccccccccccccccccc" />
    <path
       style="color:#000000;font-style:normal;font-variant:normal;font-weight:normal;font-stretch:normal;font-size:medium;line-height:normal;font-family:sans-serif;font-variant-ligatures:normal;font-variant-position:normal;font-variant-caps:normal;font-variant-numeric:normal;font-variant-alternates:normal;font-feature-settings:normal;text-indent:0;text-align:start;text-decoration:none;text-decoration-line:none;text-decoration-style:solid;text-decoration-color:#000000;letter-spacing:normal;word-spacing:normal;text-transform:none;writing-mode:lr-tb;direction:ltr;text-orientation:mixed;dominant-baseline:auto;baseline-shift:baseline;text-anchor:start;white-space:normal;shape-padding:0;clip-rule:nonzero;display:inline;overflow:visible;visibility:visible;isolation:auto;mix-blend-mode:normal;color-interpolation:sRGB;color-interpolation-filters:linearRGB;solid-color:#000000;solid-opacity:1;vector-effect:none;fill:#000000;fill-opacity:1;fill-rule:nonzero;stroke:none;stroke-width:0.737424;stroke-linecap:butt;stroke-linejoin:miter;stroke-miterlimit:4;stroke-dasharray:none;stroke-dashoffset:0;stroke-opacity:1;color-rendering:auto;image-rendering:auto;shape-rendering:auto;text-rendering:auto;enable-background:accumulate"
       d="m 13.539213,279.10758 -2.932406,4.49943 -2.9554511,-4.48791 -0.8584066,5.36481 -3.8580177,-3.4996 -0.293089,0.20031 3.3802779,10.24813 -1.4472134,1.10005 0.5051719,0.49637 1.7880809,-1.36592 -2.7100558,-8.71436 3.2464765,2.82181 0.743168,-4.50371 2.4641954,3.73263 2.430669,-3.72703 0.743168,4.53165 3.240891,-2.84416 -2.704467,8.70317 1.788078,1.36592 0.505349,-0.49637 -1.447213,-1.10005 3.371763,-10.23457 -0.342669,-0.16752 -3.914419,3.54531 z"
       id="path354"
       inkscape:connector-curvature="0"
       sodipodi:nodetypes="ccccccccccccccccccccccccc" />
    <g
       transform="matrix(2.9496892,0,0,2.9496892,-77.204059,-463.8821)"
       id="g374"
       style="display:inline">
      <path
         inkscape:connector-curvature="0"
         id="path366"
         d="m 28.755859,251.24219 c -0.213684,0 -0.388677,0.17694 -0.388671,0.39062 2e-6,0.21368 0.174993,0.38867 0.388671,0.38867 0.213679,0 0.390623,-0.17499 0.390625,-0.38867 6e-6,-0.21368 -0.176941,-0.39062 -0.390625,-0.39062 z m 0,0.25 c 0.07857,0 0.140627,0.062 0.140625,0.14062 -1e-6,0.0786 -0.06206,0.13867 -0.140625,0.13867 -0.07857,0 -0.138671,-0.0601 -0.138671,-0.13867 -2e-6,-0.0786 0.0601,-0.14062 0.138671,-0.14062 z"
         style="color:#000000;font-style:normal;font-variant:normal;font-weight:normal;font-stretch:normal;font-size:medium;line-height:normal;font-family:sans-serif;font-variant-ligatures:normal;font-variant-position:normal;font-variant-caps:normal;font-variant-numeric:normal;font-variant-alternates:normal;font-feature-settings:normal;text-indent:0;text-align:start;text-decoration:none;text-decoration-line:none;text-decoration-style:solid;text-decoration-color:#000000;letter-spacing:normal;word-spacing:normal;text-transform:none;writing-mode:lr-tb;direction:ltr;text-orientation:mixed;dominant-baseline:auto;baseline-shift:baseline;text-anchor:start;white-space:normal;shape-padding:0;clip-rule:nonzero;display:inline;overflow:visible;visibility:visible;opacity:1;isolation:auto;mix-blend-mode:normal;color-interpolation:sRGB;color-interpolation-filters:linearRGB;solid-color:#000000;solid-opacity:1;vector-effect:none;fill:#000000;fill-opacity:1;fill-rule:nonzero;stroke:none;stroke-width:0.25;stroke-linecap:butt;stroke-linejoin:miter;stroke-miterlimit:4;stroke-dasharray:none;stroke-dashoffset:0;stroke-opacity:1;color-rendering:auto;image-rendering:auto;shape-rendering:auto;text-rendering:auto;enable-background:accumulate" />
      <path
         inkscape:connector-curvature="0"
         id="path368"
         d="m 30.783203,251.24219 c -0.213684,0 -0.39063,0.17694 -0.390625,0.39062 3e-6,0.21368 0.176947,0.38867 0.390625,0.38867 0.213678,0 0.388669,-0.17499 0.388672,-0.38867 5e-6,-0.21368 -0.174988,-0.39062 -0.388672,-0.39062 z m 0,0.25 c 0.07857,0 0.138674,0.062 0.138672,0.14062 -1e-6,0.0786 -0.0601,0.13867 -0.138672,0.13867 -0.07857,0 -0.140624,-0.0601 -0.140625,-0.13867 -2e-6,-0.0786 0.06205,-0.14062 0.140625,-0.14062 z"
         style="color:#000000;font-style:normal;font-variant:normal;font-weight:normal;font-stretch:normal;font-size:medium;line-height:normal;font-family:sans-serif;font-variant-ligatures:normal;font-variant-position:normal;font-variant-caps:normal;font-variant-numeric:normal;font-variant-alternates:normal;font-feature-settings:normal;text-indent:0;text-align:start;text-decoration:none;text-decoration-line:none;text-decoration-style:solid;text-decoration-color:#000000;letter-spacing:normal;word-spacing:normal;text-transform:none;writing-mode:lr-tb;direction:ltr;text-orientation:mixed;dominant-baseline:auto;baseline-shift:baseline;text-anchor:start;white-space:normal;shape-padding:0;clip-rule:nonzero;display:inline;overflow:visible;visibility:visible;opacity:1;isolation:auto;mix-blend-mode:normal;color-interpolation:sRGB;color-interpolation-filters:linearRGB;solid-color:#000000;solid-opacity:1;vector-effect:none;fill:#000000;fill-opacity:1;fill-rule:nonzero;stroke:none;stroke-width:0.25;stroke-linecap:butt;stroke-linejoin:miter;stroke-miterlimit:4;stroke-dasharray:none;stroke-dashoffset:0;stroke-opacity:1;color-rendering:auto;image-rendering:auto;shape-rendering:auto;text-rendering:auto;enable-background:accumulate" />
      <path
         inkscape:connector-curvature="0"
         id="path370"
         d="m 32.546875,251.85156 c -0.213678,0 -0.388669,0.17695 -0.388672,0.39063 -5e-6,0.21368 0.174988,0.38867 0.388672,0.38867 0.213684,0 0.39063,-0.17499 0.390625,-0.38867 -3e-6,-0.21368 -0.176946,-0.39063 -0.390625,-0.39063 z m 0,0.25 c 0.07857,0 0.140624,0.0621 0.140625,0.14063 2e-6,0.0786 -0.06205,0.13867 -0.140625,0.13867 -0.07857,0 -0.138674,-0.0601 -0.138672,-0.13867 10e-7,-0.0786 0.0601,-0.14063 0.138672,-0.14063 z"
         style="color:#000000;font-style:normal;font-variant:normal;font-weight:normal;font-stretch:normal;font-size:medium;line-height:normal;font-family:sans-serif;font-variant-ligatures:normal;font-variant-position:normal;font-variant-caps:normal;font-variant-numeric:normal;font-variant-alternates:normal;font-feature-settings:normal;text-indent:0;text-align:start;text-decoration:none;text-decoration-line:none;text-decoration-style:solid;text-decoration-color:#000000;letter-spacing:normal;word-spacing:normal;text-transform:none;writing-mode:lr-tb;direction:ltr;text-orientation:mixed;dominant-baseline:auto;baseline-shift:baseline;text-anchor:start;white-space:normal;shape-padding:0;clip-rule:nonzero;display:inline;overflow:visible;visibility:visible;opacity:1;isolation:auto;mix-blend-mode:normal;color-interpolation:sRGB;color-interpolation-filters:linearRGB;solid-color:#000000;solid-opacity:1;vector-effect:none;fill:#000000;fill-opacity:1;fill-rule:nonzero;stroke:none;stroke-width:0.25;stroke-linecap:butt;stroke-linejoin:miter;stroke-miterlimit:4;stroke-dasharray:none;stroke-dashoffset:0;stroke-opacity:1;color-rendering:auto;image-rendering:auto;shape-rendering:auto;text-rendering:auto;enable-background:accumulate" />
      <path
         inkscape:connector-curvature="0"
         id="path372"
         d="m 26.992188,251.85156 c -0.213679,0 -0.390623,0.17695 -0.390626,0.39063 -5e-6,0.21368 0.176941,0.38867 0.390626,0.38867 0.213683,0 0.388677,-0.17499 0.388671,-0.38867 -2e-6,-0.21368 -0.174993,-0.39063 -0.388671,-0.39063 z m 0,0.25 c 0.07857,0 0.13867,0.0621 0.138671,0.14063 2e-6,0.0786 -0.0601,0.13867 -0.138671,0.13867 -0.07857,0 -0.140627,-0.0601 -0.140626,-0.13867 10e-7,-0.0786 0.06206,-0.14063 0.140626,-0.14063 z"
         style="color:#000000;font-style:normal;font-variant:normal;font-weight:normal;font-stretch:normal;font-size:medium;line-height:normal;font-family:sans-serif;font-variant-ligatures:normal;font-variant-position:normal;font-variant-caps:normal;font-variant-numeric:normal;font-variant-alternates:normal;font-feature-settings:normal;text-indent:0;text-align:start;text-decoration:none;text-decoration-line:none;text-decoration-style:solid;text-decoration-color:#000000;letter-spacing:normal;word-spacing:normal;text-transform:none;writing-mode:lr-tb;direction:ltr;text-orientation:mixed;dominant-baseline:auto;baseline-shift:baseline;text-anchor:start;white-space:normal;shape-padding:0;clip-rule:nonzero;display:inline;overflow:visible;visibility:visible;opacity:1;isolation:auto;mix-blend-mode:normal;color-interpolation:sRGB;color-interpolation-filters:linearRGB;solid-color:#000000;solid-opacity:1;vector-effect:none;fill:#000000;fill-opacity:1;fill-rule:nonzero;stroke:none;stroke-width:0.25;stroke-linecap:butt;stroke-linejoin:miter;stroke-miterlimit:4;stroke-dasharray:none;stroke-dashoffset:0;stroke-opacity:1;color-rendering:auto;image-rendering:auto;shape-rendering:auto;text-rendering:auto;enable-background:accumulate" />
    </g>
    <path
       style="color:#000000;font-style:normal;font-variant:normal;font-weight:normal;font-stretch:normal;font-size:medium;line-height:normal;font-family:sans-serif;font-variant-ligatures:normal;font-variant-position:normal;font-variant-caps:normal;font-variant-numeric:normal;font-variant-alternates:normal;font-feature-settings:normal;text-indent:0;text-align:start;text-decoration:none;text-decoration-line:none;text-decoration-style:solid;text-decoration-color:#000000;letter-spacing:normal;word-spacing:normal;text-transform:none;writing-mode:lr-tb;direction:ltr;text-orientation:mixed;dominant-baseline:auto;baseline-shift:baseline;text-anchor:start;white-space:normal;shape-padding:0;clip-rule:nonzero;display:inline;overflow:visible;visibility:visible;isolation:auto;mix-blend-mode:normal;color-interpolation:sRGB;color-interpolation-filters:linearRGB;solid-color:#000000;solid-opacity:1;vector-effect:none;fill:#000000;fill-opacity:1;fill-rule:nonzero;stroke:none;stroke-width:0.737424;stroke-linecap:butt;stroke-linejoin:miter;stroke-miterlimit:4;stroke-dasharray:none;stroke-dashoffset:0;stroke-opacity:1;color-rendering:auto;image-rendering:auto;shape-rendering:auto;text-rendering:auto;enable-background:accumulate"
       d="m 4.3732817,292.55262 v 3.07643 H 4.7419934 16.817284 v -3.07643 z m 0.9370579,0.76351 5.3101934,-0.16211 5.259694,0.16211 v 1.54328 l -5.259694,-0.16211 -5.3101934,0.16211 z"
       id="path388"
       inkscape:connector-curvature="0"
       sodipodi:nodetypes="ccccccccccccc" />
    <path
       style="color:#000000;font-style:normal;font-variant:normal;font-weight:normal;font-stretch:normal;font-size:medium;line-height:normal;font-family:sans-serif;font-variant-ligatures:normal;font-variant-position:normal;font-variant-caps:normal;font-variant-numeric:normal;font-variant-alternates:normal;font-feature-settings:normal;text-indent:0;text-align:start;text-decoration:none;text-decoration-line:none;text-decoration-style:solid;text-decoration-color:#000000;letter-spacing:normal;word-spacing:normal;text-transform:none;writing-mode:lr-tb;direction:ltr;text-orientation:mixed;dominant-baseline:auto;baseline-shift:baseline;text-anchor:start;white-space:normal;shape-padding:0;clip-rule:nonzero;display:inline;overflow:visible;visibility:visible;isolation:auto;mix-blend-mode:normal;color-interpolation:sRGB;color-interpolation-filters:linearRGB;solid-color:#000000;solid-opacity:1;vector-effect:none;fill:#000000;fill-opacity:1;fill-rule:nonzero;stroke:none;stroke-width:0.589938;stroke-linecap:butt;stroke-linejoin:miter;stroke-miterlimit:4;stroke-dasharray:none;stroke-dashoffset:0;stroke-opacity:1;color-rendering:auto;image-rendering:auto;shape-rendering:auto;text-rendering:auto;enable-background:accumulate"
       d="m 12.854813,282.8648 -2.248006,3.38176 -2.2768138,-3.37598 -0.829603,4.15374 -3.3517931,-2.81717 -0.3687088,0.46085 4.2805051,3.42789 0.731664,-3.64681 1.8205086,2.9209 1.791705,-2.9151 0.725902,3.64101 4.280505,-3.42789 -0.368709,-0.46085 -3.351793,2.82292 z"
       id="path400"
       inkscape:connector-curvature="0"
       sodipodi:nodetypes="ccccccccccccccc" />
    <path
       style="color:#000000;font-style:normal;font-variant:normal;font-weight:normal;font-stretch:normal;font-size:medium;line-height:normal;font-family:sans-serif;font-variant-ligatures:normal;font-variant-position:normal;font-variant-caps:normal;font-variant-numeric:normal;font-variant-alternates:normal;font-feature-settings:normal;text-indent:0;text-align:start;text-decoration:none;text-decoration-line:none;text-decoration-style:solid;text-decoration-color:#000000;letter-spacing:normal;word-spacing:normal;text-transform:none;writing-mode:lr-tb;direction:ltr;text-orientation:mixed;dominant-baseline:auto;baseline-shift:baseline;text-anchor:start;white-space:normal;shape-padding:0;clip-rule:nonzero;display:inline;overflow:visible;visibility:visible;isolation:auto;mix-blend-mode:normal;color-interpolation:sRGB;color-interpolation-filters:linearRGB;solid-color:#000000;solid-opacity:1;vector-effect:none;fill:#000000;fill-opacity:1;fill-rule:nonzero;stroke:none;stroke-width:0.589938;stroke-linecap:butt;stroke-linejoin:miter;stroke-miterlimit:4;stroke-dasharray:none;stroke-dashoffset:0;stroke-opacity:1;color-rendering:auto;image-rendering:auto;shape-rendering:auto;text-rendering:auto;enable-background:accumulate"
       d="m 9.9097087,288.06708 c -0.3410781,-0.04 -0.6994467,0.15068 -0.8814477,0.49547 -0.1523943,0.28843 -0.039459,0.56771 0.086408,0.82384 0.1258674,0.25594 0.3066503,0.51923 0.4954574,0.76044 0.3776022,0.48241 0.7835086,0.88723 0.7835086,0.88723 l 0.213178,0.20753 0.207403,-0.20753 c 0,0 0.405903,-0.40482 0.783511,-0.88723 0.188817,-0.24121 0.375341,-0.50432 0.501217,-0.76044 0.125868,-0.25595 0.233088,-0.53523 0.08066,-0.82384 -0.181989,-0.34467 -0.540388,-0.53565 -0.881448,-0.49547 -0.25769,0.0304 -0.474919,0.22467 -0.691335,0.41481 -0.217479,-0.19159 -0.437808,-0.38428 -0.6970921,-0.41481 z m -0.069144,0.58765 c 0.1275817,0.015 0.3367383,0.12722 0.5415423,0.35718 l 0.224667,0.24181 0.218922,-0.24181 c 0.204816,-0.22978 0.413958,-0.34217 0.541545,-0.35718 0.127582,-0.015 0.189779,-0.002 0.288067,0.18437 -0.01233,-0.0241 0.0075,0.0965 -0.08641,0.28782 -0.09423,0.19159 -0.257359,0.43358 -0.432082,0.6568 -0.25002,0.31941 -0.396517,0.45992 -0.530023,0.59914 -0.133026,-0.13865 -0.279164,-0.2788 -0.530021,-0.59914 -0.1747403,-0.22346 -0.3378657,-0.46506 -0.4320873,-0.6568 -0.094228,-0.19158 -0.079881,-0.31128 -0.092182,-0.28782 0.098288,-0.18617 0.1604847,-0.1994 0.2880664,-0.18437 z"
       id="path402"
       inkscape:connector-curvature="0" />
  </g>
</svg>
