<?xml version="1.0" encoding="UTF-8" standalone="no"?>
<!-- Created with Inkscape (http://www.inkscape.org/) -->

<svg
   width="385.1022"
   height="320.66589"
   id="svg3073"
   version="1.1"
   inkscape:version="1.1 (c68e22c387, 2021-05-23)"
   sodipodi:docname="bee.svg"
   xmlns:inkscape="http://www.inkscape.org/namespaces/inkscape"
   xmlns:sodipodi="http://sodipodi.sourceforge.net/DTD/sodipodi-0.dtd"
   xmlns="http://www.w3.org/2000/svg"
   xmlns:svg="http://www.w3.org/2000/svg"
   xmlns:rdf="http://www.w3.org/1999/02/22-rdf-syntax-ns#"
   xmlns:cc="http://creativecommons.org/ns#"
   xmlns:dc="http://purl.org/dc/elements/1.1/">
  <defs
     id="defs3075" />
  <sodipodi:namedview
     id="base"
     pagecolor="#ffffff"
     bordercolor="#666666"
     borderopacity="1.0"
     inkscape:pageopacity="0.0"
     inkscape:pageshadow="2"
     inkscape:zoom="1.0143903"
     inkscape:cx="251.87544"
     inkscape:cy="296.23706"
     inkscape:document-units="px"
     inkscape:current-layer="layer1"
     showgrid="false"
     fit-margin-top="25"
     fit-margin-left="25"
     fit-margin-right="25"
     fit-margin-bottom="25"
     inkscape:window-width="1738"
     inkscape:window-height="1081"
     inkscape:window-x="745"
     inkscape:window-y="273"
     inkscape:window-maximized="0"
     inkscape:object-paths="true"
     inkscape:pagecheckerboard="0"
     width="350px" />
  <metadata
     id="metadata3078">
    <rdf:RDF>
      <cc:Work
         rdf:about="">
        <dc:format>image/svg+xml</dc:format>
        <dc:type
           rdf:resource="http://purl.org/dc/dcmitype/StillImage" />
      </cc:Work>
    </rdf:RDF>
  </metadata>
  <g
     inkscape:label="colour"
     inkscape:groupmode="layer"
     id="layer1"
     transform="translate(-643.01448,1271.456)"
     style="display:inline">
    <path
       style="display:inline;fill:#000000;fill-opacity:1;fill-rule:evenodd;stroke:none;stroke-width:0.600053"
       d="m 744.6428,-1123.4783 c -4.05828,5.8059 -4.70158,13.0468 -1.22484,17.0819 3.89934,4.5255 11.5054,3.2997 16.97826,-2.7418 0.86791,-0.9581 1.6272,-1.975 2.28009,-3.0338 -5.0731,-0.5314 -9.74035,-2.4184 -13.51099,-5.7663 -1.8213,-1.617 -3.32263,-3.483 -4.52252,-5.54 z"
       id="path3782"
       inkscape:connector-curvature="0" />
    <path
       style="fill:#e5ffff;fill-opacity:1;stroke:none;stroke-width:0.600053"
       d="m 891.75624,-1245.7746 c -11.89491,0.1675 -24.20927,7.3857 -28.94396,16.6486 -4.88077,9.5483 -20.25192,46.3746 -28.39766,66.0475 2.23639,0.4491 4.44431,1.1304 6.59539,2.0822 l 8.11224,3.5897 c 9.46758,4.1897 15.74155,12.4673 17.96751,22.1415 8.9038,-3.7729 19.55169,-5.9019 30.94148,-5.5966 28.54862,-15.7855 35.97824,-32.5137 26.0704,-44.0097 -2.06485,-2.3958 -4.75825,-3.4733 -7.90499,-3.5049 13.23226,-17.7303 15.55614,-36.464 -10.19448,-53.4599 -4.27118,-2.8191 -9.2236,-4.009 -14.24593,-3.9384 z"
       id="path3814"
       inkscape:connector-curvature="0" />
    <path
       style="fill:#ffff00;fill-opacity:1;fill-rule:evenodd;stroke:none;stroke-width:0.600053"
       d="m 784.28069,-1182.2427 c -10.50356,0.054 -22.23215,5.5281 -31.17701,15.6026 -14.31182,16.1193 -16.07754,37.9238 -3.93836,48.7018 9.50013,8.4349 24.69686,7.6138 37.71585,-0.8668 -0.74476,13.7145 6.20952,26.5502 18.81549,32.1287 l 8.11237,3.5897 c 10.51977,4.6553 22.43883,3.1323 32.07203,-3.015 7.94644,15.7114 26.18809,31.0518 52.33872,40.712 29.32514,10.8331 60.58606,11.5706 78.24881,2.7041 6.85068,-3.4389 17.44643,-1.2108 25.09051,13.2472 3.5664,-29.5132 -10.27034,-76.3446 -71.49341,-103.9989 -22.71298,-10.2594 -46.00789,-9.0179 -62.97593,-1.8278 -2.22596,-9.6742 -8.49993,-17.9518 -17.96751,-22.1415 l -8.11224,-3.5897 c -10.4864,-4.6405 -22.36098,-3.1492 -31.97791,2.949 -0.27663,-7.2134 -2.91797,-13.724 -8.03692,-18.2691 -4.55216,-4.0417 -10.41229,-5.9586 -16.71449,-5.9263 z"
       id="path3786"
       inkscape:connector-curvature="0" />
    <path
       style="fill:#000000;fill-opacity:1;fill-rule:evenodd;stroke:none;stroke-width:0.600053"
       d="m 786.84287,-1140.1378 c -6.49316,7.8517 -17.26298,10.1006 -22.67347,5.0231 -5.41049,-5.0776 -4.53285,-15.5589 1.9603,-23.4106 6.49311,-7.8518 17.72686,-10.1007 23.13736,-5.0231 5.41049,5.0774 4.06886,15.5588 -2.42419,23.4106 z"
       id="path3778"
       inkscape:connector-curvature="0"
       sodipodi:nodetypes="sssss" />
    <path
       style="fill:#ffffff;fill-opacity:1;fill-rule:evenodd;stroke:none;stroke-width:0.600053"
       d="m 780.04628,-1150.0689 c -2.64494,1.7672 -5.45143,1.4731 -6.26847,-0.6567 -0.81702,-2.1298 0.66484,-5.2892 3.30976,-7.0564 2.645,-1.7673 5.45147,-1.4733 6.26843,0.6565 0.81707,2.1299 -0.66478,5.2893 -3.30972,7.0566 z"
       id="path3780"
       inkscape:connector-curvature="0" />
    <path
       id="path3968"
       d="m 742.20469,-1146.3447 c -2.69765,11.0459 -0.48182,21.7985 6.96063,28.4064 9.50012,8.4349 24.69686,7.6138 37.71585,-0.8668 -0.74476,13.7145 6.20952,26.5502 18.81549,32.1287 l 8.11237,3.5897 c 10.51977,4.6553 22.43883,3.1323 32.07203,-3.015 7.94644,15.7114 26.18809,31.0518 52.33872,40.712 29.32514,10.8331 60.58606,11.5706 78.24881,2.7041 6.85068,-3.4389 40.78441,-17.901 -6.58823,-64.8787 14.91811,41.2368 -10.51767,48.2435 -34.53481,46.1969 -17.8322,-1.5195 -47.91533,-9.5783 -72.89102,-35.8063 5.23526,-5.9144 11.89531,-27.1426 7.62011,-39.2188 -1.27434,0.2397 -0.98769,0.7796 -3.9182,1.1274 -1.07038,-4.4427 -2.70372,-8.6506 -6.89701,-14.4159 6.28273,29.3241 -16.83462,48.8933 -29.31379,52.3768 -6.49159,1.812 -27.91128,-0.2047 -32.49284,-22.0973 1.64419,-1.5873 17.44284,-13.4505 16.07334,-40.1404 -1.10912,0.4213 -3.45417,2.0404 -4.72711,2.1831 -0.0738,-1.1078 -1.06445,-5.5899 -1.26037,-7.7819 -2.79925,31.4062 -28.75347,47.2205 -43.35696,46.0463 -14.42632,-1.1599 -23.35986,-15.1135 -21.97701,-27.2503 z"
       style="fill:#ebeb00;fill-opacity:1;fill-rule:evenodd;stroke:none;stroke-width:0.600053"
       inkscape:connector-curvature="0"
       sodipodi:nodetypes="csccccsscsccccsccccsc" />
    <path
       style="fill:#000000;fill-opacity:1;fill-rule:evenodd;stroke:none;stroke-width:0.600053"
       d="m 988.70229,-1084.3377 c 12.76831,22.0328 14.03391,37.6742 12.85661,54.8948 -5.88225,-11.1255 -13.86074,-15.9429 -22.69406,-14.387 10.41116,-5.9797 20.78825,-13.2231 9.83745,-40.5078 z"
       id="path3004" />
    <path
       style="fill:#000000;fill-opacity:1;fill-rule:evenodd;stroke:none;stroke-width:0.600053"
       d="m 973.80411,-1041.4707 c -2.61353,1.18 -6.48202,2.2957 -8.63057,2.763 13.84257,-13.7712 19.46771,-27.6396 14.57086,-58.4141 1.41102,1.7011 2.74428,3.4147 4.00277,5.1371 6.88687,27.6676 -0.25532,39.9265 -9.94306,50.514 z"
       id="path3002"
       inkscape:connector-curvature="0"
       sodipodi:nodetypes="ccccc" />
    <path
       style="fill:#000000;fill-opacity:1;fill-rule:evenodd;stroke:none;stroke-width:0.600053"
       d="m 898.2235,-1045.3903 c -7.27517,-2.6875 -13.93864,-5.8146 -19.93887,-9.267 29.70083,-22.8818 39.78497,-43.4919 34.34381,-84.493 5.77191,1.2118 11.62171,3.0837 17.43352,5.7089 6.72618,43.7163 -1.74741,65.7272 -31.83846,88.0511 z"
       id="path3000" />
    <path
       style="fill:#000000;fill-opacity:1;fill-rule:evenodd;stroke:none;stroke-width:0.600053"
       d="m 960.02191,-1115.8605 c -4.27064,-3.2408 -8.4643,-6.106 -13.53661,-9.0866 7.26191,48.2839 -1.96211,53.3107 -25.95572,85.8338 3.44316,0.6304 9.76545,1.752 16.08305,2.1931 18.96588,-25.5951 27.3344,-42.2403 23.40928,-78.9403 z"
       id="path2998"
       inkscape:connector-curvature="0"
       sodipodi:nodetypes="ccccc" />
    <path
       style="fill:#000000;fill-opacity:1;fill-rule:evenodd;stroke:none;stroke-width:0.600053"
       d="m 975.86889,-1101.5467 c -2.59403,-2.808 -5.4135,-5.5723 -8.47221,-8.2762 6.49234,36.2141 0.50711,52.0218 -18.33871,73.1599 2.79187,-0.057 6.44811,-0.4416 8.80794,-0.7193 11.21908,-13.989 22.58955,-28.5474 18.00298,-64.1644 z"
       id="path2994"
       inkscape:connector-curvature="0"
       sodipodi:nodetypes="ccccc" />
    <path
       style="fill:#e5ffff;fill-opacity:1;stroke:none;stroke-width:0.600053"
       d="m 826.15162,-1130.3092 c 27.37526,74.3079 84.41077,68.3631 108.66265,56.0603 8.99912,-4.5652 -0.51107,-12.9312 -16.02653,-21.6516 0.1451,-0.6608 0.25317,-1.3588 0.32031,-2.0916 2.95556,-32.2738 -74.08441,-31.3749 -74.08441,-31.3749 l -3.11859,1.7148 z"
       id="path3808"
       inkscape:connector-curvature="0" />
  </g>
  <g
     inkscape:groupmode="layer"
     id="layer2"
     inkscape:label="outline"
     style="display:inline"
     transform="translate(-980.4522,1188.6463)">
    <path
       style="color:#000000;font-style:normal;font-variant:normal;font-weight:normal;font-stretch:normal;font-size:medium;line-height:normal;font-family:Sans;-inkscape-font-specification:Sans;text-indent:0;text-align:start;text-decoration:none;text-decoration-line:none;letter-spacing:normal;word-spacing:normal;text-transform:none;writing-mode:lr-tb;direction:ltr;baseline-shift:baseline;text-anchor:start;display:inline;overflow:visible;visibility:visible;fill:#000000;stroke:none;stroke-width:1.87699px;marker:none;enable-background:accumulate"
       d="m 1229.194,-1163.6433 c -3.5141,0.05 -7.0564,0.7035 -10.4301,1.8279 -8.3043,2.7679 -15.6331,8.391 -19.1076,15.1881 -3.4075,6.6665 -11.8037,26.3071 -19.3713,44.3395 -3.2275,7.6905 -6.1854,14.7987 -8.6494,20.747 -0.9788,-0.1818 -1.9553,-0.3209 -2.9396,-0.4147 -7.3165,-0.6963 -13.8719,1.5041 -20.4054,5.2221 -0.6552,-6.7063 -4.25,-13.2319 -9.1511,-17.5835 -4.7694,-4.2346 -10.8888,-6.229 -17.421,-6.1996 -6.0993,0.073 -12.377,1.9946 -17.3081,4.4848 -6.4266,-6.3215 -12.8962,-12.5991 -19.315,-18.9286 -26.5071,16.8937 -53.0889,33.679 -79.6432,50.5013 22.6481,-3.5062 57.1043,-33.4936 79.37,-47.5993 l 17.4871,17.1761 c -3.3245,1.9215 -6.535,4.3153 -9.5161,7.1606 -8.583,-2.7263 -17.1555,-5.4864 -25.7407,-8.2065 -15.7831,31.5861 -31.5921,63.1594 -47.3921,94.7372 19.6431,-18.2579 34.9795,-64.786 48.5981,-91.9765 l 22.7257,7.2548 c -6.8771,8.0242 -12.5393,19.0912 -13.4168,28.3505 -0.7332,9.0762 1.4323,19.7096 7.7916,25.3557 6.3592,5.6462 16.9084,7.4141 25.8342,5.6118 4.405,-0.8895 7.9205,-2.1415 12.1819,-4.6523 0.021,9.7123 2.9141,16.5293 9.7303,22.9201 -6.7936,4.3551 -12.8142,8.67385 -19.6405,12.97746 -3.6424,23.64582 -7.3261,47.28612 -10.9954,70.92804 l -26.3154,7.98035 c 10.3013,-0.40765 22.78,-2.44891 28.8691,-5.18131 14.7929,-35.11598 16.048,-59.10057 12.0909,-70.72224 0,0 15.4658,-1.84658 20.2177,-11.8783 1.323,1.324 3.524,2.5556 6.1396,3.0977 -3.1479,6.71175 -6.1993,12.01734 -9.3654,18.72037 -2.598,29.28004 -2.0268,60.14418 -4.624,89.42431 l 3.3267,-6.92994 c 13.4636,-63.88617 5.2142,-80.33568 5.2142,-80.33568 11.8798,-6.9958 13.0559,-16.90653 13.0559,-16.90653 2.6529,1.27075 12.7049,2.53664 15.939,1.57781 2.4979,9.07335 -0.5709,27.67107 -1.808,42.02096 11.1775,2.69743 17.0612,4.94393 25.1095,8.76236 15.2995,7.36567 37.0604,20.80671 62.7121,45.20627 l -5.8277,-9.05004 c -25.8154,-24.55523 -36.1524,-37.08416 -51.6712,-44.55544 -14.2336,-6.85255 -23.684,-4.04721 -25.0634,-4.28207 17.0932,-28.57617 5.1117,-39.65749 5.1117,-39.65749 4.2306,-0.82914 3.4192,-1.24572 7.2102,-3.52289 1.6999,3.16339 4.8157,9.46593 7.3014,12.53036 9.7867,12.06505 24.9739,22.31781 45.4603,29.88572 29.5222,10.90581 62.9199,9.33883 77.3415,1.96492 12.3802,-6.33013 21.0614,1.54148 26.3003,10.8575 4.9131,-23.0439 -4.6437,-45.52315 -10.2827,-54.6154 -11.2797,-18.1871 -29.653,-37.5567 -60.4847,-51.4833 -9.9306,-4.4856 -20.5009,-6.8052 -30.0939,-7.3962 8.918,-5.1745 15.6271,-10.4415 20.2478,-15.612 4.5787,-5.1239 7.1235,-10.1669 7.6788,-14.9337 0.5551,-4.7668 -0.9156,-9.2342 -4.2116,-13.0587 -1.9064,-2.212 -4.3477,-3.3645 -7.1323,-3.6558 6.1589,-8.537 9.8064,-17.3631 8.9413,-26.1834 -0.9184,-9.3626 -6.9346,-18.573 -20.0498,-27.2293 -3.7041,-2.4448 -7.8942,-3.7046 -12.1919,-3.9949 -0.806,-0.054 -1.6105,-0.078 -2.4215,-0.066 z m 24.789,58.7362 c 2.8198,0.097 5.1879,1.1211 7.0476,3.2788 3.0898,3.5851 4.404,7.6278 3.8912,12.0317 -0.5129,4.404 -2.8886,9.1992 -7.3396,14.18 -4.8017,5.3733 -12.0075,10.9346 -21.774,16.4035 -8.7967,-0.2684 -17.1587,0.8936 -24.6571,3.1469 -1.9728,0.5928 -3.892,1.2615 -5.7379,1.9974 -0.6197,-2.3359 -1.4821,-4.5886 -2.5534,-6.7178 17.1795,-12.3669 38.479,-27.6733 50.897,-44.0096 0.078,-0.1028 0.1488,-0.208 0.2262,-0.3109 z m -1.7336,0.047 c -12.2428,15.8198 -33.0628,30.8593 -50.0209,43.0768 -0.5695,-1.0265 -1.1913,-2.0274 -1.8655,-2.9867 l -0.8292,-1.1306 c -3.1881,-4.1467 -7.3978,-7.5439 -12.4933,-9.7988 l -8.1029,-3.5898 c -1.948,-0.8621 -3.9452,-1.5076 -5.964,-1.9691 2.4072,-5.8073 5.3267,-12.8096 8.5549,-20.502 7.5652,-18.0264 15.9981,-37.7473 19.3245,-44.2547 3.2594,-6.3767 10.3275,-11.8408 18.3349,-14.5097 3.5033,-1.1676 7.1712,-1.8062 10.7787,-1.762 0.5154,0.01 1.0332,0.031 1.5452,0.066 4.0959,0.2748 8.0617,1.4561 11.5512,3.7594 12.9074,8.5191 18.5853,17.3597 19.4562,26.2399 0.8442,8.6074 -2.8635,17.3752 -9.2334,25.9857 z m -142.7229,73.9147 c -8.4084,1.6979 -16.4275,0.1477 -22.2074,-4.9842 -5.78,-5.1318 -8.2847,-12.9127 -7.594,-21.4631 0.6906,-8.5503 4.6223,-18.1764 11.7104,-26.0017 7.2352,-7.9876 13.1207,-12.2265 24.4472,-14.8557 8.4796,-1.9684 16.2596,0.7298 21.8342,5.5537 4.6984,4.1715 7.2274,10.0905 7.6411,16.752 0.2201,11.306 -5.6316,23.4683 -11.6643,30.4233 -6.7649,7.1771 -14.9672,12.6452 -24.1672,14.5757 z m 26.949,20.2759 c -7.1188,-6.0831 -9.6011,-13.3721 -9.1857,-23.2144 3.4902,-2.3453 6.8169,-5.2307 9.8271,-8.6211 7.3018,-8.2239 10.6649,-17.8986 11.3981,-26.9748 0.093,-1.1569 -0.055,-3.425 -0.074,-4.5591 5.5865,-3.4257 11.048,-5.7299 17.381,-5.6648 4.3431,0.1298 8.438,0.9871 12.1447,2.6098 l 8.1029,3.5898 c 4.8826,2.1607 8.8852,5.4519 11.8811,9.4784 3.8079,5.8701 4.6654,10.5558 5.0789,17.4434 l -10.327,-0.3803 c -6.195,-0.3143 -10.2605,-0.2733 -10.2605,-0.2733 -1.1531,0.4315 -2.2947,1.1689 -3.2316,1.6866 -5.5546,-0.9242 -11.1012,-1.8968 -16.6579,-2.8078 4.3541,10.9086 9.5646,22.1794 15.4707,30.7908 2.5888,3.7141 3.5719,5.9713 6.3112,8.9309 -12.5189,12.67102 -34.2251,9.61683 -47.8594,-2.0341 z m 70.1154,-35.2567 c -0.081,-2.044 -0.3279,-4.0575 -0.7349,-6.0206 1.877,-0.7615 3.8289,-1.4557 5.851,-2.0634 6.3102,-1.8962 13.2659,-3.0046 20.5868,-3.0998 l 2.8266,0.01 v 0 c 0.9614,0.022 1.93,0.056 2.9019,0.113 9.4211,0.5579 19.3106,2.8208 29.0854,7.2361 32.3936,14.632 50.5574,34.771 59.2625,55.30352 3.3384,7.8742 -0.9759,26.47514 -16.0558,33.48007 -17.4879,8.12352 -43.7101,6.31117 -73.1024,-3.12915 -20.5158,-6.58937 -36.8451,-17.74702 -46.3557,-29.47169 -2.4549,-3.02643 -3.9839,-5.83419 -5.6339,-8.92235 1.1759,-0.7879 1.7842,-1.9063 2.8827,-2.8268 9.6864,9.85567 20.286,15.79843 30.7907,18.97575 20.9154,6.32609 41.3806,1.73386 53.6577,-4.49425 2.6747,-1.3439 4.4081,-3.81582 3.6087,-6.56707 -0.7715,-2.53478 -3.1765,-5.13183 -6.6801,-7.90493 -3.2985,-2.6106 -7.5989,-5.3548 -12.5029,-8.1311 1.5301,-8.6703 -4.0273,-16.4441 -10.3924,-20.8224 -6.9315,-4.5356 -16.3524,-7.4511 -25.8442,-9.3654 -3.8628,-0.779 -7.7333,-1.3957 -11.457,-1.8749 z m -20.0027,1.6206 c -1.8161,-0.308 -3.6716,-0.622 -5.2292,-0.8857 l 1.272,-0.6972 c 0.1892,0 3.3796,-0.089 8.3949,0.1978 15.615,0.6333 40.683,2.4821 54.826,12.55 7.119,5.0678 11.9045,9.4269 9.8837,19.004 -5.2066,-2.8939 -11.0335,-5.8143 -17.0443,-8.6399 -11.3054,-5.3146 -23.2196,-10.2914 -32.8165,-14.1234 -6.5363,-2.5957 -13.4129,-5.2482 -19.2866,-7.4056 z m -0.3863,1.2908 c 6.7941,2.5285 12.9923,4.9134 19.3808,7.4527 18.2909,7.6411 34.9991,14.3848 51.0761,23.4982 5.2451,3.2407 16.2958,9.2654 18.2126,15.05619 0.7069,2.44344 -1.2388,4.09122 -2.9303,4.96534 -11.9747,6.0747 -32.142,10.61216 -52.6495,4.40944 -18.4868,-7.21132 -31.1604,-16.73697 -41.4092,-32.57147 -4.8677,-7.3579 -9.3368,-16.0947 -13.2284,-26.4284 7.0836,1.1944 15.0029,2.5194 21.5479,3.618 z"
       id="path27"
       inkscape:connector-curvature="0"
       sodipodi:nodetypes="sssscscsccccccccccccsscccccccccccccccccccscccssscsscssccssssccsscsccsccccccccssssssscccssssccccscssccccccccccccsccccssccssscsssccccccccccccsccccccccccccc" />
  </g>
</svg>
