<?xml version="1.0" encoding="UTF-8" standalone="no"?>
<!-- Created with Inkscape (http://www.inkscape.org/) -->

<svg
   width="609.36218"
   height="609.68469"
   id="svg3133"
   version="1.1"
   inkscape:version="1.1 (c68e22c387, 2021-05-23)"
   sodipodi:docname="robot.svg"
   inkscape:export-filename="C:\Users\annarose\artProjects\robot\robot.png"
   inkscape:export-xdpi="90"
   inkscape:export-ydpi="90"
   xmlns:inkscape="http://www.inkscape.org/namespaces/inkscape"
   xmlns:sodipodi="http://sodipodi.sourceforge.net/DTD/sodipodi-0.dtd"
   xmlns="http://www.w3.org/2000/svg"
   xmlns:svg="http://www.w3.org/2000/svg"
   xmlns:rdf="http://www.w3.org/1999/02/22-rdf-syntax-ns#"
   xmlns:cc="http://creativecommons.org/ns#"
   xmlns:dc="http://purl.org/dc/elements/1.1/">
  <defs
     id="defs3135" />
  <sodipodi:namedview
     id="base"
     pagecolor="#ffffff"
     bordercolor="#666666"
     borderopacity="1.0"
     inkscape:pageopacity="0.0"
     inkscape:pageshadow="2"
     inkscape:zoom="0.94639083"
     inkscape:cx="250.42508"
     inkscape:cy="304.84235"
     inkscape:document-units="px"
     inkscape:current-layer="layer3"
     showgrid="false"
     inkscape:window-width="1307"
     inkscape:window-height="1081"
     inkscape:window-x="921"
     inkscape:window-y="298"
     inkscape:window-maximized="0"
     fit-margin-top="50"
     fit-margin-left="50"
     fit-margin-right="50"
     fit-margin-bottom="50"
     inkscape:snap-page="true"
     inkscape:pagecheckerboard="0" />
  <metadata
     id="metadata3138">
    <rdf:RDF>
      <cc:Work
         rdf:about="">
        <dc:format>image/svg+xml</dc:format>
        <dc:type
           rdf:resource="http://purl.org/dc/dcmitype/StillImage" />
      </cc:Work>
    </rdf:RDF>
  </metadata>
  <g
     inkscape:groupmode="layer"
     id="layer3"
     inkscape:label="background"
     style="display:none"
     transform="translate(-250,-1.6318979e-6)">
    <rect
       style="fill:#000000;fill-rule:evenodd;stroke:none;stroke-width:1px;stroke-linecap:butt;stroke-linejoin:miter;stroke-opacity:1"
       id="rect3391"
       width="1000"
       height="609.68469"
       x="0"
       y="0" />
  </g>
  <g
     inkscape:label="colour"
     inkscape:groupmode="layer"
     id="layer1"
     transform="translate(-233.89031,-663.76457)">
    <path
       style="display:inline;fill:#808080;fill-opacity:1;fill-rule:evenodd;stroke:none;stroke-width:1.10192"
       d="m 460.61544,1043.9412 c -10.76313,21.5731 -21.54,43.1345 -32.35894,64.7194 32.35894,16.1792 129.43592,16.1792 161.79488,-6.4732 -10.78644,-19.4147 -21.55018,-38.8165 -32.25784,-58.2462 z"
       id="path9105"
       inkscape:connector-curvature="0" />
    <path
       style="display:inline;fill:#4d4d4d;fill-opacity:1;fill-rule:evenodd;stroke:none;stroke-width:1.10192"
       d="m 539.78622,1045.0503 36.21178,62.9833 c 6.60472,-2.0205 8.41665,-3.6239 13.47669,-6.2245 -2.18337,-2.8629 -32.63493,-56.6063 -32.63493,-56.6063 z"
       id="path3241"
       inkscape:connector-curvature="0"
       sodipodi:nodetypes="ccccc" />
    <path
       style="display:inline;fill:#999999;fill-opacity:1;fill-rule:evenodd;stroke:none;stroke-width:1.10192"
       d="m 475.29416,1056.7718 -23.58498,59.1049 c 6.23264,1.2111 13.05524,2.166 20.25467,2.862 z"
       id="path4367"
       inkscape:connector-curvature="0"
       sodipodi:nodetypes="cccc" />
    <path
       style="fill:#b3b3b3;fill-opacity:1;fill-rule:evenodd;stroke:none;stroke-width:1.10192"
       d="m 302.09857,851.86309 c -6.26857,0.22309 -12.85708,1.62362 -18.25249,3.45739 12.70765,-2.96501 37.59292,4.68536 39.59607,29.37541 0.8989,11.08001 -3.24557,16.52596 -5.80141,20.86632 1.63333,-0.24806 8.63107,-1.54698 11.02548,-2.20103 2.15051,-3.23148 8.03709,-10.08413 6.56894,-23.08494 -1.84765,-16.3616 -16.43152,-29.00803 -33.13659,-28.41315 z"
       id="path3382"
       inkscape:connector-curvature="0"
       sodipodi:nodetypes="scsccss" />
    <path
       sodipodi:nodetypes="ccccc"
       inkscape:connector-curvature="0"
       id="path3362"
       d="m 335.81361,916.87574 8.54636,-1.85453 v 20.71107 l -8.54636,1.8548 z"
       style="fill:#4d4d4d;fill-opacity:1;fill-rule:evenodd;stroke:none;stroke-width:1.10192" />
    <path
       sodipodi:nodetypes="ccccc"
       inkscape:connector-curvature="0"
       id="path3364"
       d="m 327.10058,904.6654 17.25939,10.35581 -8.54636,1.85453 -17.2595,-10.35554 z"
       style="fill:#b3b3b3;fill-opacity:1;fill-rule:evenodd;stroke:none;stroke-width:1.10192" />
    <path
       sodipodi:nodetypes="ccccccc"
       inkscape:connector-curvature="0"
       id="path3368"
       d="m 335.81361,937.58708 -17.2595,10.35554 -17.25926,-10.35554 3e-5,-20.71134 17.25923,-10.35554 17.25947,10.35554 z"
       style="fill:#999999;fill-opacity:1;fill-rule:evenodd;stroke:none;stroke-width:1.10192" />
    <path
       style="fill:#4d4d4d;fill-opacity:1;fill-rule:evenodd;stroke:none;stroke-width:1.10192"
       d="m 366.00462,940.13774 8.54636,-1.85454 v 20.71108 l -8.54636,1.8548 z"
       id="path3348"
       inkscape:connector-curvature="0"
       sodipodi:nodetypes="ccccc" />
    <path
       style="fill:#b3b3b3;fill-opacity:1;fill-rule:evenodd;stroke:none;stroke-width:1.10192"
       d="m 357.2917,927.92741 17.25928,10.35579 -8.54636,1.85454 -17.25936,-10.35554 z"
       id="path3350"
       inkscape:connector-curvature="0"
       sodipodi:nodetypes="ccccc" />
    <path
       style="fill:#999999;fill-opacity:1;fill-rule:evenodd;stroke:none;stroke-width:1.10192"
       d="m 366.00462,960.84908 -17.25939,10.35554 -17.25934,-10.35554 3e-5,-20.71134 17.25931,-10.35554 17.25939,10.35554 z"
       id="path3354"
       inkscape:connector-curvature="0"
       sodipodi:nodetypes="ccccccc" />
    <path
       style="fill:#c5c5c5;fill-opacity:1;stroke:none;stroke-width:1.10192"
       d="m 258.3502,889.01316 14.56151,-2.9123 16.40272,-1.51421 1.07113,1.51421 z"
       id="path3380"
       inkscape:connector-curvature="0"
       sodipodi:nodetypes="ccccc" />
    <path
       style="fill:#999999;fill-opacity:1;fill-rule:evenodd;stroke:none;stroke-width:1.10192"
       d="m 258.3502,889.01316 c 1.93859,17.16614 17.58762,29.71299 35.31801,28.16765 17.7305,-1.54561 30.53248,-16.71436 28.59398,-33.88049 -1.93859,-17.16639 -17.88333,-29.82957 -35.61382,-28.28396 -4.80907,0.4191 -9.62866,2.48108 -13.73666,4.87372 l 17.47385,26.21078 z"
       id="path3358"
       inkscape:connector-curvature="0"
       sodipodi:nodetypes="csssccc" />
    <path
       style="fill:#999999;fill-opacity:1;fill-rule:evenodd;stroke:none;stroke-width:1.10192"
       d="m 379.71811,918.81434 -14.08632,8.45376 v 20.70992 l 14.08632,8.45374 z"
       id="path3378"
       inkscape:connector-curvature="0" />
    <path
       style="display:inline;fill:#cccccc;fill-opacity:1;fill-rule:evenodd;stroke:none;stroke-width:1.10192"
       d="m 412.07977,865.97052 h 242.69219 l -32.35892,16.17947 h -242.6922 z"
       id="rect7464"
       inkscape:connector-curvature="0"
       sodipodi:nodetypes="ccccc" />
    <path
       style="display:inline;fill:#4d4d4d;fill-opacity:1;fill-rule:evenodd;stroke:none;stroke-width:1.10192"
       d="m 622.41304,882.14999 32.35892,-16.17947 v 161.79358 l -32.35892,16.1818 z"
       id="rect7458"
       inkscape:connector-curvature="0"
       sodipodi:nodetypes="ccccc" />
    <path
       id="rect5374"
       d="m 379.72084,882.14999 h 242.6922 v 161.79591 h -242.6922 z"
       style="display:inline;fill:#999999;fill-opacity:1;fill-rule:evenodd;stroke:none;stroke-width:1.10192"
       inkscape:connector-curvature="0"
       sodipodi:nodetypes="ccccc" />
    <path
       style="display:inline;fill:#999999;fill-opacity:1;fill-rule:evenodd;stroke:none;stroke-width:1.10192"
       d="m 411.38938,688.44908 c -1.89599,0.006 -3.81319,0.4298 -5.63235,1.31456 -6.4683,3.1458 -9.1627,10.94482 -6.01687,17.41308 2.18824,4.49916 6.61987,7.16956 11.29529,7.32125 0.0179,0.72673 0.13905,1.44996 0.3843,2.12351 l 12.92345,35.47346 7.91775,-7.91775 -12.05371,-33.06674 c 4.17084,-3.78906 5.54192,-10.0064 2.95277,-15.33017 -2.26112,-4.64897 -6.92516,-7.34905 -11.77063,-7.3312 z"
       id="path5484"
       inkscape:connector-curvature="0" />
    <path
       style="display:inline;fill:#4d4d4d;fill-opacity:1;fill-rule:evenodd;stroke:none;stroke-width:1.10192"
       d="m 525.33614,861.45983 6.60684,-0.0368 9.57266,-4.87106 v 9.74307 l -16.1795,8.08972 z"
       id="rect7456"
       inkscape:connector-curvature="0"
       sodipodi:nodetypes="cccccc" />
    <path
       style="display:inline;fill:#808080;fill-opacity:1;fill-rule:evenodd;stroke:none;stroke-width:1.10192"
       d="m 492.94715,861.4403 h 32.38899 v 12.94361 h -32.35898 z"
       id="rect5372"
       inkscape:connector-curvature="0"
       sodipodi:nodetypes="ccccc" />
    <path
       style="display:inline;fill:#333333;fill-opacity:1;fill-rule:evenodd;stroke:none;stroke-width:1.10192"
       d="m 590.0541,796.72244 32.35894,-16.17946 -58.24617,64.71785 -32.35892,16.17947 z"
       id="path6187"
       inkscape:connector-curvature="0"
       sodipodi:nodetypes="ccccc" />
    <path
       sodipodi:nodetypes="ccccc"
       inkscape:connector-curvature="0"
       id="rect7448"
       d="M 476.79765,715.82514 H 590.0541 l -32.35897,16.17945 H 444.43869 Z"
       style="display:inline;fill:#cccccc;fill-opacity:1;fill-rule:evenodd;stroke:none;stroke-width:1.10192" />
    <path
       sodipodi:nodetypes="ccccc"
       inkscape:connector-curvature="0"
       id="rect7450"
       d="m 590.0541,764.36351 32.35894,-16.17944 v 32.35891 l -32.35894,16.17946 z"
       inkscape:transform-center-y="4.3563947"
       style="display:inline;fill:#4d4d4d;fill-opacity:1;fill-rule:evenodd;stroke:none;stroke-width:1.10192"
       inkscape:transform-center-x="-6.0835015e-05" />
    <path
       style="color:#000000;font-style:normal;font-variant:normal;font-weight:normal;font-stretch:normal;font-size:medium;line-height:normal;font-family:Sans;-inkscape-font-specification:Sans;text-indent:0;text-align:start;text-decoration:none;text-decoration-line:none;letter-spacing:normal;word-spacing:normal;text-transform:none;writing-mode:lr-tb;direction:ltr;baseline-shift:baseline;text-anchor:start;display:inline;overflow:visible;visibility:visible;opacity:1;fill:#4d4d4d;fill-opacity:0.752941;stroke:none;stroke-width:5.51564;marker:none;enable-background:accumulate"
       d="m 522.74416,1135.9417 c -1.60416,-1.6174 -17.94345,7.6617 -21.58843,10.6182 -14.22248,11.5397 -19.94138,19.0845 -28.26187,33.8956 -7.83344,13.9465 -7.58847,35.2247 0.57885,48.6226 8.48889,14.4528 26.21653,23.0347 42.80001,19.6246 15.28974,-2.6159 28.70204,-15.2897 30.53813,-30.9552 2.15872,-14.8699 -6.97042,-31.1 -21.7481,-35.284 -12.98491,-4.2173 -29.06785,2.7175 -33.32512,16.0604 -4.12835,11.1358 2.35548,25.5558 14.39364,28.0705 9.06265,2.4406 19.88751,-4.0512 20.36085,-13.8046 0.7893,-7.1878 -6.01884,-14.6063 -13.42576,-12.7462 -5.63847,0.8824 -8.9533,9.0893 -4.1167,12.8895 2.49342,3.4514 7.24373,-0.2632 8.27243,-0.6673 -0.65849,5.6052 -8.49717,7.0141 -12.4145,3.7684 -6.58884,-4.6871 -6.44058,-15.2358 -0.52131,-20.4291 7.17242,-7.1666 19.81353,-6.3738 26.60939,0.8997 8.79875,8.6584 9.07436,23.9552 0.92398,33.1329 -9.46827,11.4936 -27.66827,13.7744 -39.89962,5.4084 -16.114,-10.2292 -23.07407,-34.4264 -9.34005,-57.83 7.36972,-12.5582 13.38992,-19.8335 29.08605,-32.997 4.80492,-4.0282 12.34196,-7.0003 11.07813,-8.2774 z"
       id="path9111"
       inkscape:connector-curvature="0"
       sodipodi:nodetypes="ssscccccccccccccccsss" />
    <path
       style="display:inline;fill:#808080;fill-opacity:1;fill-rule:evenodd;stroke:none;stroke-width:1.10192"
       d="m 557.69513,732.00459 32.35897,-16.17945 32.35894,32.35893 -32.35894,16.17944 z"
       id="rect4427"
       inkscape:connector-curvature="0"
       sodipodi:nodetypes="ccccc" />
    <path
       sodipodi:nodetypes="ccccccccc"
       inkscape:connector-curvature="0"
       id="rect5370"
       d="m 444.43869,732.00459 h 113.25644 l 32.35897,32.35892 v 32.35893 l -58.24615,64.71786 h -61.48201 l -58.24617,-64.71786 v -32.35893 z"
       style="display:inline;fill:#999999;fill-opacity:1;fill-rule:evenodd;stroke:none;stroke-width:1.10192" />
    <path
       style="display:inline;fill:#373737;fill-opacity:1;fill-rule:evenodd;stroke:none;stroke-width:1.10192"
       d="m 500.36895,815.17473 c -8.70725,0.52865 -18.3596,1.24154 -25.11866,7.39198 -3.25827,2.82948 -5.25903,7.84924 -2.96284,11.90203 3.07877,6.17957 10.49481,8.60276 16.89386,9.94174 8.92595,1.70348 18.40417,1.7445 27.15484,-0.73956 5.33951,-1.70037 10.98204,-4.60188 13.84347,-9.66718 2.17401,-5.50816 -1.77368,-11.64189 -6.78586,-14.04964 -7.085,-3.54708 -15.15474,-4.85812 -23.02481,-4.77937 z"
       id="path5910"
       inkscape:connector-curvature="0" />
    <path
       id="path5000"
       style="display:inline;fill:#000000;fill-opacity:1;stroke:none;stroke-width:1.10192"
       d="m 507.05052,841.43748 c 0,0.67816 -0.54398,1.22805 -1.21503,1.22805 -0.67105,0 -1.21512,-0.54989 -1.21512,-1.22805 0,-0.67839 0.54407,-1.22831 1.21512,-1.22831 0.67105,0 1.21503,0.54992 1.21503,1.22831 z m -3.02426,0 c 0,0.67816 -0.54405,1.22805 -1.2151,1.22805 -0.67106,0 -1.2151,-0.54989 -1.2151,-1.22805 0,-0.67839 0.54404,-1.22831 1.2151,-1.22831 0.67105,0 1.2151,0.54992 1.2151,1.22831 z m -3.02432,0 c 0,0.67816 -0.54406,1.22805 -1.21515,1.22805 -0.67105,0 -1.21498,-0.54989 -1.21498,-1.22805 0,-0.67839 0.54393,-1.22831 1.21498,-1.22831 0.67109,0 1.21515,0.54992 1.21515,1.22831 z m -3.02436,0 c 0,0.67816 -0.5441,1.22805 -1.21515,1.22805 -0.67104,0 -1.21496,-0.54989 -1.21496,-1.22805 0,-0.67839 0.54392,-1.22831 1.21496,-1.22831 0.67105,0 1.21515,0.54992 1.21515,1.22831 z m 19.57787,-2.77904 c 0,0.67841 -0.54402,1.22804 -1.21511,1.22804 -0.67103,0 -1.21492,-0.54963 -1.21492,-1.22804 0,-0.67813 0.54389,-1.22806 1.21492,-1.22806 0.67109,0 1.21511,0.54993 1.21511,1.22806 z m -3.02433,0 c 0,0.67841 -0.54397,1.22804 -1.21505,1.22804 -0.671,0 -1.21502,-0.54963 -1.21502,-1.22804 0,-0.67813 0.54402,-1.22806 1.21502,-1.22806 0.67108,0 1.21505,0.54993 1.21505,1.22806 z m -3.0244,0 c 0,0.67841 -0.54387,1.22804 -1.21498,1.22804 -0.67102,0 -1.21505,-0.54963 -1.21505,-1.22804 0,-0.67813 0.54403,-1.22806 1.21505,-1.22806 0.67111,0 1.21498,0.54993 1.21498,1.22806 z m -3.02424,0 c 0,0.67841 -0.54394,1.22804 -1.21501,1.22804 -0.67105,0 -1.21515,-0.54963 -1.21515,-1.22804 0,-0.67813 0.5441,-1.22806 1.21515,-1.22806 0.67107,0 1.21501,0.54993 1.21501,1.22806 z m -3.02433,0 c 0,0.67841 -0.54395,1.22804 -1.21508,1.22804 -0.67105,0 -1.21511,-0.54963 -1.21511,-1.22804 0,-0.67813 0.54406,-1.22806 1.21511,-1.22806 0.67113,0 1.21508,0.54993 1.21508,1.22806 z m -3.02426,0 c 0,0.67841 -0.54406,1.22804 -1.21514,1.22804 -0.67106,0 -1.21511,-0.54963 -1.21511,-1.22804 0,-0.67813 0.54405,-1.22806 1.21511,-1.22806 0.67108,0 1.21514,0.54993 1.21514,1.22806 z m -3.02436,0 c 0,0.67841 -0.54406,1.22804 -1.21515,1.22804 -0.67108,0 -1.21502,-0.54963 -1.21502,-1.22804 0,-0.67813 0.54394,-1.22806 1.21502,-1.22806 0.67109,0 1.21515,0.54993 1.21515,1.22806 z m -3.02434,0 c 0,0.67841 -0.54408,1.22804 -1.21517,1.22804 -0.67105,0 -1.21498,-0.54963 -1.21498,-1.22804 0,-0.67813 0.54393,-1.22806 1.21498,-1.22806 0.67109,0 1.21517,0.54993 1.21517,1.22806 z m -3.02436,0 c 0,0.67841 -0.54404,1.22804 -1.21509,1.22804 -0.67105,0 -1.21495,-0.54963 -1.21495,-1.22804 0,-0.67813 0.5439,-1.22806 1.21495,-1.22806 0.67105,0 1.21509,0.54993 1.21509,1.22806 z m -3.02433,0 c 0,0.67841 -0.54399,1.22804 -1.21504,1.22804 -0.67103,0 -1.21502,-0.54963 -1.21502,-1.22804 0,-0.67813 0.54399,-1.22806 1.21502,-1.22806 0.67105,0 1.21504,0.54993 1.21504,1.22806 z m -3.02446,0 c 0,0.67841 -0.54387,1.22804 -1.21492,1.22804 -0.67107,0 -1.21508,-0.54963 -1.21508,-1.22804 0,-0.67813 0.54401,-1.22806 1.21508,-1.22806 0.67105,0 1.21492,0.54993 1.21492,1.22806 z m 19.73848,-19.45239 c 0,0.67815 -0.54398,1.22804 -1.21503,1.22804 -0.67105,0 -1.21512,-0.54989 -1.21512,-1.22804 0,-0.6784 0.54407,-1.22832 1.21512,-1.22832 0.67105,0 1.21503,0.54992 1.21503,1.22832 z m -3.02426,0 c 0,0.67815 -0.54405,1.22804 -1.2151,1.22804 -0.67106,0 -1.2151,-0.54989 -1.2151,-1.22804 0,-0.6784 0.54404,-1.22832 1.2151,-1.22832 0.67105,0 1.2151,0.54992 1.2151,1.22832 z m -3.02432,0 c 0,0.67815 -0.54406,1.22804 -1.21515,1.22804 -0.67105,0 -1.21498,-0.54989 -1.21498,-1.22804 0,-0.6784 0.54393,-1.22832 1.21498,-1.22832 0.67109,0 1.21515,0.54992 1.21515,1.22832 z m -3.02436,0 c 0,0.67815 -0.5441,1.22804 -1.21515,1.22804 -0.67104,0 -1.21496,-0.54989 -1.21496,-1.22804 0,-0.6784 0.54392,-1.22832 1.21496,-1.22832 0.67105,0 1.21515,0.54992 1.21515,1.22832 z m 19.57787,2.77878 c 0,0.67841 -0.54402,1.22805 -1.21511,1.22805 -0.67103,0 -1.21492,-0.54964 -1.21492,-1.22805 0,-0.67813 0.54389,-1.22805 1.21492,-1.22805 0.67109,0 1.21511,0.54992 1.21511,1.22805 z m -3.02433,0 c 0,0.67841 -0.54397,1.22805 -1.21505,1.22805 -0.671,0 -1.21502,-0.54964 -1.21502,-1.22805 0,-0.67813 0.54402,-1.22805 1.21502,-1.22805 0.67108,0 1.21505,0.54992 1.21505,1.22805 z m -3.0244,0 c 0,0.67841 -0.54387,1.22805 -1.21498,1.22805 -0.67102,0 -1.21505,-0.54964 -1.21505,-1.22805 0,-0.67813 0.54403,-1.22805 1.21505,-1.22805 0.67111,0 1.21498,0.54992 1.21498,1.22805 z m -3.02424,0 c 0,0.67841 -0.54394,1.22805 -1.21501,1.22805 -0.67105,0 -1.21515,-0.54964 -1.21515,-1.22805 0,-0.67813 0.5441,-1.22805 1.21515,-1.22805 0.67107,0 1.21501,0.54992 1.21501,1.22805 z m -3.02433,0 c 0,0.67841 -0.54395,1.22805 -1.21508,1.22805 -0.67105,0 -1.21511,-0.54964 -1.21511,-1.22805 0,-0.67813 0.54406,-1.22805 1.21511,-1.22805 0.67113,0 1.21508,0.54992 1.21508,1.22805 z m -3.02426,0 c 0,0.67841 -0.54406,1.22805 -1.21514,1.22805 -0.67106,0 -1.21511,-0.54964 -1.21511,-1.22805 0,-0.67813 0.54405,-1.22805 1.21511,-1.22805 0.67108,0 1.21514,0.54992 1.21514,1.22805 z m -3.02436,0 c 0,0.67841 -0.54406,1.22805 -1.21515,1.22805 -0.67108,0 -1.21502,-0.54964 -1.21502,-1.22805 0,-0.67813 0.54394,-1.22805 1.21502,-1.22805 0.67109,0 1.21515,0.54992 1.21515,1.22805 z m -3.02434,0 c 0,0.67841 -0.54408,1.22805 -1.21517,1.22805 -0.67105,0 -1.21498,-0.54964 -1.21498,-1.22805 0,-0.67813 0.54393,-1.22805 1.21498,-1.22805 0.67109,0 1.21517,0.54992 1.21517,1.22805 z m -3.02436,0 c 0,0.67841 -0.54404,1.22805 -1.21509,1.22805 -0.67105,0 -1.21495,-0.54964 -1.21495,-1.22805 0,-0.67813 0.5439,-1.22805 1.21495,-1.22805 0.67105,0 1.21509,0.54992 1.21509,1.22805 z m -3.02433,0 c 0,0.67841 -0.54399,1.22805 -1.21504,1.22805 -0.67103,0 -1.21502,-0.54964 -1.21502,-1.22805 0,-0.67813 0.54399,-1.22805 1.21502,-1.22805 0.67105,0 1.21504,0.54992 1.21504,1.22805 z m -3.02446,0 c 0,0.67841 -0.54387,1.22805 -1.21492,1.22805 -0.67107,0 -1.21508,-0.54964 -1.21508,-1.22805 0,-0.67813 0.54401,-1.22805 1.21508,-1.22805 0.67105,0 1.21492,0.54992 1.21492,1.22805 z m 37.78901,2.77908 c 0,0.67816 -0.54403,1.22804 -1.21512,1.22804 -0.67109,0 -1.21501,-0.54988 -1.21501,-1.22804 0,-0.67839 0.54392,-1.22831 1.21501,-1.22831 0.67109,0 1.21512,0.54992 1.21512,1.22831 z m -3.02434,0 c 0,0.67816 -0.54409,1.22804 -1.21514,1.22804 -0.67101,0 -1.21495,-0.54988 -1.21495,-1.22804 0,-0.67839 0.54394,-1.22831 1.21495,-1.22831 0.67105,0 1.21514,0.54992 1.21514,1.22831 z m -3.02436,0 c 0,0.67816 -0.54398,1.22804 -1.21502,1.22804 -0.67107,0 -1.21498,-0.54988 -1.21498,-1.22804 0,-0.67839 0.54391,-1.22831 1.21498,-1.22831 0.67104,0 1.21502,0.54992 1.21502,1.22831 z m -3.02437,0 c 0,0.67816 -0.54398,1.22804 -1.215,1.22804 -0.67101,0 -1.21503,-0.54988 -1.21503,-1.22804 0,-0.67839 0.54402,-1.22831 1.21503,-1.22831 0.67102,0 1.215,0.54992 1.215,1.22831 z m -3.02434,0 c 0,0.67816 -0.5439,1.22804 -1.21492,1.22804 -0.67105,0 -1.2151,-0.54988 -1.2151,-1.22804 0,-0.67839 0.54405,-1.22831 1.2151,-1.22831 0.67102,0 1.21492,0.54992 1.21492,1.22831 z m -3.02426,0 c 0,0.67816 -0.54394,1.22804 -1.21497,1.22804 -0.67105,0 -1.21515,-0.54988 -1.21515,-1.22804 0,-0.67839 0.5441,-1.22831 1.21515,-1.22831 0.67103,0 1.21497,0.54992 1.21497,1.22831 z m -3.02433,0 c 0,0.67816 -0.54396,1.22804 -1.21501,1.22804 -0.67105,0 -1.21515,-0.54988 -1.21515,-1.22804 0,-0.67839 0.5441,-1.22831 1.21515,-1.22831 0.67105,0 1.21501,0.54992 1.21501,1.22831 z m -3.02431,0 c 0,0.67816 -0.54401,1.22804 -1.2151,1.22804 -0.67108,0 -1.21505,-0.54988 -1.21505,-1.22804 0,-0.67839 0.54397,-1.22831 1.21505,-1.22831 0.67109,0 1.2151,0.54992 1.2151,1.22831 z m -3.02428,0 c 0,0.67816 -0.5441,1.22804 -1.21515,1.22804 -0.67108,0 -1.21506,-0.54988 -1.21506,-1.22804 0,-0.67839 0.54398,-1.22831 1.21506,-1.22831 0.67105,0 1.21515,0.54992 1.21515,1.22831 z m -3.02437,0 c 0,0.67816 -0.54405,1.22804 -1.21514,1.22804 -0.67108,0 -1.21492,-0.54988 -1.21492,-1.22804 0,-0.67839 0.54384,-1.22831 1.21492,-1.22831 0.67109,0 1.21514,0.54992 1.21514,1.22831 z m -3.02432,0 c 0,0.67816 -0.54407,1.22804 -1.21508,1.22804 -0.67106,0 -1.21501,-0.54988 -1.21501,-1.22804 0,-0.67839 0.54395,-1.22831 1.21501,-1.22831 0.67101,0 1.21508,0.54992 1.21508,1.22831 z m -3.02444,0 c 0,0.67816 -0.54395,1.22804 -1.21502,1.22804 -0.67105,0 -1.21501,-0.54988 -1.21501,-1.22804 0,-0.67839 0.54396,-1.22831 1.21501,-1.22831 0.67107,0 1.21502,0.54992 1.21502,1.22831 z m -3.02432,0 c 0,0.67816 -0.54394,1.22804 -1.21494,1.22804 -0.67108,0 -1.21513,-0.54988 -1.21513,-1.22804 0,-0.67839 0.54405,-1.22831 1.21513,-1.22831 0.671,0 1.21494,0.54992 1.21494,1.22831 z m -3.02431,0 c 0,0.67816 -0.54389,1.22804 -1.21495,1.22804 -0.67108,0 -1.21514,-0.54988 -1.21514,-1.22804 0,-0.67839 0.54406,-1.22831 1.21514,-1.22831 0.67106,0 1.21495,0.54992 1.21495,1.22831 z m -3.02425,0 c 0,0.67816 -0.54397,1.22804 -1.21502,1.22804 -0.67109,0 -1.21518,-0.54988 -1.21518,-1.22804 0,-0.67839 0.54409,-1.22831 1.21518,-1.22831 0.67105,0 1.21502,0.54992 1.21502,1.22831 z m -3.02428,0 c 0,0.67816 -0.54402,1.22804 -1.21507,1.22804 -0.67112,0 -1.21515,-0.54988 -1.21515,-1.22804 0,-0.67839 0.54403,-1.22831 1.21515,-1.22831 0.67105,0 1.21507,0.54992 1.21507,1.22831 z m 45.36488,11.11574 c 0,0.67816 -0.54403,1.22804 -1.21512,1.22804 -0.67109,0 -1.21501,-0.54988 -1.21501,-1.22804 0,-0.67839 0.54392,-1.22832 1.21501,-1.22832 0.67109,0 1.21512,0.54993 1.21512,1.22832 z m -3.02434,0 c 0,0.67816 -0.54409,1.22804 -1.21514,1.22804 -0.67101,0 -1.21495,-0.54988 -1.21495,-1.22804 0,-0.67839 0.54394,-1.22832 1.21495,-1.22832 0.67105,0 1.21514,0.54993 1.21514,1.22832 z m -3.02436,0 c 0,0.67816 -0.54398,1.22804 -1.21502,1.22804 -0.67107,0 -1.21498,-0.54988 -1.21498,-1.22804 0,-0.67839 0.54391,-1.22832 1.21498,-1.22832 0.67104,0 1.21502,0.54993 1.21502,1.22832 z m -3.02437,0 c 0,0.67816 -0.54398,1.22804 -1.215,1.22804 -0.67101,0 -1.21503,-0.54988 -1.21503,-1.22804 0,-0.67839 0.54402,-1.22832 1.21503,-1.22832 0.67102,0 1.215,0.54993 1.215,1.22832 z m -3.02434,0 c 0,0.67816 -0.5439,1.22804 -1.21492,1.22804 -0.67105,0 -1.2151,-0.54988 -1.2151,-1.22804 0,-0.67839 0.54405,-1.22832 1.2151,-1.22832 0.67102,0 1.21492,0.54993 1.21492,1.22832 z m -3.02426,0 c 0,0.67816 -0.54394,1.22804 -1.21497,1.22804 -0.67105,0 -1.21515,-0.54988 -1.21515,-1.22804 0,-0.67839 0.5441,-1.22832 1.21515,-1.22832 0.67103,0 1.21497,0.54993 1.21497,1.22832 z m -3.02433,0 c 0,0.67816 -0.54396,1.22804 -1.21501,1.22804 -0.67105,0 -1.21515,-0.54988 -1.21515,-1.22804 0,-0.67839 0.5441,-1.22832 1.21515,-1.22832 0.67105,0 1.21501,0.54993 1.21501,1.22832 z m -3.02431,0 c 0,0.67816 -0.54401,1.22804 -1.2151,1.22804 -0.67108,0 -1.21505,-0.54988 -1.21505,-1.22804 0,-0.67839 0.54397,-1.22832 1.21505,-1.22832 0.67109,0 1.2151,0.54993 1.2151,1.22832 z m -3.02428,0 c 0,0.67816 -0.5441,1.22804 -1.21515,1.22804 -0.67108,0 -1.21506,-0.54988 -1.21506,-1.22804 0,-0.67839 0.54398,-1.22832 1.21506,-1.22832 0.67105,0 1.21515,0.54993 1.21515,1.22832 z m -3.02437,0 c 0,0.67816 -0.54405,1.22804 -1.21514,1.22804 -0.67108,0 -1.21492,-0.54988 -1.21492,-1.22804 0,-0.67839 0.54384,-1.22832 1.21492,-1.22832 0.67109,0 1.21514,0.54993 1.21514,1.22832 z m -3.02432,0 c 0,0.67816 -0.54407,1.22804 -1.21508,1.22804 -0.67106,0 -1.21501,-0.54988 -1.21501,-1.22804 0,-0.67839 0.54395,-1.22832 1.21501,-1.22832 0.67101,0 1.21508,0.54993 1.21508,1.22832 z m -3.02444,0 c 0,0.67816 -0.54395,1.22804 -1.21502,1.22804 -0.67105,0 -1.21501,-0.54988 -1.21501,-1.22804 0,-0.67839 0.54396,-1.22832 1.21501,-1.22832 0.67107,0 1.21502,0.54993 1.21502,1.22832 z m -3.02432,0 c 0,0.67816 -0.54394,1.22804 -1.21494,1.22804 -0.67108,0 -1.21513,-0.54988 -1.21513,-1.22804 0,-0.67839 0.54405,-1.22832 1.21513,-1.22832 0.671,0 1.21494,0.54993 1.21494,1.22832 z m -3.02431,0 c 0,0.67816 -0.54389,1.22804 -1.21495,1.22804 -0.67108,0 -1.21514,-0.54988 -1.21514,-1.22804 0,-0.67839 0.54406,-1.22832 1.21514,-1.22832 0.67106,0 1.21495,0.54993 1.21495,1.22832 z m -3.02425,0 c 0,0.67816 -0.54397,1.22804 -1.21502,1.22804 -0.67109,0 -1.21518,-0.54988 -1.21518,-1.22804 0,-0.67839 0.54409,-1.22832 1.21518,-1.22832 0.67105,0 1.21502,0.54993 1.21502,1.22832 z m -3.02428,0 c 0,0.67816 -0.54402,1.22804 -1.21507,1.22804 -0.67112,0 -1.21515,-0.54988 -1.21515,-1.22804 0,-0.67839 0.54403,-1.22832 1.21515,-1.22832 0.67105,0 1.21507,0.54993 1.21507,1.22832 z m 46.86184,-2.77909 c 0,0.67842 -0.5441,1.22805 -1.21514,1.22805 -0.6711,0 -1.21505,-0.54963 -1.21505,-1.22805 0,-0.67812 0.54395,-1.22804 1.21505,-1.22804 0.67104,0 1.21514,0.54992 1.21514,1.22804 z m -3.02436,0 c 0,0.67842 -0.54406,1.22805 -1.21514,1.22805 -0.67104,0 -1.21495,-0.54963 -1.21495,-1.22805 0,-0.67812 0.54391,-1.22804 1.21495,-1.22804 0.67108,0 1.21514,0.54992 1.21514,1.22804 z m -3.02433,0 c 0,0.67842 -0.54404,1.22805 -1.21505,1.22805 -0.67107,0 -1.21502,-0.54963 -1.21502,-1.22805 0,-0.67812 0.54395,-1.22804 1.21502,-1.22804 0.67101,0 1.21505,0.54992 1.21505,1.22804 z m -3.0244,0 c 0,0.67842 -0.54393,1.22805 -1.215,1.22805 -0.67105,0 -1.21503,-0.54963 -1.21503,-1.22805 0,-0.67812 0.54398,-1.22804 1.21503,-1.22804 0.67107,0 1.215,0.54992 1.215,1.22804 z m -3.02431,0 c 0,0.67842 -0.54392,1.22805 -1.21495,1.22805 -0.67105,0 -1.21514,-0.54963 -1.21514,-1.22805 0,-0.67812 0.54409,-1.22804 1.21514,-1.22804 0.67103,0 1.21495,0.54992 1.21495,1.22804 z m -3.02431,0 c 0,0.67842 -0.54392,1.22805 -1.21496,1.22805 -0.67112,0 -1.21518,-0.54963 -1.21518,-1.22805 0,-0.67812 0.54406,-1.22804 1.21518,-1.22804 0.67104,0 1.21496,0.54992 1.21496,1.22804 z m -3.02428,0 c 0,0.67842 -0.544,1.22805 -1.21505,1.22805 -0.67108,0 -1.21517,-0.54963 -1.21517,-1.22805 0,-0.67812 0.54409,-1.22804 1.21517,-1.22804 0.67105,0 1.21505,0.54992 1.21505,1.22804 z m -3.02433,0 c 0,0.67842 -0.54403,1.22805 -1.21512,1.22805 -0.67107,0 -1.21508,-0.54963 -1.21508,-1.22805 0,-0.67812 0.54401,-1.22804 1.21508,-1.22804 0.67109,0 1.21512,0.54992 1.21512,1.22804 z m -3.02429,0 c 0,0.67842 -0.54409,1.22805 -1.21519,1.22805 -0.67105,0 -1.21501,-0.54963 -1.21501,-1.22805 0,-0.67812 0.54396,-1.22804 1.21501,-1.22804 0.6711,0 1.21519,0.54992 1.21519,1.22804 z m -3.02437,0 c 0,0.67842 -0.54406,1.22805 -1.21514,1.22805 -0.67106,0 -1.21495,-0.54963 -1.21495,-1.22805 0,-0.67812 0.54389,-1.22804 1.21495,-1.22804 0.67108,0 1.21514,0.54992 1.21514,1.22804 z m -3.02432,0 c 0,0.67842 -0.54406,1.22805 -1.21512,1.22805 -0.67101,0 -1.21496,-0.54963 -1.21496,-1.22805 0,-0.67812 0.54395,-1.22804 1.21496,-1.22804 0.67106,0 1.21512,0.54992 1.21512,1.22804 z m -3.02444,0 c 0,0.67842 -0.54395,1.22805 -1.215,1.22805 -0.67103,0 -1.21504,-0.54963 -1.21504,-1.22805 0,-0.67812 0.54401,-1.22804 1.21504,-1.22804 0.67105,0 1.215,0.54992 1.215,1.22804 z m -3.02433,0 c 0,0.67842 -0.54392,1.22805 -1.21498,1.22805 -0.67103,0 -1.21508,-0.54963 -1.21508,-1.22805 0,-0.67812 0.54405,-1.22804 1.21508,-1.22804 0.67106,0 1.21498,0.54992 1.21498,1.22804 z m -3.02424,0 c 0,0.67842 -0.54394,1.22805 -1.21501,1.22805 -0.67105,0 -1.21515,-0.54963 -1.21515,-1.22805 0,-0.67812 0.5441,-1.22804 1.21515,-1.22804 0.67107,0 1.21501,0.54992 1.21501,1.22804 z m -3.0243,0 c 0,0.67842 -0.54399,1.22805 -1.21508,1.22805 -0.67104,0 -1.21511,-0.54963 -1.21511,-1.22805 0,-0.67812 0.54407,-1.22804 1.21511,-1.22804 0.67109,0 1.21508,0.54992 1.21508,1.22804 z m -3.0243,0 c 0,0.67842 -0.54405,1.22805 -1.21513,1.22805 -0.67106,0 -1.21511,-0.54963 -1.21511,-1.22805 0,-0.67812 0.54405,-1.22804 1.21511,-1.22804 0.67108,0 1.21513,0.54992 1.21513,1.22804 z m -3.02435,0 c 0,0.67842 -0.54407,1.22805 -1.21519,1.22805 -0.67104,0 -1.21499,-0.54963 -1.21499,-1.22805 0,-0.67812 0.54395,-1.22804 1.21499,-1.22804 0.67112,0 1.21519,0.54992 1.21519,1.22804 z m 48.38926,-5.55787 c 0,0.67842 -0.5441,1.22805 -1.21514,1.22805 -0.6711,0 -1.21505,-0.54963 -1.21505,-1.22805 0,-0.67812 0.54395,-1.22805 1.21505,-1.22805 0.67104,0 1.21514,0.54993 1.21514,1.22805 z m -3.02436,0 c 0,0.67842 -0.54406,1.22805 -1.21514,1.22805 -0.67104,0 -1.21495,-0.54963 -1.21495,-1.22805 0,-0.67812 0.54391,-1.22805 1.21495,-1.22805 0.67108,0 1.21514,0.54993 1.21514,1.22805 z m -3.02433,0 c 0,0.67842 -0.54404,1.22805 -1.21505,1.22805 -0.67107,0 -1.21502,-0.54963 -1.21502,-1.22805 0,-0.67812 0.54395,-1.22805 1.21502,-1.22805 0.67101,0 1.21505,0.54993 1.21505,1.22805 z m -3.0244,0 c 0,0.67842 -0.54393,1.22805 -1.215,1.22805 -0.67105,0 -1.21503,-0.54963 -1.21503,-1.22805 0,-0.67812 0.54398,-1.22805 1.21503,-1.22805 0.67107,0 1.215,0.54993 1.215,1.22805 z m -3.02431,0 c 0,0.67842 -0.54392,1.22805 -1.21495,1.22805 -0.67105,0 -1.21514,-0.54963 -1.21514,-1.22805 0,-0.67812 0.54409,-1.22805 1.21514,-1.22805 0.67103,0 1.21495,0.54993 1.21495,1.22805 z m -3.02431,0 c 0,0.67842 -0.54392,1.22805 -1.21496,1.22805 -0.67112,0 -1.21518,-0.54963 -1.21518,-1.22805 0,-0.67812 0.54406,-1.22805 1.21518,-1.22805 0.67104,0 1.21496,0.54993 1.21496,1.22805 z m -3.02428,0 c 0,0.67842 -0.544,1.22805 -1.21505,1.22805 -0.67108,0 -1.21517,-0.54963 -1.21517,-1.22805 0,-0.67812 0.54409,-1.22805 1.21517,-1.22805 0.67105,0 1.21505,0.54993 1.21505,1.22805 z m -3.02433,0 c 0,0.67842 -0.54403,1.22805 -1.21512,1.22805 -0.67107,0 -1.21508,-0.54963 -1.21508,-1.22805 0,-0.67812 0.54401,-1.22805 1.21508,-1.22805 0.67109,0 1.21512,0.54993 1.21512,1.22805 z m -3.02429,0 c 0,0.67842 -0.54409,1.22805 -1.21519,1.22805 -0.67105,0 -1.21501,-0.54963 -1.21501,-1.22805 0,-0.67812 0.54396,-1.22805 1.21501,-1.22805 0.6711,0 1.21519,0.54993 1.21519,1.22805 z m -3.02437,0 c 0,0.67842 -0.54406,1.22805 -1.21514,1.22805 -0.67106,0 -1.21495,-0.54963 -1.21495,-1.22805 0,-0.67812 0.54389,-1.22805 1.21495,-1.22805 0.67108,0 1.21514,0.54993 1.21514,1.22805 z m -3.02432,0 c 0,0.67842 -0.54406,1.22805 -1.21512,1.22805 -0.67101,0 -1.21496,-0.54963 -1.21496,-1.22805 0,-0.67812 0.54395,-1.22805 1.21496,-1.22805 0.67106,0 1.21512,0.54993 1.21512,1.22805 z m -3.02444,0 c 0,0.67842 -0.54395,1.22805 -1.215,1.22805 -0.67103,0 -1.21504,-0.54963 -1.21504,-1.22805 0,-0.67812 0.54401,-1.22805 1.21504,-1.22805 0.67105,0 1.215,0.54993 1.215,1.22805 z m -3.02433,0 c 0,0.67842 -0.54392,1.22805 -1.21498,1.22805 -0.67103,0 -1.21508,-0.54963 -1.21508,-1.22805 0,-0.67812 0.54405,-1.22805 1.21508,-1.22805 0.67106,0 1.21498,0.54993 1.21498,1.22805 z m -3.02424,0 c 0,0.67842 -0.54394,1.22805 -1.21501,1.22805 -0.67105,0 -1.21515,-0.54963 -1.21515,-1.22805 0,-0.67812 0.5441,-1.22805 1.21515,-1.22805 0.67107,0 1.21501,0.54993 1.21501,1.22805 z m -3.0243,0 c 0,0.67842 -0.54399,1.22805 -1.21508,1.22805 -0.67104,0 -1.21511,-0.54963 -1.21511,-1.22805 0,-0.67812 0.54407,-1.22805 1.21511,-1.22805 0.67109,0 1.21508,0.54993 1.21508,1.22805 z m -3.0243,0 c 0,0.67842 -0.54405,1.22805 -1.21513,1.22805 -0.67106,0 -1.21511,-0.54963 -1.21511,-1.22805 0,-0.67812 0.54405,-1.22805 1.21511,-1.22805 0.67108,0 1.21513,0.54993 1.21513,1.22805 z m -3.02435,0 c 0,0.67842 -0.54407,1.22805 -1.21519,1.22805 -0.67104,0 -1.21499,-0.54963 -1.21499,-1.22805 0,-0.67812 0.54395,-1.22805 1.21499,-1.22805 0.67112,0 1.21519,0.54993 1.21519,1.22805 z m 49.8862,2.77905 c 0,0.67816 -0.5441,1.22805 -1.21518,1.22805 -0.67105,0 -1.215,-0.54989 -1.215,-1.22805 0,-0.67838 0.54395,-1.22831 1.215,-1.22831 0.67108,0 1.21518,0.54993 1.21518,1.22831 z m -3.02437,0 c 0,0.67816 -0.54406,1.22805 -1.21512,1.22805 -0.67107,0 -1.21495,-0.54989 -1.21495,-1.22805 0,-0.67838 0.54388,-1.22831 1.21495,-1.22831 0.67106,0 1.21512,0.54993 1.21512,1.22831 z m -3.02436,0 c 0,0.67816 -0.54403,1.22805 -1.21509,1.22805 -0.67101,0 -1.21498,-0.54989 -1.21498,-1.22805 0,-0.67838 0.54397,-1.22831 1.21498,-1.22831 0.67106,0 1.21509,0.54993 1.21509,1.22831 z m -3.02436,0 c 0,0.67816 -0.54392,1.22805 -1.21499,1.22805 -0.67107,0 -1.21505,-0.54989 -1.21505,-1.22805 0,-0.67838 0.54398,-1.22831 1.21505,-1.22831 0.67107,0 1.21499,0.54993 1.21499,1.22831 z m -3.02429,0 c 0,0.67816 -0.54394,1.22805 -1.215,1.22805 -0.67103,0 -1.21512,-0.54989 -1.21512,-1.22805 0,-0.67838 0.54409,-1.22831 1.21512,-1.22831 0.67106,0 1.215,0.54993 1.215,1.22831 z m -3.02434,0 c 0,0.67816 -0.5439,1.22805 -1.21499,1.22805 -0.67105,0 -1.21514,-0.54989 -1.21514,-1.22805 0,-0.67838 0.54409,-1.22831 1.21514,-1.22831 0.67109,0 1.21499,0.54993 1.21499,1.22831 z m -3.02434,0 c 0,0.67816 -0.54396,1.22805 -1.21505,1.22805 -0.67105,0 -1.21511,-0.54989 -1.21511,-1.22805 0,-0.67838 0.54406,-1.22831 1.21511,-1.22831 0.67109,0 1.21505,0.54993 1.21505,1.22831 z m -3.02426,0 c 0,0.67816 -0.54407,1.22805 -1.21512,1.22805 -0.67104,0 -1.21507,-0.54989 -1.21507,-1.22805 0,-0.67838 0.54403,-1.22831 1.21507,-1.22831 0.67105,0 1.21512,0.54993 1.21512,1.22831 z m -3.02433,0 c 0,0.67816 -0.54407,1.22805 -1.21515,1.22805 -0.67106,0 -1.21496,-0.54989 -1.21496,-1.22805 0,-0.67838 0.5439,-1.22831 1.21496,-1.22831 0.67108,0 1.21515,0.54993 1.21515,1.22831 z m -3.02433,0 c 0,0.67816 -0.5441,1.22805 -1.21515,1.22805 -0.671,0 -1.21494,-0.54989 -1.21494,-1.22805 0,-0.67838 0.54394,-1.22831 1.21494,-1.22831 0.67105,0 1.21515,0.54993 1.21515,1.22831 z m -3.02443,0 c 0,0.67816 -0.54404,1.22805 -1.21508,1.22805 -0.67106,0 -1.21493,-0.54989 -1.21493,-1.22805 0,-0.67838 0.54387,-1.22831 1.21493,-1.22831 0.67104,0 1.21508,0.54993 1.21508,1.22831 z m -3.02434,0 c 0,0.67816 -0.54398,1.22805 -1.215,1.22805 -0.67106,0 -1.21503,-0.54989 -1.21503,-1.22805 0,-0.67838 0.54397,-1.22831 1.21503,-1.22831 0.67102,0 1.215,0.54993 1.215,1.22831 z m -3.02436,0 c 0,0.67816 -0.54389,1.22805 -1.2149,1.22805 -0.67109,0 -1.2151,-0.54989 -1.2151,-1.22805 0,-0.67838 0.54401,-1.22831 1.2151,-1.22831 0.67101,0 1.2149,0.54993 1.2149,1.22831 z m -3.02424,0 c 0,0.67816 -0.54394,1.22805 -1.21498,1.22805 -0.67108,0 -1.21517,-0.54989 -1.21517,-1.22805 0,-0.67838 0.54409,-1.22831 1.21517,-1.22831 0.67104,0 1.21498,0.54993 1.21498,1.22831 z m -3.02434,0 c 0,0.67816 -0.54395,1.22805 -1.215,1.22805 -0.67112,0 -1.21519,-0.54989 -1.21519,-1.22805 0,-0.67838 0.54407,-1.22831 1.21519,-1.22831 0.67105,0 1.215,0.54993 1.215,1.22831 z m -3.02425,0 c 0,0.67816 -0.54406,1.22805 -1.21512,1.22805 -0.67108,0 -1.21513,-0.54989 -1.21513,-1.22805 0,-0.67838 0.54405,-1.22831 1.21513,-1.22831 0.67106,0 1.21512,0.54993 1.21512,1.22831 z m -3.02436,0 c 0,0.67816 -0.54406,1.22805 -1.21511,1.22805 -0.67113,0 -1.21507,-0.54989 -1.21507,-1.22805 0,-0.67838 0.54394,-1.22831 1.21507,-1.22831 0.67105,0 1.21511,0.54993 1.21511,1.22831 z m -3.02433,0 c 0,0.67816 -0.5441,1.22805 -1.21515,1.22805 -0.67108,0 -1.215,-0.54989 -1.215,-1.22805 0,-0.67838 0.54392,-1.22831 1.215,-1.22831 0.67105,0 1.21515,0.54993 1.21515,1.22831 z"
       inkscape:connector-curvature="0"
       sodipodi:nodetypes="ssssssssssssssssssssssssssssssssssssssssssssssssssssssssssssssssssssssssssssssssssssssssssssssssssssssssssssssssssssssssssssssssssssssssssssssssssssssssssssssssssssssssssssssssssssssssssssssssssssssssssssssssssssssssssssssssssssssssssssssssssssssssssssssssssssssssssssssssssssssssssssssssssssssssssssssssssssssssssssssssssssssssssssssssssssssssssssssssssssssssssssssssssssssssssssssssssssssssssssssssssssssssssssssssssssssssssssssssssssssssssssssssssssssssssssssssssssssssssssssssssssssssssssssssssssssssssssssssssssssssssssssssssssssssssssssssssssssssssssssssssssssssss" />
    <path
       style="display:inline;fill:#999999;fill-opacity:1;fill-rule:evenodd;stroke:none;stroke-width:1.10192"
       d="m 641.40351,688.58653 c -4.84539,-0.0187 -9.50947,2.67202 -11.77058,7.32125 -2.58881,5.32286 -1.21681,11.54072 2.95271,15.3299 l -15.26938,41.92498 c -1.20285,-0.24514 -2.45082,-0.38405 -3.73142,-0.38405 -9.72302,0 -17.60522,7.45159 -17.60522,16.63451 0,9.18266 7.8822,16.62429 17.60522,16.62429 9.72305,0 17.60529,-7.44163 17.60529,-16.62429 0,-4.43424 -1.83797,-8.46613 -4.83359,-11.44699 l 15.01657,-41.21742 c 0.24637,-0.67585 0.36827,-1.39396 0.38433,-2.1235 4.67535,-0.15175 9.10714,-2.82214 11.2953,-7.32125 3.14581,-6.46824 0.45151,-14.25705 -6.01683,-17.40286 -1.81913,-0.88475 -3.73642,-1.30776 -5.6324,-1.31457 z"
       id="path3878"
       inkscape:connector-curvature="0" />
    <path
       style="display:inline;fill:#4d4d4d;fill-opacity:1;fill-rule:evenodd;stroke:none;stroke-width:1.10192"
       d="m 690.29698,901.33402 14.42092,-3.12939 v 34.9477 l -14.42092,3.1294 z"
       id="rect6240"
       inkscape:connector-curvature="0"
       sodipodi:nodetypes="ccccc" />
    <path
       style="display:inline;fill:#cccccc;fill-opacity:1;fill-rule:evenodd;stroke:none;stroke-width:1.10192"
       d="m 675.59486,880.73078 29.12304,17.47385 -14.42092,3.12939 -29.12305,-17.47385 z"
       id="rect6233"
       inkscape:connector-curvature="0"
       sodipodi:nodetypes="ccccc" />
    <path
       style="display:inline;fill:#999999;fill-opacity:1;fill-rule:evenodd;stroke:none;stroke-width:1.10192"
       d="m 690.29698,936.28172 -29.1231,17.47385 -29.12303,-17.47385 3e-5,-34.9477 29.123,-17.47385 29.12305,17.47385 z"
       id="path9087"
       inkscape:connector-curvature="0"
       sodipodi:nodetypes="ccccccc" />
    <path
       sodipodi:nodetypes="ccccc"
       inkscape:connector-curvature="0"
       id="path3214"
       d="m 705.58546,948.93658 8.54649,-1.85453 v 20.71108 l -8.54649,1.8548 z"
       style="display:inline;fill:#4d4d4d;fill-opacity:1;fill-rule:evenodd;stroke:none;stroke-width:1.10192" />
    <path
       sodipodi:nodetypes="ccccc"
       inkscape:connector-curvature="0"
       id="path3216"
       d="m 696.87258,936.72625 17.25937,10.3558 -8.54649,1.85453 -17.25928,-10.35554 z"
       style="display:inline;fill:#cccccc;fill-opacity:1;fill-rule:evenodd;stroke:none;stroke-width:1.10192" />
    <path
       sodipodi:nodetypes="ccccccc"
       inkscape:connector-curvature="0"
       id="path3220"
       d="m 705.58546,969.64793 -17.25928,10.35554 -17.25945,-10.35554 3e-5,-20.71135 17.25942,-10.35554 17.25928,10.35554 z"
       style="display:inline;fill:#999999;fill-opacity:1;fill-rule:evenodd;stroke:none;stroke-width:1.10192" />
    <path
       sodipodi:nodetypes="ccccc"
       inkscape:connector-curvature="0"
       id="path3264"
       d="m 733.29519,973.1842 8.54636,-1.85474 v 20.71128 l -8.54636,1.8548 z"
       style="display:inline;fill:#4d4d4d;fill-opacity:1;fill-rule:evenodd;stroke:none;stroke-width:1.10192" />
    <path
       sodipodi:nodetypes="ccccc"
       inkscape:connector-curvature="0"
       id="path3266"
       d="m 724.58215,960.97386 17.2594,10.3556 -8.54636,1.85474 -17.25946,-10.35561 z"
       style="display:inline;fill:#cccccc;fill-opacity:1;fill-rule:evenodd;stroke:none;stroke-width:1.10192" />
    <path
       sodipodi:nodetypes="ccccccc"
       inkscape:connector-curvature="0"
       id="path3270"
       d="m 733.29519,993.89554 -17.25948,10.35506 -17.25928,-10.35506 V 973.1842 l 17.25928,-10.35561 17.25946,10.35561 z"
       style="display:inline;fill:#999999;fill-opacity:1;fill-rule:evenodd;stroke:none;stroke-width:1.10192" />
    <path
       style="display:inline;fill:#4d4d4d;fill-opacity:1;fill-rule:evenodd;stroke:none;stroke-width:1.10192"
       d="m 761.52286,948.62595 8.54636,-1.85455 v 20.71134 l -8.54636,1.85454 z"
       id="path3274"
       inkscape:connector-curvature="0"
       sodipodi:nodetypes="ccccc" />
    <path
       sodipodi:nodetypes="ccccc"
       inkscape:connector-curvature="0"
       style="display:inline;fill:#333333;fill-opacity:1;fill-rule:evenodd;stroke:none;stroke-width:1.10192"
       d="m 761.52286,969.33728 8.54636,-1.85454 -17.25932,10.35555 -8.54644,1.85454 z"
       id="path3278" />
    <path
       style="display:inline;fill:#999999;fill-opacity:1;fill-rule:evenodd;stroke:none;stroke-width:1.10192"
       d="m 761.52286,969.33728 -17.25941,10.35554 -17.25933,-10.35554 v -20.71133 l 17.25933,-10.35555 17.25939,10.35555 z"
       id="path3280"
       inkscape:connector-curvature="0"
       sodipodi:nodetypes="ccccccc" />
    <path
       inkscape:connector-curvature="0"
       id="path6334"
       d="m 803.24673,919.58977 c -2.05272,16.04046 -14.66877,23.8209 -21.01857,26.13324 5.21092,-0.88973 32.67807,-8.84048 35.4669,-29.22548 z"
       style="display:inline;fill:#373737;fill-opacity:1;stroke:none;stroke-width:1.10192"
       sodipodi:nodetypes="cccc" />
    <path
       style="display:inline;fill:#cccccc;fill-opacity:1;stroke:none;stroke-width:1.10192"
       d="m 771.09819,916.49753 14.56153,-2.91231 32.03534,2.91231 -14.29183,3.09015 z"
       id="path6328"
       inkscape:connector-curvature="0"
       sodipodi:nodetypes="ccccc" />
    <path
       style="display:inline;fill:#999999;fill-opacity:1;fill-rule:evenodd;stroke:none;stroke-width:1.10192"
       d="m 803.24015,919.38603 c -1.93849,17.16614 -17.88328,29.82931 -35.61383,28.28396 -17.73041,-1.54534 -30.53232,-16.71411 -28.59382,-33.88049 1.93843,-17.16613 17.88329,-29.82931 35.6138,-28.28396 4.80893,0.4191 9.81786,2.38883 13.92572,4.78121 l -17.43571,26.30091 z"
       id="path7494"
       inkscape:connector-curvature="0"
       sodipodi:nodetypes="csssccc" />
    <path
       sodipodi:nodetypes="ccccc"
       inkscape:connector-curvature="0"
       id="path3338"
       d="m 771.09819,916.49753 14.56153,-2.91231 17.47384,-26.21075 -14.56154,2.91228 z"
       style="display:inline;fill:#4d4d4d;fill-opacity:1;stroke:none;stroke-width:1.10192" />
    <path
       sodipodi:nodetypes="cccc"
       inkscape:connector-curvature="0"
       id="path3340"
       d="m 753.78326,890.50444 c 14.60396,-11.76332 35.77428,-11.27548 49.3503,-3.12997 l -14.56154,2.91228 c -6.43862,-3.62143 -18.5578,-9.15151 -34.78876,0.21769 z"
       style="display:inline;fill:#cccccc;fill-opacity:1;stroke:none;stroke-width:1.10192" />
    <path
       style="display:inline;fill:#373737;fill-opacity:1;fill-rule:evenodd;stroke:none;stroke-width:1.10192"
       d="m 481.94984,784.93925 c 0,8.92176 -7.23245,16.15415 -16.15414,16.15415 -8.92175,0 -16.15413,-7.23239 -16.15413,-16.15415 0,-8.92174 7.23238,-16.15414 16.15413,-16.15414 8.92169,0 16.15414,7.2324 16.15414,16.15414 z"
       id="path4225"
       inkscape:connector-curvature="0" />
    <path
       style="display:inline;fill:#373737;fill-opacity:1;fill-rule:evenodd;stroke:none;stroke-width:1.10192"
       d="m 481.94984,784.93925 c 0,8.92176 -7.23245,16.15415 -16.15414,16.15415 -8.92175,0 -16.15413,-7.23239 -16.15413,-16.15415 0,-8.92174 7.23238,-16.15414 16.15413,-16.15414 8.92169,0 16.15414,7.2324 16.15414,16.15414 z"
       id="path4227"
       inkscape:connector-curvature="0" />
    <path
       style="display:inline;fill:#0000b2;fill-opacity:1;fill-rule:evenodd;stroke:none;stroke-width:1.10192"
       d="m 463.46097,775.87549 c -5.90761,-0.0837 -9.25578,9.02919 -4.28753,12.5491 3.68301,3.28588 10.76614,1.47154 11.62903,-3.63011 1.13637,-4.36618 -2.61813,-9.4617 -7.3415,-8.91899 z"
       id="path4258"
       inkscape:connector-curvature="0" />
    <path
       style="display:inline;fill:#0000cc;fill-opacity:1;fill-rule:evenodd;stroke:none;stroke-width:1.10192"
       d="m 463.29363,777.78335 c -4.3956,0.31324 -6.4874,7.44946 -2.26519,9.61662 3.1776,2.20167 8.7858,-0.53429 8.00885,-4.72226 -0.2668,-2.82577 -2.81409,-5.30647 -5.74366,-4.89436 z"
       id="path4293"
       inkscape:connector-curvature="0" />
    <path
       style="display:inline;fill:#0000ff;fill-opacity:1;fill-rule:evenodd;stroke:none;stroke-width:1.10192"
       d="m 463.34418,780.79678 c -2.306,0.13386 -1.34332,4.37601 0.91008,3.24605 1.68888,-0.86982 1.08156,-3.54124 -0.91008,-3.24605 z"
       id="path4290"
       inkscape:connector-curvature="0" />
    <path
       style="display:inline;fill:#373737;fill-opacity:1;fill-rule:evenodd;stroke:none;stroke-width:1.10192"
       d="m 552.49231,784.93925 c 0,8.92176 -7.23239,16.15415 -16.15413,16.15415 -8.92175,0 -16.15414,-7.23239 -16.15414,-16.15415 0,-8.92174 7.23239,-16.15414 16.15414,-16.15414 8.92174,0 16.15413,7.2324 16.15413,16.15414 z"
       id="path4299"
       inkscape:connector-curvature="0" />
    <path
       id="path4301"
       d="m 552.49231,784.93925 c 0,8.92176 -7.23239,16.15415 -16.15413,16.15415 -8.92175,0 -16.15414,-7.23239 -16.15414,-16.15415 0,-8.92174 7.23239,-16.15414 16.15414,-16.15414 8.92174,0 16.15413,7.2324 16.15413,16.15414 z"
       style="display:inline;fill:#373737;fill-opacity:1;fill-rule:evenodd;stroke:none;stroke-width:1.10192"
       inkscape:connector-curvature="0" />
    <path
       inkscape:connector-curvature="0"
       id="path4303"
       d="m 534.00354,775.87549 c -5.90772,-0.0837 -9.25587,9.02919 -4.28763,12.5491 3.68315,3.28588 10.76625,1.47154 11.6291,-3.63011 1.13642,-4.36618 -2.61809,-9.4617 -7.34147,-8.91899 z"
       style="display:inline;fill:#0000b2;fill-opacity:1;fill-rule:evenodd;stroke:none;stroke-width:1.10192" />
    <path
       style="display:inline;fill:#0000cc;fill-opacity:1;fill-rule:evenodd;stroke:none;stroke-width:1.10192"
       d="m 533.83609,777.78335 c -4.39559,0.31324 -6.48739,7.44946 -2.26506,9.61662 3.17749,2.20167 8.78568,-0.53429 8.00875,-4.72226 -0.26679,-2.82577 -2.8141,-5.30647 -5.74369,-4.89436 z"
       id="path4305"
       inkscape:connector-curvature="0" />
    <path
       style="display:inline;fill:#0000ff;fill-opacity:1;fill-rule:evenodd;stroke:none;stroke-width:1.10192"
       d="m 533.88665,780.79678 c -2.306,0.13386 -1.34326,4.37601 0.91008,3.24605 1.689,-0.86982 1.08159,-3.54124 -0.91008,-3.24605 z"
       id="path4307"
       inkscape:connector-curvature="0" />
  </g>
  <g
     inkscape:groupmode="layer"
     id="layer2"
     inkscape:label="outline"
     transform="translate(-250,-1.6318979e-6)">
    <path
       id="path6085"
       style="color:#000000;font-style:normal;font-variant:normal;font-weight:normal;font-stretch:normal;font-size:medium;line-height:normal;font-family:Sans;-inkscape-font-specification:Sans;text-indent:0;text-align:start;text-decoration:none;text-decoration-line:none;letter-spacing:normal;word-spacing:normal;text-transform:none;writing-mode:lr-tb;direction:ltr;baseline-shift:baseline;text-anchor:start;display:inline;overflow:visible;visibility:visible;fill:#000000;fill-opacity:1;stroke:none;stroke-width:8.81614;marker:none;enable-background:accumulate"
       d="m 553.25798,104.32896 c -9.62118,0 -17.93839,6.82017 -17.44356,17.45368 0.39456,8.47626 6.55407,16.40733 18.54338,16.06852 7.41861,-0.20942 16.07879,-6.99724 15.80383,-16.34351 -0.28285,-9.61722 -7.28248,-17.17869 -16.90365,-17.17869 z m -0.81029,1.9809 c 8.22218,0 14.8649,6.6429 14.8649,14.86489 0,8.22226 -6.64272,14.85495 -14.8649,14.85495 -8.22223,0 -14.85478,-6.63269 -14.85478,-14.85495 0,-8.22199 6.63255,-14.86489 14.85478,-14.86489 z m -69.7323,-1.9809 c -9.62117,0 -18.07889,7.5781 -17.44349,17.45368 0.61785,9.60116 8.20822,16.54208 17.79036,16.01277 9.60649,-0.53053 16.73459,-6.6665 16.73459,-16.28776 0,-9.62125 -7.4602,-17.17869 -17.08146,-17.17869 z m -0.81018,1.9809 c 8.22209,0 14.8649,6.6429 14.8649,14.86489 0,8.22226 -6.64281,14.85495 -14.8649,14.85495 -8.22223,0 -14.85488,-6.63269 -14.85488,-14.85495 0,-8.22199 6.63265,-14.86489 14.85488,-14.86489 z m 35.73743,44.46886 c -7.82584,0.0854 -16.28874,1.18386 -23.23029,5.01036 -4.02427,2.2185 -8.08636,7.05299 -7.70752,11.86004 0.39565,5.02107 4.89851,9.21141 9.11047,11.19999 8.81877,4.16383 22.52321,4.81516 33.07837,3.37766 6.21794,-0.84664 12.06037,-3.13621 16.68166,-7.45639 2.80354,-2.62094 3.98131,-7.437 2.45887,-11.20875 -2.82882,-7.00842 -10.3594,-10.07723 -16.99325,-11.56155 -4.34615,-0.97228 -8.94988,-1.26992 -13.39831,-1.22136 z m -1.15386,1.34798 c 8.19599,-0.28897 16.72871,1.43604 23.86237,5.65005 3.93782,2.32618 7.12139,7.91192 4.93133,12.29182 -2.88258,5.76423 -9.49162,8.17295 -15.55586,9.53484 -9.4459,2.1212 -19.45962,1.64526 -28.74694,-1.04438 -4.98569,-1.44377 -10.31332,-4.20471 -12.2012,-9.34646 -1.49212,-4.06406 0.85545,-8.44449 4.09751,-10.85863 6.65149,-4.9531 15.6435,-5.94631 23.61279,-6.22724 z M 426.60173,24.145764 c -11.26437,1.08399 -14.22936,12.123614 -12.12452,17.67468 2.09809,5.533282 5.57614,9.205628 11.82711,9.564722 4.0275,11.85729 13.03,36.6204 13.03,36.6204 l -12.09854,12.113024 -0.10841,33.15642 58.69995,65.58033 21.90424,0.23962 v 1.43611 l -79.64353,0.41445 -33.45107,16.99863 -0.14153,36.40373 -13.79312,8.18076 v 4.13894 l -6.98099,-3.98062 -9.05477,1.95226 -2.61171,1.56972 -0.0756,-15.11721 c 0,0 -12.25106,-7.16604 -17.05471,-10.05135 5.60291,-6.45388 8.64228,-14.94306 7.6246,-23.95575 -1.94391,-17.21475 -17.47989,-29.35438 -30.81536,-29.56474 -13.72385,-0.21644 -25.18713,3.99078 -33.48805,8.4304 5.30543,7.95812 16.26123,24.06949 16.26123,24.06949 l -15.53937,1.43235 c 0,0 -11.63627,2.24898 -14.95222,3.24841 2.5269,24.2029 26.31983,32.72818 42.82683,29.34018 l 0.096,20.25402 18.10176,10.9367 11.44215,-2.53771 0.0827,14.91204 c 6.30015,3.76359 12.28664,7.87507 18.57329,11.66153 l 9.15135,-2.21469 c 0,0 12.3732,-6.7426 18.27287,-10.57725 v -4.11579 l 1.93122,1.16288 c 0,29.40627 0.34396,87.80412 0.34396,87.80412 0,0 52.91361,0.41461 79.54236,0.41461 -11.2169,22.38979 -22.17146,44.48777 -31.90401,63.81785 43.65486,18.38736 129.27162,17.5383 169.07147,-6.44128 -12.60153,-19.70652 -33.97286,-56.0824 -33.97286,-56.0824 h 62.25062 l 33.45816,-17.08528 v -76.50581 c 1.59433,0.95745 4.28065,2.36936 4.28065,2.36936 l 8.27164,-2.0224 v 16.94782 c 6.29718,3.7684 18.62528,11.07165 18.62528,11.07165 0,0 6.1616,-1.26484 9.08213,-1.89986 v 15.07736 c 6.29719,3.76844 18.87933,11.32572 18.87933,11.32572 3.06626,-0.67566 9.1516,-2.21464 9.1516,-2.21464 0,0 12.37496,-6.73925 18.27262,-10.57733 v -11.86463 l 9.96056,-2.12057 18.27262,-11.21292 v -19.40679 c 8.10091,0.14532 19.76109,-2.89796 28.29811,-8.35281 10.84039,-6.92646 17.53384,-14.1718 18.96633,-24.77339 -10.39792,-0.91027 -32.12507,-2.75176 -32.12507,-2.75176 l 17.30049,-26.00853 c 0,0 -8.8257,-6.97978 -23.70294,-6.31426 -10.28797,0.46026 -20.39367,2.84446 -28.19538,9.27137 -7.299,6.02898 -13.29181,13.92649 -14.40671,23.79969 -0.96749,8.5663 1.29283,16.52525 6.2069,22.8461 -3.18911,1.85253 -18.64515,11.25219 -18.64515,11.25219 v 11.85147 l -9.63703,1.93849 v -15.32693 l -14.79391,-8.87865 5.37954,-2.84158 v -36.88915 c 0,0 -24.3563,-14.88587 -30.45783,-18.54557 l -14.43017,3.12454 c 0,0 -3.94194,1.98287 -5.056,2.71006 v -20.49724 l -113.25629,0.27298 v -7.03806 L 581.559,182.74365 c 0,0 35.76366,-39.74038 53.64496,-59.61129 8.04052,-2.16158 13.99542,-9.17001 13.99542,-17.54459 0,-4.50897 -1.75267,-8.634235 -4.60094,-11.810906 4.90791,-13.767009 10.94576,-32.956552 14.60189,-41.90492 4.72293,-0.615356 9.46693,-3.094172 11.69977,-7.68527 3.5281,-7.254426 0.88301,-15.030018 -6.36059,-18.57903 -7.31147,-3.58227 -16.10134,-0.697558 -19.13938,5.76694 -2.6561,5.651734 -1.91198,12.65188 2.57156,16.017664 L 636.25436,79.90724 C 626.59049,70.24339 606.75994,50.446112 606.75994,50.446112 l -113.94084,0.79611 -32.54102,15.9251 -11.2288,11.274846 -10.58621,-30.787004 c 4.04952,-4.303142 5.9194,-10.993906 2.8214,-16.412058 -3.19613,-5.589724 -7.77799,-7.868658 -14.68284,-7.097342 z m 236.42249,2.880562 c 5.72159,2.682306 8.40874,10.671508 5.21937,16.12595 -2.91355,4.982436 -8.20248,7.644284 -14.10795,5.98203 -0.39947,1.228058 1.61448,2.583118 1.19326,3.86009 -4.39688,13.329678 -16.47266,46.829532 -16.47266,46.829532 -0.79265,2.077942 -3.47861,1.971842 -3.47861,1.971842 0,0 4.92532,2.94319 8.15034,-3.80221 3.12226,5.93782 2.17745,14.71675 -3.91333,19.36474 -10.37544,7.60549 -25.93442,1.98941 -26.23099,-11.97276 0.11063,-11.55691 12.93094,-17.803077 21.56929,-14.794131 5.67998,-15.523049 10.2372,-29.714897 15.15401,-43.135725 -5.7752,-3.332948 -5.60247,-11.517104 -3.74016,-15.22576 3.0936,-6.160576 10.17685,-8.241776 16.65743,-5.203598 z m -224.49206,4.953026 c 2.89793,8.352662 -0.10052,13.920964 -7.89971,17.28443 1.33864,1.304114 5.62632,-0.152468 5.62632,-0.152468 l 11.15954,31.063011 -6.65673,6.541171 -12.42063,-36.982764 c -4.93629,-0.152894 -10.39999,-3.017464 -12.29484,-7.705828 -2.67397,-6.61651 0.35169,-14.186168 9.05718,-16.591398 5.03221,-1.39031 12.00246,2.432602 13.42887,6.543846 z m 162.6158,21.055498 -27.44446,14.500838 -110.50584,0.02601 29.98559,-14.829985 z m 4.97507,0.93031 29.21417,28.80957 -1.84054,2.426918 -4.28747,2.153889 c -5.95091,0.224927 -11.23896,3.035826 -14.61206,7.301037 l -7.97847,4.196498 -30.36691,-30.22527 z m -144.96936,15.057026 112.67121,0.778648 31.40832,31.408396 v 31.07475 c -19.09262,21.25939 -57.34611,64.26281 -57.34611,64.26281 l -60.83186,0.14146 -57.79397,-64.27277 -0.17498,-31.58331 z m 150.6423,30.660017 c -0.66846,1.851637 -1.04153,3.836437 -1.04153,5.905567 0,7.8495 5.23191,14.50537 12.50875,17.08955 l -15.19852,7.60443 v -28.73877 z m 16.5436,24.077047 c 0.68481,0.0446 1.28464,0.0848 1.89088,0.0602 l -50.67206,56.30464 c -8.14695,4.07544 -16.29332,8.15172 -24.44107,12.22568 17.44804,-19.37756 34.88775,-38.76279 52.33046,-58.14505 z m -310.30702,64.86253 c 22.53358,-0.44327 31.0241,17.72421 32.49803,28.00781 0.98646,8.73645 -1.8665,16.89033 -6.85726,22.46547 -2.26304,0.50558 -6.74844,1.58535 -8.85981,1.79364 4.23335,-6.09606 6.42867,-12.5333 5.06919,-22.09786 -2.39914,-16.87882 -18.64134,-29.61162 -37.38222,-27.78825 5.65363,-1.47989 10.99756,-2.29154 15.53207,-2.38081 z m -7.53821,4.02339 c 17.77903,2.96344 27.70978,15.46206 27.0153,32.45532 -0.67436,16.50001 -15.94413,26.89886 -29.44476,27.61132 -15.78294,0.86055 -30.74164,-10.54069 -32.80799,-27.04344 11.00529,-1.00328 32.73011,-2.85982 32.73011,-2.85982 0,0 -1.44137,-1.36243 -18.12509,-26.39942 7.18365,-4.11645 13.71012,-4.90013 20.63243,-3.76396 z m 246.48357,2.46576 v 7.06845 l -15.09753,7.23734 0.0904,-10.18003 h 5.98629 z m -47.39566,3.99873 30.52854,0.12703 v 10.94139 l -30.65871,0.0328 z m -81.15026,2.99873 79.2997,0.14173 0.0208,9.93019 h 32.35898 l 19.37491,-9.51576 106.48119,0.27323 -27.54553,13.77276 -240.50635,0.67298 z m 241.11469,2.65951 v 18.20212 c -7.59341,4.50752 -15.11585,9.13512 -22.72206,13.62108 v 36.77781 c 7.57195,4.54708 15.14773,9.08802 22.72206,13.6313 v 75.9424 l -29.12304,14.5616 V 219.32944 Z m 22.15576,12.55931 27.00958,16.34136 -11.75034,2.12352 -27.65683,-15.68382 z m -295.85899,1.05028 241.48583,1.22517 v 158.55879 l -240.99333,1.52704 z m 421.13889,4.88271 -11.08313,2.14665 c -5.08862,-2.34564 -13.92632,-7.38463 -29.78038,-2.2363 15.78996,-8.33928 33.17039,-4.08126 40.86351,0.0891 z m -511.26159,-2.34298 0.72489,1.12431 -28.35522,2.59032 11.03163,-2.24224 z m 371.84487,0.35392 28.15224,16.50299 v 34.42194 l -28.15224,16.50299 c 0,0 -18.98353,-11.0028 -28.15226,-16.50299 v -34.42194 c 9.16867,-5.5005 18.98556,-10.99933 28.15226,-16.50299 z m 125.83905,5.5529 c -6.03682,9.05394 -17.8918,26.78006 -17.8918,26.78006 0,0 21.41347,2.7236 32.61193,3.56517 -1.45609,10.92122 -12.69622,22.67754 -23.91527,24.74453 -10.63969,1.96025 -23.66531,-0.72413 -30.71777,-9.69182 -5.22123,-7.12151 -7.99671,-13.37815 -7.2273,-21.56222 2.12144,-22.56547 26.84976,-35.4005 47.14021,-23.83572 z m 13.67802,-1.83459 -16.12508,23.96866 -11.81743,2.39694 16.18576,-24.0991 z m -97.59209,11.3994 v 32.27797 l -11.18397,2.42689 V 238.1684 Z m -375.98856,5.35404 16.29615,9.34846 -7.55084,1.66375 -14.82143,-9.40534 z m -8.48005,2.26352 16.34421,10.05446 -0.1945,18.25586 -16.22684,10.60102 -16.12954,-9.9773 v -18.96668 z m 466.70222,6.61445 27.92334,2.37909 -10.48253,1.8363 -27.18742,-2.3402 z m -442.39657,2.00119 0.0226,14.76206 -6.10865,3.67153 v -17.00466 z m 472.52331,2.1709 c -1.58877,8.99656 -15.75182,20.56993 -26.2753,24.0972 9.10581,-4.61583 13.82406,-15.85881 14.82436,-21.75127 3.63364,-0.78193 7.81657,-1.56722 11.45094,-2.34593 z m -437.35537,1.71987 0.0441,34.71762 -12.02164,-7.32588 -0.23808,-20.17344 z m -21.25843,7.90143 7.46532,4.41214 v 5.54057 l -14.22657,-8.41703 z m -8.49619,2.64571 15.9614,9.66633 v 19.11195 l -15.56252,9.65722 -16.61572,-9.38425 -0.0208,-18.65628 z m 348.85915,7.2626 14.16681,8.47247 -6.1527,1.25253 -13.9562,-8.5016 z m 46.79294,1.09618 16.43957,9.79888 v 19.8861 l -16.43957,9.91425 -16.41942,-9.91569 v -19.77925 z m -56.05754,1.08937 15.90946,9.39421 0.12703,19.21289 -15.90946,9.69774 -16.0365,-9.39421 v -19.31822 z m 25.2168,8.75289 v 13.83604 l -6.60323,3.9713 v -16.64447 z m 55.29319,-0.37265 v 17.99388 l -5.30883,1.141 v -18.03997 z m -401.80843,1.76112 6.29123,3.76865 v 3.38548 l -6.38847,1.11842 z m 357.50995,11.68047 1.23084,0.93492 v 4.56974 l -6.95712,-4.24047 z m -8.4941,2.42707 16.01481,9.37259 v 19.54824 l -15.76056,9.38425 -16.17372,-9.64851 v -19.08011 z m 18.60349,10.99156 5.95601,3.51458 v 12.29693 c -1.77289,0.36798 -4.18036,0.79779 -5.95601,1.1529 z m -274.59606,69.99261 96.67537,1.00499 c 10.31228,18.70802 21.18245,36.38327 31.56714,55.07722 -45.93416,21.39468 -117.56729,22.131 -159.59025,6.81552 10.41563,-20.7821 20.98468,-42.12816 31.34774,-62.89773 z"
       inkscape:connector-curvature="0"
       sodipodi:nodetypes="ssssssssssssssssssssssssssssssssssssscscccccccccccccccccsscccccccccccccccccccccccccccccccccccscccscsccccccccccccccccsccssscccccccscsscscccccccssscccccssscccccccccccccccccccccccsccccccccccscccscscscccccccccccccccccccccccccccccccccccccccccccccccccccccccccccccccscscccccccccccccccccccccccccccccccccccccccccccccccccccccccccccccccccccccccccccccccccccccccccccccccccccccccccccccc" />
  </g>
</svg>
