<?xml version="1.0" encoding="UTF-8" standalone="no"?>
<!-- Created with Inkscape (http://www.inkscape.org/) -->

<svg
   width="648.68274"
   height="501.62067"
   id="svg2"
   version="1.1"
   inkscape:version="1.1 (c68e22c387, 2021-05-23)"
   sodipodi:docname="seagull.svg"
   xmlns:inkscape="http://www.inkscape.org/namespaces/inkscape"
   xmlns:sodipodi="http://sodipodi.sourceforge.net/DTD/sodipodi-0.dtd"
   xmlns="http://www.w3.org/2000/svg"
   xmlns:svg="http://www.w3.org/2000/svg"
   xmlns:rdf="http://www.w3.org/1999/02/22-rdf-syntax-ns#"
   xmlns:cc="http://creativecommons.org/ns#"
   xmlns:dc="http://purl.org/dc/elements/1.1/">
  <defs
     id="defs4" />
  <sodipodi:namedview
     id="base"
     pagecolor="#ffffff"
     bordercolor="#666666"
     borderopacity="1.0"
     inkscape:pageopacity="0.0"
     inkscape:pageshadow="2"
     inkscape:zoom="1"
     inkscape:cx="324"
     inkscape:cy="250.5"
     inkscape:document-units="px"
     inkscape:current-layer="layer3"
     showgrid="false"
     fit-margin-top="5"
     fit-margin-left="5"
     fit-margin-right="5"
     fit-margin-bottom="5"
     inkscape:window-width="1285"
     inkscape:window-height="1081"
     inkscape:window-x="1028"
     inkscape:window-y="235"
     inkscape:window-maximized="0"
     inkscape:object-paths="false"
     inkscape:object-nodes="false"
     inkscape:snap-page="false"
     inkscape:pagecheckerboard="0" />
  <metadata
     id="metadata7">
    <rdf:RDF>
      <cc:Work
         rdf:about="">
        <dc:format>image/svg+xml</dc:format>
        <dc:type
           rdf:resource="http://purl.org/dc/dcmitype/StillImage" />
        <dc:title />
      </cc:Work>
    </rdf:RDF>
  </metadata>
  <g
     inkscape:groupmode="layer"
     id="layer3"
     inkscape:label="colours"
     style="display:inline"
     transform="translate(-290.17314,-15.024743)">
    <path
       sodipodi:nodetypes="csssssssssssscssccscsssscsssccssssscsssccsccccssssscc"
       inkscape:connector-curvature="0"
       id="path4152"
       d="m 929.50243,91.905811 c 0,0 2.43323,-11.192848 -10.21957,-21.899075 C 906.63007,59.300539 891.0574,60.760493 878.40461,57.353966 865.75182,53.947441 855.53226,46.161089 851.15245,41.29464 c -4.37982,-4.866446 -8.27299,-8.759623 -21.41242,-13.139419 -13.13944,-4.379829 -33.09192,-7.786353 -45.74471,-0.973302 -12.65279,6.813051 -33.09189,17.519248 -35.52515,47.204645 -2.43323,29.685406 -1.45994,32.605286 -2.43323,47.204656 -0.97329,14.59935 -0.48665,25.7922 -19.46583,35.52515 -18.97919,9.73292 -63.75061,22.87233 -92.94936,34.06521 -29.19875,11.19285 -58.3975,25.30558 -64.23725,29.19875 -5.83975,3.89314 -14.11273,11.19286 -18.49255,11.6795 -4.37978,0.48665 -6.81304,0.48665 -8.27297,2.91988 -1.45994,2.43323 -0.9733,2.43323 -0.9733,2.43323 -8.75962,0 -53.04439,11.6795 -57.42421,14.59937 -4.37981,2.91988 -8.27298,6.81304 -20.43912,12.16615 -12.16615,5.35309 -24.33229,9.24627 -27.73882,16.05928 -3.76705,2.46573 -8.86004,4.99831 -10.21956,16.05934 -0.48665,4.86643 -5.83975,3.89317 -5.83975,6.81305 0,2.91987 2.91988,3.40652 2.91988,3.40652 0,0 -14.11273,3.40649 -27.25217,8.75962 -13.13944,5.35311 -24.33229,10.21953 -32.60527,11.6795 -8.27298,1.45991 -49.15123,9.73289 -49.15123,14.11273 0,4.37978 11.19285,4.37978 20.43912,4.86643 9.24627,0.48665 18.49254,-0.48665 18.49254,-0.48665 0,0 -6.32639,3.89317 -22.38571,6.81305 -16.05931,2.91987 -33.57856,11.6795 -32.11862,14.11273 1.45994,2.43326 -3.89317,8.27301 38.93167,4.37984 42.82483,-3.8932 48.17794,-2.91988 48.17794,-2.91988 l 4.86645,6.81305 c 0,0 21.41242,-4.86649 27.73882,-4.86649 6.32639,0 30.17204,-2.4332 38.44502,-4.86643 8.27298,-2.43323 37.47173,-8.75963 44.28477,-6.81307 6.81304,1.94661 15.08602,3.89319 18.97919,3.40655 3.89317,-0.48668 25.79223,8.75962 37.95838,9.73292 12.16614,0.97326 24.33232,-0.9733 24.33232,-0.9733 0,0 0,5.35308 10.70618,5.83972 10.70621,0.48668 34.06521,4.86646 43.31148,4.37985 9.24627,-0.48665 18.00589,-2.91988 21.41242,-3.40652 3.40652,-0.48665 19.95248,3.40652 19.95248,3.40652 4.7661,-2.50849 11.6795,-0.9733 11.6795,-0.9733 0,0 7.29968,-1.94658 8.27298,0 0.97329,1.94656 0.72242,6.28123 0.72242,6.28123 0,0 7.62506,0.14537 9.63184,1.39948 -0.25096,-2.75932 2.2233,-4.3043 4.98259,-4.05346 l 3.15569,-0.22085 c 0,0 -0.97329,-11.6795 4.86646,-16.54599 5.83975,-4.86643 49.63787,-5.83975 86.13631,-37.95838 36.49844,-32.11859 45.25807,-73.97016 47.20465,-110.95522 1.94658,-36.98511 -0.97329,-63.26396 -9.73292,-84.67641 -8.75962,-21.41242 -18.97919,-27.73878 0,-41.851535 18.97919,-14.112721 45.25807,-9.732895 62.29067,-1.946571 10.70621,-3.893177 22.87236,2.919874 22.87236,2.919874 z"
       style="fill:#ffffff;stroke:none;stroke-width:0.990607" />
    <path
       style="display:inline;fill:#cccccc;stroke:none;stroke-width:0.990607"
       d="m 390.52362,374.48598 c 7.52822,-4.83957 8.45957,-7.13324 55.77982,-12.51053 -10.75458,3.76411 -18.82058,7.52822 -18.82058,7.52822 9.78311,-1.00341 30.4358,-4.40856 42.26591,-7.63497 11.83005,-3.22636 27.23222,-5.20425 41.62,-3.36913 6.4744,0.82582 35.88427,11.49953 45.06401,12.51059 10.16586,1.11964 25.52141,-0.89671 25.52141,-0.89671 1.25424,6.02038 6.68609,5.52008 29.97014,8.10198 15.84779,1.75732 25.88449,2.97552 35.77709,0.64585 6.58278,-1.55026 12.44123,-3.26244 29.64583,1.54112 5.23456,-2.29508 7.09996,-1.43443 11.40182,-0.89669 6.12848,-0.82459 10.39288,-2.67368 8.88918,6.21413 4.26581,0.1081 5.98572,0.5976 10.00207,1.52892 -0.71652,-3.83479 3.26053,-3.80063 5.01647,-3.80063 0,0 1.8122,-0.75254 3.19358,-1.0029 0.76374,-11.20343 0.5993,-17.26491 17.2767,-19.96669 4.08864,-0.66242 86.25301,-11.72474 112.67387,-94.42712 -2.68865,2.15093 -5.87899,-0.17859 -5.34125,-2.86742 0.53775,-2.68865 -2.15096,-5.37729 -4.8396,-2.15093 4.30186,-9.67915 10.32358,-27.7832 9.78587,-68.11295 -0.42563,-31.92243 -3.78268,-58.36101 -5.55595,-72.00727 -7.46946,-13.08357 -11.06009,-22.46398 6.81007,-33.591999 6.56167,-4.426546 9.3938,-4.814202 3.47876,-6.427416 2.40497,-0.633636 6.07509,1.759113 6.07509,1.759113 -16.45715,-18.731915 -3.49156,-17.440257 7.14541,-18.556942 4.32601,-0.45419 12.69141,0.282354 15.9696,0.187305 3.73917,-0.108097 0.10066,-2.732416 -1.50935,-4.619813 -0.77786,-0.911831 -1.40137,-2.098437 -1.71369,-4.209081 -1.87468,-0.573284 -4.05058,-1.52835 -5.91598,-2.062464 -0.21711,6.937703 8.05307,9.629053 8.05307,9.629053 0,0 -7.49421,-0.153137 -12.38097,-0.967338 -4.88669,-0.814448 -7.73727,-0.407226 -9.36616,0 -1.6289,0.407226 -5.29391,2.44335 -10.18064,1.221675 -4.88672,-1.221675 -6.92283,-2.036123 -4.07226,-5.701182 2.85058,-3.665024 7.33006,-0.407223 7.33006,-0.407223 2.44336,-2.443352 5.70116,-2.850575 9.77341,-2.443352 -2.85057,-3.257798 -9.3662,-10.587849 -20.36126,-14.252904 1.6289,2.44338 1.6289,4.88673 1.6289,4.88673 0,0 -7.33006,-3.665024 -11.80956,-1.628901 -3.66505,-2.850603 -9.36617,-4.88673 -15.88182,-2.443349 2.8506,-2.443381 6.51565,-4.072281 6.51565,-4.072281 0,0 -8.95899,-0.814449 -16.28904,1.221674 -7.33005,2.036127 -1.6289,-2.036123 2.03611,-2.850574 3.66505,-0.81445 -2.03611,-2.44335 -6.10837,-1.221676 -4.07229,1.221676 -4.47951,3.257802 -15.06735,5.293926 -10.58789,2.036157 -17.91794,5.293957 -21.58295,10.587882 -3.66504,5.293925 -4.47951,7.330048 -6.51562,8.958949 4.88672,-8.1445 5.29394,-11.4023 7.7373,-13.438424 2.44333,-2.036127 4.88669,-4.88673 8.5517,-7.330083 -3.94285,0 -15.45779,5.04807 -22.8811,26.807925 -3.14876,23.56612 -1.57479,49.20785 -4.90235,69.25752 -2.98073,17.95975 -23.76553,22.62402 -34.20377,27.79515 4.07226,1.22168 29.8164,0.75047 46.91987,-4.54344 17.1035,-5.29394 35.02143,-15.06736 41.94427,-22.39741 6.92284,-7.33009 13.43843,-21.17576 21.99019,-1.6289 8.55171,19.54683 16.07074,77.32418 14.66011,100.17749 -0.32709,5.2995 -4.88672,23.21188 -6.51562,26.06243 -1.6289,2.8506 -16.28903,-3.2578 -23.21184,-0.81444 -6.92284,2.44336 -22.39741,19.95405 -32.17086,23.21188 -9.77338,3.25779 -16.69625,4.47947 -21.17573,7.33005 -4.47947,2.85058 -10.99506,6.10837 -25.6552,7.33005 -2.85058,4.07229 -11.80953,5.70119 -11.80953,5.70119 l -9.77342,0.40722 -2.03615,5.29394 -8.55173,0.81443 c 0,0 3.66501,5.29394 -2.03611,8.95899 -5.70116,3.66501 -21.58298,6.10837 -24.84078,8.95895 -3.25782,2.85057 -3.25782,2.44336 -4.07229,5.70115 -0.81443,3.25783 -22.42426,17.52719 -29.96299,7.05409 -0.15158,-0.21062 -2.30702,-4.01472 -5.16121,-3.89947 -3.76254,0.1519 -10.48295,0.83373 -18.02387,1.44736 -0.96175,0.0783 -0.60382,3.65987 -1.61748,3.74457 -62.85282,5.25087 -223.87124,24.35855 -223.87124,24.35855 z"
       id="path3020"
       inkscape:connector-curvature="0"
       sodipodi:nodetypes="cccssscssccccccscscsccccssscccsssscccccccssssscsccscsssssssscccccssssssscc" />
    <path
       style="fill:#ffff00;stroke:none;stroke-width:0.990607"
       d="m 856.27353,84.631675 c -3.5522,-4.262601 -9.8908,-12.276949 -8.06584,-14.763477 2.08069,-2.834826 5.32826,-4.617793 31.96943,-3.552144 2.84177,-2.131301 -3.70143,-2.531754 -3.91572,-9.587183 5.42604,2.437636 28.51949,2.993368 39.49053,10.638825 12.42627,8.659601 14.81614,19.209868 13.7505,24.538115 -3.55789,-1.751627 -14.57049,-6.184259 -23.03931,-2.855917 -9.94605,-4.26263 -28.80904,-11.449203 -50.18959,-4.418219 z"
       id="path4142"
       inkscape:connector-curvature="0"
       sodipodi:nodetypes="csccsccc" />
    <path
       style="fill:#808080;stroke:none;stroke-width:0.990607"
       d="m 587.46239,213.86101 c 0,0 -24.76423,12.67004 -21.30874,13.82186 3.45543,1.15182 17.85325,-12.09415 11.51823,-4.60731 -6.33503,7.48688 4.03138,5.75913 1.72771,8.6387 -2.30361,2.87956 5.67709,12.13161 -0.65796,13.85932 -6.33502,1.72774 -27.80068,9.52129 -23.76932,-0.26931 -10.36641,1.72774 -26.82889,9.44638 -29.13253,-0.3441 -11.51826,1.72774 -50.10438,13.82189 -68.53356,27.06783 -2.30367,1.15185 1.2267,0.38159 14.47267,-3.07387 -14.97371,6.33502 -26.56682,17.47169 -10.44132,16.31988 0,2.87959 -5.18317,12.67007 35.7066,2.87959 -9.79052,6.91092 -13.24601,8.63866 -17.27736,12.09412 -4.03141,3.45546 2.87953,8.0628 6.33502,9.79051 0.5759,3.45546 6.335,11.51826 21.30874,7.48685 2.87957,4.03141 8.6387,5.75916 13.24601,4.60734 1.15181,5.18317 9.79048,8.06276 17.85324,6.33502 5.18324,4.60731 14.97375,5.18323 21.30878,3.45546 -2.30364,6.33502 -6.33503,15.54964 32.82699,13.8219 13.246,-1.15179 18.04047,-5.0709 16.88865,-7.95044 3.74206,0 13.64613,-2.30454 19.78013,-1.63191 14.63492,1.60478 30.71541,7.87502 33.59249,0.94368 0.88762,-2.13838 1.80705,-7.10983 1.80705,-7.10983 2.40249,-3.27612 38.00775,-7.46611 29.09583,-19.04541 2.30316,1.80984 4.22544,-0.58267 7.31644,-0.99127 2.48941,-0.32907 3.01273,-3.59035 3.95568,-5.4219 2.398,0.30254 6.81819,0.4741 9.63175,-1.36015 -0.95936,-2.16558 -1.63467,-10.40835 0.78721,-12.24071 2.6234,-1.98495 12.28209,-2.38897 15.18298,-2.03687 0.1193,-2.11667 -1.06442,-4.68953 -1.8078,-6.1857 1.23392,-1.06944 3.34513,-0.84404 5.89327,-1.94059 -1.29496,-0.78777 -5.86601,-1.58144 -7.16226,-3.68998 3.24139,0.12021 9.55904,1.63605 15.30417,0.11588 -1.93629,-1.16939 -2.23613,-1.03007 -5.26821,-1.87465 2.17753,0.93223 3.47949,-0.21122 5.43413,-0.91846 -0.88596,-0.47181 -3.84536,-1.72009 -5.05791,-3.30538 5.43517,1.25653 8.90443,1.85285 9.53343,1.24379 -0.42977,-1.08148 -0.72502,-5.96115 1.21965,-3.25312 2.49722,3.47745 4.66659,4.84871 6.67058,4.26764 1.24365,-1.23505 6.38258,-4.66277 7.89388,-5.52969 2.34693,-1.34622 5.06826,-4.50624 4.5594,-5.93007 -0.59396,-1.66189 -1.20486,-4.40735 -8.27364,1.45888 -1.2074,1.00199 1.88375,-4.09971 3.06079,-4.68668 1.82892,-0.91209 6.68437,0.0935 8.00198,-0.62932 1.371,-0.752 1.19097,-0.6109 2.31261,-1.50972 -0.7373,-0.21125 -7.42492,-0.93634 -0.87166,-5.35395 4.51556,-3.04401 12.17835,-10.18433 12.87408,-11.40184 4.60728,-8.06277 -0.57592,-31.67518 -4.60731,-32.827 -4.03138,-1.15182 -17.85328,0 -28.21968,-1.15182 -10.36644,-1.15182 -21.30877,-10.94233 -55.28759,1.72775 -5.1832,2.87956 -35.70656,5.1832 -35.70656,-2.30364 -6.33502,4.03135 -18.42921,5.1832 -10.36641,-4.03142 -10.36641,5.75913 -20.15692,5.75913 -11.51826,-5.1832 -9.79048,4.60731 -30.75515,9.59617 -41.12155,21.1144 8.05185,-9.05699 19.85024,-16.20042 19.85024,-16.20042 0,0 -17.82006,9.04566 -25.37758,15.24297 -4.48782,3.68007 -10.36641,6.33502 -5.1832,-2.30364 z"
       id="path4146"
       inkscape:connector-curvature="0"
       sodipodi:nodetypes="cssssccccccscccccccssccsccscccccccccscssssscssssccccccscc" />
    <path
       id="path3014"
       style="fill:#6e5b3d;fill-opacity:1;stroke:none;stroke-width:0.990607"
       d="m 807.9325,48.722475 c 0,0.722288 3.383,6.420239 10.05995,6.580736 6.67696,0.160592 11.30632,-4.17314 11.48438,-5.055925 0.178,-0.882757 -1.78054,-3.531117 -5.69767,-5.296691 -3.91714,-1.765543 -12.81978,-1.364312 -15.84666,3.77188 z M 694.01443,484.19681 c 0,0 -2.28592,-6.78763 -0.52956,-17.49224 1.37486,-8.37942 -1.56321,-16.63091 -5.81795,-35.42307 -4.25484,-18.79214 -12.05535,-33.38978 -12.40992,-38.70834 -0.35455,-5.31851 2.12743,-12.4099 2.12743,-12.4099 0,0 7.59535,-2.78677 11.80677,-0.45191 -0.14725,7.30844 4.02329,11.714 5.08699,13.13228 1.0637,1.41825 3.32216,12.16037 1.60411,13.64456 -2.92335,2.52537 -1.86966,8.05 0.61229,16.20506 2.48198,8.15509 12.19428,36.98345 10.52877,58.83559 1.43802,-2.13769 3.95704,-4.57036 3.8203,-13.12407 -0.30658,-19.18658 -6.63947,-45.83534 -9.47604,-53.2813 -2.83654,-7.44594 -4.71766,-13.99447 -2.79771,-18.83781 1.16867,-2.94817 -0.15346,-8.91177 -1.6586,-10.66771 4.60938,0 10.96605,1.6367 10.96605,1.6367 0,0 -1.00705,-5.21438 4.83006,-3.67548 0.0602,11.07116 4.17259,17.2962 6.65457,21.19646 0,4.96399 -1.9736,20.83423 0.57071,42.40115 3.6593,31.01828 7.71277,32.07022 11.85431,39.67059 8.24188,1.60882 23.64963,-0.66389 33.56065,7.88917 8.8642,2.48198 25.52714,10.53565 24.46341,11.24474 -1.06367,0.70915 -10.56166,-1.86603 -15.17107,-3.63885 -4.60938,-1.77286 -10.34278,-3.23455 -15.7047,0.14722 -15.888,-5.03391 -34.01511,-2.67635 -41.10854,-3.08516 -3.81248,-0.2196 -7.04772,1.93353 -8.16149,-6.11672 -0.46381,-3.35238 -3.87422,-5.84173 -4.12509,-8.22 0,0 -7.26132,-1.3726 -11.52575,-0.87087 z"
       inkscape:connector-curvature="0" />
    <path
       id="path3017"
       style="display:inline;fill:#4d4d4d;stroke:none;stroke-width:0.990607"
       d="m 566.78102,302.2673 c 9.01492,-5.58681 18.01804,-4.02589 18.01804,-4.02589 -15.07724,13.73105 -51.38335,28.24384 -47.08149,33.08342 4.30186,4.83957 9.67915,21.50919 72.05587,11.83004 0.53771,-0.53771 0.53771,-3.76411 0.53771,-3.76411 0,0 15.59416,-1.61318 18.28284,-1.07546 2.68861,0.53775 4.83954,8.60368 15.59418,8.60368 10.75458,0 23.85343,-12.31001 31.19725,-16.387 6.98897,-3.88 13.9748,-8.20814 18.07225,-12.78888 3.00131,-3.35533 2.95557,-7.84446 7.72987,-7.38978 -1.07547,0 5.37735,-5.37729 5.37735,-5.37729 l 8.60365,-0.53772 c 0,0 -2.68864,-7.52822 -0.53771,-12.3678 3.22636,-2.68864 11.56826,-3.22563 15.87008,-3.76338 -0.5385,-4.03111 -5.384,-8.06371 -6.99718,-7.526 -1.61321,0.53772 -5.10883,-1.07841 -5.10883,-1.07841 0,0 -0.53771,2.1509 0.53775,5.37729 -2.15093,-1.07546 -3.76411,-4.30186 -3.76411,-4.30186 0,0 -10.75461,-0.53771 -11.29233,-3.76411 -0.53774,-3.22636 0,5.91504 0,7.52822 0,1.61319 -11.29233,-7.52822 -23.1224,-4.83954 -11.83008,2.68862 -10.7546,0.53772 -6.45276,-3.76411 4.30183,-4.30186 -8.60371,-3.76414 -10.21689,-1.07546 -1.61319,2.68864 -7.52822,0 -6.99048,-2.68868 0.53772,-2.68861 3.22637,-6.99047 -9.1414,-6.45272 -12.36782,0.53771 -20.97151,9.1414 -24.19787,5.915 10.47743,-11.08701 2.57261,-7.40662 -15.05644,-3.22636 -16.66965,3.76408 -21.50922,3.22636 -10.21689,-2.68864 11.29236,-5.91504 17.20736,-12.90558 -1.61322,-8.60369 -18.82052,4.30183 -10.75458,8.06594 -34.95245,18.82055 -10.75458,6.99047 -19.35827,11.2923 -23.12238,17.20737 6.99051,-1.61321 20.97145,-4.83959 30.65063,-11.83008 -5.37732,10.75461 -27.42649,19.08014 -36.56789,23.91971 l -25.3884,12.37614 c -1.99214,0.41305 -4.32363,0.56059 -6.21253,0.90001 -5.01719,3.01035 -18.07669,8.04232 -26.60594,10.04916 4.51549,2.50858 24.08256,0 34.11697,-0.5017 -11.53955,3.51205 -26.08943,3.51205 -38.13072,5.5189 10.53612,3.01034 16.55675,2.50861 27.0929,1.50517 10.53609,-1.00341 32.65609,-5.20905 40.6836,-6.7142 0.94437,-1.16574 2.46432,-2.31678 1.96255,-3.32019 -10.53609,4.51546 -12.54299,0.50171 -5.01719,-5.01719 15.68616,-9.7774 23.78526,-14.52672 31.40401,-17.76441 z m -88.38938,11.36364 c 0,0 -19.76144,9.14582 -30.35509,11.79422 1.9863,2.64843 7.55237,5.1732 16.15973,4.51109 0.66207,-3.31052 6.25013,-10.34639 14.19536,-16.30531 z m 19.28325,-25.8087 -58.34734,15.21504 c -4.63472,6.62103 -13.52337,12.11486 -2.77202,18.90977 4.1669,2.63353 8.06885,-1.69509 11.37938,-5.66772 -2.64843,6.62106 4.63473,0 9.26945,-3.31052 1.3242,-0.66207 1.3242,1.9863 1.3242,1.9863 z m 153.71255,-33.66612 c 5.37921,-4.16483 12.23084,-2.62092 18.34617,0.87366 6.98906,-3.49458 17.47261,-7.86269 27.08249,0.87363 8.73632,-5.24181 25.33523,-15.72535 30.57703,-14.85172 5.24174,0.87363 30.577,-5.24177 31.4506,-9.60991 0.87363,-4.36815 -6.989,-7.86266 -11.35714,-6.1154 -4.36817,1.74725 -8.73632,-1.74726 -12.23083,-3.49452 -3.49449,-1.74725 -13.97803,-5.24177 -45.42863,2.62092 -31.45066,7.86263 -37.56606,23.58794 -37.56606,23.58794 -0.45502,1.19511 -0.51952,4.55094 -0.87363,6.1154 z"
       inkscape:connector-curvature="0"
       sodipodi:nodetypes="ccsccsssscccccscccsssssssccsscccccccccsccccccccccscccccccssssscc" />
    <path
       inkscape:connector-curvature="0"
       id="path3050"
       d="m 906.63007,88.985936 c -1.55392,-0.826937 -5.57329,-2.254522 -5.57329,-2.254522 0,0 -1.80222,-4.760246 5.93508,-3.945797 7.73727,0.814452 11.63706,1.407552 10.00816,5.072576 -3.54982,0.04194 -7.94682,0.319973 -10.36995,1.127743 z"
       style="display:inline;fill:#ff0000;stroke:none;stroke-width:0.990607"
       sodipodi:nodetypes="ccscc" />
  </g>
  <g
     inkscape:groupmode="layer"
     id="layer2"
     inkscape:label="outline"
     style="display:inline"
     transform="translate(-290.17314,-15.024743)">
    <path
       style="display:inline;fill:#000000;fill-opacity:1;fill-rule:nonzero;stroke:none;stroke-width:0.990607"
       d="m 796.92768,22.349576 c -15.96947,1.405501 -34.1953,13.577645 -43.94001,30.707312 -12.92873,27.351449 -6.03654,58.171942 -13.60589,86.683782 -9.05899,17.2975 -31.58009,21.51541 -47.8738,28.95544 -43.82965,15.33419 -89.61257,29.06346 -129.20443,53.77436 -5.66746,6.02063 -12.85773,7.68538 -20.37831,9.55043 -6.25975,7.46131 -18.2495,4.45156 -26.82633,8.51632 -15.52342,3.89037 -31.92737,7.17276 -44.1023,17.58008 -13.67646,7.55466 -30.16893,10.8474 -40.57411,23.05483 -5.91714,4.04441 -6.77471,10.51733 -9.42876,15.69435 -5.43902,0.76861 -3.72938,12.17989 -8.39466,12.28777 -17.66729,6.68615 -33.1321,13.47532 -47.02214,17.51929 -2.99676,3.52563 -2.84527,2.51476 -5.90057,1.15577 -1.84441,0.42877 -3.69933,0.86064 -5.59645,1.2166 -1.28006,1.97052 -4.22835,2.32023 -6.38722,1.03412 -11.39055,3.04372 -33.82683,7.25561 -33.82187,10.94954 0.009,5.93898 16.41653,4.51564 38.87081,4.44064 -3.05395,2.36202 -10.68757,3.939 -19.58749,5.96144 -1.72724,1.30472 -4.12028,1.53817 -6.02223,2.00741 -2.04697,2.23578 -4.23912,1.78248 -5.41393,1.52073 -1.10661,1.32887 -2.4661,3.40251 -5.41393,0.97332 -6.957,2.37736 -13.48561,5.54556 -18.06672,10.03709 -1.26215,8.3961 16.38732,6.15887 26.52218,5.71806 21.8314,-0.7968 37.98997,-3.9506 59.85744,-4.07565 3.4462,13.92514 13.43291,6.39796 22.11398,5.95322 21.51948,-2.66615 43.4251,-3.23179 64.3143,-9.62748 13.52002,-3.41154 28.35511,-5.28757 41.66504,-0.42582 19.83331,0.67298 37.95625,15.06193 59.99529,11.09561 6.31262,-2.25872 8.97727,0.46725 13.86942,3.34569 18.48479,2.11793 35.0795,6.50245 53.85544,5.23945 10.33592,-1.97946 24.05338,-4.17936 34.30052,0.0449 -4.65452,15.72485 7.51451,29.83221 9.39628,45.08381 2.2308,14.4323 10.51291,28.98691 6.27781,43.63183 -0.8336,6.11317 1.87562,13.22166 2.64814,14.8669 3.7963,-2.46843 11.55524,0.10873 14.18574,4.85845 1.56571,4.27429 1.01011,11.53505 8.52032,10.17898 14.29939,-0.38087 29.40649,-0.68933 43.33991,2.78197 10.2881,-4.35117 18.25155,3.08473 28.29431,4.69618 8.33717,-0.39925 3.16711,-7.0049 -3.35789,-9.0678 -10.4513,-4.29345 -22.36476,-9.48585 -31.29541,-12.70142 -7.65625,-3.0335 -20.80535,1.43581 -23.66317,-8.54069 -7.71246,-15.04298 -7.4342,-34.61058 -8.95431,-51.35734 -0.77412,-11.10985 4.71648,-23.02795 -3.83234,-32.33355 -2.49744,-5.18072 -0.90051,-10.23217 3.06684,-12.45409 -1.05218,-7.36036 2.32629,-17.09876 11.20415,-16.56456 42.12604,-7.33156 81.40497,-28.97179 103.1485,-66.77356 23.82294,-41.28061 24.87108,-92.27268 19.61193,-138.51156 -1.88331,-19.30359 -11.06346,-36.18176 -18.29382,-53.6771 -0.269,-12.335072 16.63245,-20.031125 26.56281,-22.916989 15.14045,-3.835276 32.99157,0.478948 45.25803,6.066877 8.65906,-2.935529 15.82065,-0.573996 23.45224,3.130786 C 934.47002,76.316549 914.41079,60.8894 894.7839,58.941307 875.68968,58.048238 858.71925,49.650581 846.52493,35.050958 832.57219,25.208662 813.90997,22.08238 796.92768,22.349545 Z m 3.589,2.096666 c 10.08935,-0.280492 20.53237,2.068242 28.74451,4.805627 13.13944,4.379797 15.89704,7.137404 20.27688,12.00385 4.37978,4.86648 16.18916,13.561245 28.84192,16.967772 12.65282,3.406524 27.31704,1.946602 39.9698,12.652799 12.65282,10.706198 10.21959,19.400809 10.21959,19.400809 0,0 -11.25769,-6.585925 -21.9639,-2.692749 -17.03261,-7.786321 -43.76572,-11.939023 -62.74494,2.1737 -18.97916,14.11272 -9.44093,22.02892 -0.6813,43.44134 8.75962,21.41238 11.6795,47.23705 9.73292,84.22214 -1.94659,36.98508 -12.14014,78.51543 -48.63858,110.63405 -36.49844,32.11866 -77.72707,31.16485 -83.56682,36.03127 -5.83975,4.86646 -5.83573,16.92874 -5.83573,16.92874 -3.11177,-0.33942 -9.03252,0.94365 -8.19594,4.24596 -2.67377,-0.99117 -4.2851,-0.86293 -7.05622,-1.58159 -0.54923,-3.39307 -1.07412,-6.83416 -5.53976,-6.87389 -2.3762,0.0951 -4.77721,1.07873 -4.77721,1.07873 0,0 -9.10855,-1.83185 -12.58798,0.51907 0,0 -15.63751,-2.98469 -19.04403,-2.49807 -3.40652,0.48664 -13.0746,2.01142 -22.32087,2.49807 -9.24627,0.48667 -31.92391,-4.03907 -42.63012,-4.52569 -10.70624,-0.48664 -10.70624,-5.83975 -10.70624,-5.83975 0,0 -11.69571,2.37639 -23.86186,1.40313 -12.16612,-0.97332 -31.39667,-9.11242 -35.28981,-8.6258 -3.89317,0.48665 -15.447,-1.45991 -22.26004,-3.40649 -6.81307,-1.94661 -36.53505,3.97018 -44.80803,6.40341 -8.27298,2.43323 -31.36586,4.33044 -38.0314,4.62312 -5.97521,0.26247 -19.71288,5.44853 -25.58535,2.80641 -2.0193,-0.90849 -3.22802,-3.88912 -3.22802,-3.88912 36.06474,-3.96369 139.7418,-14.76683 222.79047,-22.56659 l 1.01793,-5.65972 c -2.5695,-0.96353 -3.49172,3.18025 -3.49172,3.18025 -23.55513,5.75671 -88.07176,6.02276 -28.28628,-19.28335 -47.98803,17.86692 -41.4176,8.55088 -42.61802,6.97852 0,0 38.65056,-24.05875 54.78416,-37.08974 -24.51066,15.20284 -48.45867,34.47707 -68.19121,37.53259 -30.93183,4.78966 -48.97914,4.5376 -59.78689,2.64247 -2.42388,-1.04814 8.09194,-2.58685 17.81366,-2.88581 -5.65762,-2.47944 12.14701,-7.23014 21.29076,-9.79374 -0.31194,4.50099 11.39529,3.52077 13.93025,3.34569 0.97467,3.37217 5.76064,2.94299 6.50888,2.31155 -6.83315,-0.13386 -3.63716,-4.02455 -5.10977,-5.04894 -2.50588,-4.82509 4.10097,-9.01091 33.63939,-25.97475 -42.27658,21.75966 -46.64111,23.56112 -47.75215,22.68988 -22.50344,10.06324 -37.62723,12.06563 -39.66162,11.98366 -8.14229,-0.16463 -19.50382,-3.86603 -18.74561,-14.24169 -4.36108,7.54952 -6.1217,6.64295 -10.77434,5.86651 -6.16082,-4.01758 -3.98267,-9.82238 0.68616,-14.67965 0.40524,-0.42162 12.17904,-4.87976 24.39315,-8.69883 11.08889,-3.46725 29.0786,-7.25702 35.93879,-9.83754 -13.99138,2.52374 -28.69635,6.36125 -32.28893,7.46514 -12.77372,3.92503 -27.57691,8.77308 -27.98215,8.82048 -11.11374,1.29926 -17.09343,1.40262 -17.09343,-1.33828 0,-2.91988 5.35307,-1.94659 5.83975,-6.81305 0.48664,-4.86645 4.37981,-13.62608 10.21956,-16.05931 3.40652,-6.81304 15.57264,-10.70621 27.73878,-16.05931 12.16615,-5.35311 16.05935,-9.24627 20.43913,-12.16615 4.37184,-2.91454 48.49063,-14.5569 57.36341,-14.59937 -0.0687,-0.114 -0.0609,-0.6083 1.03412,-2.43323 1.45991,-2.43323 3.89314,-2.43323 8.27298,-2.91988 4.37978,-0.48664 12.65279,-7.7863 18.49254,-11.6795 5.83975,-3.89317 35.0385,-18.0059 64.23725,-29.19875 29.19876,-11.19282 73.97017,-24.33229 92.94936,-34.06521 18.97919,-9.73289 18.49251,-20.92577 19.46584,-35.52515 0.97329,-14.59937 1.36269,-17.51925 3.79592,-47.204647 2.43322,-29.685397 21.50966,-39.256024 34.16242,-46.069075 4.74484,-2.554895 10.49239,-3.664123 16.54599,-3.832326 z m 14.11273,20.885145 c -1.26723,0.909439 -2.55491,2.278967 -2.55491,3.832325 0.54709,3.194838 3.41549,4.405547 6.02226,5.109788 2.77727,0 5.65724,-2.455308 5.65724,-5.109788 0,-1.193097 -0.9481,-2.30416 -1.76407,-3.163185 0,0 0.3041,1.621942 0.3041,3.163185 0,2.065665 -1.91032,3.771507 -4.19733,3.771507 -1.14351,0 -2.3485,-0.452888 -3.22404,-1.155763 -0.87552,-0.702905 -1.39911,-1.613522 -1.39911,-2.615744 0,-1.310047 1.1558,-3.832325 1.1558,-3.832325 z m 3.46735,2.068243 c -0.9342,0 -1.70328,0.74574 -1.70328,1.581592 0,0.835853 0.76908,1.520772 1.70328,1.520772 0.93417,0 1.70324,-0.684919 1.70324,-1.520772 0,-0.835852 -0.76907,-1.581592 -1.70324,-1.581592 z m 60.34409,19.222509 c 2.85205,0.2193 14.92349,4.001865 17.33676,4.440649 2.41325,0.438753 8.14932,0.427789 9.24628,-0.669142 -3.29083,0.658178 -5.94648,-0.656158 -7.4822,-1.094942 -0.65815,0.2193 -4.6102,-0.26527 -5.04894,-1.581591 -2.85202,0.219299 -7.25088,-0.656189 -14.0519,-1.094974 z m -41.48656,0.973304 c -4.59397,-0.05963 -8.23809,1.237329 -10.7062,4.075666 0.65814,0.877538 8.11245,2.202866 9.42875,1.764082 1.31632,-0.438784 4.61719,-3.286841 7.90801,-2.189913 3.2908,1.096929 3.91206,2.626711 0.18233,3.284855 -3.7296,0.658177 -5.66323,2.444221 -2.3724,3.102365 3.29082,0.658177 10.09791,0.630252 10.09791,1.946605 0,1.316321 -3.72562,3.308803 -2.18993,3.528165 1.53573,0.219297 6.56971,-0.912452 6.56971,-0.912452 0,0 9.2004,-3.233013 7.66468,-4.988119 -1.5357,-1.755106 -3.954,-2.433223 -3.954,-2.433223 0,0 24.9826,-0.638204 42.09488,2.433223 -13.16327,-3.071427 -30.02748,-3.782502 -35.95096,-4.440645 -5.92348,-0.658147 -5.89368,1.113887 -16.42431,-2.615716 -4.60718,-1.631696 -8.77556,-2.508393 -12.34862,-2.554893 z M 639.68021,193.88004 c -3.48152,3.35718 -6.81401,3.99299 -10.94951,5.65727 3.38227,0 6.04644,-0.90653 9.18541,-2.55491 -0.61021,1.11148 -1.36846,2.17405 -1.76407,3.28487 -0.73052,2.05107 -1.0962,3.98775 -0.36499,5.59644 0.36562,0.80433 1.08609,1.46731 2.00741,1.76407 0.92134,0.29664 1.98275,0.2749 3.28486,0 1.78274,-0.37635 4.24756,-1.52544 7.05638,-3.04153 -0.47823,0.57091 -0.68104,1.36483 -0.91249,1.94656 -0.1466,0.57868 -0.17395,1.24916 0.18235,1.82493 0.35643,0.57576 0.96649,0.90678 1.64242,1.03413 0.67597,0.12735 1.45279,0.12393 2.43323,0 1.96092,-0.24787 4.71827,-0.96443 8.57714,-2.25073 -4.24561,-0.49502 -9.19799,1.68978 -11.01037,0.18232 0.0125,-0.45364 0.42955,-1.09485 0.6083,-1.52076 1.45162,-2.31836 2.15058,-3.84706 1.52076,-5.1098 -4.84111,3.05204 -8.28196,4.58858 -10.46287,5.04897 -1.09042,0.23019 -1.85049,0.20936 -2.31154,0.0609 -0.46108,-0.14848 -0.6856,-0.36462 -0.85164,-0.72995 -0.33215,-0.73074 -0.22615,-2.36714 0.42579,-4.19734 0.91259,-3.01019 3.02647,-5.06318 1.70328,-6.99552 z m -23.72399,7.60383 c 0,0 -6.37722,2.97571 -12.34863,5.96143 -3.18467,1.59232 -6.87431,4.83682 -10.28039,7.29966 -1.70305,1.23144 -3.35231,2.2499 -4.68397,2.79825 -1.33167,0.54829 -2.22531,0.56448 -2.7982,0.18232 -0.24663,-0.16463 -0.15004,-0.0718 -0.12177,-0.24321 0.0279,-0.17178 0.20036,-0.62543 0.66915,-1.1558 0.93757,-1.06063 2.79399,-2.44794 4.98812,-3.83231 4.38825,-2.7688 10.34429,-5.60077 14.29521,-7.05638 -6.35278,1.4578 -12.49855,4.43901 -15.32933,6.20474 -2.27199,1.43353 -4.22481,2.73046 -5.41397,4.07568 -1.64404,1.26814 -1.0455,2.23262 -0.18232,3.64983 1.3412,0.89411 3.01728,0.66125 4.62315,0 1.60587,-0.66122 3.29607,-1.77405 5.04894,-3.04156 2.31302,-1.67247 4.45818,-3.15186 6.63053,-4.68395 -2.04828,2.10893 -3.83137,4.59294 -5.23142,7.36052 -0.0734,0.14537 -0.23327,0.21805 -0.3041,0.36499 l 1.45997,1.2166 c 9.7236,-7.18704 17.74471,-11.3679 22.93315,-12.16615 -7.03191,-0.58116 -17.70236,6.38867 -19.76997,7.78637 2.30734,-4.97911 6.80677,-8.40665 15.81598,-14.72106 z m 14.17359,32.24031 c -9.06408,9.00017 -36.46717,7.59331 -41.60824,14.29521 0,0 21.1736,-5.61423 28.46877,-7.60385 7.38184,-2.01322 11.51069,-4.24825 13.13947,-6.69136 z m 112.35433,2.18989 c -5.29394,2.44336 -9.36121,0.8229 -15.8768,2.85905 -6.51562,2.03611 -19.14652,8.932 -22.81153,11.37536 -3.66507,2.44333 -6.93811,2.43828 -11.01037,1.2166 -4.07223,-1.22168 -14.27498,-3.67856 -19.16167,-1.64245 -4.88672,2.03615 -6.92456,2.86413 -9.36793,1.64245 -2.44336,-1.22168 -5.68936,-3.27134 -7.7255,-1.64245 -2.03612,1.6289 -6.93473,1.27749 -6.93473,1.27749 l -0.79078,2.4332 c 0,0 4.47276,2.85058 6.50891,0 2.03611,-2.85058 6.09661,-2.46193 7.7255,-0.42582 1.6289,2.03611 7.739,1.6289 9.3679,0 1.6289,-1.6289 14.26145,-3.2578 17.51925,0 3.25779,3.2578 8.17335,3.64139 12.65282,0.79081 4.47948,-2.85058 17.09177,-10.94446 22.38568,-12.16615 5.29397,-1.22168 14.26146,-2.86751 17.51925,-5.71809 z m -186.68949,7.78633 -1.2166,0.66916 c 0,0 -4.72122,2.5705 -15.63353,4.07565 -5.41525,0.74692 -8.70491,0.32151 -10.40204,-0.48665 -1.69716,-0.80817 -1.97541,-1.83776 -1.82493,-3.04154 -4.19056,-0.94034 0.0326,4.30127 1.03412,4.80561 2.29491,1.09281 5.82588,1.38214 11.43619,0.60833 10.20811,-1.40802 14.83832,-3.61861 15.63349,-4.01485 0.30131,0.41428 0.47429,0.94547 0.91244,1.15581 0.80022,0.38409 1.67018,0.48664 2.61577,0.48664 1.19602,0 2.32836,-0.36452 3.46732,-0.66913 -0.0734,0.27738 -0.41437,0.52847 -0.36496,0.85161 0.0812,0.5321 0.47582,1.0232 0.91243,1.21663 0.43661,0.19352 0.90911,0.24321 1.39911,0.24321 1.61748,0 4.54259,-0.7514 7.78633,-1.58159 -0.12952,0.53465 -0.25504,1.14775 0.0609,1.82493 0.17395,0.3724 0.50807,0.73043 0.91244,0.91246 0.40436,0.18202 0.84906,0.20128 1.33828,0.18233 2.48596,-0.6072 3.65952,-2.01566 3.28487,-2.85905 -1.65939,0.64532 -2.76776,0.89042 -3.34573,0.91247 -0.25284,0.009 -0.37559,0.0185 -0.42579,0 0.006,-0.0185 -0.0358,-0.28701 0.0605,-0.66913 0.10528,-0.41653 0.30533,-0.85628 0.42582,-1.33828 l 0.42582,-1.64245 -1.64242,0.42582 c -4.36444,1.13855 -7.5146,1.88576 -8.88131,1.88576 -0.16927,0 -0.20626,0.0156 -0.3041,0 0.0502,-0.0126 0.12272,-0.33589 0.72998,-1.09495 l -1.15577,-1.45994 c -1.18673,0.50858 -3.15336,0.91244 -4.68398,0.91244 -0.76531,0 -1.37618,-0.11802 -1.7641,-0.30408 -0.38789,-0.18638 -0.49829,-0.32499 -0.54747,-0.66915 z m -32.0578,13.62609 c -7.13603,4.65392 -26.34557,10.25598 -29.13793,11.49699 -2.79235,1.24106 -16.78929,11.13202 -16.78929,11.13202 0,0 5.93674,-1.81853 10.28042,-5.23142 4.34364,-3.41285 8.97215,-5.32866 13.62608,-6.5697 4.65392,-1.24107 12.71287,-4.00215 22.02072,-10.82789 z m -22.32489,1.88575 c 0,0 -9.31883,1.53275 -14.90351,4.01482 -5.58471,2.48211 -11.76429,4.05124 -16.72847,5.29228 -4.96417,1.24104 -13.01775,4.31899 -13.01775,4.31899 8.99754,-1.55129 20.43251,-4.02069 26.948,-6.81305 6.51547,-2.79235 17.70173,-6.81304 17.70173,-6.81304 z m 245.14786,7.543 c -0.6274,0.40721 -0.0317,3.42264 0.54747,5.35313 -1.85325,0 -6.80777,-0.58471 -11.132,-2.12909 0.61772,2.16213 5.59639,4.31898 5.59639,4.31898 l -6.81305,0.91247 6.81305,1.8249 c 0,0 -11.41675,0.6461 -16.66762,-1.8249 0.92662,5.25084 8.94214,5.83975 8.94214,5.83975 0,0 -6.48058,0.0326 -8.33381,1.88576 2.471,0 4.62786,2.46102 4.31899,4.62315 -3.08877,-0.61778 -11.42151,-0.30473 -16.36351,3.71065 -1.23548,4.94197 -1.24489,9.5735 0.60833,12.04446 -6.48635,2.471 -14.52854,-1.21133 -19.1617,-5.53558 0.30878,5.55977 8.94214,8.02967 8.94214,8.02967 0,0 -1.50659,2.17104 -2.43323,3.40652 -0.92661,1.23549 -6.78889,0.29943 -12.34866,0.6083 8.95738,2.77987 5.5178,6.74695 -1.27742,11.0712 -12.59787,7.65169 -11.41951,7.41836 -28.16463,19.58749 -13.17533,9.57484 -26.1567,0.21558 -30.17205,-1.94658 l 4.45036,6.64759 c 9.03249,13.49188 40.24668,-11.91819 44.27508,-14.49475 7.89466,-5.04948 24.12579,-14.65265 17.27588,-19.04002 2.00773,0.30875 5.732,-0.12178 6.81308,-0.12178 1.08105,0 3.36429,-3.12541 4.13647,-5.59641 2.16213,0.46334 5.39451,0.32779 10.64538,-1.2166 -3.08874,-2.62543 -2.75628,-8.35661 -1.52076,-12.8353 6.02304,-3.86092 12.20787,-3.20541 15.45098,-2.4332 0.77221,-1.08108 0.15004,-4.22039 -1.70321,-6.69139 2.9343,-0.77221 7.11717,-1.52076 7.11717,-1.52076 0,0 -3.03638,-2.05039 -7.96881,-3.46735 5.57235,1.22544 15.69432,-0.24322 15.69432,-0.24322 l -4.1973,-2.00744 4.62312,-0.79078 c 0,0 -0.43445,-0.60331 -5.83975,-2.91987 4.16979,1.38986 9.73289,1.27743 9.73289,1.27743 0,0 -0.78605,-1.12271 -1.09492,-3.28484 -0.30878,-2.16213 2.02128,0.94496 3.10236,2.79819 0.58304,0.87937 -0.30784,-3.54766 -1.15581,-2.91988 -1.50577,-2.43238 -2.36092,-3.16418 -2.73736,-2.91987 z m -215.03664,1.7641 c -1.86157,1.24104 -7.14139,2.1716 -9.00293,3.10239 -5.58474,4.65392 -9.9218,5.26219 -6.50891,0.60827 l -12.10532,10.52375 c 4.96421,-0.93081 16.12601,-7.44558 18.91839,-9.30712 2.79233,-1.86157 4.04484,-0.8939 8.69877,-4.92729 z m 21.10825,1.21663 c -8.9976,4.34367 -28.88213,13.98468 -32.60527,17.39757 0,0 22.05642,-9.64104 32.60527,-17.39757 z M 400.85148,340.4416 c 0.98866,-0.19788 9.87417,0.73598 9.08324,2.911 -0.79094,2.17505 -4.62479,8.09963 -5.61348,8.49511 -0.98866,0.39545 -8.02478,-2.91015 -8.02478,-2.91015 0,0 3.56632,-8.29823 4.55502,-8.49596 z m -51.75967,15.43069 c 1.87848,-0.24726 3.10264,0.74463 1.52077,3.71065 -3.16375,5.93204 -8.3036,2.37281 -7.11718,0 1.18639,-1.97736 3.71793,-3.46349 5.59641,-3.71065 z m 335.07191,25.20416 c 3.05257,0.0155 3.58078,0.96106 3.58078,0.96106 0.48664,2.91987 2.25075,7.50657 4.19733,9.45314 1.94658,1.9466 3.13078,9.42877 3.13078,13.32193 0,1.22241 -3.53238,3.7372 -2.00741,9.66811 1.49792,5.82576 7.20623,23.121 10.93333,41.85154 1.31014,6.58417 3.88002,19.98244 3.08215,25.76381 0.84144,-1.7566 2.94092,-3.00438 4.14868,-7.60784 1.29668,-4.94231 0.53069,-24.40776 -3.94179,-43.25884 -4.24929,-17.9109 -8.31762,-25.70298 -8.31762,-29.10953 0,-3.40652 1.71949,-11.90662 0.25968,-13.85317 0,0 4.98027,1.2805 10.16278,2.09665 0.7441,-0.50826 0.12765,-1.02574 0.42579,-2.85904 1.45953,-0.55394 1.61763,-3.26228 1.78434,-1.74789 l 0.66912,6.07906 c 0.4081,3.70752 2.63855,7.4835 5.59641,12.79068 1.15264,2.06808 -2.04399,17.44158 0.85164,42.05024 2.59105,22.01993 4.74045,28.06221 7.19422,33.30282 2.15259,4.59727 5.10578,7.44973 5.10578,7.44973 5.57524,2.3703 9.60794,0.114 21.82205,2.7374 4.30851,0.92532 8.70856,3.17629 11.37935,5.49097 0,0 6.31881,1.34911 10.87251,3.43896 4.91395,2.25517 13.01706,5.51896 12.21875,5.99783 -2.80729,-0.35988 -9.4594,-2.79782 -13.31775,-4.34741 -10.16124,-3.65438 -15.13063,0.3488 -15.13063,0.3488 -5.16353,-1.42442 -14.76519,-3.79259 -21.88686,-3.66206 -7.31465,0.1342 -8.91381,0.70163 -12.8353,0.57586 -4.07119,-0.13043 -7.38837,0.9439 -10.8481,-0.72995 -2.0538,-0.99368 -0.80828,-6.41188 -3.45511,-8.53649 -1.28762,-1.03361 -3.09241,-3.31109 -3.90139,-5.08956 -2.32795,-0.58716 -7.60796,-2.25423 -10.34523,-1.47214 -1.23379,-3.97169 -2.08163,-9.69869 -1.06254,-14.47355 1.47707,-6.92074 -0.0771,-11.03877 -4.45682,-31.96454 -4.37982,-20.92577 -12.27563,-39.50756 -12.76228,-43.40076 -0.2578,-2.06149 0.29978,-6.06332 0.87586,-8.83262 2.22164,-1.83375 4.1461,-2.4422 5.97765,-2.4332 z"
       id="path3000"
       inkscape:connector-curvature="0"
       sodipodi:nodetypes="ccccccccccccccccccccccccccccccccccccccccccccccccccccccsssssccsssssccccccssscsssssscccccccscccccccccccsscsssscssccsssssssscccscsssscssssscsccccccsssssccsccssscscsssscccccccccscccccssscsssccccsscccccccccsscssssssccsssssscccscccscsscccscccccccccccscccsccccscssccsscscccccccccccccccsccsccscsccccccccccccscccccccsccccssscssscsscscsscssscccccssscscscccccssccssscsscc" />
  </g>
</svg>
